<svg width="500" height="834" viewBox="0 0 500 834" fill="none" xmlns="http://www.w3.org/2000/svg">
<rect width="500" height="834" rx="20" fill="#F5F5F5"/>
<path d="M62.5 42C55.5964 42 50 47.5964 50 54.5C50 61.4037 55.5964 67 62.5 67C55.5964 67 50 72.5963 50 79.5C50 86.4037 55.5964 92 62.5 92C69.4037 92 75 86.4037 75 79.5C75 86.4037 80.5963 92 87.5 92C94.4037 92 100 86.4037 100 79.5C100 72.5963 94.4037 67 87.5 67C94.4037 67 100 61.4037 100 54.5C100 47.5964 94.4037 42 87.5 42C80.5963 42 75 47.5964 75 54.5C75 47.5964 69.4037 42 62.5 42Z" fill="#101010"/>
<path d="M62.5 42C69.2959 42 74.8252 47.4231 74.9961 54.1777L75 54.5V67H62.5C55.5964 67 50 61.4037 50 54.5C50 47.5964 55.5964 42 62.5 42Z" fill="#ABFF00"/>
<path d="M62.5 92C55.5964 92 50 97.5964 50 104.5C50 111.404 55.5964 117 62.5 117C55.5964 117 50 122.596 50 129.5C50 136.404 55.5964 142 62.5 142C69.4037 142 75 136.404 75 129.5C75 136.404 80.5963 142 87.5 142C94.4037 142 100 136.404 100 129.5C100 122.596 94.4037 117 87.5 117C94.4037 117 100 111.404 100 104.5C100 97.5964 94.4037 92 87.5 92C80.5963 92 75 97.5964 75 104.5C75 97.5964 69.4037 92 62.5 92Z" fill="#101010"/>
<path d="M62.5 92C69.2959 92 74.8252 97.4231 74.9961 104.178L75 104.5V117H62.5C55.5964 117 50 111.404 50 104.5C50 97.5964 55.5964 92 62.5 92Z" fill="#ABFF00"/>
<path d="M62.5 142C55.5964 142 50 147.596 50 154.5C50 161.404 55.5964 167 62.5 167C55.5964 167 50 172.596 50 179.5C50 186.404 55.5964 192 62.5 192C69.4037 192 75 186.404 75 179.5C75 186.404 80.5963 192 87.5 192C94.4037 192 100 186.404 100 179.5C100 172.596 94.4037 167 87.5 167C94.4037 167 100 161.404 100 154.5C100 147.596 94.4037 142 87.5 142C80.5963 142 75 147.596 75 154.5C75 147.596 69.4037 142 62.5 142Z" fill="#101010"/>
<path d="M62.5 142C69.2959 142 74.8252 147.423 74.9961 154.178L75 154.5V167H62.5C55.5964 167 50 161.404 50 154.5C50 147.596 55.5964 142 62.5 142Z" fill="#ABFF00"/>
<path d="M62.5 192C55.5964 192 50 197.596 50 204.5C50 211.404 55.5964 217 62.5 217C55.5964 217 50 222.596 50 229.5C50 236.404 55.5964 242 62.5 242C69.4037 242 75 236.404 75 229.5C75 236.404 80.5963 242 87.5 242C94.4037 242 100 236.404 100 229.5C100 222.596 94.4037 217 87.5 217C94.4037 217 100 211.404 100 204.5C100 197.596 94.4037 192 87.5 192C80.5963 192 75 197.596 75 204.5C75 197.596 69.4037 192 62.5 192Z" fill="#101010"/>
<path d="M62.5 192C69.2959 192 74.8252 197.423 74.9961 204.178L75 204.5V217H62.5C55.5964 217 50 211.404 50 204.5C50 197.596 55.5964 192 62.5 192Z" fill="#ABFF00"/>
<path d="M62.5 242C55.5964 242 50 247.596 50 254.5C50 261.404 55.5964 267 62.5 267C55.5964 267 50 272.596 50 279.5C50 286.404 55.5964 292 62.5 292C69.4037 292 75 286.404 75 279.5C75 286.404 80.5963 292 87.5 292C94.4037 292 100 286.404 100 279.5C100 272.596 94.4037 267 87.5 267C94.4037 267 100 261.404 100 254.5C100 247.596 94.4037 242 87.5 242C80.5963 242 75 247.596 75 254.5C75 247.596 69.4037 242 62.5 242Z" fill="#101010"/>
<path d="M62.5 242C69.2959 242 74.8252 247.423 74.9961 254.178L75 254.5V267H62.5C55.5964 267 50 261.404 50 254.5C50 247.596 55.5964 242 62.5 242Z" fill="#ABFF00"/>
<path d="M62.5 292C55.5964 292 50 297.596 50 304.5C50 311.404 55.5964 317 62.5 317C55.5964 317 50 322.596 50 329.5C50 336.404 55.5964 342 62.5 342C69.4037 342 75 336.404 75 329.5C75 336.404 80.5963 342 87.5 342C94.4037 342 100 336.404 100 329.5C100 322.596 94.4037 317 87.5 317C94.4037 317 100 311.404 100 304.5C100 297.596 94.4037 292 87.5 292C80.5963 292 75 297.596 75 304.5C75 297.596 69.4037 292 62.5 292Z" fill="#101010"/>
<path d="M62.5 292C69.2959 292 74.8252 297.423 74.9961 304.178L75 304.5V317H62.5C55.5964 317 50 311.404 50 304.5C50 297.596 55.5964 292 62.5 292Z" fill="#ABFF00"/>
<path d="M62.5 342C55.5964 342 50 347.596 50 354.5C50 361.404 55.5964 367 62.5 367C55.5964 367 50 372.596 50 379.5C50 386.404 55.5964 392 62.5 392C69.4037 392 75 386.404 75 379.5C75 386.404 80.5963 392 87.5 392C94.4037 392 100 386.404 100 379.5C100 372.596 94.4037 367 87.5 367C94.4037 367 100 361.404 100 354.5C100 347.596 94.4037 342 87.5 342C80.5963 342 75 347.596 75 354.5C75 347.596 69.4037 342 62.5 342Z" fill="#101010"/>
<path d="M62.5 342C69.2959 342 74.8252 347.423 74.9961 354.178L75 354.5V367H62.5C55.5964 367 50 361.404 50 354.5C50 347.596 55.5964 342 62.5 342Z" fill="#ABFF00"/>
<path d="M62.5 392C55.5964 392 50 397.596 50 404.5C50 411.404 55.5964 417 62.5 417C55.5964 417 50 422.596 50 429.5C50 436.404 55.5964 442 62.5 442C69.4037 442 75 436.404 75 429.5C75 436.404 80.5963 442 87.5 442C94.4037 442 100 436.404 100 429.5C100 422.596 94.4037 417 87.5 417C94.4037 417 100 411.404 100 404.5C100 397.596 94.4037 392 87.5 392C80.5963 392 75 397.596 75 404.5C75 397.596 69.4037 392 62.5 392Z" fill="#101010"/>
<path d="M62.5 392C69.2959 392 74.8252 397.423 74.9961 404.178L75 404.5V417H62.5C55.5964 417 50 411.404 50 404.5C50 397.596 55.5964 392 62.5 392Z" fill="#ABFF00"/>
<path d="M62.5 442C55.5964 442 50 447.596 50 454.5C50 461.404 55.5964 467 62.5 467C55.5964 467 50 472.596 50 479.5C50 486.404 55.5964 492 62.5 492C69.4037 492 75 486.404 75 479.5C75 486.404 80.5963 492 87.5 492C94.4037 492 100 486.404 100 479.5C100 472.596 94.4037 467 87.5 467C94.4037 467 100 461.404 100 454.5C100 447.596 94.4037 442 87.5 442C80.5963 442 75 447.596 75 454.5C75 447.596 69.4037 442 62.5 442Z" fill="#101010"/>
<path d="M62.5 442C69.2959 442 74.8252 447.423 74.9961 454.178L75 454.5V467H62.5C55.5964 467 50 461.404 50 454.5C50 447.596 55.5964 442 62.5 442Z" fill="#ABFF00"/>
<path d="M62.5 492C55.5964 492 50 497.596 50 504.5C50 511.404 55.5964 517 62.5 517C55.5964 517 50 522.596 50 529.5C50 536.404 55.5964 542 62.5 542C69.4037 542 75 536.404 75 529.5C75 536.404 80.5963 542 87.5 542C94.4037 542 100 536.404 100 529.5C100 522.596 94.4037 517 87.5 517C94.4037 517 100 511.404 100 504.5C100 497.596 94.4037 492 87.5 492C80.5963 492 75 497.596 75 504.5C75 497.596 69.4037 492 62.5 492Z" fill="#101010"/>
<path d="M62.5 492C69.2959 492 74.8252 497.423 74.9961 504.178L75 504.5V517H62.5C55.5964 517 50 511.404 50 504.5C50 497.596 55.5964 492 62.5 492Z" fill="#ABFF00"/>
<path d="M62.5 542C55.5964 542 50 547.596 50 554.5C50 561.404 55.5964 567 62.5 567C55.5964 567 50 572.596 50 579.5C50 586.404 55.5964 592 62.5 592C69.4037 592 75 586.404 75 579.5C75 586.404 80.5963 592 87.5 592C94.4037 592 100 586.404 100 579.5C100 572.596 94.4037 567 87.5 567C94.4037 567 100 561.404 100 554.5C100 547.596 94.4037 542 87.5 542C80.5963 542 75 547.596 75 554.5C75 547.596 69.4037 542 62.5 542Z" fill="#101010"/>
<path d="M62.5 542C69.2959 542 74.8252 547.423 74.9961 554.178L75 554.5V567H62.5C55.5964 567 50 561.404 50 554.5C50 547.596 55.5964 542 62.5 542Z" fill="#ABFF00"/>
<path d="M62.5 592C55.5964 592 50 597.596 50 604.5C50 611.404 55.5964 617 62.5 617C55.5964 617 50 622.596 50 629.5C50 636.404 55.5964 642 62.5 642C69.4037 642 75 636.404 75 629.5C75 636.404 80.5963 642 87.5 642C94.4037 642 100 636.404 100 629.5C100 622.596 94.4037 617 87.5 617C94.4037 617 100 611.404 100 604.5C100 597.596 94.4037 592 87.5 592C80.5963 592 75 597.596 75 604.5C75 597.596 69.4037 592 62.5 592Z" fill="#101010"/>
<path d="M62.5 592C69.2959 592 74.8252 597.423 74.9961 604.178L75 604.5V617H62.5C55.5964 617 50 611.404 50 604.5C50 597.596 55.5964 592 62.5 592Z" fill="#ABFF00"/>
<path d="M112.5 42C105.596 42 100 47.5964 100 54.5C100 61.4037 105.596 67 112.5 67C105.596 67 100 72.5963 100 79.5C100 86.4037 105.596 92 112.5 92C119.404 92 125 86.4037 125 79.5C125 86.4037 130.596 92 137.5 92C144.404 92 150 86.4037 150 79.5C150 72.5963 144.404 67 137.5 67C144.404 67 150 61.4037 150 54.5C150 47.5964 144.404 42 137.5 42C130.596 42 125 47.5964 125 54.5C125 47.5964 119.404 42 112.5 42Z" fill="#101010"/>
<path d="M112.5 42C119.296 42 124.825 47.4231 124.996 54.1777L125 54.5V67H112.5C105.596 67 100 61.4037 100 54.5C100 47.5964 105.596 42 112.5 42Z" fill="#ABFF00"/>
<path d="M112.5 92C105.596 92 100 97.5964 100 104.5C100 111.404 105.596 117 112.5 117C105.596 117 100 122.596 100 129.5C100 136.404 105.596 142 112.5 142C119.404 142 125 136.404 125 129.5C125 136.404 130.596 142 137.5 142C144.404 142 150 136.404 150 129.5C150 122.596 144.404 117 137.5 117C144.404 117 150 111.404 150 104.5C150 97.5964 144.404 92 137.5 92C130.596 92 125 97.5964 125 104.5C125 97.5964 119.404 92 112.5 92Z" fill="#101010"/>
<path d="M112.5 92C119.296 92 124.825 97.4231 124.996 104.178L125 104.5V117H112.5C105.596 117 100 111.404 100 104.5C100 97.5964 105.596 92 112.5 92Z" fill="#ABFF00"/>
<path d="M112.5 142C105.596 142 100 147.596 100 154.5C100 161.404 105.596 167 112.5 167C105.596 167 100 172.596 100 179.5C100 186.404 105.596 192 112.5 192C119.404 192 125 186.404 125 179.5C125 186.404 130.596 192 137.5 192C144.404 192 150 186.404 150 179.5C150 172.596 144.404 167 137.5 167C144.404 167 150 161.404 150 154.5C150 147.596 144.404 142 137.5 142C130.596 142 125 147.596 125 154.5C125 147.596 119.404 142 112.5 142Z" fill="#101010"/>
<path d="M112.5 142C119.296 142 124.825 147.423 124.996 154.178L125 154.5V167H112.5C105.596 167 100 161.404 100 154.5C100 147.596 105.596 142 112.5 142Z" fill="#ABFF00"/>
<path d="M112.5 192C105.596 192 100 197.596 100 204.5C100 211.404 105.596 217 112.5 217C105.596 217 100 222.596 100 229.5C100 236.404 105.596 242 112.5 242C119.404 242 125 236.404 125 229.5C125 236.404 130.596 242 137.5 242C144.404 242 150 236.404 150 229.5C150 222.596 144.404 217 137.5 217C144.404 217 150 211.404 150 204.5C150 197.596 144.404 192 137.5 192C130.596 192 125 197.596 125 204.5C125 197.596 119.404 192 112.5 192Z" fill="#101010"/>
<path d="M112.5 192C119.296 192 124.825 197.423 124.996 204.178L125 204.5V217H112.5C105.596 217 100 211.404 100 204.5C100 197.596 105.596 192 112.5 192Z" fill="#ABFF00"/>
<path d="M112.5 242C105.596 242 100 247.596 100 254.5C100 261.404 105.596 267 112.5 267C105.596 267 100 272.596 100 279.5C100 286.404 105.596 292 112.5 292C119.404 292 125 286.404 125 279.5C125 286.404 130.596 292 137.5 292C144.404 292 150 286.404 150 279.5C150 272.596 144.404 267 137.5 267C144.404 267 150 261.404 150 254.5C150 247.596 144.404 242 137.5 242C130.596 242 125 247.596 125 254.5C125 247.596 119.404 242 112.5 242Z" fill="#101010"/>
<path d="M112.5 242C119.296 242 124.825 247.423 124.996 254.178L125 254.5V267H112.5C105.596 267 100 261.404 100 254.5C100 247.596 105.596 242 112.5 242Z" fill="#ABFF00"/>
<path d="M112.5 292C105.596 292 100 297.596 100 304.5C100 311.404 105.596 317 112.5 317C105.596 317 100 322.596 100 329.5C100 336.404 105.596 342 112.5 342C119.404 342 125 336.404 125 329.5C125 336.404 130.596 342 137.5 342C144.404 342 150 336.404 150 329.5C150 322.596 144.404 317 137.5 317C144.404 317 150 311.404 150 304.5C150 297.596 144.404 292 137.5 292C130.596 292 125 297.596 125 304.5C125 297.596 119.404 292 112.5 292Z" fill="#101010"/>
<path d="M112.5 292C119.296 292 124.825 297.423 124.996 304.178L125 304.5V317H112.5C105.596 317 100 311.404 100 304.5C100 297.596 105.596 292 112.5 292Z" fill="#ABFF00"/>
<path d="M112.5 342C105.596 342 100 347.596 100 354.5C100 361.404 105.596 367 112.5 367C105.596 367 100 372.596 100 379.5C100 386.404 105.596 392 112.5 392C119.404 392 125 386.404 125 379.5C125 386.404 130.596 392 137.5 392C144.404 392 150 386.404 150 379.5C150 372.596 144.404 367 137.5 367C144.404 367 150 361.404 150 354.5C150 347.596 144.404 342 137.5 342C130.596 342 125 347.596 125 354.5C125 347.596 119.404 342 112.5 342Z" fill="#101010"/>
<path d="M112.5 342C119.296 342 124.825 347.423 124.996 354.178L125 354.5V367H112.5C105.596 367 100 361.404 100 354.5C100 347.596 105.596 342 112.5 342Z" fill="#ABFF00"/>
<path d="M112.5 392C105.596 392 100 397.596 100 404.5C100 411.404 105.596 417 112.5 417C105.596 417 100 422.596 100 429.5C100 436.404 105.596 442 112.5 442C119.404 442 125 436.404 125 429.5C125 436.404 130.596 442 137.5 442C144.404 442 150 436.404 150 429.5C150 422.596 144.404 417 137.5 417C144.404 417 150 411.404 150 404.5C150 397.596 144.404 392 137.5 392C130.596 392 125 397.596 125 404.5C125 397.596 119.404 392 112.5 392Z" fill="#101010"/>
<path d="M112.5 392C119.296 392 124.825 397.423 124.996 404.178L125 404.5V417H112.5C105.596 417 100 411.404 100 404.5C100 397.596 105.596 392 112.5 392Z" fill="#ABFF00"/>
<path d="M112.5 442C105.596 442 100 447.596 100 454.5C100 461.404 105.596 467 112.5 467C105.596 467 100 472.596 100 479.5C100 486.404 105.596 492 112.5 492C119.404 492 125 486.404 125 479.5C125 486.404 130.596 492 137.5 492C144.404 492 150 486.404 150 479.5C150 472.596 144.404 467 137.5 467C144.404 467 150 461.404 150 454.5C150 447.596 144.404 442 137.5 442C130.596 442 125 447.596 125 454.5C125 447.596 119.404 442 112.5 442Z" fill="#101010"/>
<path d="M112.5 442C119.296 442 124.825 447.423 124.996 454.178L125 454.5V467H112.5C105.596 467 100 461.404 100 454.5C100 447.596 105.596 442 112.5 442Z" fill="#ABFF00"/>
<path d="M112.5 492C105.596 492 100 497.596 100 504.5C100 511.404 105.596 517 112.5 517C105.596 517 100 522.596 100 529.5C100 536.404 105.596 542 112.5 542C119.404 542 125 536.404 125 529.5C125 536.404 130.596 542 137.5 542C144.404 542 150 536.404 150 529.5C150 522.596 144.404 517 137.5 517C144.404 517 150 511.404 150 504.5C150 497.596 144.404 492 137.5 492C130.596 492 125 497.596 125 504.5C125 497.596 119.404 492 112.5 492Z" fill="#101010"/>
<path d="M112.5 492C119.296 492 124.825 497.423 124.996 504.178L125 504.5V517H112.5C105.596 517 100 511.404 100 504.5C100 497.596 105.596 492 112.5 492Z" fill="#ABFF00"/>
<path d="M112.5 542C105.596 542 100 547.596 100 554.5C100 561.404 105.596 567 112.5 567C105.596 567 100 572.596 100 579.5C100 586.404 105.596 592 112.5 592C119.404 592 125 586.404 125 579.5C125 586.404 130.596 592 137.5 592C144.404 592 150 586.404 150 579.5C150 572.596 144.404 567 137.5 567C144.404 567 150 561.404 150 554.5C150 547.596 144.404 542 137.5 542C130.596 542 125 547.596 125 554.5C125 547.596 119.404 542 112.5 542Z" fill="#101010"/>
<path d="M112.5 542C119.296 542 124.825 547.423 124.996 554.178L125 554.5V567H112.5C105.596 567 100 561.404 100 554.5C100 547.596 105.596 542 112.5 542Z" fill="#ABFF00"/>
<path d="M112.5 592C105.596 592 100 597.596 100 604.5C100 611.404 105.596 617 112.5 617C105.596 617 100 622.596 100 629.5C100 636.404 105.596 642 112.5 642C119.404 642 125 636.404 125 629.5C125 636.404 130.596 642 137.5 642C144.404 642 150 636.404 150 629.5C150 622.596 144.404 617 137.5 617C144.404 617 150 611.404 150 604.5C150 597.596 144.404 592 137.5 592C130.596 592 125 597.596 125 604.5C125 597.596 119.404 592 112.5 592Z" fill="#101010"/>
<path d="M112.5 592C119.296 592 124.825 597.423 124.996 604.178L125 604.5V617H112.5C105.596 617 100 611.404 100 604.5C100 597.596 105.596 592 112.5 592Z" fill="#ABFF00"/>
<path d="M162.5 42C155.596 42 150 47.5964 150 54.5C150 61.4037 155.596 67 162.5 67C155.596 67 150 72.5963 150 79.5C150 86.4037 155.596 92 162.5 92C169.404 92 175 86.4037 175 79.5C175 86.4037 180.596 92 187.5 92C194.404 92 200 86.4037 200 79.5C200 72.5963 194.404 67 187.5 67C194.404 67 200 61.4037 200 54.5C200 47.5964 194.404 42 187.5 42C180.596 42 175 47.5964 175 54.5C175 47.5964 169.404 42 162.5 42Z" fill="#101010"/>
<path d="M162.5 42C169.296 42 174.825 47.4231 174.996 54.1777L175 54.5V67H162.5C155.596 67 150 61.4037 150 54.5C150 47.5964 155.596 42 162.5 42Z" fill="#ABFF00"/>
<path d="M212.5 42C205.596 42 200 47.5964 200 54.5C200 61.4037 205.596 67 212.5 67C205.596 67 200 72.5963 200 79.5C200 86.4037 205.596 92 212.5 92C219.404 92 225 86.4037 225 79.5C225 86.4037 230.596 92 237.5 92C244.404 92 250 86.4037 250 79.5C250 72.5963 244.404 67 237.5 67C244.404 67 250 61.4037 250 54.5C250 47.5964 244.404 42 237.5 42C230.596 42 225 47.5964 225 54.5C225 47.5964 219.404 42 212.5 42Z" fill="#101010"/>
<path d="M212.5 42C219.296 42 224.825 47.4231 224.996 54.1777L225 54.5V67H212.5C205.596 67 200 61.4037 200 54.5C200 47.5964 205.596 42 212.5 42Z" fill="#ABFF00"/>
<path d="M262.5 42C255.596 42 250 47.5964 250 54.5C250 61.4037 255.596 67 262.5 67C255.596 67 250 72.5963 250 79.5C250 86.4037 255.596 92 262.5 92C269.404 92 275 86.4037 275 79.5C275 86.4037 280.596 92 287.5 92C294.404 92 300 86.4037 300 79.5C300 72.5963 294.404 67 287.5 67C294.404 67 300 61.4037 300 54.5C300 47.5964 294.404 42 287.5 42C280.596 42 275 47.5964 275 54.5C275 47.5964 269.404 42 262.5 42Z" fill="#101010"/>
<path d="M262.5 42C269.296 42 274.825 47.4231 274.996 54.1777L275 54.5V67H262.5C255.596 67 250 61.4037 250 54.5C250 47.5964 255.596 42 262.5 42Z" fill="#ABFF00"/>
<path d="M312.5 42C305.596 42 300 47.5964 300 54.5C300 61.4037 305.596 67 312.5 67C305.596 67 300 72.5963 300 79.5C300 86.4037 305.596 92 312.5 92C319.404 92 325 86.4037 325 79.5C325 86.4037 330.596 92 337.5 92C344.404 92 350 86.4037 350 79.5C350 72.5963 344.404 67 337.5 67C344.404 67 350 61.4037 350 54.5C350 47.5964 344.404 42 337.5 42C330.596 42 325 47.5964 325 54.5C325 47.5964 319.404 42 312.5 42Z" fill="#101010"/>
<path d="M312.5 42C319.296 42 324.825 47.4231 324.996 54.1777L325 54.5V67H312.5C305.596 67 300 61.4037 300 54.5C300 47.5964 305.596 42 312.5 42Z" fill="#ABFF00"/>
<path d="M362.5 42C355.596 42 350 47.5964 350 54.5C350 61.4037 355.596 67 362.5 67C355.596 67 350 72.5963 350 79.5C350 86.4037 355.596 92 362.5 92C369.404 92 375 86.4037 375 79.5C375 86.4037 380.596 92 387.5 92C394.404 92 400 86.4037 400 79.5C400 72.5963 394.404 67 387.5 67C394.404 67 400 61.4037 400 54.5C400 47.5964 394.404 42 387.5 42C380.596 42 375 47.5964 375 54.5C375 47.5964 369.404 42 362.5 42Z" fill="#101010"/>
<path d="M362.5 42C369.296 42 374.825 47.4231 374.996 54.1777L375 54.5V67H362.5C355.596 67 350 61.4037 350 54.5C350 47.5964 355.596 42 362.5 42Z" fill="#ABFF00"/>
<path d="M412.5 42C405.596 42 400 47.5964 400 54.5C400 61.4037 405.596 67 412.5 67C405.596 67 400 72.5963 400 79.5C400 86.4037 405.596 92 412.5 92C419.404 92 425 86.4037 425 79.5C425 86.4037 430.596 92 437.5 92C444.404 92 450 86.4037 450 79.5C450 72.5963 444.404 67 437.5 67C444.404 67 450 61.4037 450 54.5C450 47.5964 444.404 42 437.5 42C430.596 42 425 47.5964 425 54.5C425 47.5964 419.404 42 412.5 42Z" fill="#101010"/>
<path d="M412.5 42C419.296 42 424.825 47.4231 424.996 54.1777L425 54.5V67H412.5C405.596 67 400 61.4037 400 54.5C400 47.5964 405.596 42 412.5 42Z" fill="#ABFF00"/>
<path d="M162.5 92C155.596 92 150 97.5964 150 104.5C150 111.404 155.596 117 162.5 117C155.596 117 150 122.596 150 129.5C150 136.404 155.596 142 162.5 142C169.404 142 175 136.404 175 129.5C175 136.404 180.596 142 187.5 142C194.404 142 200 136.404 200 129.5C200 122.596 194.404 117 187.5 117C194.404 117 200 111.404 200 104.5C200 97.5964 194.404 92 187.5 92C180.596 92 175 97.5964 175 104.5C175 97.5964 169.404 92 162.5 92Z" fill="#101010"/>
<path d="M162.5 92C169.296 92 174.825 97.4231 174.996 104.178L175 104.5V117H162.5C155.596 117 150 111.404 150 104.5C150 97.5964 155.596 92 162.5 92Z" fill="#ABFF00"/>
<path d="M212.5 92C205.596 92 200 97.5964 200 104.5C200 111.404 205.596 117 212.5 117C205.596 117 200 122.596 200 129.5C200 136.404 205.596 142 212.5 142C219.404 142 225 136.404 225 129.5C225 136.404 230.596 142 237.5 142C244.404 142 250 136.404 250 129.5C250 122.596 244.404 117 237.5 117C244.404 117 250 111.404 250 104.5C250 97.5964 244.404 92 237.5 92C230.596 92 225 97.5964 225 104.5C225 97.5964 219.404 92 212.5 92Z" fill="#101010"/>
<path d="M212.5 92C219.296 92 224.825 97.4231 224.996 104.178L225 104.5V117H212.5C205.596 117 200 111.404 200 104.5C200 97.5964 205.596 92 212.5 92Z" fill="#ABFF00"/>
<path d="M262.5 92C255.596 92 250 97.5964 250 104.5C250 111.404 255.596 117 262.5 117C255.596 117 250 122.596 250 129.5C250 136.404 255.596 142 262.5 142C269.404 142 275 136.404 275 129.5C275 136.404 280.596 142 287.5 142C294.404 142 300 136.404 300 129.5C300 122.596 294.404 117 287.5 117C294.404 117 300 111.404 300 104.5C300 97.5964 294.404 92 287.5 92C280.596 92 275 97.5964 275 104.5C275 97.5964 269.404 92 262.5 92Z" fill="#101010"/>
<path d="M262.5 92C269.296 92 274.825 97.4231 274.996 104.178L275 104.5V117H262.5C255.596 117 250 111.404 250 104.5C250 97.5964 255.596 92 262.5 92Z" fill="#ABFF00"/>
<path d="M312.5 92C305.596 92 300 97.5964 300 104.5C300 111.404 305.596 117 312.5 117C305.596 117 300 122.596 300 129.5C300 136.404 305.596 142 312.5 142C319.404 142 325 136.404 325 129.5C325 136.404 330.596 142 337.5 142C344.404 142 350 136.404 350 129.5C350 122.596 344.404 117 337.5 117C344.404 117 350 111.404 350 104.5C350 97.5964 344.404 92 337.5 92C330.596 92 325 97.5964 325 104.5C325 97.5964 319.404 92 312.5 92Z" fill="#101010"/>
<path d="M312.5 92C319.296 92 324.825 97.4231 324.996 104.178L325 104.5V117H312.5C305.596 117 300 111.404 300 104.5C300 97.5964 305.596 92 312.5 92Z" fill="#ABFF00"/>
<path d="M362.5 92C355.596 92 350 97.5964 350 104.5C350 111.404 355.596 117 362.5 117C355.596 117 350 122.596 350 129.5C350 136.404 355.596 142 362.5 142C369.404 142 375 136.404 375 129.5C375 136.404 380.596 142 387.5 142C394.404 142 400 136.404 400 129.5C400 122.596 394.404 117 387.5 117C394.404 117 400 111.404 400 104.5C400 97.5964 394.404 92 387.5 92C380.596 92 375 97.5964 375 104.5C375 97.5964 369.404 92 362.5 92Z" fill="#101010"/>
<path d="M362.5 92C369.296 92 374.825 97.4231 374.996 104.178L375 104.5V117H362.5C355.596 117 350 111.404 350 104.5C350 97.5964 355.596 92 362.5 92Z" fill="#ABFF00"/>
<path d="M412.5 92C405.596 92 400 97.5964 400 104.5C400 111.404 405.596 117 412.5 117C405.596 117 400 122.596 400 129.5C400 136.404 405.596 142 412.5 142C419.404 142 425 136.404 425 129.5C425 136.404 430.596 142 437.5 142C444.404 142 450 136.404 450 129.5C450 122.596 444.404 117 437.5 117C444.404 117 450 111.404 450 104.5C450 97.5964 444.404 92 437.5 92C430.596 92 425 97.5964 425 104.5C425 97.5964 419.404 92 412.5 92Z" fill="#101010"/>
<path d="M412.5 92C419.296 92 424.825 97.4231 424.996 104.178L425 104.5V117H412.5C405.596 117 400 111.404 400 104.5C400 97.5964 405.596 92 412.5 92Z" fill="#ABFF00"/>
<path d="M162.5 142C155.596 142 150 147.596 150 154.5C150 161.404 155.596 167 162.5 167C155.596 167 150 172.596 150 179.5C150 186.404 155.596 192 162.5 192C169.404 192 175 186.404 175 179.5C175 186.404 180.596 192 187.5 192C194.404 192 200 186.404 200 179.5C200 172.596 194.404 167 187.5 167C194.404 167 200 161.404 200 154.5C200 147.596 194.404 142 187.5 142C180.596 142 175 147.596 175 154.5C175 147.596 169.404 142 162.5 142Z" fill="#101010"/>
<path d="M162.5 142C169.296 142 174.825 147.423 174.996 154.178L175 154.5V167H162.5C155.596 167 150 161.404 150 154.5C150 147.596 155.596 142 162.5 142Z" fill="#ABFF00"/>
<path d="M212.5 142C205.596 142 200 147.596 200 154.5C200 161.404 205.596 167 212.5 167C205.596 167 200 172.596 200 179.5C200 186.404 205.596 192 212.5 192C219.404 192 225 186.404 225 179.5C225 186.404 230.596 192 237.5 192C244.404 192 250 186.404 250 179.5C250 172.596 244.404 167 237.5 167C244.404 167 250 161.404 250 154.5C250 147.596 244.404 142 237.5 142C230.596 142 225 147.596 225 154.5C225 147.596 219.404 142 212.5 142Z" fill="#101010"/>
<path d="M212.5 142C219.296 142 224.825 147.423 224.996 154.178L225 154.5V167H212.5C205.596 167 200 161.404 200 154.5C200 147.596 205.596 142 212.5 142Z" fill="#ABFF00"/>
<path d="M262.5 142C255.596 142 250 147.596 250 154.5C250 161.404 255.596 167 262.5 167C255.596 167 250 172.596 250 179.5C250 186.404 255.596 192 262.5 192C269.404 192 275 186.404 275 179.5C275 186.404 280.596 192 287.5 192C294.404 192 300 186.404 300 179.5C300 172.596 294.404 167 287.5 167C294.404 167 300 161.404 300 154.5C300 147.596 294.404 142 287.5 142C280.596 142 275 147.596 275 154.5C275 147.596 269.404 142 262.5 142Z" fill="#101010"/>
<path d="M262.5 142C269.296 142 274.825 147.423 274.996 154.178L275 154.5V167H262.5C255.596 167 250 161.404 250 154.5C250 147.596 255.596 142 262.5 142Z" fill="#ABFF00"/>
<path d="M312.5 142C305.596 142 300 147.596 300 154.5C300 161.404 305.596 167 312.5 167C305.596 167 300 172.596 300 179.5C300 186.404 305.596 192 312.5 192C319.404 192 325 186.404 325 179.5C325 186.404 330.596 192 337.5 192C344.404 192 350 186.404 350 179.5C350 172.596 344.404 167 337.5 167C344.404 167 350 161.404 350 154.5C350 147.596 344.404 142 337.5 142C330.596 142 325 147.596 325 154.5C325 147.596 319.404 142 312.5 142Z" fill="#101010"/>
<path d="M312.5 142C319.296 142 324.825 147.423 324.996 154.178L325 154.5V167H312.5C305.596 167 300 161.404 300 154.5C300 147.596 305.596 142 312.5 142Z" fill="#ABFF00"/>
<path d="M362.5 142C355.596 142 350 147.596 350 154.5C350 161.404 355.596 167 362.5 167C355.596 167 350 172.596 350 179.5C350 186.404 355.596 192 362.5 192C369.404 192 375 186.404 375 179.5C375 186.404 380.596 192 387.5 192C394.404 192 400 186.404 400 179.5C400 172.596 394.404 167 387.5 167C394.404 167 400 161.404 400 154.5C400 147.596 394.404 142 387.5 142C380.596 142 375 147.596 375 154.5C375 147.596 369.404 142 362.5 142Z" fill="#101010"/>
<path d="M362.5 142C369.296 142 374.825 147.423 374.996 154.178L375 154.5V167H362.5C355.596 167 350 161.404 350 154.5C350 147.596 355.596 142 362.5 142Z" fill="#ABFF00"/>
<path d="M412.5 142C405.596 142 400 147.596 400 154.5C400 161.404 405.596 167 412.5 167C405.596 167 400 172.596 400 179.5C400 186.404 405.596 192 412.5 192C419.404 192 425 186.404 425 179.5C425 186.404 430.596 192 437.5 192C444.404 192 450 186.404 450 179.5C450 172.596 444.404 167 437.5 167C444.404 167 450 161.404 450 154.5C450 147.596 444.404 142 437.5 142C430.596 142 425 147.596 425 154.5C425 147.596 419.404 142 412.5 142Z" fill="#101010"/>
<path d="M412.5 142C419.296 142 424.825 147.423 424.996 154.178L425 154.5V167H412.5C405.596 167 400 161.404 400 154.5C400 147.596 405.596 142 412.5 142Z" fill="#ABFF00"/>
<path d="M162.5 192C155.596 192 150 197.596 150 204.5C150 211.404 155.596 217 162.5 217C155.596 217 150 222.596 150 229.5C150 236.404 155.596 242 162.5 242C169.404 242 175 236.404 175 229.5C175 236.404 180.596 242 187.5 242C194.404 242 200 236.404 200 229.5C200 222.596 194.404 217 187.5 217C194.404 217 200 211.404 200 204.5C200 197.596 194.404 192 187.5 192C180.596 192 175 197.596 175 204.5C175 197.596 169.404 192 162.5 192Z" fill="#101010"/>
<path d="M162.5 192C169.296 192 174.825 197.423 174.996 204.178L175 204.5V217H162.5C155.596 217 150 211.404 150 204.5C150 197.596 155.596 192 162.5 192Z" fill="#ABFF00"/>
<path d="M212.5 192C205.596 192 200 197.596 200 204.5C200 211.404 205.596 217 212.5 217C205.596 217 200 222.596 200 229.5C200 236.404 205.596 242 212.5 242C219.404 242 225 236.404 225 229.5C225 236.404 230.596 242 237.5 242C244.404 242 250 236.404 250 229.5C250 222.596 244.404 217 237.5 217C244.404 217 250 211.404 250 204.5C250 197.596 244.404 192 237.5 192C230.596 192 225 197.596 225 204.5C225 197.596 219.404 192 212.5 192Z" fill="#101010"/>
<path d="M212.5 192C219.296 192 224.825 197.423 224.996 204.178L225 204.5V217H212.5C205.596 217 200 211.404 200 204.5C200 197.596 205.596 192 212.5 192Z" fill="#ABFF00"/>
<path d="M262.5 192C255.596 192 250 197.596 250 204.5C250 211.404 255.596 217 262.5 217C255.596 217 250 222.596 250 229.5C250 236.404 255.596 242 262.5 242C269.404 242 275 236.404 275 229.5C275 236.404 280.596 242 287.5 242C294.404 242 300 236.404 300 229.5C300 222.596 294.404 217 287.5 217C294.404 217 300 211.404 300 204.5C300 197.596 294.404 192 287.5 192C280.596 192 275 197.596 275 204.5C275 197.596 269.404 192 262.5 192Z" fill="#101010"/>
<path d="M262.5 192C269.296 192 274.825 197.423 274.996 204.178L275 204.5V217H262.5C255.596 217 250 211.404 250 204.5C250 197.596 255.596 192 262.5 192Z" fill="#ABFF00"/>
<path d="M312.5 192C305.596 192 300 197.596 300 204.5C300 211.404 305.596 217 312.5 217C305.596 217 300 222.596 300 229.5C300 236.404 305.596 242 312.5 242C319.404 242 325 236.404 325 229.5C325 236.404 330.596 242 337.5 242C344.404 242 350 236.404 350 229.5C350 222.596 344.404 217 337.5 217C344.404 217 350 211.404 350 204.5C350 197.596 344.404 192 337.5 192C330.596 192 325 197.596 325 204.5C325 197.596 319.404 192 312.5 192Z" fill="#101010"/>
<path d="M312.5 192C319.296 192 324.825 197.423 324.996 204.178L325 204.5V217H312.5C305.596 217 300 211.404 300 204.5C300 197.596 305.596 192 312.5 192Z" fill="#ABFF00"/>
<path d="M362.5 192C355.596 192 350 197.596 350 204.5C350 211.404 355.596 217 362.5 217C355.596 217 350 222.596 350 229.5C350 236.404 355.596 242 362.5 242C369.404 242 375 236.404 375 229.5C375 236.404 380.596 242 387.5 242C394.404 242 400 236.404 400 229.5C400 222.596 394.404 217 387.5 217C394.404 217 400 211.404 400 204.5C400 197.596 394.404 192 387.5 192C380.596 192 375 197.596 375 204.5C375 197.596 369.404 192 362.5 192Z" fill="#101010"/>
<path d="M362.5 192C369.296 192 374.825 197.423 374.996 204.178L375 204.5V217H362.5C355.596 217 350 211.404 350 204.5C350 197.596 355.596 192 362.5 192Z" fill="#ABFF00"/>
<path d="M412.5 192C405.596 192 400 197.596 400 204.5C400 211.404 405.596 217 412.5 217C405.596 217 400 222.596 400 229.5C400 236.404 405.596 242 412.5 242C419.404 242 425 236.404 425 229.5C425 236.404 430.596 242 437.5 242C444.404 242 450 236.404 450 229.5C450 222.596 444.404 217 437.5 217C444.404 217 450 211.404 450 204.5C450 197.596 444.404 192 437.5 192C430.596 192 425 197.596 425 204.5C425 197.596 419.404 192 412.5 192Z" fill="#101010"/>
<path d="M412.5 192C419.296 192 424.825 197.423 424.996 204.178L425 204.5V217H412.5C405.596 217 400 211.404 400 204.5C400 197.596 405.596 192 412.5 192Z" fill="#ABFF00"/>
<path d="M162.5 242C155.596 242 150 247.596 150 254.5C150 261.404 155.596 267 162.5 267C155.596 267 150 272.596 150 279.5C150 286.404 155.596 292 162.5 292C169.404 292 175 286.404 175 279.5C175 286.404 180.596 292 187.5 292C194.404 292 200 286.404 200 279.5C200 272.596 194.404 267 187.5 267C194.404 267 200 261.404 200 254.5C200 247.596 194.404 242 187.5 242C180.596 242 175 247.596 175 254.5C175 247.596 169.404 242 162.5 242Z" fill="#101010"/>
<path d="M162.5 242C169.296 242 174.825 247.423 174.996 254.178L175 254.5V267H162.5C155.596 267 150 261.404 150 254.5C150 247.596 155.596 242 162.5 242Z" fill="#ABFF00"/>
<path d="M212.5 242C205.596 242 200 247.596 200 254.5C200 261.404 205.596 267 212.5 267C205.596 267 200 272.596 200 279.5C200 286.404 205.596 292 212.5 292C219.404 292 225 286.404 225 279.5C225 286.404 230.596 292 237.5 292C244.404 292 250 286.404 250 279.5C250 272.596 244.404 267 237.5 267C244.404 267 250 261.404 250 254.5C250 247.596 244.404 242 237.5 242C230.596 242 225 247.596 225 254.5C225 247.596 219.404 242 212.5 242Z" fill="#101010"/>
<path d="M212.5 242C219.296 242 224.825 247.423 224.996 254.178L225 254.5V267H212.5C205.596 267 200 261.404 200 254.5C200 247.596 205.596 242 212.5 242Z" fill="#ABFF00"/>
<path d="M262.5 242C255.596 242 250 247.596 250 254.5C250 261.404 255.596 267 262.5 267C255.596 267 250 272.596 250 279.5C250 286.404 255.596 292 262.5 292C269.404 292 275 286.404 275 279.5C275 286.404 280.596 292 287.5 292C294.404 292 300 286.404 300 279.5C300 272.596 294.404 267 287.5 267C294.404 267 300 261.404 300 254.5C300 247.596 294.404 242 287.5 242C280.596 242 275 247.596 275 254.5C275 247.596 269.404 242 262.5 242Z" fill="#101010"/>
<path d="M262.5 242C269.296 242 274.825 247.423 274.996 254.178L275 254.5V267H262.5C255.596 267 250 261.404 250 254.5C250 247.596 255.596 242 262.5 242Z" fill="#ABFF00"/>
<path d="M312.5 242C305.596 242 300 247.596 300 254.5C300 261.404 305.596 267 312.5 267C305.596 267 300 272.596 300 279.5C300 286.404 305.596 292 312.5 292C319.404 292 325 286.404 325 279.5C325 286.404 330.596 292 337.5 292C344.404 292 350 286.404 350 279.5C350 272.596 344.404 267 337.5 267C344.404 267 350 261.404 350 254.5C350 247.596 344.404 242 337.5 242C330.596 242 325 247.596 325 254.5C325 247.596 319.404 242 312.5 242Z" fill="#101010"/>
<path d="M312.5 242C319.296 242 324.825 247.423 324.996 254.178L325 254.5V267H312.5C305.596 267 300 261.404 300 254.5C300 247.596 305.596 242 312.5 242Z" fill="#ABFF00"/>
<path d="M362.5 242C355.596 242 350 247.596 350 254.5C350 261.404 355.596 267 362.5 267C355.596 267 350 272.596 350 279.5C350 286.404 355.596 292 362.5 292C369.404 292 375 286.404 375 279.5C375 286.404 380.596 292 387.5 292C394.404 292 400 286.404 400 279.5C400 272.596 394.404 267 387.5 267C394.404 267 400 261.404 400 254.5C400 247.596 394.404 242 387.5 242C380.596 242 375 247.596 375 254.5C375 247.596 369.404 242 362.5 242Z" fill="#101010"/>
<path d="M362.5 242C369.296 242 374.825 247.423 374.996 254.178L375 254.5V267H362.5C355.596 267 350 261.404 350 254.5C350 247.596 355.596 242 362.5 242Z" fill="#ABFF00"/>
<path d="M412.5 242C405.596 242 400 247.596 400 254.5C400 261.404 405.596 267 412.5 267C405.596 267 400 272.596 400 279.5C400 286.404 405.596 292 412.5 292C419.404 292 425 286.404 425 279.5C425 286.404 430.596 292 437.5 292C444.404 292 450 286.404 450 279.5C450 272.596 444.404 267 437.5 267C444.404 267 450 261.404 450 254.5C450 247.596 444.404 242 437.5 242C430.596 242 425 247.596 425 254.5C425 247.596 419.404 242 412.5 242Z" fill="#101010"/>
<path d="M412.5 242C419.296 242 424.825 247.423 424.996 254.178L425 254.5V267H412.5C405.596 267 400 261.404 400 254.5C400 247.596 405.596 242 412.5 242Z" fill="#ABFF00"/>
<path d="M162.5 292C155.596 292 150 297.596 150 304.5C150 311.404 155.596 317 162.5 317C155.596 317 150 322.596 150 329.5C150 336.404 155.596 342 162.5 342C169.404 342 175 336.404 175 329.5C175 336.404 180.596 342 187.5 342C194.404 342 200 336.404 200 329.5C200 322.596 194.404 317 187.5 317C194.404 317 200 311.404 200 304.5C200 297.596 194.404 292 187.5 292C180.596 292 175 297.596 175 304.5C175 297.596 169.404 292 162.5 292Z" fill="#101010"/>
<path d="M162.5 292C169.296 292 174.825 297.423 174.996 304.178L175 304.5V317H162.5C155.596 317 150 311.404 150 304.5C150 297.596 155.596 292 162.5 292Z" fill="#ABFF00"/>
<path d="M212.5 292C205.596 292 200 297.596 200 304.5C200 311.404 205.596 317 212.5 317C205.596 317 200 322.596 200 329.5C200 336.404 205.596 342 212.5 342C219.404 342 225 336.404 225 329.5C225 336.404 230.596 342 237.5 342C244.404 342 250 336.404 250 329.5C250 322.596 244.404 317 237.5 317C244.404 317 250 311.404 250 304.5C250 297.596 244.404 292 237.5 292C230.596 292 225 297.596 225 304.5C225 297.596 219.404 292 212.5 292Z" fill="#101010"/>
<path d="M212.5 292C219.296 292 224.825 297.423 224.996 304.178L225 304.5V317H212.5C205.596 317 200 311.404 200 304.5C200 297.596 205.596 292 212.5 292Z" fill="#ABFF00"/>
<path d="M262.5 292C255.596 292 250 297.596 250 304.5C250 311.404 255.596 317 262.5 317C255.596 317 250 322.596 250 329.5C250 336.404 255.596 342 262.5 342C269.404 342 275 336.404 275 329.5C275 336.404 280.596 342 287.5 342C294.404 342 300 336.404 300 329.5C300 322.596 294.404 317 287.5 317C294.404 317 300 311.404 300 304.5C300 297.596 294.404 292 287.5 292C280.596 292 275 297.596 275 304.5C275 297.596 269.404 292 262.5 292Z" fill="#101010"/>
<path d="M262.5 292C269.296 292 274.825 297.423 274.996 304.178L275 304.5V317H262.5C255.596 317 250 311.404 250 304.5C250 297.596 255.596 292 262.5 292Z" fill="#ABFF00"/>
<path d="M312.5 292C305.596 292 300 297.596 300 304.5C300 311.404 305.596 317 312.5 317C305.596 317 300 322.596 300 329.5C300 336.404 305.596 342 312.5 342C319.404 342 325 336.404 325 329.5C325 336.404 330.596 342 337.5 342C344.404 342 350 336.404 350 329.5C350 322.596 344.404 317 337.5 317C344.404 317 350 311.404 350 304.5C350 297.596 344.404 292 337.5 292C330.596 292 325 297.596 325 304.5C325 297.596 319.404 292 312.5 292Z" fill="#101010"/>
<path d="M312.5 292C319.296 292 324.825 297.423 324.996 304.178L325 304.5V317H312.5C305.596 317 300 311.404 300 304.5C300 297.596 305.596 292 312.5 292Z" fill="#ABFF00"/>
<path d="M362.5 292C355.596 292 350 297.596 350 304.5C350 311.404 355.596 317 362.5 317C355.596 317 350 322.596 350 329.5C350 336.404 355.596 342 362.5 342C369.404 342 375 336.404 375 329.5C375 336.404 380.596 342 387.5 342C394.404 342 400 336.404 400 329.5C400 322.596 394.404 317 387.5 317C394.404 317 400 311.404 400 304.5C400 297.596 394.404 292 387.5 292C380.596 292 375 297.596 375 304.5C375 297.596 369.404 292 362.5 292Z" fill="#101010"/>
<path d="M362.5 292C369.296 292 374.825 297.423 374.996 304.178L375 304.5V317H362.5C355.596 317 350 311.404 350 304.5C350 297.596 355.596 292 362.5 292Z" fill="#ABFF00"/>
<path d="M412.5 292C405.596 292 400 297.596 400 304.5C400 311.404 405.596 317 412.5 317C405.596 317 400 322.596 400 329.5C400 336.404 405.596 342 412.5 342C419.404 342 425 336.404 425 329.5C425 336.404 430.596 342 437.5 342C444.404 342 450 336.404 450 329.5C450 322.596 444.404 317 437.5 317C444.404 317 450 311.404 450 304.5C450 297.596 444.404 292 437.5 292C430.596 292 425 297.596 425 304.5C425 297.596 419.404 292 412.5 292Z" fill="#101010"/>
<path d="M412.5 292C419.296 292 424.825 297.423 424.996 304.178L425 304.5V317H412.5C405.596 317 400 311.404 400 304.5C400 297.596 405.596 292 412.5 292Z" fill="#ABFF00"/>
<path d="M162.5 342C155.596 342 150 347.596 150 354.5C150 361.404 155.596 367 162.5 367C155.596 367 150 372.596 150 379.5C150 386.404 155.596 392 162.5 392C169.404 392 175 386.404 175 379.5C175 386.404 180.596 392 187.5 392C194.404 392 200 386.404 200 379.5C200 372.596 194.404 367 187.5 367C194.404 367 200 361.404 200 354.5C200 347.596 194.404 342 187.5 342C180.596 342 175 347.596 175 354.5C175 347.596 169.404 342 162.5 342Z" fill="#101010"/>
<path d="M162.5 342C169.296 342 174.825 347.423 174.996 354.178L175 354.5V367H162.5C155.596 367 150 361.404 150 354.5C150 347.596 155.596 342 162.5 342Z" fill="#ABFF00"/>
<path d="M212.5 342C205.596 342 200 347.596 200 354.5C200 361.404 205.596 367 212.5 367C205.596 367 200 372.596 200 379.5C200 386.404 205.596 392 212.5 392C219.404 392 225 386.404 225 379.5C225 386.404 230.596 392 237.5 392C244.404 392 250 386.404 250 379.5C250 372.596 244.404 367 237.5 367C244.404 367 250 361.404 250 354.5C250 347.596 244.404 342 237.5 342C230.596 342 225 347.596 225 354.5C225 347.596 219.404 342 212.5 342Z" fill="#101010"/>
<path d="M212.5 342C219.296 342 224.825 347.423 224.996 354.178L225 354.5V367H212.5C205.596 367 200 361.404 200 354.5C200 347.596 205.596 342 212.5 342Z" fill="#ABFF00"/>
<path d="M262.5 342C255.596 342 250 347.596 250 354.5C250 361.404 255.596 367 262.5 367C255.596 367 250 372.596 250 379.5C250 386.404 255.596 392 262.5 392C269.404 392 275 386.404 275 379.5C275 386.404 280.596 392 287.5 392C294.404 392 300 386.404 300 379.5C300 372.596 294.404 367 287.5 367C294.404 367 300 361.404 300 354.5C300 347.596 294.404 342 287.5 342C280.596 342 275 347.596 275 354.5C275 347.596 269.404 342 262.5 342Z" fill="#101010"/>
<path d="M262.5 342C269.296 342 274.825 347.423 274.996 354.178L275 354.5V367H262.5C255.596 367 250 361.404 250 354.5C250 347.596 255.596 342 262.5 342Z" fill="#ABFF00"/>
<path d="M312.5 342C305.596 342 300 347.596 300 354.5C300 361.404 305.596 367 312.5 367C305.596 367 300 372.596 300 379.5C300 386.404 305.596 392 312.5 392C319.404 392 325 386.404 325 379.5C325 386.404 330.596 392 337.5 392C344.404 392 350 386.404 350 379.5C350 372.596 344.404 367 337.5 367C344.404 367 350 361.404 350 354.5C350 347.596 344.404 342 337.5 342C330.596 342 325 347.596 325 354.5C325 347.596 319.404 342 312.5 342Z" fill="#101010"/>
<path d="M312.5 342C319.296 342 324.825 347.423 324.996 354.178L325 354.5V367H312.5C305.596 367 300 361.404 300 354.5C300 347.596 305.596 342 312.5 342Z" fill="#ABFF00"/>
<path d="M362.5 342C355.596 342 350 347.596 350 354.5C350 361.404 355.596 367 362.5 367C355.596 367 350 372.596 350 379.5C350 386.404 355.596 392 362.5 392C369.404 392 375 386.404 375 379.5C375 386.404 380.596 392 387.5 392C394.404 392 400 386.404 400 379.5C400 372.596 394.404 367 387.5 367C394.404 367 400 361.404 400 354.5C400 347.596 394.404 342 387.5 342C380.596 342 375 347.596 375 354.5C375 347.596 369.404 342 362.5 342Z" fill="#101010"/>
<path d="M362.5 342C369.296 342 374.825 347.423 374.996 354.178L375 354.5V367H362.5C355.596 367 350 361.404 350 354.5C350 347.596 355.596 342 362.5 342Z" fill="#ABFF00"/>
<path d="M412.5 342C405.596 342 400 347.596 400 354.5C400 361.404 405.596 367 412.5 367C405.596 367 400 372.596 400 379.5C400 386.404 405.596 392 412.5 392C419.404 392 425 386.404 425 379.5C425 386.404 430.596 392 437.5 392C444.404 392 450 386.404 450 379.5C450 372.596 444.404 367 437.5 367C444.404 367 450 361.404 450 354.5C450 347.596 444.404 342 437.5 342C430.596 342 425 347.596 425 354.5C425 347.596 419.404 342 412.5 342Z" fill="#101010"/>
<path d="M412.5 342C419.296 342 424.825 347.423 424.996 354.178L425 354.5V367H412.5C405.596 367 400 361.404 400 354.5C400 347.596 405.596 342 412.5 342Z" fill="#ABFF00"/>
<path d="M162.5 392C155.596 392 150 397.596 150 404.5C150 411.404 155.596 417 162.5 417C155.596 417 150 422.596 150 429.5C150 436.404 155.596 442 162.5 442C169.404 442 175 436.404 175 429.5C175 436.404 180.596 442 187.5 442C194.404 442 200 436.404 200 429.5C200 422.596 194.404 417 187.5 417C194.404 417 200 411.404 200 404.5C200 397.596 194.404 392 187.5 392C180.596 392 175 397.596 175 404.5C175 397.596 169.404 392 162.5 392Z" fill="#101010"/>
<path d="M162.5 392C169.296 392 174.825 397.423 174.996 404.178L175 404.5V417H162.5C155.596 417 150 411.404 150 404.5C150 397.596 155.596 392 162.5 392Z" fill="#ABFF00"/>
<path d="M212.5 392C205.596 392 200 397.596 200 404.5C200 411.404 205.596 417 212.5 417C205.596 417 200 422.596 200 429.5C200 436.404 205.596 442 212.5 442C219.404 442 225 436.404 225 429.5C225 436.404 230.596 442 237.5 442C244.404 442 250 436.404 250 429.5C250 422.596 244.404 417 237.5 417C244.404 417 250 411.404 250 404.5C250 397.596 244.404 392 237.5 392C230.596 392 225 397.596 225 404.5C225 397.596 219.404 392 212.5 392Z" fill="#101010"/>
<path d="M212.5 392C219.296 392 224.825 397.423 224.996 404.178L225 404.5V417H212.5C205.596 417 200 411.404 200 404.5C200 397.596 205.596 392 212.5 392Z" fill="#ABFF00"/>
<path d="M262.5 392C255.596 392 250 397.596 250 404.5C250 411.404 255.596 417 262.5 417C255.596 417 250 422.596 250 429.5C250 436.404 255.596 442 262.5 442C269.404 442 275 436.404 275 429.5C275 436.404 280.596 442 287.5 442C294.404 442 300 436.404 300 429.5C300 422.596 294.404 417 287.5 417C294.404 417 300 411.404 300 404.5C300 397.596 294.404 392 287.5 392C280.596 392 275 397.596 275 404.5C275 397.596 269.404 392 262.5 392Z" fill="#101010"/>
<path d="M262.5 392C269.296 392 274.825 397.423 274.996 404.178L275 404.5V417H262.5C255.596 417 250 411.404 250 404.5C250 397.596 255.596 392 262.5 392Z" fill="#ABFF00"/>
<path d="M312.5 392C305.596 392 300 397.596 300 404.5C300 411.404 305.596 417 312.5 417C305.596 417 300 422.596 300 429.5C300 436.404 305.596 442 312.5 442C319.404 442 325 436.404 325 429.5C325 436.404 330.596 442 337.5 442C344.404 442 350 436.404 350 429.5C350 422.596 344.404 417 337.5 417C344.404 417 350 411.404 350 404.5C350 397.596 344.404 392 337.5 392C330.596 392 325 397.596 325 404.5C325 397.596 319.404 392 312.5 392Z" fill="#101010"/>
<path d="M312.5 392C319.296 392 324.825 397.423 324.996 404.178L325 404.5V417H312.5C305.596 417 300 411.404 300 404.5C300 397.596 305.596 392 312.5 392Z" fill="#ABFF00"/>
<path d="M362.5 392C355.596 392 350 397.596 350 404.5C350 411.404 355.596 417 362.5 417C355.596 417 350 422.596 350 429.5C350 436.404 355.596 442 362.5 442C369.404 442 375 436.404 375 429.5C375 436.404 380.596 442 387.5 442C394.404 442 400 436.404 400 429.5C400 422.596 394.404 417 387.5 417C394.404 417 400 411.404 400 404.5C400 397.596 394.404 392 387.5 392C380.596 392 375 397.596 375 404.5C375 397.596 369.404 392 362.5 392Z" fill="#101010"/>
<path d="M362.5 392C369.296 392 374.825 397.423 374.996 404.178L375 404.5V417H362.5C355.596 417 350 411.404 350 404.5C350 397.596 355.596 392 362.5 392Z" fill="#ABFF00"/>
<path d="M412.5 392C405.596 392 400 397.596 400 404.5C400 411.404 405.596 417 412.5 417C405.596 417 400 422.596 400 429.5C400 436.404 405.596 442 412.5 442C419.404 442 425 436.404 425 429.5C425 436.404 430.596 442 437.5 442C444.404 442 450 436.404 450 429.5C450 422.596 444.404 417 437.5 417C444.404 417 450 411.404 450 404.5C450 397.596 444.404 392 437.5 392C430.596 392 425 397.596 425 404.5C425 397.596 419.404 392 412.5 392Z" fill="#101010"/>
<path d="M412.5 392C419.296 392 424.825 397.423 424.996 404.178L425 404.5V417H412.5C405.596 417 400 411.404 400 404.5C400 397.596 405.596 392 412.5 392Z" fill="#ABFF00"/>
<path d="M162.5 442C155.596 442 150 447.596 150 454.5C150 461.404 155.596 467 162.5 467C155.596 467 150 472.596 150 479.5C150 486.404 155.596 492 162.5 492C169.404 492 175 486.404 175 479.5C175 486.404 180.596 492 187.5 492C194.404 492 200 486.404 200 479.5C200 472.596 194.404 467 187.5 467C194.404 467 200 461.404 200 454.5C200 447.596 194.404 442 187.5 442C180.596 442 175 447.596 175 454.5C175 447.596 169.404 442 162.5 442Z" fill="#101010"/>
<path d="M162.5 442C169.296 442 174.825 447.423 174.996 454.178L175 454.5V467H162.5C155.596 467 150 461.404 150 454.5C150 447.596 155.596 442 162.5 442Z" fill="#ABFF00"/>
<path d="M212.5 442C205.596 442 200 447.596 200 454.5C200 461.404 205.596 467 212.5 467C205.596 467 200 472.596 200 479.5C200 486.404 205.596 492 212.5 492C219.404 492 225 486.404 225 479.5C225 486.404 230.596 492 237.5 492C244.404 492 250 486.404 250 479.5C250 472.596 244.404 467 237.5 467C244.404 467 250 461.404 250 454.5C250 447.596 244.404 442 237.5 442C230.596 442 225 447.596 225 454.5C225 447.596 219.404 442 212.5 442Z" fill="#101010"/>
<path d="M212.5 442C219.296 442 224.825 447.423 224.996 454.178L225 454.5V467H212.5C205.596 467 200 461.404 200 454.5C200 447.596 205.596 442 212.5 442Z" fill="#ABFF00"/>
<path d="M262.5 442C255.596 442 250 447.596 250 454.5C250 461.404 255.596 467 262.5 467C255.596 467 250 472.596 250 479.5C250 486.404 255.596 492 262.5 492C269.404 492 275 486.404 275 479.5C275 486.404 280.596 492 287.5 492C294.404 492 300 486.404 300 479.5C300 472.596 294.404 467 287.5 467C294.404 467 300 461.404 300 454.5C300 447.596 294.404 442 287.5 442C280.596 442 275 447.596 275 454.5C275 447.596 269.404 442 262.5 442Z" fill="#101010"/>
<path d="M262.5 442C269.296 442 274.825 447.423 274.996 454.178L275 454.5V467H262.5C255.596 467 250 461.404 250 454.5C250 447.596 255.596 442 262.5 442Z" fill="#ABFF00"/>
<path d="M312.5 442C305.596 442 300 447.596 300 454.5C300 461.404 305.596 467 312.5 467C305.596 467 300 472.596 300 479.5C300 486.404 305.596 492 312.5 492C319.404 492 325 486.404 325 479.5C325 486.404 330.596 492 337.5 492C344.404 492 350 486.404 350 479.5C350 472.596 344.404 467 337.5 467C344.404 467 350 461.404 350 454.5C350 447.596 344.404 442 337.5 442C330.596 442 325 447.596 325 454.5C325 447.596 319.404 442 312.5 442Z" fill="#101010"/>
<path d="M312.5 442C319.296 442 324.825 447.423 324.996 454.178L325 454.5V467H312.5C305.596 467 300 461.404 300 454.5C300 447.596 305.596 442 312.5 442Z" fill="#ABFF00"/>
<path d="M362.5 442C355.596 442 350 447.596 350 454.5C350 461.404 355.596 467 362.5 467C355.596 467 350 472.596 350 479.5C350 486.404 355.596 492 362.5 492C369.404 492 375 486.404 375 479.5C375 486.404 380.596 492 387.5 492C394.404 492 400 486.404 400 479.5C400 472.596 394.404 467 387.5 467C394.404 467 400 461.404 400 454.5C400 447.596 394.404 442 387.5 442C380.596 442 375 447.596 375 454.5C375 447.596 369.404 442 362.5 442Z" fill="#101010"/>
<path d="M362.5 442C369.296 442 374.825 447.423 374.996 454.178L375 454.5V467H362.5C355.596 467 350 461.404 350 454.5C350 447.596 355.596 442 362.5 442Z" fill="#ABFF00"/>
<path d="M412.5 442C405.596 442 400 447.596 400 454.5C400 461.404 405.596 467 412.5 467C405.596 467 400 472.596 400 479.5C400 486.404 405.596 492 412.5 492C419.404 492 425 486.404 425 479.5C425 486.404 430.596 492 437.5 492C444.404 492 450 486.404 450 479.5C450 472.596 444.404 467 437.5 467C444.404 467 450 461.404 450 454.5C450 447.596 444.404 442 437.5 442C430.596 442 425 447.596 425 454.5C425 447.596 419.404 442 412.5 442Z" fill="#101010"/>
<path d="M412.5 442C419.296 442 424.825 447.423 424.996 454.178L425 454.5V467H412.5C405.596 467 400 461.404 400 454.5C400 447.596 405.596 442 412.5 442Z" fill="#ABFF00"/>
<path d="M162.5 492C155.596 492 150 497.596 150 504.5C150 511.404 155.596 517 162.5 517C155.596 517 150 522.596 150 529.5C150 536.404 155.596 542 162.5 542C169.404 542 175 536.404 175 529.5C175 536.404 180.596 542 187.5 542C194.404 542 200 536.404 200 529.5C200 522.596 194.404 517 187.5 517C194.404 517 200 511.404 200 504.5C200 497.596 194.404 492 187.5 492C180.596 492 175 497.596 175 504.5C175 497.596 169.404 492 162.5 492Z" fill="#101010"/>
<path d="M162.5 492C169.296 492 174.825 497.423 174.996 504.178L175 504.5V517H162.5C155.596 517 150 511.404 150 504.5C150 497.596 155.596 492 162.5 492Z" fill="#ABFF00"/>
<path d="M212.5 492C205.596 492 200 497.596 200 504.5C200 511.404 205.596 517 212.5 517C205.596 517 200 522.596 200 529.5C200 536.404 205.596 542 212.5 542C219.404 542 225 536.404 225 529.5C225 536.404 230.596 542 237.5 542C244.404 542 250 536.404 250 529.5C250 522.596 244.404 517 237.5 517C244.404 517 250 511.404 250 504.5C250 497.596 244.404 492 237.5 492C230.596 492 225 497.596 225 504.5C225 497.596 219.404 492 212.5 492Z" fill="#101010"/>
<path d="M212.5 492C219.296 492 224.825 497.423 224.996 504.178L225 504.5V517H212.5C205.596 517 200 511.404 200 504.5C200 497.596 205.596 492 212.5 492Z" fill="#ABFF00"/>
<path d="M262.5 492C255.596 492 250 497.596 250 504.5C250 511.404 255.596 517 262.5 517C255.596 517 250 522.596 250 529.5C250 536.404 255.596 542 262.5 542C269.404 542 275 536.404 275 529.5C275 536.404 280.596 542 287.5 542C294.404 542 300 536.404 300 529.5C300 522.596 294.404 517 287.5 517C294.404 517 300 511.404 300 504.5C300 497.596 294.404 492 287.5 492C280.596 492 275 497.596 275 504.5C275 497.596 269.404 492 262.5 492Z" fill="#101010"/>
<path d="M262.5 492C269.296 492 274.825 497.423 274.996 504.178L275 504.5V517H262.5C255.596 517 250 511.404 250 504.5C250 497.596 255.596 492 262.5 492Z" fill="#ABFF00"/>
<path d="M312.5 492C305.596 492 300 497.596 300 504.5C300 511.404 305.596 517 312.5 517C305.596 517 300 522.596 300 529.5C300 536.404 305.596 542 312.5 542C319.404 542 325 536.404 325 529.5C325 536.404 330.596 542 337.5 542C344.404 542 350 536.404 350 529.5C350 522.596 344.404 517 337.5 517C344.404 517 350 511.404 350 504.5C350 497.596 344.404 492 337.5 492C330.596 492 325 497.596 325 504.5C325 497.596 319.404 492 312.5 492Z" fill="#101010"/>
<path d="M312.5 492C319.296 492 324.825 497.423 324.996 504.178L325 504.5V517H312.5C305.596 517 300 511.404 300 504.5C300 497.596 305.596 492 312.5 492Z" fill="#ABFF00"/>
<path d="M362.5 492C355.596 492 350 497.596 350 504.5C350 511.404 355.596 517 362.5 517C355.596 517 350 522.596 350 529.5C350 536.404 355.596 542 362.5 542C369.404 542 375 536.404 375 529.5C375 536.404 380.596 542 387.5 542C394.404 542 400 536.404 400 529.5C400 522.596 394.404 517 387.5 517C394.404 517 400 511.404 400 504.5C400 497.596 394.404 492 387.5 492C380.596 492 375 497.596 375 504.5C375 497.596 369.404 492 362.5 492Z" fill="#101010"/>
<path d="M362.5 492C369.296 492 374.825 497.423 374.996 504.178L375 504.5V517H362.5C355.596 517 350 511.404 350 504.5C350 497.596 355.596 492 362.5 492Z" fill="#ABFF00"/>
<path d="M412.5 492C405.596 492 400 497.596 400 504.5C400 511.404 405.596 517 412.5 517C405.596 517 400 522.596 400 529.5C400 536.404 405.596 542 412.5 542C419.404 542 425 536.404 425 529.5C425 536.404 430.596 542 437.5 542C444.404 542 450 536.404 450 529.5C450 522.596 444.404 517 437.5 517C444.404 517 450 511.404 450 504.5C450 497.596 444.404 492 437.5 492C430.596 492 425 497.596 425 504.5C425 497.596 419.404 492 412.5 492Z" fill="#101010"/>
<path d="M412.5 492C419.296 492 424.825 497.423 424.996 504.178L425 504.5V517H412.5C405.596 517 400 511.404 400 504.5C400 497.596 405.596 492 412.5 492Z" fill="#ABFF00"/>
<path d="M162.5 542C155.596 542 150 547.596 150 554.5C150 561.404 155.596 567 162.5 567C155.596 567 150 572.596 150 579.5C150 586.404 155.596 592 162.5 592C169.404 592 175 586.404 175 579.5C175 586.404 180.596 592 187.5 592C194.404 592 200 586.404 200 579.5C200 572.596 194.404 567 187.5 567C194.404 567 200 561.404 200 554.5C200 547.596 194.404 542 187.5 542C180.596 542 175 547.596 175 554.5C175 547.596 169.404 542 162.5 542Z" fill="#101010"/>
<path d="M162.5 542C169.296 542 174.825 547.423 174.996 554.178L175 554.5V567H162.5C155.596 567 150 561.404 150 554.5C150 547.596 155.596 542 162.5 542Z" fill="#ABFF00"/>
<path d="M212.5 542C205.596 542 200 547.596 200 554.5C200 561.404 205.596 567 212.5 567C205.596 567 200 572.596 200 579.5C200 586.404 205.596 592 212.5 592C219.404 592 225 586.404 225 579.5C225 586.404 230.596 592 237.5 592C244.404 592 250 586.404 250 579.5C250 572.596 244.404 567 237.5 567C244.404 567 250 561.404 250 554.5C250 547.596 244.404 542 237.5 542C230.596 542 225 547.596 225 554.5C225 547.596 219.404 542 212.5 542Z" fill="#101010"/>
<path d="M212.5 542C219.296 542 224.825 547.423 224.996 554.178L225 554.5V567H212.5C205.596 567 200 561.404 200 554.5C200 547.596 205.596 542 212.5 542Z" fill="#ABFF00"/>
<path d="M262.5 542C255.596 542 250 547.596 250 554.5C250 561.404 255.596 567 262.5 567C255.596 567 250 572.596 250 579.5C250 586.404 255.596 592 262.5 592C269.404 592 275 586.404 275 579.5C275 586.404 280.596 592 287.5 592C294.404 592 300 586.404 300 579.5C300 572.596 294.404 567 287.5 567C294.404 567 300 561.404 300 554.5C300 547.596 294.404 542 287.5 542C280.596 542 275 547.596 275 554.5C275 547.596 269.404 542 262.5 542Z" fill="#101010"/>
<path d="M262.5 542C269.296 542 274.825 547.423 274.996 554.178L275 554.5V567H262.5C255.596 567 250 561.404 250 554.5C250 547.596 255.596 542 262.5 542Z" fill="#ABFF00"/>
<path d="M312.5 542C305.596 542 300 547.596 300 554.5C300 561.404 305.596 567 312.5 567C305.596 567 300 572.596 300 579.5C300 586.404 305.596 592 312.5 592C319.404 592 325 586.404 325 579.5C325 586.404 330.596 592 337.5 592C344.404 592 350 586.404 350 579.5C350 572.596 344.404 567 337.5 567C344.404 567 350 561.404 350 554.5C350 547.596 344.404 542 337.5 542C330.596 542 325 547.596 325 554.5C325 547.596 319.404 542 312.5 542Z" fill="#101010"/>
<path d="M312.5 542C319.296 542 324.825 547.423 324.996 554.178L325 554.5V567H312.5C305.596 567 300 561.404 300 554.5C300 547.596 305.596 542 312.5 542Z" fill="#ABFF00"/>
<path d="M362.5 542C355.596 542 350 547.596 350 554.5C350 561.404 355.596 567 362.5 567C355.596 567 350 572.596 350 579.5C350 586.404 355.596 592 362.5 592C369.404 592 375 586.404 375 579.5C375 586.404 380.596 592 387.5 592C394.404 592 400 586.404 400 579.5C400 572.596 394.404 567 387.5 567C394.404 567 400 561.404 400 554.5C400 547.596 394.404 542 387.5 542C380.596 542 375 547.596 375 554.5C375 547.596 369.404 542 362.5 542Z" fill="#101010"/>
<path d="M362.5 542C369.296 542 374.825 547.423 374.996 554.178L375 554.5V567H362.5C355.596 567 350 561.404 350 554.5C350 547.596 355.596 542 362.5 542Z" fill="#ABFF00"/>
<path d="M412.5 542C405.596 542 400 547.596 400 554.5C400 561.404 405.596 567 412.5 567C405.596 567 400 572.596 400 579.5C400 586.404 405.596 592 412.5 592C419.404 592 425 586.404 425 579.5C425 586.404 430.596 592 437.5 592C444.404 592 450 586.404 450 579.5C450 572.596 444.404 567 437.5 567C444.404 567 450 561.404 450 554.5C450 547.596 444.404 542 437.5 542C430.596 542 425 547.596 425 554.5C425 547.596 419.404 542 412.5 542Z" fill="#101010"/>
<path d="M412.5 542C419.296 542 424.825 547.423 424.996 554.178L425 554.5V567H412.5C405.596 567 400 561.404 400 554.5C400 547.596 405.596 542 412.5 542Z" fill="#ABFF00"/>
<path d="M162.5 592C155.596 592 150 597.596 150 604.5C150 611.404 155.596 617 162.5 617C155.596 617 150 622.596 150 629.5C150 636.404 155.596 642 162.5 642C169.404 642 175 636.404 175 629.5C175 636.404 180.596 642 187.5 642C194.404 642 200 636.404 200 629.5C200 622.596 194.404 617 187.5 617C194.404 617 200 611.404 200 604.5C200 597.596 194.404 592 187.5 592C180.596 592 175 597.596 175 604.5C175 597.596 169.404 592 162.5 592Z" fill="#101010"/>
<path d="M162.5 592C169.296 592 174.825 597.423 174.996 604.178L175 604.5V617H162.5C155.596 617 150 611.404 150 604.5C150 597.596 155.596 592 162.5 592Z" fill="#ABFF00"/>
<path d="M212.5 592C205.596 592 200 597.596 200 604.5C200 611.404 205.596 617 212.5 617C205.596 617 200 622.596 200 629.5C200 636.404 205.596 642 212.5 642C219.404 642 225 636.404 225 629.5C225 636.404 230.596 642 237.5 642C244.404 642 250 636.404 250 629.5C250 622.596 244.404 617 237.5 617C244.404 617 250 611.404 250 604.5C250 597.596 244.404 592 237.5 592C230.596 592 225 597.596 225 604.5C225 597.596 219.404 592 212.5 592Z" fill="#101010"/>
<path d="M212.5 592C219.296 592 224.825 597.423 224.996 604.178L225 604.5V617H212.5C205.596 617 200 611.404 200 604.5C200 597.596 205.596 592 212.5 592Z" fill="#ABFF00"/>
<path d="M262.5 592C255.596 592 250 597.596 250 604.5C250 611.404 255.596 617 262.5 617C255.596 617 250 622.596 250 629.5C250 636.404 255.596 642 262.5 642C269.404 642 275 636.404 275 629.5C275 636.404 280.596 642 287.5 642C294.404 642 300 636.404 300 629.5C300 622.596 294.404 617 287.5 617C294.404 617 300 611.404 300 604.5C300 597.596 294.404 592 287.5 592C280.596 592 275 597.596 275 604.5C275 597.596 269.404 592 262.5 592Z" fill="#101010"/>
<path d="M262.5 592C269.296 592 274.825 597.423 274.996 604.178L275 604.5V617H262.5C255.596 617 250 611.404 250 604.5C250 597.596 255.596 592 262.5 592Z" fill="#ABFF00"/>
<path d="M312.5 592C305.596 592 300 597.596 300 604.5C300 611.404 305.596 617 312.5 617C305.596 617 300 622.596 300 629.5C300 636.404 305.596 642 312.5 642C319.404 642 325 636.404 325 629.5C325 636.404 330.596 642 337.5 642C344.404 642 350 636.404 350 629.5C350 622.596 344.404 617 337.5 617C344.404 617 350 611.404 350 604.5C350 597.596 344.404 592 337.5 592C330.596 592 325 597.596 325 604.5C325 597.596 319.404 592 312.5 592Z" fill="#101010"/>
<path d="M312.5 592C319.296 592 324.825 597.423 324.996 604.178L325 604.5V617H312.5C305.596 617 300 611.404 300 604.5C300 597.596 305.596 592 312.5 592Z" fill="#ABFF00"/>
<path d="M362.5 592C355.596 592 350 597.596 350 604.5C350 611.404 355.596 617 362.5 617C355.596 617 350 622.596 350 629.5C350 636.404 355.596 642 362.5 642C369.404 642 375 636.404 375 629.5C375 636.404 380.596 642 387.5 642C394.404 642 400 636.404 400 629.5C400 622.596 394.404 617 387.5 617C394.404 617 400 611.404 400 604.5C400 597.596 394.404 592 387.5 592C380.596 592 375 597.596 375 604.5C375 597.596 369.404 592 362.5 592Z" fill="#101010"/>
<path d="M362.5 592C369.296 592 374.825 597.423 374.996 604.178L375 604.5V617H362.5C355.596 617 350 611.404 350 604.5C350 597.596 355.596 592 362.5 592Z" fill="#ABFF00"/>
<path d="M412.5 592C405.596 592 400 597.596 400 604.5C400 611.404 405.596 617 412.5 617C405.596 617 400 622.596 400 629.5C400 636.404 405.596 642 412.5 642C419.404 642 425 636.404 425 629.5C425 636.404 430.596 642 437.5 642C444.404 642 450 636.404 450 629.5C450 622.596 444.404 617 437.5 617C444.404 617 450 611.404 450 604.5C450 597.596 444.404 592 437.5 592C430.596 592 425 597.596 425 604.5C425 597.596 419.404 592 412.5 592Z" fill="#101010"/>
<path d="M412.5 592C419.296 592 424.825 597.423 424.996 604.178L425 604.5V617H412.5C405.596 617 400 611.404 400 604.5C400 597.596 405.596 592 412.5 592Z" fill="#ABFF00"/>
<path d="M62.5 642C55.5964 642 50 647.596 50 654.5C50 661.404 55.5964 667 62.5 667C55.5964 667 50 672.596 50 679.5C50 686.404 55.5964 692 62.5 692C69.4037 692 75 686.404 75 679.5C75 686.404 80.5963 692 87.5 692C94.4037 692 100 686.404 100 679.5C100 672.596 94.4037 667 87.5 667C94.4037 667 100 661.404 100 654.5C100 647.596 94.4037 642 87.5 642C80.5963 642 75 647.596 75 654.5C75 647.596 69.4037 642 62.5 642Z" fill="#101010"/>
<path d="M62.5 642C69.2959 642 74.8252 647.423 74.9961 654.178L75 654.5V667H62.5C55.5964 667 50 661.404 50 654.5C50 647.596 55.5964 642 62.5 642Z" fill="#ABFF00"/>
<path d="M112.5 642C105.596 642 100 647.596 100 654.5C100 661.404 105.596 667 112.5 667C105.596 667 100 672.596 100 679.5C100 686.404 105.596 692 112.5 692C119.404 692 125 686.404 125 679.5C125 686.404 130.596 692 137.5 692C144.404 692 150 686.404 150 679.5C150 672.596 144.404 667 137.5 667C144.404 667 150 661.404 150 654.5C150 647.596 144.404 642 137.5 642C130.596 642 125 647.596 125 654.5C125 647.596 119.404 642 112.5 642Z" fill="#101010"/>
<path d="M112.5 642C119.296 642 124.825 647.423 124.996 654.178L125 654.5V667H112.5C105.596 667 100 661.404 100 654.5C100 647.596 105.596 642 112.5 642Z" fill="#ABFF00"/>
<path d="M162.5 642C155.596 642 150 647.596 150 654.5C150 661.404 155.596 667 162.5 667C155.596 667 150 672.596 150 679.5C150 686.404 155.596 692 162.5 692C169.404 692 175 686.404 175 679.5C175 686.404 180.596 692 187.5 692C194.404 692 200 686.404 200 679.5C200 672.596 194.404 667 187.5 667C194.404 667 200 661.404 200 654.5C200 647.596 194.404 642 187.5 642C180.596 642 175 647.596 175 654.5C175 647.596 169.404 642 162.5 642Z" fill="#101010"/>
<path d="M162.5 642C169.296 642 174.825 647.423 174.996 654.178L175 654.5V667H162.5C155.596 667 150 661.404 150 654.5C150 647.596 155.596 642 162.5 642Z" fill="#ABFF00"/>
<path d="M212.5 642C205.596 642 200 647.596 200 654.5C200 661.404 205.596 667 212.5 667C205.596 667 200 672.596 200 679.5C200 686.404 205.596 692 212.5 692C219.404 692 225 686.404 225 679.5C225 686.404 230.596 692 237.5 692C244.404 692 250 686.404 250 679.5C250 672.596 244.404 667 237.5 667C244.404 667 250 661.404 250 654.5C250 647.596 244.404 642 237.5 642C230.596 642 225 647.596 225 654.5C225 647.596 219.404 642 212.5 642Z" fill="#101010"/>
<path d="M212.5 642C219.296 642 224.825 647.423 224.996 654.178L225 654.5V667H212.5C205.596 667 200 661.404 200 654.5C200 647.596 205.596 642 212.5 642Z" fill="#ABFF00"/>
<path d="M262.5 642C255.596 642 250 647.596 250 654.5C250 661.404 255.596 667 262.5 667C255.596 667 250 672.596 250 679.5C250 686.404 255.596 692 262.5 692C269.404 692 275 686.404 275 679.5C275 686.404 280.596 692 287.5 692C294.404 692 300 686.404 300 679.5C300 672.596 294.404 667 287.5 667C294.404 667 300 661.404 300 654.5C300 647.596 294.404 642 287.5 642C280.596 642 275 647.596 275 654.5C275 647.596 269.404 642 262.5 642Z" fill="#101010"/>
<path d="M262.5 642C269.296 642 274.825 647.423 274.996 654.178L275 654.5V667H262.5C255.596 667 250 661.404 250 654.5C250 647.596 255.596 642 262.5 642Z" fill="#ABFF00"/>
<path d="M312.5 642C305.596 642 300 647.596 300 654.5C300 661.404 305.596 667 312.5 667C305.596 667 300 672.596 300 679.5C300 686.404 305.596 692 312.5 692C319.404 692 325 686.404 325 679.5C325 686.404 330.596 692 337.5 692C344.404 692 350 686.404 350 679.5C350 672.596 344.404 667 337.5 667C344.404 667 350 661.404 350 654.5C350 647.596 344.404 642 337.5 642C330.596 642 325 647.596 325 654.5C325 647.596 319.404 642 312.5 642Z" fill="#101010"/>
<path d="M312.5 642C319.296 642 324.825 647.423 324.996 654.178L325 654.5V667H312.5C305.596 667 300 661.404 300 654.5C300 647.596 305.596 642 312.5 642Z" fill="#ABFF00"/>
<path d="M362.5 642C355.596 642 350 647.596 350 654.5C350 661.404 355.596 667 362.5 667C355.596 667 350 672.596 350 679.5C350 686.404 355.596 692 362.5 692C369.404 692 375 686.404 375 679.5C375 686.404 380.596 692 387.5 692C394.404 692 400 686.404 400 679.5C400 672.596 394.404 667 387.5 667C394.404 667 400 661.404 400 654.5C400 647.596 394.404 642 387.5 642C380.596 642 375 647.596 375 654.5C375 647.596 369.404 642 362.5 642Z" fill="#101010"/>
<path d="M362.5 642C369.296 642 374.825 647.423 374.996 654.178L375 654.5V667H362.5C355.596 667 350 661.404 350 654.5C350 647.596 355.596 642 362.5 642Z" fill="#ABFF00"/>
<path d="M412.5 642C405.596 642 400 647.596 400 654.5C400 661.404 405.596 667 412.5 667C405.596 667 400 672.596 400 679.5C400 686.404 405.596 692 412.5 692C419.404 692 425 686.404 425 679.5C425 686.404 430.596 692 437.5 692C444.404 692 450 686.404 450 679.5C450 672.596 444.404 667 437.5 667C444.404 667 450 661.404 450 654.5C450 647.596 444.404 642 437.5 642C430.596 642 425 647.596 425 654.5C425 647.596 419.404 642 412.5 642Z" fill="#101010"/>
<path d="M412.5 642C419.296 642 424.825 647.423 424.996 654.178L425 654.5V667H412.5C405.596 667 400 661.404 400 654.5C400 647.596 405.596 642 412.5 642Z" fill="#ABFF00"/>
<path d="M62.5 692C55.5964 692 50 697.596 50 704.5C50 711.404 55.5964 717 62.5 717C55.5964 717 50 722.596 50 729.5C50 736.404 55.5964 742 62.5 742C69.4037 742 75 736.404 75 729.5C75 736.404 80.5963 742 87.5 742C94.4037 742 100 736.404 100 729.5C100 722.596 94.4037 717 87.5 717C94.4037 717 100 711.404 100 704.5C100 697.596 94.4037 692 87.5 692C80.5963 692 75 697.596 75 704.5C75 697.596 69.4037 692 62.5 692Z" fill="#101010"/>
<path d="M62.5 692C69.2959 692 74.8252 697.423 74.9961 704.178L75 704.5V717H62.5C55.5964 717 50 711.404 50 704.5C50 697.596 55.5964 692 62.5 692Z" fill="#ABFF00"/>
<path d="M112.5 692C105.596 692 100 697.596 100 704.5C100 711.404 105.596 717 112.5 717C105.596 717 100 722.596 100 729.5C100 736.404 105.596 742 112.5 742C119.404 742 125 736.404 125 729.5C125 736.404 130.596 742 137.5 742C144.404 742 150 736.404 150 729.5C150 722.596 144.404 717 137.5 717C144.404 717 150 711.404 150 704.5C150 697.596 144.404 692 137.5 692C130.596 692 125 697.596 125 704.5C125 697.596 119.404 692 112.5 692Z" fill="#101010"/>
<path d="M112.5 692C119.296 692 124.825 697.423 124.996 704.178L125 704.5V717H112.5C105.596 717 100 711.404 100 704.5C100 697.596 105.596 692 112.5 692Z" fill="#ABFF00"/>
<path d="M162.5 692C155.596 692 150 697.596 150 704.5C150 711.404 155.596 717 162.5 717C155.596 717 150 722.596 150 729.5C150 736.404 155.596 742 162.5 742C169.404 742 175 736.404 175 729.5C175 736.404 180.596 742 187.5 742C194.404 742 200 736.404 200 729.5C200 722.596 194.404 717 187.5 717C194.404 717 200 711.404 200 704.5C200 697.596 194.404 692 187.5 692C180.596 692 175 697.596 175 704.5C175 697.596 169.404 692 162.5 692Z" fill="#101010"/>
<path d="M162.5 692C169.296 692 174.825 697.423 174.996 704.178L175 704.5V717H162.5C155.596 717 150 711.404 150 704.5C150 697.596 155.596 692 162.5 692Z" fill="#ABFF00"/>
<path d="M212.5 692C205.596 692 200 697.596 200 704.5C200 711.404 205.596 717 212.5 717C205.596 717 200 722.596 200 729.5C200 736.404 205.596 742 212.5 742C219.404 742 225 736.404 225 729.5C225 736.404 230.596 742 237.5 742C244.404 742 250 736.404 250 729.5C250 722.596 244.404 717 237.5 717C244.404 717 250 711.404 250 704.5C250 697.596 244.404 692 237.5 692C230.596 692 225 697.596 225 704.5C225 697.596 219.404 692 212.5 692Z" fill="#101010"/>
<path d="M212.5 692C219.296 692 224.825 697.423 224.996 704.178L225 704.5V717H212.5C205.596 717 200 711.404 200 704.5C200 697.596 205.596 692 212.5 692Z" fill="#ABFF00"/>
<path d="M262.5 692C255.596 692 250 697.596 250 704.5C250 711.404 255.596 717 262.5 717C255.596 717 250 722.596 250 729.5C250 736.404 255.596 742 262.5 742C269.404 742 275 736.404 275 729.5C275 736.404 280.596 742 287.5 742C294.404 742 300 736.404 300 729.5C300 722.596 294.404 717 287.5 717C294.404 717 300 711.404 300 704.5C300 697.596 294.404 692 287.5 692C280.596 692 275 697.596 275 704.5C275 697.596 269.404 692 262.5 692Z" fill="#101010"/>
<path d="M262.5 692C269.296 692 274.825 697.423 274.996 704.178L275 704.5V717H262.5C255.596 717 250 711.404 250 704.5C250 697.596 255.596 692 262.5 692Z" fill="#ABFF00"/>
<path d="M312.5 692C305.596 692 300 697.596 300 704.5C300 711.404 305.596 717 312.5 717C305.596 717 300 722.596 300 729.5C300 736.404 305.596 742 312.5 742C319.404 742 325 736.404 325 729.5C325 736.404 330.596 742 337.5 742C344.404 742 350 736.404 350 729.5C350 722.596 344.404 717 337.5 717C344.404 717 350 711.404 350 704.5C350 697.596 344.404 692 337.5 692C330.596 692 325 697.596 325 704.5C325 697.596 319.404 692 312.5 692Z" fill="#101010"/>
<path d="M312.5 692C319.296 692 324.825 697.423 324.996 704.178L325 704.5V717H312.5C305.596 717 300 711.404 300 704.5C300 697.596 305.596 692 312.5 692Z" fill="#ABFF00"/>
<path d="M362.5 692C355.596 692 350 697.596 350 704.5C350 711.404 355.596 717 362.5 717C355.596 717 350 722.596 350 729.5C350 736.404 355.596 742 362.5 742C369.404 742 375 736.404 375 729.5C375 736.404 380.596 742 387.5 742C394.404 742 400 736.404 400 729.5C400 722.596 394.404 717 387.5 717C394.404 717 400 711.404 400 704.5C400 697.596 394.404 692 387.5 692C380.596 692 375 697.596 375 704.5C375 697.596 369.404 692 362.5 692Z" fill="#101010"/>
<path d="M362.5 692C369.296 692 374.825 697.423 374.996 704.178L375 704.5V717H362.5C355.596 717 350 711.404 350 704.5C350 697.596 355.596 692 362.5 692Z" fill="#ABFF00"/>
<path d="M412.5 692C405.596 692 400 697.596 400 704.5C400 711.404 405.596 717 412.5 717C405.596 717 400 722.596 400 729.5C400 736.404 405.596 742 412.5 742C419.404 742 425 736.404 425 729.5C425 736.404 430.596 742 437.5 742C444.404 742 450 736.404 450 729.5C450 722.596 444.404 717 437.5 717C444.404 717 450 711.404 450 704.5C450 697.596 444.404 692 437.5 692C430.596 692 425 697.596 425 704.5C425 697.596 419.404 692 412.5 692Z" fill="#101010"/>
<path d="M412.5 692C419.296 692 424.825 697.423 424.996 704.178L425 704.5V717H412.5C405.596 717 400 711.404 400 704.5C400 697.596 405.596 692 412.5 692Z" fill="#ABFF00"/>
<path d="M62.5 742C55.5964 742 50 747.596 50 754.5C50 761.404 55.5964 767 62.5 767C55.5964 767 50 772.596 50 779.5C50 786.404 55.5964 792 62.5 792C69.4037 792 75 786.404 75 779.5C75 786.404 80.5963 792 87.5 792C94.4037 792 100 786.404 100 779.5C100 772.596 94.4037 767 87.5 767C94.4037 767 100 761.404 100 754.5C100 747.596 94.4037 742 87.5 742C80.5963 742 75 747.596 75 754.5C75 747.596 69.4037 742 62.5 742Z" fill="#101010"/>
<path d="M62.5 742C69.2959 742 74.8252 747.423 74.9961 754.178L75 754.5V767H62.5C55.5964 767 50 761.404 50 754.5C50 747.596 55.5964 742 62.5 742Z" fill="#ABFF00"/>
<path d="M112.5 742C105.596 742 100 747.596 100 754.5C100 761.404 105.596 767 112.5 767C105.596 767 100 772.596 100 779.5C100 786.404 105.596 792 112.5 792C119.404 792 125 786.404 125 779.5C125 786.404 130.596 792 137.5 792C144.404 792 150 786.404 150 779.5C150 772.596 144.404 767 137.5 767C144.404 767 150 761.404 150 754.5C150 747.596 144.404 742 137.5 742C130.596 742 125 747.596 125 754.5C125 747.596 119.404 742 112.5 742Z" fill="#101010"/>
<path d="M112.5 742C119.296 742 124.825 747.423 124.996 754.178L125 754.5V767H112.5C105.596 767 100 761.404 100 754.5C100 747.596 105.596 742 112.5 742Z" fill="#ABFF00"/>
<path d="M162.5 742C155.596 742 150 747.596 150 754.5C150 761.404 155.596 767 162.5 767C155.596 767 150 772.596 150 779.5C150 786.404 155.596 792 162.5 792C169.404 792 175 786.404 175 779.5C175 786.404 180.596 792 187.5 792C194.404 792 200 786.404 200 779.5C200 772.596 194.404 767 187.5 767C194.404 767 200 761.404 200 754.5C200 747.596 194.404 742 187.5 742C180.596 742 175 747.596 175 754.5C175 747.596 169.404 742 162.5 742Z" fill="#101010"/>
<path d="M162.5 742C169.296 742 174.825 747.423 174.996 754.178L175 754.5V767H162.5C155.596 767 150 761.404 150 754.5C150 747.596 155.596 742 162.5 742Z" fill="#ABFF00"/>
<path d="M212.5 742C205.596 742 200 747.596 200 754.5C200 761.404 205.596 767 212.5 767C205.596 767 200 772.596 200 779.5C200 786.404 205.596 792 212.5 792C219.404 792 225 786.404 225 779.5C225 786.404 230.596 792 237.5 792C244.404 792 250 786.404 250 779.5C250 772.596 244.404 767 237.5 767C244.404 767 250 761.404 250 754.5C250 747.596 244.404 742 237.5 742C230.596 742 225 747.596 225 754.5C225 747.596 219.404 742 212.5 742Z" fill="#101010"/>
<path d="M212.5 742C219.296 742 224.825 747.423 224.996 754.178L225 754.5V767H212.5C205.596 767 200 761.404 200 754.5C200 747.596 205.596 742 212.5 742Z" fill="#ABFF00"/>
<path d="M262.5 742C255.596 742 250 747.596 250 754.5C250 761.404 255.596 767 262.5 767C255.596 767 250 772.596 250 779.5C250 786.404 255.596 792 262.5 792C269.404 792 275 786.404 275 779.5C275 786.404 280.596 792 287.5 792C294.404 792 300 786.404 300 779.5C300 772.596 294.404 767 287.5 767C294.404 767 300 761.404 300 754.5C300 747.596 294.404 742 287.5 742C280.596 742 275 747.596 275 754.5C275 747.596 269.404 742 262.5 742Z" fill="#101010"/>
<path d="M262.5 742C269.296 742 274.825 747.423 274.996 754.178L275 754.5V767H262.5C255.596 767 250 761.404 250 754.5C250 747.596 255.596 742 262.5 742Z" fill="#ABFF00"/>
<path d="M312.5 742C305.596 742 300 747.596 300 754.5C300 761.404 305.596 767 312.5 767C305.596 767 300 772.596 300 779.5C300 786.404 305.596 792 312.5 792C319.404 792 325 786.404 325 779.5C325 786.404 330.596 792 337.5 792C344.404 792 350 786.404 350 779.5C350 772.596 344.404 767 337.5 767C344.404 767 350 761.404 350 754.5C350 747.596 344.404 742 337.5 742C330.596 742 325 747.596 325 754.5C325 747.596 319.404 742 312.5 742Z" fill="#101010"/>
<path d="M312.5 742C319.296 742 324.825 747.423 324.996 754.178L325 754.5V767H312.5C305.596 767 300 761.404 300 754.5C300 747.596 305.596 742 312.5 742Z" fill="#ABFF00"/>
<path d="M362.5 742C355.596 742 350 747.596 350 754.5C350 761.404 355.596 767 362.5 767C355.596 767 350 772.596 350 779.5C350 786.404 355.596 792 362.5 792C369.404 792 375 786.404 375 779.5C375 786.404 380.596 792 387.5 792C394.404 792 400 786.404 400 779.5C400 772.596 394.404 767 387.5 767C394.404 767 400 761.404 400 754.5C400 747.596 394.404 742 387.5 742C380.596 742 375 747.596 375 754.5C375 747.596 369.404 742 362.5 742Z" fill="#101010"/>
<path d="M362.5 742C369.296 742 374.825 747.423 374.996 754.178L375 754.5V767H362.5C355.596 767 350 761.404 350 754.5C350 747.596 355.596 742 362.5 742Z" fill="#ABFF00"/>
<path d="M412.5 742C405.596 742 400 747.596 400 754.5C400 761.404 405.596 767 412.5 767C405.596 767 400 772.596 400 779.5C400 786.404 405.596 792 412.5 792C419.404 792 425 786.404 425 779.5C425 786.404 430.596 792 437.5 792C444.404 792 450 786.404 450 779.5C450 772.596 444.404 767 437.5 767C444.404 767 450 761.404 450 754.5C450 747.596 444.404 742 437.5 742C430.596 742 425 747.596 425 754.5C425 747.596 419.404 742 412.5 742Z" fill="#101010"/>
<path d="M412.5 742C419.296 742 424.825 747.423 424.996 754.178L425 754.5V767H412.5C405.596 767 400 761.404 400 754.5C400 747.596 405.596 742 412.5 742Z" fill="#ABFF00"/>
</svg>
