<svg width="500" height="700" viewBox="0 0 500 700" fill="none" xmlns="http://www.w3.org/2000/svg">
<rect width="500" height="700" rx="20" fill="#F5F5F5"/>
<path d="M62.5 50C55.5964 50 50 55.5964 50 62.5C50 69.4037 55.5964 75 62.5 75C55.5964 75 50 80.5963 50 87.5C50 94.4037 55.5964 100 62.5 100C69.4037 100 75 94.4037 75 87.5C75 94.4037 80.5963 100 87.5 100C94.4037 100 100 94.4037 100 87.5C100 80.5963 94.4037 75 87.5 75C94.4037 75 100 69.4037 100 62.5C100 55.5964 94.4037 50 87.5 50C80.5963 50 75 55.5964 75 62.5C75 55.5964 69.4037 50 62.5 50Z" fill="#101010"/>
<path d="M62.5 50C69.2959 50 74.8252 55.4231 74.9961 62.1777L75 62.5V75H62.5C55.5964 75 50 69.4037 50 62.5C50 55.5964 55.5964 50 62.5 50Z" fill="#ABFF00"/>
<path d="M62.5 100C55.5964 100 50 105.596 50 112.5C50 119.404 55.5964 125 62.5 125C55.5964 125 50 130.596 50 137.5C50 144.404 55.5964 150 62.5 150C69.4037 150 75 144.404 75 137.5C75 144.404 80.5963 150 87.5 150C94.4037 150 100 144.404 100 137.5C100 130.596 94.4037 125 87.5 125C94.4037 125 100 119.404 100 112.5C100 105.596 94.4037 100 87.5 100C80.5963 100 75 105.596 75 112.5C75 105.596 69.4037 100 62.5 100Z" fill="#101010"/>
<path d="M62.5 100C69.2959 100 74.8252 105.423 74.9961 112.178L75 112.5V125H62.5C55.5964 125 50 119.404 50 112.5C50 105.596 55.5964 100 62.5 100Z" fill="#ABFF00"/>
<path d="M62.5 150C55.5964 150 50 155.596 50 162.5C50 169.404 55.5964 175 62.5 175C55.5964 175 50 180.596 50 187.5C50 194.404 55.5964 200 62.5 200C69.4037 200 75 194.404 75 187.5C75 194.404 80.5963 200 87.5 200C94.4037 200 100 194.404 100 187.5C100 180.596 94.4037 175 87.5 175C94.4037 175 100 169.404 100 162.5C100 155.596 94.4037 150 87.5 150C80.5963 150 75 155.596 75 162.5C75 155.596 69.4037 150 62.5 150Z" fill="#101010"/>
<path d="M62.5 150C69.2959 150 74.8252 155.423 74.9961 162.178L75 162.5V175H62.5C55.5964 175 50 169.404 50 162.5C50 155.596 55.5964 150 62.5 150Z" fill="#ABFF00"/>
<path d="M62.5 200C55.5964 200 50 205.596 50 212.5C50 219.404 55.5964 225 62.5 225C55.5964 225 50 230.596 50 237.5C50 244.404 55.5964 250 62.5 250C69.4037 250 75 244.404 75 237.5C75 244.404 80.5963 250 87.5 250C94.4037 250 100 244.404 100 237.5C100 230.596 94.4037 225 87.5 225C94.4037 225 100 219.404 100 212.5C100 205.596 94.4037 200 87.5 200C80.5963 200 75 205.596 75 212.5C75 205.596 69.4037 200 62.5 200Z" fill="#101010"/>
<path d="M62.5 200C69.2959 200 74.8252 205.423 74.9961 212.178L75 212.5V225H62.5C55.5964 225 50 219.404 50 212.5C50 205.596 55.5964 200 62.5 200Z" fill="#ABFF00"/>
<path d="M62.5 250C55.5964 250 50 255.596 50 262.5C50 269.404 55.5964 275 62.5 275C55.5964 275 50 280.596 50 287.5C50 294.404 55.5964 300 62.5 300C69.4037 300 75 294.404 75 287.5C75 294.404 80.5963 300 87.5 300C94.4037 300 100 294.404 100 287.5C100 280.596 94.4037 275 87.5 275C94.4037 275 100 269.404 100 262.5C100 255.596 94.4037 250 87.5 250C80.5963 250 75 255.596 75 262.5C75 255.596 69.4037 250 62.5 250Z" fill="#101010"/>
<path d="M62.5 250C69.2959 250 74.8252 255.423 74.9961 262.178L75 262.5V275H62.5C55.5964 275 50 269.404 50 262.5C50 255.596 55.5964 250 62.5 250Z" fill="#ABFF00"/>
<path d="M62.5 300C55.5964 300 50 305.596 50 312.5C50 319.404 55.5964 325 62.5 325C55.5964 325 50 330.596 50 337.5C50 344.404 55.5964 350 62.5 350C69.4037 350 75 344.404 75 337.5C75 344.404 80.5963 350 87.5 350C94.4037 350 100 344.404 100 337.5C100 330.596 94.4037 325 87.5 325C94.4037 325 100 319.404 100 312.5C100 305.596 94.4037 300 87.5 300C80.5963 300 75 305.596 75 312.5C75 305.596 69.4037 300 62.5 300Z" fill="#101010"/>
<path d="M62.5 300C69.2959 300 74.8252 305.423 74.9961 312.178L75 312.5V325H62.5C55.5964 325 50 319.404 50 312.5C50 305.596 55.5964 300 62.5 300Z" fill="#ABFF00"/>
<path d="M62.5 350C55.5964 350 50 355.596 50 362.5C50 369.404 55.5964 375 62.5 375C55.5964 375 50 380.596 50 387.5C50 394.404 55.5964 400 62.5 400C69.4037 400 75 394.404 75 387.5C75 394.404 80.5963 400 87.5 400C94.4037 400 100 394.404 100 387.5C100 380.596 94.4037 375 87.5 375C94.4037 375 100 369.404 100 362.5C100 355.596 94.4037 350 87.5 350C80.5963 350 75 355.596 75 362.5C75 355.596 69.4037 350 62.5 350Z" fill="#101010"/>
<path d="M62.5 350C69.2959 350 74.8252 355.423 74.9961 362.178L75 362.5V375H62.5C55.5964 375 50 369.404 50 362.5C50 355.596 55.5964 350 62.5 350Z" fill="#ABFF00"/>
<path d="M62.5 400C55.5964 400 50 405.596 50 412.5C50 419.404 55.5964 425 62.5 425C55.5964 425 50 430.596 50 437.5C50 444.404 55.5964 450 62.5 450C69.4037 450 75 444.404 75 437.5C75 444.404 80.5963 450 87.5 450C94.4037 450 100 444.404 100 437.5C100 430.596 94.4037 425 87.5 425C94.4037 425 100 419.404 100 412.5C100 405.596 94.4037 400 87.5 400C80.5963 400 75 405.596 75 412.5C75 405.596 69.4037 400 62.5 400Z" fill="#101010"/>
<path d="M62.5 400C69.2959 400 74.8252 405.423 74.9961 412.178L75 412.5V425H62.5C55.5964 425 50 419.404 50 412.5C50 405.596 55.5964 400 62.5 400Z" fill="#ABFF00"/>
<path d="M62.5 450C55.5964 450 50 455.596 50 462.5C50 469.404 55.5964 475 62.5 475C55.5964 475 50 480.596 50 487.5C50 494.404 55.5964 500 62.5 500C69.4037 500 75 494.404 75 487.5C75 494.404 80.5963 500 87.5 500C94.4037 500 100 494.404 100 487.5C100 480.596 94.4037 475 87.5 475C94.4037 475 100 469.404 100 462.5C100 455.596 94.4037 450 87.5 450C80.5963 450 75 455.596 75 462.5C75 455.596 69.4037 450 62.5 450Z" fill="#101010"/>
<path d="M62.5 450C69.2959 450 74.8252 455.423 74.9961 462.178L75 462.5V475H62.5C55.5964 475 50 469.404 50 462.5C50 455.596 55.5964 450 62.5 450Z" fill="#ABFF00"/>
<path d="M62.5 500C55.5964 500 50 505.596 50 512.5C50 519.404 55.5964 525 62.5 525C55.5964 525 50 530.596 50 537.5C50 544.404 55.5964 550 62.5 550C69.4037 550 75 544.404 75 537.5C75 544.404 80.5963 550 87.5 550C94.4037 550 100 544.404 100 537.5C100 530.596 94.4037 525 87.5 525C94.4037 525 100 519.404 100 512.5C100 505.596 94.4037 500 87.5 500C80.5963 500 75 505.596 75 512.5C75 505.596 69.4037 500 62.5 500Z" fill="#101010"/>
<path d="M62.5 500C69.2959 500 74.8252 505.423 74.9961 512.178L75 512.5V525H62.5C55.5964 525 50 519.404 50 512.5C50 505.596 55.5964 500 62.5 500Z" fill="#ABFF00"/>
<path d="M62.5 550C55.5964 550 50 555.596 50 562.5C50 569.404 55.5964 575 62.5 575C55.5964 575 50 580.596 50 587.5C50 594.404 55.5964 600 62.5 600C69.4037 600 75 594.404 75 587.5C75 594.404 80.5963 600 87.5 600C94.4037 600 100 594.404 100 587.5C100 580.596 94.4037 575 87.5 575C94.4037 575 100 569.404 100 562.5C100 555.596 94.4037 550 87.5 550C80.5963 550 75 555.596 75 562.5C75 555.596 69.4037 550 62.5 550Z" fill="#101010"/>
<path d="M62.5 550C69.2959 550 74.8252 555.423 74.9961 562.178L75 562.5V575H62.5C55.5964 575 50 569.404 50 562.5C50 555.596 55.5964 550 62.5 550Z" fill="#ABFF00"/>
<path d="M62.5 600C55.5964 600 50 605.596 50 612.5C50 619.404 55.5964 625 62.5 625C55.5964 625 50 630.596 50 637.5C50 644.404 55.5964 650 62.5 650C69.4037 650 75 644.404 75 637.5C75 644.404 80.5963 650 87.5 650C94.4037 650 100 644.404 100 637.5C100 630.596 94.4037 625 87.5 625C94.4037 625 100 619.404 100 612.5C100 605.596 94.4037 600 87.5 600C80.5963 600 75 605.596 75 612.5C75 605.596 69.4037 600 62.5 600Z" fill="#101010"/>
<path d="M62.5 600C69.2959 600 74.8252 605.423 74.9961 612.178L75 612.5V625H62.5C55.5964 625 50 619.404 50 612.5C50 605.596 55.5964 600 62.5 600Z" fill="#ABFF00"/>
<path d="M112.5 50C105.596 50 100 55.5964 100 62.5C100 69.4037 105.596 75 112.5 75C105.596 75 100 80.5963 100 87.5C100 94.4037 105.596 100 112.5 100C119.404 100 125 94.4037 125 87.5C125 94.4037 130.596 100 137.5 100C144.404 100 150 94.4037 150 87.5C150 80.5963 144.404 75 137.5 75C144.404 75 150 69.4037 150 62.5C150 55.5964 144.404 50 137.5 50C130.596 50 125 55.5964 125 62.5C125 55.5964 119.404 50 112.5 50Z" fill="#101010"/>
<path d="M112.5 50C119.296 50 124.825 55.4231 124.996 62.1777L125 62.5V75H112.5C105.596 75 100 69.4037 100 62.5C100 55.5964 105.596 50 112.5 50Z" fill="#ABFF00"/>
<path d="M112.5 100C105.596 100 100 105.596 100 112.5C100 119.404 105.596 125 112.5 125C105.596 125 100 130.596 100 137.5C100 144.404 105.596 150 112.5 150C119.404 150 125 144.404 125 137.5C125 144.404 130.596 150 137.5 150C144.404 150 150 144.404 150 137.5C150 130.596 144.404 125 137.5 125C144.404 125 150 119.404 150 112.5C150 105.596 144.404 100 137.5 100C130.596 100 125 105.596 125 112.5C125 105.596 119.404 100 112.5 100Z" fill="#101010"/>
<path d="M112.5 100C119.296 100 124.825 105.423 124.996 112.178L125 112.5V125H112.5C105.596 125 100 119.404 100 112.5C100 105.596 105.596 100 112.5 100Z" fill="#ABFF00"/>
<path d="M112.5 150C105.596 150 100 155.596 100 162.5C100 169.404 105.596 175 112.5 175C105.596 175 100 180.596 100 187.5C100 194.404 105.596 200 112.5 200C119.404 200 125 194.404 125 187.5C125 194.404 130.596 200 137.5 200C144.404 200 150 194.404 150 187.5C150 180.596 144.404 175 137.5 175C144.404 175 150 169.404 150 162.5C150 155.596 144.404 150 137.5 150C130.596 150 125 155.596 125 162.5C125 155.596 119.404 150 112.5 150Z" fill="#101010"/>
<path d="M112.5 150C119.296 150 124.825 155.423 124.996 162.178L125 162.5V175H112.5C105.596 175 100 169.404 100 162.5C100 155.596 105.596 150 112.5 150Z" fill="#ABFF00"/>
<path d="M112.5 200C105.596 200 100 205.596 100 212.5C100 219.404 105.596 225 112.5 225C105.596 225 100 230.596 100 237.5C100 244.404 105.596 250 112.5 250C119.404 250 125 244.404 125 237.5C125 244.404 130.596 250 137.5 250C144.404 250 150 244.404 150 237.5C150 230.596 144.404 225 137.5 225C144.404 225 150 219.404 150 212.5C150 205.596 144.404 200 137.5 200C130.596 200 125 205.596 125 212.5C125 205.596 119.404 200 112.5 200Z" fill="#101010"/>
<path d="M112.5 200C119.296 200 124.825 205.423 124.996 212.178L125 212.5V225H112.5C105.596 225 100 219.404 100 212.5C100 205.596 105.596 200 112.5 200Z" fill="#ABFF00"/>
<path d="M112.5 250C105.596 250 100 255.596 100 262.5C100 269.404 105.596 275 112.5 275C105.596 275 100 280.596 100 287.5C100 294.404 105.596 300 112.5 300C119.404 300 125 294.404 125 287.5C125 294.404 130.596 300 137.5 300C144.404 300 150 294.404 150 287.5C150 280.596 144.404 275 137.5 275C144.404 275 150 269.404 150 262.5C150 255.596 144.404 250 137.5 250C130.596 250 125 255.596 125 262.5C125 255.596 119.404 250 112.5 250Z" fill="#101010"/>
<path d="M112.5 250C119.296 250 124.825 255.423 124.996 262.178L125 262.5V275H112.5C105.596 275 100 269.404 100 262.5C100 255.596 105.596 250 112.5 250Z" fill="#ABFF00"/>
<path d="M112.5 300C105.596 300 100 305.596 100 312.5C100 319.404 105.596 325 112.5 325C105.596 325 100 330.596 100 337.5C100 344.404 105.596 350 112.5 350C119.404 350 125 344.404 125 337.5C125 344.404 130.596 350 137.5 350C144.404 350 150 344.404 150 337.5C150 330.596 144.404 325 137.5 325C144.404 325 150 319.404 150 312.5C150 305.596 144.404 300 137.5 300C130.596 300 125 305.596 125 312.5C125 305.596 119.404 300 112.5 300Z" fill="#101010"/>
<path d="M112.5 300C119.296 300 124.825 305.423 124.996 312.178L125 312.5V325H112.5C105.596 325 100 319.404 100 312.5C100 305.596 105.596 300 112.5 300Z" fill="#ABFF00"/>
<path d="M112.5 350C105.596 350 100 355.596 100 362.5C100 369.404 105.596 375 112.5 375C105.596 375 100 380.596 100 387.5C100 394.404 105.596 400 112.5 400C119.404 400 125 394.404 125 387.5C125 394.404 130.596 400 137.5 400C144.404 400 150 394.404 150 387.5C150 380.596 144.404 375 137.5 375C144.404 375 150 369.404 150 362.5C150 355.596 144.404 350 137.5 350C130.596 350 125 355.596 125 362.5C125 355.596 119.404 350 112.5 350Z" fill="#101010"/>
<path d="M112.5 350C119.296 350 124.825 355.423 124.996 362.178L125 362.5V375H112.5C105.596 375 100 369.404 100 362.5C100 355.596 105.596 350 112.5 350Z" fill="#ABFF00"/>
<path d="M112.5 400C105.596 400 100 405.596 100 412.5C100 419.404 105.596 425 112.5 425C105.596 425 100 430.596 100 437.5C100 444.404 105.596 450 112.5 450C119.404 450 125 444.404 125 437.5C125 444.404 130.596 450 137.5 450C144.404 450 150 444.404 150 437.5C150 430.596 144.404 425 137.5 425C144.404 425 150 419.404 150 412.5C150 405.596 144.404 400 137.5 400C130.596 400 125 405.596 125 412.5C125 405.596 119.404 400 112.5 400Z" fill="#101010"/>
<path d="M112.5 400C119.296 400 124.825 405.423 124.996 412.178L125 412.5V425H112.5C105.596 425 100 419.404 100 412.5C100 405.596 105.596 400 112.5 400Z" fill="#ABFF00"/>
<path d="M112.5 450C105.596 450 100 455.596 100 462.5C100 469.404 105.596 475 112.5 475C105.596 475 100 480.596 100 487.5C100 494.404 105.596 500 112.5 500C119.404 500 125 494.404 125 487.5C125 494.404 130.596 500 137.5 500C144.404 500 150 494.404 150 487.5C150 480.596 144.404 475 137.5 475C144.404 475 150 469.404 150 462.5C150 455.596 144.404 450 137.5 450C130.596 450 125 455.596 125 462.5C125 455.596 119.404 450 112.5 450Z" fill="#101010"/>
<path d="M112.5 450C119.296 450 124.825 455.423 124.996 462.178L125 462.5V475H112.5C105.596 475 100 469.404 100 462.5C100 455.596 105.596 450 112.5 450Z" fill="#ABFF00"/>
<path d="M112.5 500C105.596 500 100 505.596 100 512.5C100 519.404 105.596 525 112.5 525C105.596 525 100 530.596 100 537.5C100 544.404 105.596 550 112.5 550C119.404 550 125 544.404 125 537.5C125 544.404 130.596 550 137.5 550C144.404 550 150 544.404 150 537.5C150 530.596 144.404 525 137.5 525C144.404 525 150 519.404 150 512.5C150 505.596 144.404 500 137.5 500C130.596 500 125 505.596 125 512.5C125 505.596 119.404 500 112.5 500Z" fill="#101010"/>
<path d="M112.5 500C119.296 500 124.825 505.423 124.996 512.178L125 512.5V525H112.5C105.596 525 100 519.404 100 512.5C100 505.596 105.596 500 112.5 500Z" fill="#ABFF00"/>
<path d="M112.5 550C105.596 550 100 555.596 100 562.5C100 569.404 105.596 575 112.5 575C105.596 575 100 580.596 100 587.5C100 594.404 105.596 600 112.5 600C119.404 600 125 594.404 125 587.5C125 594.404 130.596 600 137.5 600C144.404 600 150 594.404 150 587.5C150 580.596 144.404 575 137.5 575C144.404 575 150 569.404 150 562.5C150 555.596 144.404 550 137.5 550C130.596 550 125 555.596 125 562.5C125 555.596 119.404 550 112.5 550Z" fill="#101010"/>
<path d="M112.5 550C119.296 550 124.825 555.423 124.996 562.178L125 562.5V575H112.5C105.596 575 100 569.404 100 562.5C100 555.596 105.596 550 112.5 550Z" fill="#ABFF00"/>
<path d="M112.5 600C105.596 600 100 605.596 100 612.5C100 619.404 105.596 625 112.5 625C105.596 625 100 630.596 100 637.5C100 644.404 105.596 650 112.5 650C119.404 650 125 644.404 125 637.5C125 644.404 130.596 650 137.5 650C144.404 650 150 644.404 150 637.5C150 630.596 144.404 625 137.5 625C144.404 625 150 619.404 150 612.5C150 605.596 144.404 600 137.5 600C130.596 600 125 605.596 125 612.5C125 605.596 119.404 600 112.5 600Z" fill="#101010"/>
<path d="M112.5 600C119.296 600 124.825 605.423 124.996 612.178L125 612.5V625H112.5C105.596 625 100 619.404 100 612.5C100 605.596 105.596 600 112.5 600Z" fill="#ABFF00"/>
<path d="M162.5 50C155.596 50 150 55.5964 150 62.5C150 69.4037 155.596 75 162.5 75C155.596 75 150 80.5963 150 87.5C150 94.4037 155.596 100 162.5 100C169.404 100 175 94.4037 175 87.5C175 94.4037 180.596 100 187.5 100C194.404 100 200 94.4037 200 87.5C200 80.5963 194.404 75 187.5 75C194.404 75 200 69.4037 200 62.5C200 55.5964 194.404 50 187.5 50C180.596 50 175 55.5964 175 62.5C175 55.5964 169.404 50 162.5 50Z" fill="#101010"/>
<path d="M162.5 50C169.296 50 174.825 55.4231 174.996 62.1777L175 62.5V75H162.5C155.596 75 150 69.4037 150 62.5C150 55.5964 155.596 50 162.5 50Z" fill="#ABFF00"/>
<path d="M212.5 50C205.596 50 200 55.5964 200 62.5C200 69.4037 205.596 75 212.5 75C205.596 75 200 80.5963 200 87.5C200 94.4037 205.596 100 212.5 100C219.404 100 225 94.4037 225 87.5C225 94.4037 230.596 100 237.5 100C244.404 100 250 94.4037 250 87.5C250 80.5963 244.404 75 237.5 75C244.404 75 250 69.4037 250 62.5C250 55.5964 244.404 50 237.5 50C230.596 50 225 55.5964 225 62.5C225 55.5964 219.404 50 212.5 50Z" fill="#101010"/>
<path d="M212.5 50C219.296 50 224.825 55.4231 224.996 62.1777L225 62.5V75H212.5C205.596 75 200 69.4037 200 62.5C200 55.5964 205.596 50 212.5 50Z" fill="#ABFF00"/>
<path d="M262.5 50C255.596 50 250 55.5964 250 62.5C250 69.4037 255.596 75 262.5 75C255.596 75 250 80.5963 250 87.5C250 94.4037 255.596 100 262.5 100C269.404 100 275 94.4037 275 87.5C275 94.4037 280.596 100 287.5 100C294.404 100 300 94.4037 300 87.5C300 80.5963 294.404 75 287.5 75C294.404 75 300 69.4037 300 62.5C300 55.5964 294.404 50 287.5 50C280.596 50 275 55.5964 275 62.5C275 55.5964 269.404 50 262.5 50Z" fill="#101010"/>
<path d="M262.5 50C269.296 50 274.825 55.4231 274.996 62.1777L275 62.5V75H262.5C255.596 75 250 69.4037 250 62.5C250 55.5964 255.596 50 262.5 50Z" fill="#ABFF00"/>
<path d="M312.5 50C305.596 50 300 55.5964 300 62.5C300 69.4037 305.596 75 312.5 75C305.596 75 300 80.5963 300 87.5C300 94.4037 305.596 100 312.5 100C319.404 100 325 94.4037 325 87.5C325 94.4037 330.596 100 337.5 100C344.404 100 350 94.4037 350 87.5C350 80.5963 344.404 75 337.5 75C344.404 75 350 69.4037 350 62.5C350 55.5964 344.404 50 337.5 50C330.596 50 325 55.5964 325 62.5C325 55.5964 319.404 50 312.5 50Z" fill="#101010"/>
<path d="M312.5 50C319.296 50 324.825 55.4231 324.996 62.1777L325 62.5V75H312.5C305.596 75 300 69.4037 300 62.5C300 55.5964 305.596 50 312.5 50Z" fill="#ABFF00"/>
<path d="M362.5 50C355.596 50 350 55.5964 350 62.5C350 69.4037 355.596 75 362.5 75C355.596 75 350 80.5963 350 87.5C350 94.4037 355.596 100 362.5 100C369.404 100 375 94.4037 375 87.5C375 94.4037 380.596 100 387.5 100C394.404 100 400 94.4037 400 87.5C400 80.5963 394.404 75 387.5 75C394.404 75 400 69.4037 400 62.5C400 55.5964 394.404 50 387.5 50C380.596 50 375 55.5964 375 62.5C375 55.5964 369.404 50 362.5 50Z" fill="#101010"/>
<path d="M362.5 50C369.296 50 374.825 55.4231 374.996 62.1777L375 62.5V75H362.5C355.596 75 350 69.4037 350 62.5C350 55.5964 355.596 50 362.5 50Z" fill="#ABFF00"/>
<path d="M412.5 50C405.596 50 400 55.5964 400 62.5C400 69.4037 405.596 75 412.5 75C405.596 75 400 80.5963 400 87.5C400 94.4037 405.596 100 412.5 100C419.404 100 425 94.4037 425 87.5C425 94.4037 430.596 100 437.5 100C444.404 100 450 94.4037 450 87.5C450 80.5963 444.404 75 437.5 75C444.404 75 450 69.4037 450 62.5C450 55.5964 444.404 50 437.5 50C430.596 50 425 55.5964 425 62.5C425 55.5964 419.404 50 412.5 50Z" fill="#101010"/>
<path d="M412.5 50C419.296 50 424.825 55.4231 424.996 62.1777L425 62.5V75H412.5C405.596 75 400 69.4037 400 62.5C400 55.5964 405.596 50 412.5 50Z" fill="#ABFF00"/>
<path d="M162.5 100C155.596 100 150 105.596 150 112.5C150 119.404 155.596 125 162.5 125C155.596 125 150 130.596 150 137.5C150 144.404 155.596 150 162.5 150C169.404 150 175 144.404 175 137.5C175 144.404 180.596 150 187.5 150C194.404 150 200 144.404 200 137.5C200 130.596 194.404 125 187.5 125C194.404 125 200 119.404 200 112.5C200 105.596 194.404 100 187.5 100C180.596 100 175 105.596 175 112.5C175 105.596 169.404 100 162.5 100Z" fill="#101010"/>
<path d="M162.5 100C169.296 100 174.825 105.423 174.996 112.178L175 112.5V125H162.5C155.596 125 150 119.404 150 112.5C150 105.596 155.596 100 162.5 100Z" fill="#ABFF00"/>
<path d="M212.5 100C205.596 100 200 105.596 200 112.5C200 119.404 205.596 125 212.5 125C205.596 125 200 130.596 200 137.5C200 144.404 205.596 150 212.5 150C219.404 150 225 144.404 225 137.5C225 144.404 230.596 150 237.5 150C244.404 150 250 144.404 250 137.5C250 130.596 244.404 125 237.5 125C244.404 125 250 119.404 250 112.5C250 105.596 244.404 100 237.5 100C230.596 100 225 105.596 225 112.5C225 105.596 219.404 100 212.5 100Z" fill="#101010"/>
<path d="M212.5 100C219.296 100 224.825 105.423 224.996 112.178L225 112.5V125H212.5C205.596 125 200 119.404 200 112.5C200 105.596 205.596 100 212.5 100Z" fill="#ABFF00"/>
<path d="M262.5 100C255.596 100 250 105.596 250 112.5C250 119.404 255.596 125 262.5 125C255.596 125 250 130.596 250 137.5C250 144.404 255.596 150 262.5 150C269.404 150 275 144.404 275 137.5C275 144.404 280.596 150 287.5 150C294.404 150 300 144.404 300 137.5C300 130.596 294.404 125 287.5 125C294.404 125 300 119.404 300 112.5C300 105.596 294.404 100 287.5 100C280.596 100 275 105.596 275 112.5C275 105.596 269.404 100 262.5 100Z" fill="#101010"/>
<path d="M262.5 100C269.296 100 274.825 105.423 274.996 112.178L275 112.5V125H262.5C255.596 125 250 119.404 250 112.5C250 105.596 255.596 100 262.5 100Z" fill="#ABFF00"/>
<path d="M312.5 100C305.596 100 300 105.596 300 112.5C300 119.404 305.596 125 312.5 125C305.596 125 300 130.596 300 137.5C300 144.404 305.596 150 312.5 150C319.404 150 325 144.404 325 137.5C325 144.404 330.596 150 337.5 150C344.404 150 350 144.404 350 137.5C350 130.596 344.404 125 337.5 125C344.404 125 350 119.404 350 112.5C350 105.596 344.404 100 337.5 100C330.596 100 325 105.596 325 112.5C325 105.596 319.404 100 312.5 100Z" fill="#101010"/>
<path d="M312.5 100C319.296 100 324.825 105.423 324.996 112.178L325 112.5V125H312.5C305.596 125 300 119.404 300 112.5C300 105.596 305.596 100 312.5 100Z" fill="#ABFF00"/>
<path d="M362.5 100C355.596 100 350 105.596 350 112.5C350 119.404 355.596 125 362.5 125C355.596 125 350 130.596 350 137.5C350 144.404 355.596 150 362.5 150C369.404 150 375 144.404 375 137.5C375 144.404 380.596 150 387.5 150C394.404 150 400 144.404 400 137.5C400 130.596 394.404 125 387.5 125C394.404 125 400 119.404 400 112.5C400 105.596 394.404 100 387.5 100C380.596 100 375 105.596 375 112.5C375 105.596 369.404 100 362.5 100Z" fill="#101010"/>
<path d="M362.5 100C369.296 100 374.825 105.423 374.996 112.178L375 112.5V125H362.5C355.596 125 350 119.404 350 112.5C350 105.596 355.596 100 362.5 100Z" fill="#ABFF00"/>
<path d="M412.5 100C405.596 100 400 105.596 400 112.5C400 119.404 405.596 125 412.5 125C405.596 125 400 130.596 400 137.5C400 144.404 405.596 150 412.5 150C419.404 150 425 144.404 425 137.5C425 144.404 430.596 150 437.5 150C444.404 150 450 144.404 450 137.5C450 130.596 444.404 125 437.5 125C444.404 125 450 119.404 450 112.5C450 105.596 444.404 100 437.5 100C430.596 100 425 105.596 425 112.5C425 105.596 419.404 100 412.5 100Z" fill="#101010"/>
<path d="M412.5 100C419.296 100 424.825 105.423 424.996 112.178L425 112.5V125H412.5C405.596 125 400 119.404 400 112.5C400 105.596 405.596 100 412.5 100Z" fill="#ABFF00"/>
<path d="M162.5 150C155.596 150 150 155.596 150 162.5C150 169.404 155.596 175 162.5 175C155.596 175 150 180.596 150 187.5C150 194.404 155.596 200 162.5 200C169.404 200 175 194.404 175 187.5C175 194.404 180.596 200 187.5 200C194.404 200 200 194.404 200 187.5C200 180.596 194.404 175 187.5 175C194.404 175 200 169.404 200 162.5C200 155.596 194.404 150 187.5 150C180.596 150 175 155.596 175 162.5C175 155.596 169.404 150 162.5 150Z" fill="#101010"/>
<path d="M162.5 150C169.296 150 174.825 155.423 174.996 162.178L175 162.5V175H162.5C155.596 175 150 169.404 150 162.5C150 155.596 155.596 150 162.5 150Z" fill="#ABFF00"/>
<path d="M212.5 150C205.596 150 200 155.596 200 162.5C200 169.404 205.596 175 212.5 175C205.596 175 200 180.596 200 187.5C200 194.404 205.596 200 212.5 200C219.404 200 225 194.404 225 187.5C225 194.404 230.596 200 237.5 200C244.404 200 250 194.404 250 187.5C250 180.596 244.404 175 237.5 175C244.404 175 250 169.404 250 162.5C250 155.596 244.404 150 237.5 150C230.596 150 225 155.596 225 162.5C225 155.596 219.404 150 212.5 150Z" fill="#101010"/>
<path d="M212.5 150C219.296 150 224.825 155.423 224.996 162.178L225 162.5V175H212.5C205.596 175 200 169.404 200 162.5C200 155.596 205.596 150 212.5 150Z" fill="#ABFF00"/>
<path d="M262.5 150C255.596 150 250 155.596 250 162.5C250 169.404 255.596 175 262.5 175C255.596 175 250 180.596 250 187.5C250 194.404 255.596 200 262.5 200C269.404 200 275 194.404 275 187.5C275 194.404 280.596 200 287.5 200C294.404 200 300 194.404 300 187.5C300 180.596 294.404 175 287.5 175C294.404 175 300 169.404 300 162.5C300 155.596 294.404 150 287.5 150C280.596 150 275 155.596 275 162.5C275 155.596 269.404 150 262.5 150Z" fill="#101010"/>
<path d="M262.5 150C269.296 150 274.825 155.423 274.996 162.178L275 162.5V175H262.5C255.596 175 250 169.404 250 162.5C250 155.596 255.596 150 262.5 150Z" fill="#ABFF00"/>
<path d="M312.5 150C305.596 150 300 155.596 300 162.5C300 169.404 305.596 175 312.5 175C305.596 175 300 180.596 300 187.5C300 194.404 305.596 200 312.5 200C319.404 200 325 194.404 325 187.5C325 194.404 330.596 200 337.5 200C344.404 200 350 194.404 350 187.5C350 180.596 344.404 175 337.5 175C344.404 175 350 169.404 350 162.5C350 155.596 344.404 150 337.5 150C330.596 150 325 155.596 325 162.5C325 155.596 319.404 150 312.5 150Z" fill="#101010"/>
<path d="M312.5 150C319.296 150 324.825 155.423 324.996 162.178L325 162.5V175H312.5C305.596 175 300 169.404 300 162.5C300 155.596 305.596 150 312.5 150Z" fill="#ABFF00"/>
<path d="M362.5 150C355.596 150 350 155.596 350 162.5C350 169.404 355.596 175 362.5 175C355.596 175 350 180.596 350 187.5C350 194.404 355.596 200 362.5 200C369.404 200 375 194.404 375 187.5C375 194.404 380.596 200 387.5 200C394.404 200 400 194.404 400 187.5C400 180.596 394.404 175 387.5 175C394.404 175 400 169.404 400 162.5C400 155.596 394.404 150 387.5 150C380.596 150 375 155.596 375 162.5C375 155.596 369.404 150 362.5 150Z" fill="#101010"/>
<path d="M362.5 150C369.296 150 374.825 155.423 374.996 162.178L375 162.5V175H362.5C355.596 175 350 169.404 350 162.5C350 155.596 355.596 150 362.5 150Z" fill="#ABFF00"/>
<path d="M412.5 150C405.596 150 400 155.596 400 162.5C400 169.404 405.596 175 412.5 175C405.596 175 400 180.596 400 187.5C400 194.404 405.596 200 412.5 200C419.404 200 425 194.404 425 187.5C425 194.404 430.596 200 437.5 200C444.404 200 450 194.404 450 187.5C450 180.596 444.404 175 437.5 175C444.404 175 450 169.404 450 162.5C450 155.596 444.404 150 437.5 150C430.596 150 425 155.596 425 162.5C425 155.596 419.404 150 412.5 150Z" fill="#101010"/>
<path d="M412.5 150C419.296 150 424.825 155.423 424.996 162.178L425 162.5V175H412.5C405.596 175 400 169.404 400 162.5C400 155.596 405.596 150 412.5 150Z" fill="#ABFF00"/>
<path d="M162.5 200C155.596 200 150 205.596 150 212.5C150 219.404 155.596 225 162.5 225C155.596 225 150 230.596 150 237.5C150 244.404 155.596 250 162.5 250C169.404 250 175 244.404 175 237.5C175 244.404 180.596 250 187.5 250C194.404 250 200 244.404 200 237.5C200 230.596 194.404 225 187.5 225C194.404 225 200 219.404 200 212.5C200 205.596 194.404 200 187.5 200C180.596 200 175 205.596 175 212.5C175 205.596 169.404 200 162.5 200Z" fill="#101010"/>
<path d="M162.5 200C169.296 200 174.825 205.423 174.996 212.178L175 212.5V225H162.5C155.596 225 150 219.404 150 212.5C150 205.596 155.596 200 162.5 200Z" fill="#ABFF00"/>
<path d="M212.5 200C205.596 200 200 205.596 200 212.5C200 219.404 205.596 225 212.5 225C205.596 225 200 230.596 200 237.5C200 244.404 205.596 250 212.5 250C219.404 250 225 244.404 225 237.5C225 244.404 230.596 250 237.5 250C244.404 250 250 244.404 250 237.5C250 230.596 244.404 225 237.5 225C244.404 225 250 219.404 250 212.5C250 205.596 244.404 200 237.5 200C230.596 200 225 205.596 225 212.5C225 205.596 219.404 200 212.5 200Z" fill="#101010"/>
<path d="M212.5 200C219.296 200 224.825 205.423 224.996 212.178L225 212.5V225H212.5C205.596 225 200 219.404 200 212.5C200 205.596 205.596 200 212.5 200Z" fill="#ABFF00"/>
<path d="M262.5 200C255.596 200 250 205.596 250 212.5C250 219.404 255.596 225 262.5 225C255.596 225 250 230.596 250 237.5C250 244.404 255.596 250 262.5 250C269.404 250 275 244.404 275 237.5C275 244.404 280.596 250 287.5 250C294.404 250 300 244.404 300 237.5C300 230.596 294.404 225 287.5 225C294.404 225 300 219.404 300 212.5C300 205.596 294.404 200 287.5 200C280.596 200 275 205.596 275 212.5C275 205.596 269.404 200 262.5 200Z" fill="#101010"/>
<path d="M262.5 200C269.296 200 274.825 205.423 274.996 212.178L275 212.5V225H262.5C255.596 225 250 219.404 250 212.5C250 205.596 255.596 200 262.5 200Z" fill="#ABFF00"/>
<path d="M312.5 200C305.596 200 300 205.596 300 212.5C300 219.404 305.596 225 312.5 225C305.596 225 300 230.596 300 237.5C300 244.404 305.596 250 312.5 250C319.404 250 325 244.404 325 237.5C325 244.404 330.596 250 337.5 250C344.404 250 350 244.404 350 237.5C350 230.596 344.404 225 337.5 225C344.404 225 350 219.404 350 212.5C350 205.596 344.404 200 337.5 200C330.596 200 325 205.596 325 212.5C325 205.596 319.404 200 312.5 200Z" fill="#101010"/>
<path d="M312.5 200C319.296 200 324.825 205.423 324.996 212.178L325 212.5V225H312.5C305.596 225 300 219.404 300 212.5C300 205.596 305.596 200 312.5 200Z" fill="#ABFF00"/>
<path d="M362.5 200C355.596 200 350 205.596 350 212.5C350 219.404 355.596 225 362.5 225C355.596 225 350 230.596 350 237.5C350 244.404 355.596 250 362.5 250C369.404 250 375 244.404 375 237.5C375 244.404 380.596 250 387.5 250C394.404 250 400 244.404 400 237.5C400 230.596 394.404 225 387.5 225C394.404 225 400 219.404 400 212.5C400 205.596 394.404 200 387.5 200C380.596 200 375 205.596 375 212.5C375 205.596 369.404 200 362.5 200Z" fill="#101010"/>
<path d="M362.5 200C369.296 200 374.825 205.423 374.996 212.178L375 212.5V225H362.5C355.596 225 350 219.404 350 212.5C350 205.596 355.596 200 362.5 200Z" fill="#ABFF00"/>
<path d="M412.5 200C405.596 200 400 205.596 400 212.5C400 219.404 405.596 225 412.5 225C405.596 225 400 230.596 400 237.5C400 244.404 405.596 250 412.5 250C419.404 250 425 244.404 425 237.5C425 244.404 430.596 250 437.5 250C444.404 250 450 244.404 450 237.5C450 230.596 444.404 225 437.5 225C444.404 225 450 219.404 450 212.5C450 205.596 444.404 200 437.5 200C430.596 200 425 205.596 425 212.5C425 205.596 419.404 200 412.5 200Z" fill="#101010"/>
<path d="M412.5 200C419.296 200 424.825 205.423 424.996 212.178L425 212.5V225H412.5C405.596 225 400 219.404 400 212.5C400 205.596 405.596 200 412.5 200Z" fill="#ABFF00"/>
<path d="M162.5 250C155.596 250 150 255.596 150 262.5C150 269.404 155.596 275 162.5 275C155.596 275 150 280.596 150 287.5C150 294.404 155.596 300 162.5 300C169.404 300 175 294.404 175 287.5C175 294.404 180.596 300 187.5 300C194.404 300 200 294.404 200 287.5C200 280.596 194.404 275 187.5 275C194.404 275 200 269.404 200 262.5C200 255.596 194.404 250 187.5 250C180.596 250 175 255.596 175 262.5C175 255.596 169.404 250 162.5 250Z" fill="#101010"/>
<path d="M162.5 250C169.296 250 174.825 255.423 174.996 262.178L175 262.5V275H162.5C155.596 275 150 269.404 150 262.5C150 255.596 155.596 250 162.5 250Z" fill="#ABFF00"/>
<path d="M212.5 250C205.596 250 200 255.596 200 262.5C200 269.404 205.596 275 212.5 275C205.596 275 200 280.596 200 287.5C200 294.404 205.596 300 212.5 300C219.404 300 225 294.404 225 287.5C225 294.404 230.596 300 237.5 300C244.404 300 250 294.404 250 287.5C250 280.596 244.404 275 237.5 275C244.404 275 250 269.404 250 262.5C250 255.596 244.404 250 237.5 250C230.596 250 225 255.596 225 262.5C225 255.596 219.404 250 212.5 250Z" fill="#101010"/>
<path d="M212.5 250C219.296 250 224.825 255.423 224.996 262.178L225 262.5V275H212.5C205.596 275 200 269.404 200 262.5C200 255.596 205.596 250 212.5 250Z" fill="#ABFF00"/>
<path d="M262.5 250C255.596 250 250 255.596 250 262.5C250 269.404 255.596 275 262.5 275C255.596 275 250 280.596 250 287.5C250 294.404 255.596 300 262.5 300C269.404 300 275 294.404 275 287.5C275 294.404 280.596 300 287.5 300C294.404 300 300 294.404 300 287.5C300 280.596 294.404 275 287.5 275C294.404 275 300 269.404 300 262.5C300 255.596 294.404 250 287.5 250C280.596 250 275 255.596 275 262.5C275 255.596 269.404 250 262.5 250Z" fill="#101010"/>
<path d="M262.5 250C269.296 250 274.825 255.423 274.996 262.178L275 262.5V275H262.5C255.596 275 250 269.404 250 262.5C250 255.596 255.596 250 262.5 250Z" fill="#ABFF00"/>
<path d="M312.5 250C305.596 250 300 255.596 300 262.5C300 269.404 305.596 275 312.5 275C305.596 275 300 280.596 300 287.5C300 294.404 305.596 300 312.5 300C319.404 300 325 294.404 325 287.5C325 294.404 330.596 300 337.5 300C344.404 300 350 294.404 350 287.5C350 280.596 344.404 275 337.5 275C344.404 275 350 269.404 350 262.5C350 255.596 344.404 250 337.5 250C330.596 250 325 255.596 325 262.5C325 255.596 319.404 250 312.5 250Z" fill="#101010"/>
<path d="M312.5 250C319.296 250 324.825 255.423 324.996 262.178L325 262.5V275H312.5C305.596 275 300 269.404 300 262.5C300 255.596 305.596 250 312.5 250Z" fill="#ABFF00"/>
<path d="M362.5 250C355.596 250 350 255.596 350 262.5C350 269.404 355.596 275 362.5 275C355.596 275 350 280.596 350 287.5C350 294.404 355.596 300 362.5 300C369.404 300 375 294.404 375 287.5C375 294.404 380.596 300 387.5 300C394.404 300 400 294.404 400 287.5C400 280.596 394.404 275 387.5 275C394.404 275 400 269.404 400 262.5C400 255.596 394.404 250 387.5 250C380.596 250 375 255.596 375 262.5C375 255.596 369.404 250 362.5 250Z" fill="#101010"/>
<path d="M362.5 250C369.296 250 374.825 255.423 374.996 262.178L375 262.5V275H362.5C355.596 275 350 269.404 350 262.5C350 255.596 355.596 250 362.5 250Z" fill="#ABFF00"/>
<path d="M412.5 250C405.596 250 400 255.596 400 262.5C400 269.404 405.596 275 412.5 275C405.596 275 400 280.596 400 287.5C400 294.404 405.596 300 412.5 300C419.404 300 425 294.404 425 287.5C425 294.404 430.596 300 437.5 300C444.404 300 450 294.404 450 287.5C450 280.596 444.404 275 437.5 275C444.404 275 450 269.404 450 262.5C450 255.596 444.404 250 437.5 250C430.596 250 425 255.596 425 262.5C425 255.596 419.404 250 412.5 250Z" fill="#101010"/>
<path d="M412.5 250C419.296 250 424.825 255.423 424.996 262.178L425 262.5V275H412.5C405.596 275 400 269.404 400 262.5C400 255.596 405.596 250 412.5 250Z" fill="#ABFF00"/>
<path d="M162.5 300C155.596 300 150 305.596 150 312.5C150 319.404 155.596 325 162.5 325C155.596 325 150 330.596 150 337.5C150 344.404 155.596 350 162.5 350C169.404 350 175 344.404 175 337.5C175 344.404 180.596 350 187.5 350C194.404 350 200 344.404 200 337.5C200 330.596 194.404 325 187.5 325C194.404 325 200 319.404 200 312.5C200 305.596 194.404 300 187.5 300C180.596 300 175 305.596 175 312.5C175 305.596 169.404 300 162.5 300Z" fill="#101010"/>
<path d="M162.5 300C169.296 300 174.825 305.423 174.996 312.178L175 312.5V325H162.5C155.596 325 150 319.404 150 312.5C150 305.596 155.596 300 162.5 300Z" fill="#ABFF00"/>
<path d="M212.5 300C205.596 300 200 305.596 200 312.5C200 319.404 205.596 325 212.5 325C205.596 325 200 330.596 200 337.5C200 344.404 205.596 350 212.5 350C219.404 350 225 344.404 225 337.5C225 344.404 230.596 350 237.5 350C244.404 350 250 344.404 250 337.5C250 330.596 244.404 325 237.5 325C244.404 325 250 319.404 250 312.5C250 305.596 244.404 300 237.5 300C230.596 300 225 305.596 225 312.5C225 305.596 219.404 300 212.5 300Z" fill="#101010"/>
<path d="M212.5 300C219.296 300 224.825 305.423 224.996 312.178L225 312.5V325H212.5C205.596 325 200 319.404 200 312.5C200 305.596 205.596 300 212.5 300Z" fill="#ABFF00"/>
<path d="M262.5 300C255.596 300 250 305.596 250 312.5C250 319.404 255.596 325 262.5 325C255.596 325 250 330.596 250 337.5C250 344.404 255.596 350 262.5 350C269.404 350 275 344.404 275 337.5C275 344.404 280.596 350 287.5 350C294.404 350 300 344.404 300 337.5C300 330.596 294.404 325 287.5 325C294.404 325 300 319.404 300 312.5C300 305.596 294.404 300 287.5 300C280.596 300 275 305.596 275 312.5C275 305.596 269.404 300 262.5 300Z" fill="#101010"/>
<path d="M262.5 300C269.296 300 274.825 305.423 274.996 312.178L275 312.5V325H262.5C255.596 325 250 319.404 250 312.5C250 305.596 255.596 300 262.5 300Z" fill="#ABFF00"/>
<path d="M312.5 300C305.596 300 300 305.596 300 312.5C300 319.404 305.596 325 312.5 325C305.596 325 300 330.596 300 337.5C300 344.404 305.596 350 312.5 350C319.404 350 325 344.404 325 337.5C325 344.404 330.596 350 337.5 350C344.404 350 350 344.404 350 337.5C350 330.596 344.404 325 337.5 325C344.404 325 350 319.404 350 312.5C350 305.596 344.404 300 337.5 300C330.596 300 325 305.596 325 312.5C325 305.596 319.404 300 312.5 300Z" fill="#101010"/>
<path d="M312.5 300C319.296 300 324.825 305.423 324.996 312.178L325 312.5V325H312.5C305.596 325 300 319.404 300 312.5C300 305.596 305.596 300 312.5 300Z" fill="#ABFF00"/>
<path d="M362.5 300C355.596 300 350 305.596 350 312.5C350 319.404 355.596 325 362.5 325C355.596 325 350 330.596 350 337.5C350 344.404 355.596 350 362.5 350C369.404 350 375 344.404 375 337.5C375 344.404 380.596 350 387.5 350C394.404 350 400 344.404 400 337.5C400 330.596 394.404 325 387.5 325C394.404 325 400 319.404 400 312.5C400 305.596 394.404 300 387.5 300C380.596 300 375 305.596 375 312.5C375 305.596 369.404 300 362.5 300Z" fill="#101010"/>
<path d="M362.5 300C369.296 300 374.825 305.423 374.996 312.178L375 312.5V325H362.5C355.596 325 350 319.404 350 312.5C350 305.596 355.596 300 362.5 300Z" fill="#ABFF00"/>
<path d="M412.5 300C405.596 300 400 305.596 400 312.5C400 319.404 405.596 325 412.5 325C405.596 325 400 330.596 400 337.5C400 344.404 405.596 350 412.5 350C419.404 350 425 344.404 425 337.5C425 344.404 430.596 350 437.5 350C444.404 350 450 344.404 450 337.5C450 330.596 444.404 325 437.5 325C444.404 325 450 319.404 450 312.5C450 305.596 444.404 300 437.5 300C430.596 300 425 305.596 425 312.5C425 305.596 419.404 300 412.5 300Z" fill="#101010"/>
<path d="M412.5 300C419.296 300 424.825 305.423 424.996 312.178L425 312.5V325H412.5C405.596 325 400 319.404 400 312.5C400 305.596 405.596 300 412.5 300Z" fill="#ABFF00"/>
<path d="M162.5 350C155.596 350 150 355.596 150 362.5C150 369.404 155.596 375 162.5 375C155.596 375 150 380.596 150 387.5C150 394.404 155.596 400 162.5 400C169.404 400 175 394.404 175 387.5C175 394.404 180.596 400 187.5 400C194.404 400 200 394.404 200 387.5C200 380.596 194.404 375 187.5 375C194.404 375 200 369.404 200 362.5C200 355.596 194.404 350 187.5 350C180.596 350 175 355.596 175 362.5C175 355.596 169.404 350 162.5 350Z" fill="#101010"/>
<path d="M162.5 350C169.296 350 174.825 355.423 174.996 362.178L175 362.5V375H162.5C155.596 375 150 369.404 150 362.5C150 355.596 155.596 350 162.5 350Z" fill="#ABFF00"/>
<path d="M212.5 350C205.596 350 200 355.596 200 362.5C200 369.404 205.596 375 212.5 375C205.596 375 200 380.596 200 387.5C200 394.404 205.596 400 212.5 400C219.404 400 225 394.404 225 387.5C225 394.404 230.596 400 237.5 400C244.404 400 250 394.404 250 387.5C250 380.596 244.404 375 237.5 375C244.404 375 250 369.404 250 362.5C250 355.596 244.404 350 237.5 350C230.596 350 225 355.596 225 362.5C225 355.596 219.404 350 212.5 350Z" fill="#101010"/>
<path d="M212.5 350C219.296 350 224.825 355.423 224.996 362.178L225 362.5V375H212.5C205.596 375 200 369.404 200 362.5C200 355.596 205.596 350 212.5 350Z" fill="#ABFF00"/>
<path d="M262.5 350C255.596 350 250 355.596 250 362.5C250 369.404 255.596 375 262.5 375C255.596 375 250 380.596 250 387.5C250 394.404 255.596 400 262.5 400C269.404 400 275 394.404 275 387.5C275 394.404 280.596 400 287.5 400C294.404 400 300 394.404 300 387.5C300 380.596 294.404 375 287.5 375C294.404 375 300 369.404 300 362.5C300 355.596 294.404 350 287.5 350C280.596 350 275 355.596 275 362.5C275 355.596 269.404 350 262.5 350Z" fill="#101010"/>
<path d="M262.5 350C269.296 350 274.825 355.423 274.996 362.178L275 362.5V375H262.5C255.596 375 250 369.404 250 362.5C250 355.596 255.596 350 262.5 350Z" fill="#ABFF00"/>
<path d="M312.5 350C305.596 350 300 355.596 300 362.5C300 369.404 305.596 375 312.5 375C305.596 375 300 380.596 300 387.5C300 394.404 305.596 400 312.5 400C319.404 400 325 394.404 325 387.5C325 394.404 330.596 400 337.5 400C344.404 400 350 394.404 350 387.5C350 380.596 344.404 375 337.5 375C344.404 375 350 369.404 350 362.5C350 355.596 344.404 350 337.5 350C330.596 350 325 355.596 325 362.5C325 355.596 319.404 350 312.5 350Z" fill="#101010"/>
<path d="M312.5 350C319.296 350 324.825 355.423 324.996 362.178L325 362.5V375H312.5C305.596 375 300 369.404 300 362.5C300 355.596 305.596 350 312.5 350Z" fill="#ABFF00"/>
<path d="M362.5 350C355.596 350 350 355.596 350 362.5C350 369.404 355.596 375 362.5 375C355.596 375 350 380.596 350 387.5C350 394.404 355.596 400 362.5 400C369.404 400 375 394.404 375 387.5C375 394.404 380.596 400 387.5 400C394.404 400 400 394.404 400 387.5C400 380.596 394.404 375 387.5 375C394.404 375 400 369.404 400 362.5C400 355.596 394.404 350 387.5 350C380.596 350 375 355.596 375 362.5C375 355.596 369.404 350 362.5 350Z" fill="#101010"/>
<path d="M362.5 350C369.296 350 374.825 355.423 374.996 362.178L375 362.5V375H362.5C355.596 375 350 369.404 350 362.5C350 355.596 355.596 350 362.5 350Z" fill="#ABFF00"/>
<path d="M412.5 350C405.596 350 400 355.596 400 362.5C400 369.404 405.596 375 412.5 375C405.596 375 400 380.596 400 387.5C400 394.404 405.596 400 412.5 400C419.404 400 425 394.404 425 387.5C425 394.404 430.596 400 437.5 400C444.404 400 450 394.404 450 387.5C450 380.596 444.404 375 437.5 375C444.404 375 450 369.404 450 362.5C450 355.596 444.404 350 437.5 350C430.596 350 425 355.596 425 362.5C425 355.596 419.404 350 412.5 350Z" fill="#101010"/>
<path d="M412.5 350C419.296 350 424.825 355.423 424.996 362.178L425 362.5V375H412.5C405.596 375 400 369.404 400 362.5C400 355.596 405.596 350 412.5 350Z" fill="#ABFF00"/>
<path d="M162.5 400C155.596 400 150 405.596 150 412.5C150 419.404 155.596 425 162.5 425C155.596 425 150 430.596 150 437.5C150 444.404 155.596 450 162.5 450C169.404 450 175 444.404 175 437.5C175 444.404 180.596 450 187.5 450C194.404 450 200 444.404 200 437.5C200 430.596 194.404 425 187.5 425C194.404 425 200 419.404 200 412.5C200 405.596 194.404 400 187.5 400C180.596 400 175 405.596 175 412.5C175 405.596 169.404 400 162.5 400Z" fill="#101010"/>
<path d="M162.5 400C169.296 400 174.825 405.423 174.996 412.178L175 412.5V425H162.5C155.596 425 150 419.404 150 412.5C150 405.596 155.596 400 162.5 400Z" fill="#ABFF00"/>
<path d="M212.5 400C205.596 400 200 405.596 200 412.5C200 419.404 205.596 425 212.5 425C205.596 425 200 430.596 200 437.5C200 444.404 205.596 450 212.5 450C219.404 450 225 444.404 225 437.5C225 444.404 230.596 450 237.5 450C244.404 450 250 444.404 250 437.5C250 430.596 244.404 425 237.5 425C244.404 425 250 419.404 250 412.5C250 405.596 244.404 400 237.5 400C230.596 400 225 405.596 225 412.5C225 405.596 219.404 400 212.5 400Z" fill="#101010"/>
<path d="M212.5 400C219.296 400 224.825 405.423 224.996 412.178L225 412.5V425H212.5C205.596 425 200 419.404 200 412.5C200 405.596 205.596 400 212.5 400Z" fill="#ABFF00"/>
<path d="M262.5 400C255.596 400 250 405.596 250 412.5C250 419.404 255.596 425 262.5 425C255.596 425 250 430.596 250 437.5C250 444.404 255.596 450 262.5 450C269.404 450 275 444.404 275 437.5C275 444.404 280.596 450 287.5 450C294.404 450 300 444.404 300 437.5C300 430.596 294.404 425 287.5 425C294.404 425 300 419.404 300 412.5C300 405.596 294.404 400 287.5 400C280.596 400 275 405.596 275 412.5C275 405.596 269.404 400 262.5 400Z" fill="#101010"/>
<path d="M262.5 400C269.296 400 274.825 405.423 274.996 412.178L275 412.5V425H262.5C255.596 425 250 419.404 250 412.5C250 405.596 255.596 400 262.5 400Z" fill="#ABFF00"/>
<path d="M312.5 400C305.596 400 300 405.596 300 412.5C300 419.404 305.596 425 312.5 425C305.596 425 300 430.596 300 437.5C300 444.404 305.596 450 312.5 450C319.404 450 325 444.404 325 437.5C325 444.404 330.596 450 337.5 450C344.404 450 350 444.404 350 437.5C350 430.596 344.404 425 337.5 425C344.404 425 350 419.404 350 412.5C350 405.596 344.404 400 337.5 400C330.596 400 325 405.596 325 412.5C325 405.596 319.404 400 312.5 400Z" fill="#101010"/>
<path d="M312.5 400C319.296 400 324.825 405.423 324.996 412.178L325 412.5V425H312.5C305.596 425 300 419.404 300 412.5C300 405.596 305.596 400 312.5 400Z" fill="#ABFF00"/>
<path d="M362.5 400C355.596 400 350 405.596 350 412.5C350 419.404 355.596 425 362.5 425C355.596 425 350 430.596 350 437.5C350 444.404 355.596 450 362.5 450C369.404 450 375 444.404 375 437.5C375 444.404 380.596 450 387.5 450C394.404 450 400 444.404 400 437.5C400 430.596 394.404 425 387.5 425C394.404 425 400 419.404 400 412.5C400 405.596 394.404 400 387.5 400C380.596 400 375 405.596 375 412.5C375 405.596 369.404 400 362.5 400Z" fill="#101010"/>
<path d="M362.5 400C369.296 400 374.825 405.423 374.996 412.178L375 412.5V425H362.5C355.596 425 350 419.404 350 412.5C350 405.596 355.596 400 362.5 400Z" fill="#ABFF00"/>
<path d="M412.5 400C405.596 400 400 405.596 400 412.5C400 419.404 405.596 425 412.5 425C405.596 425 400 430.596 400 437.5C400 444.404 405.596 450 412.5 450C419.404 450 425 444.404 425 437.5C425 444.404 430.596 450 437.5 450C444.404 450 450 444.404 450 437.5C450 430.596 444.404 425 437.5 425C444.404 425 450 419.404 450 412.5C450 405.596 444.404 400 437.5 400C430.596 400 425 405.596 425 412.5C425 405.596 419.404 400 412.5 400Z" fill="#101010"/>
<path d="M412.5 400C419.296 400 424.825 405.423 424.996 412.178L425 412.5V425H412.5C405.596 425 400 419.404 400 412.5C400 405.596 405.596 400 412.5 400Z" fill="#ABFF00"/>
<path d="M162.5 450C155.596 450 150 455.596 150 462.5C150 469.404 155.596 475 162.5 475C155.596 475 150 480.596 150 487.5C150 494.404 155.596 500 162.5 500C169.404 500 175 494.404 175 487.5C175 494.404 180.596 500 187.5 500C194.404 500 200 494.404 200 487.5C200 480.596 194.404 475 187.5 475C194.404 475 200 469.404 200 462.5C200 455.596 194.404 450 187.5 450C180.596 450 175 455.596 175 462.5C175 455.596 169.404 450 162.5 450Z" fill="#101010"/>
<path d="M162.5 450C169.296 450 174.825 455.423 174.996 462.178L175 462.5V475H162.5C155.596 475 150 469.404 150 462.5C150 455.596 155.596 450 162.5 450Z" fill="#ABFF00"/>
<path d="M212.5 450C205.596 450 200 455.596 200 462.5C200 469.404 205.596 475 212.5 475C205.596 475 200 480.596 200 487.5C200 494.404 205.596 500 212.5 500C219.404 500 225 494.404 225 487.5C225 494.404 230.596 500 237.5 500C244.404 500 250 494.404 250 487.5C250 480.596 244.404 475 237.5 475C244.404 475 250 469.404 250 462.5C250 455.596 244.404 450 237.5 450C230.596 450 225 455.596 225 462.5C225 455.596 219.404 450 212.5 450Z" fill="#101010"/>
<path d="M212.5 450C219.296 450 224.825 455.423 224.996 462.178L225 462.5V475H212.5C205.596 475 200 469.404 200 462.5C200 455.596 205.596 450 212.5 450Z" fill="#ABFF00"/>
<path d="M262.5 450C255.596 450 250 455.596 250 462.5C250 469.404 255.596 475 262.5 475C255.596 475 250 480.596 250 487.5C250 494.404 255.596 500 262.5 500C269.404 500 275 494.404 275 487.5C275 494.404 280.596 500 287.5 500C294.404 500 300 494.404 300 487.5C300 480.596 294.404 475 287.5 475C294.404 475 300 469.404 300 462.5C300 455.596 294.404 450 287.5 450C280.596 450 275 455.596 275 462.5C275 455.596 269.404 450 262.5 450Z" fill="#101010"/>
<path d="M262.5 450C269.296 450 274.825 455.423 274.996 462.178L275 462.5V475H262.5C255.596 475 250 469.404 250 462.5C250 455.596 255.596 450 262.5 450Z" fill="#ABFF00"/>
<path d="M312.5 450C305.596 450 300 455.596 300 462.5C300 469.404 305.596 475 312.5 475C305.596 475 300 480.596 300 487.5C300 494.404 305.596 500 312.5 500C319.404 500 325 494.404 325 487.5C325 494.404 330.596 500 337.5 500C344.404 500 350 494.404 350 487.5C350 480.596 344.404 475 337.5 475C344.404 475 350 469.404 350 462.5C350 455.596 344.404 450 337.5 450C330.596 450 325 455.596 325 462.5C325 455.596 319.404 450 312.5 450Z" fill="#101010"/>
<path d="M312.5 450C319.296 450 324.825 455.423 324.996 462.178L325 462.5V475H312.5C305.596 475 300 469.404 300 462.5C300 455.596 305.596 450 312.5 450Z" fill="#ABFF00"/>
<path d="M362.5 450C355.596 450 350 455.596 350 462.5C350 469.404 355.596 475 362.5 475C355.596 475 350 480.596 350 487.5C350 494.404 355.596 500 362.5 500C369.404 500 375 494.404 375 487.5C375 494.404 380.596 500 387.5 500C394.404 500 400 494.404 400 487.5C400 480.596 394.404 475 387.5 475C394.404 475 400 469.404 400 462.5C400 455.596 394.404 450 387.5 450C380.596 450 375 455.596 375 462.5C375 455.596 369.404 450 362.5 450Z" fill="#101010"/>
<path d="M362.5 450C369.296 450 374.825 455.423 374.996 462.178L375 462.5V475H362.5C355.596 475 350 469.404 350 462.5C350 455.596 355.596 450 362.5 450Z" fill="#ABFF00"/>
<path d="M412.5 450C405.596 450 400 455.596 400 462.5C400 469.404 405.596 475 412.5 475C405.596 475 400 480.596 400 487.5C400 494.404 405.596 500 412.5 500C419.404 500 425 494.404 425 487.5C425 494.404 430.596 500 437.5 500C444.404 500 450 494.404 450 487.5C450 480.596 444.404 475 437.5 475C444.404 475 450 469.404 450 462.5C450 455.596 444.404 450 437.5 450C430.596 450 425 455.596 425 462.5C425 455.596 419.404 450 412.5 450Z" fill="#101010"/>
<path d="M412.5 450C419.296 450 424.825 455.423 424.996 462.178L425 462.5V475H412.5C405.596 475 400 469.404 400 462.5C400 455.596 405.596 450 412.5 450Z" fill="#ABFF00"/>
<path d="M162.5 500C155.596 500 150 505.596 150 512.5C150 519.404 155.596 525 162.5 525C155.596 525 150 530.596 150 537.5C150 544.404 155.596 550 162.5 550C169.404 550 175 544.404 175 537.5C175 544.404 180.596 550 187.5 550C194.404 550 200 544.404 200 537.5C200 530.596 194.404 525 187.5 525C194.404 525 200 519.404 200 512.5C200 505.596 194.404 500 187.5 500C180.596 500 175 505.596 175 512.5C175 505.596 169.404 500 162.5 500Z" fill="#101010"/>
<path d="M162.5 500C169.296 500 174.825 505.423 174.996 512.178L175 512.5V525H162.5C155.596 525 150 519.404 150 512.5C150 505.596 155.596 500 162.5 500Z" fill="#ABFF00"/>
<path d="M212.5 500C205.596 500 200 505.596 200 512.5C200 519.404 205.596 525 212.5 525C205.596 525 200 530.596 200 537.5C200 544.404 205.596 550 212.5 550C219.404 550 225 544.404 225 537.5C225 544.404 230.596 550 237.5 550C244.404 550 250 544.404 250 537.5C250 530.596 244.404 525 237.5 525C244.404 525 250 519.404 250 512.5C250 505.596 244.404 500 237.5 500C230.596 500 225 505.596 225 512.5C225 505.596 219.404 500 212.5 500Z" fill="#101010"/>
<path d="M212.5 500C219.296 500 224.825 505.423 224.996 512.178L225 512.5V525H212.5C205.596 525 200 519.404 200 512.5C200 505.596 205.596 500 212.5 500Z" fill="#ABFF00"/>
<path d="M262.5 500C255.596 500 250 505.596 250 512.5C250 519.404 255.596 525 262.5 525C255.596 525 250 530.596 250 537.5C250 544.404 255.596 550 262.5 550C269.404 550 275 544.404 275 537.5C275 544.404 280.596 550 287.5 550C294.404 550 300 544.404 300 537.5C300 530.596 294.404 525 287.5 525C294.404 525 300 519.404 300 512.5C300 505.596 294.404 500 287.5 500C280.596 500 275 505.596 275 512.5C275 505.596 269.404 500 262.5 500Z" fill="#101010"/>
<path d="M262.5 500C269.296 500 274.825 505.423 274.996 512.178L275 512.5V525H262.5C255.596 525 250 519.404 250 512.5C250 505.596 255.596 500 262.5 500Z" fill="#ABFF00"/>
<path d="M312.5 500C305.596 500 300 505.596 300 512.5C300 519.404 305.596 525 312.5 525C305.596 525 300 530.596 300 537.5C300 544.404 305.596 550 312.5 550C319.404 550 325 544.404 325 537.5C325 544.404 330.596 550 337.5 550C344.404 550 350 544.404 350 537.5C350 530.596 344.404 525 337.5 525C344.404 525 350 519.404 350 512.5C350 505.596 344.404 500 337.5 500C330.596 500 325 505.596 325 512.5C325 505.596 319.404 500 312.5 500Z" fill="#101010"/>
<path d="M312.5 500C319.296 500 324.825 505.423 324.996 512.178L325 512.5V525H312.5C305.596 525 300 519.404 300 512.5C300 505.596 305.596 500 312.5 500Z" fill="#ABFF00"/>
<path d="M362.5 500C355.596 500 350 505.596 350 512.5C350 519.404 355.596 525 362.5 525C355.596 525 350 530.596 350 537.5C350 544.404 355.596 550 362.5 550C369.404 550 375 544.404 375 537.5C375 544.404 380.596 550 387.5 550C394.404 550 400 544.404 400 537.5C400 530.596 394.404 525 387.5 525C394.404 525 400 519.404 400 512.5C400 505.596 394.404 500 387.5 500C380.596 500 375 505.596 375 512.5C375 505.596 369.404 500 362.5 500Z" fill="#101010"/>
<path d="M362.5 500C369.296 500 374.825 505.423 374.996 512.178L375 512.5V525H362.5C355.596 525 350 519.404 350 512.5C350 505.596 355.596 500 362.5 500Z" fill="#ABFF00"/>
<path d="M412.5 500C405.596 500 400 505.596 400 512.5C400 519.404 405.596 525 412.5 525C405.596 525 400 530.596 400 537.5C400 544.404 405.596 550 412.5 550C419.404 550 425 544.404 425 537.5C425 544.404 430.596 550 437.5 550C444.404 550 450 544.404 450 537.5C450 530.596 444.404 525 437.5 525C444.404 525 450 519.404 450 512.5C450 505.596 444.404 500 437.5 500C430.596 500 425 505.596 425 512.5C425 505.596 419.404 500 412.5 500Z" fill="#101010"/>
<path d="M412.5 500C419.296 500 424.825 505.423 424.996 512.178L425 512.5V525H412.5C405.596 525 400 519.404 400 512.5C400 505.596 405.596 500 412.5 500Z" fill="#ABFF00"/>
<path d="M162.5 550C155.596 550 150 555.596 150 562.5C150 569.404 155.596 575 162.5 575C155.596 575 150 580.596 150 587.5C150 594.404 155.596 600 162.5 600C169.404 600 175 594.404 175 587.5C175 594.404 180.596 600 187.5 600C194.404 600 200 594.404 200 587.5C200 580.596 194.404 575 187.5 575C194.404 575 200 569.404 200 562.5C200 555.596 194.404 550 187.5 550C180.596 550 175 555.596 175 562.5C175 555.596 169.404 550 162.5 550Z" fill="#101010"/>
<path d="M162.5 550C169.296 550 174.825 555.423 174.996 562.178L175 562.5V575H162.5C155.596 575 150 569.404 150 562.5C150 555.596 155.596 550 162.5 550Z" fill="#ABFF00"/>
<path d="M212.5 550C205.596 550 200 555.596 200 562.5C200 569.404 205.596 575 212.5 575C205.596 575 200 580.596 200 587.5C200 594.404 205.596 600 212.5 600C219.404 600 225 594.404 225 587.5C225 594.404 230.596 600 237.5 600C244.404 600 250 594.404 250 587.5C250 580.596 244.404 575 237.5 575C244.404 575 250 569.404 250 562.5C250 555.596 244.404 550 237.5 550C230.596 550 225 555.596 225 562.5C225 555.596 219.404 550 212.5 550Z" fill="#101010"/>
<path d="M212.5 550C219.296 550 224.825 555.423 224.996 562.178L225 562.5V575H212.5C205.596 575 200 569.404 200 562.5C200 555.596 205.596 550 212.5 550Z" fill="#ABFF00"/>
<path d="M262.5 550C255.596 550 250 555.596 250 562.5C250 569.404 255.596 575 262.5 575C255.596 575 250 580.596 250 587.5C250 594.404 255.596 600 262.5 600C269.404 600 275 594.404 275 587.5C275 594.404 280.596 600 287.5 600C294.404 600 300 594.404 300 587.5C300 580.596 294.404 575 287.5 575C294.404 575 300 569.404 300 562.5C300 555.596 294.404 550 287.5 550C280.596 550 275 555.596 275 562.5C275 555.596 269.404 550 262.5 550Z" fill="#101010"/>
<path d="M262.5 550C269.296 550 274.825 555.423 274.996 562.178L275 562.5V575H262.5C255.596 575 250 569.404 250 562.5C250 555.596 255.596 550 262.5 550Z" fill="#ABFF00"/>
<path d="M312.5 550C305.596 550 300 555.596 300 562.5C300 569.404 305.596 575 312.5 575C305.596 575 300 580.596 300 587.5C300 594.404 305.596 600 312.5 600C319.404 600 325 594.404 325 587.5C325 594.404 330.596 600 337.5 600C344.404 600 350 594.404 350 587.5C350 580.596 344.404 575 337.5 575C344.404 575 350 569.404 350 562.5C350 555.596 344.404 550 337.5 550C330.596 550 325 555.596 325 562.5C325 555.596 319.404 550 312.5 550Z" fill="#101010"/>
<path d="M312.5 550C319.296 550 324.825 555.423 324.996 562.178L325 562.5V575H312.5C305.596 575 300 569.404 300 562.5C300 555.596 305.596 550 312.5 550Z" fill="#ABFF00"/>
<path d="M362.5 550C355.596 550 350 555.596 350 562.5C350 569.404 355.596 575 362.5 575C355.596 575 350 580.596 350 587.5C350 594.404 355.596 600 362.5 600C369.404 600 375 594.404 375 587.5C375 594.404 380.596 600 387.5 600C394.404 600 400 594.404 400 587.5C400 580.596 394.404 575 387.5 575C394.404 575 400 569.404 400 562.5C400 555.596 394.404 550 387.5 550C380.596 550 375 555.596 375 562.5C375 555.596 369.404 550 362.5 550Z" fill="#101010"/>
<path d="M362.5 550C369.296 550 374.825 555.423 374.996 562.178L375 562.5V575H362.5C355.596 575 350 569.404 350 562.5C350 555.596 355.596 550 362.5 550Z" fill="#ABFF00"/>
<path d="M412.5 550C405.596 550 400 555.596 400 562.5C400 569.404 405.596 575 412.5 575C405.596 575 400 580.596 400 587.5C400 594.404 405.596 600 412.5 600C419.404 600 425 594.404 425 587.5C425 594.404 430.596 600 437.5 600C444.404 600 450 594.404 450 587.5C450 580.596 444.404 575 437.5 575C444.404 575 450 569.404 450 562.5C450 555.596 444.404 550 437.5 550C430.596 550 425 555.596 425 562.5C425 555.596 419.404 550 412.5 550Z" fill="#101010"/>
<path d="M412.5 550C419.296 550 424.825 555.423 424.996 562.178L425 562.5V575H412.5C405.596 575 400 569.404 400 562.5C400 555.596 405.596 550 412.5 550Z" fill="#ABFF00"/>
<path d="M162.5 600C155.596 600 150 605.596 150 612.5C150 619.404 155.596 625 162.5 625C155.596 625 150 630.596 150 637.5C150 644.404 155.596 650 162.5 650C169.404 650 175 644.404 175 637.5C175 644.404 180.596 650 187.5 650C194.404 650 200 644.404 200 637.5C200 630.596 194.404 625 187.5 625C194.404 625 200 619.404 200 612.5C200 605.596 194.404 600 187.5 600C180.596 600 175 605.596 175 612.5C175 605.596 169.404 600 162.5 600Z" fill="#101010"/>
<path d="M162.5 600C169.296 600 174.825 605.423 174.996 612.178L175 612.5V625H162.5C155.596 625 150 619.404 150 612.5C150 605.596 155.596 600 162.5 600Z" fill="#ABFF00"/>
<path d="M212.5 600C205.596 600 200 605.596 200 612.5C200 619.404 205.596 625 212.5 625C205.596 625 200 630.596 200 637.5C200 644.404 205.596 650 212.5 650C219.404 650 225 644.404 225 637.5C225 644.404 230.596 650 237.5 650C244.404 650 250 644.404 250 637.5C250 630.596 244.404 625 237.5 625C244.404 625 250 619.404 250 612.5C250 605.596 244.404 600 237.5 600C230.596 600 225 605.596 225 612.5C225 605.596 219.404 600 212.5 600Z" fill="#101010"/>
<path d="M212.5 600C219.296 600 224.825 605.423 224.996 612.178L225 612.5V625H212.5C205.596 625 200 619.404 200 612.5C200 605.596 205.596 600 212.5 600Z" fill="#ABFF00"/>
<path d="M262.5 600C255.596 600 250 605.596 250 612.5C250 619.404 255.596 625 262.5 625C255.596 625 250 630.596 250 637.5C250 644.404 255.596 650 262.5 650C269.404 650 275 644.404 275 637.5C275 644.404 280.596 650 287.5 650C294.404 650 300 644.404 300 637.5C300 630.596 294.404 625 287.5 625C294.404 625 300 619.404 300 612.5C300 605.596 294.404 600 287.5 600C280.596 600 275 605.596 275 612.5C275 605.596 269.404 600 262.5 600Z" fill="#101010"/>
<path d="M262.5 600C269.296 600 274.825 605.423 274.996 612.178L275 612.5V625H262.5C255.596 625 250 619.404 250 612.5C250 605.596 255.596 600 262.5 600Z" fill="#ABFF00"/>
<path d="M312.5 600C305.596 600 300 605.596 300 612.5C300 619.404 305.596 625 312.5 625C305.596 625 300 630.596 300 637.5C300 644.404 305.596 650 312.5 650C319.404 650 325 644.404 325 637.5C325 644.404 330.596 650 337.5 650C344.404 650 350 644.404 350 637.5C350 630.596 344.404 625 337.5 625C344.404 625 350 619.404 350 612.5C350 605.596 344.404 600 337.5 600C330.596 600 325 605.596 325 612.5C325 605.596 319.404 600 312.5 600Z" fill="#101010"/>
<path d="M312.5 600C319.296 600 324.825 605.423 324.996 612.178L325 612.5V625H312.5C305.596 625 300 619.404 300 612.5C300 605.596 305.596 600 312.5 600Z" fill="#ABFF00"/>
<path d="M362.5 600C355.596 600 350 605.596 350 612.5C350 619.404 355.596 625 362.5 625C355.596 625 350 630.596 350 637.5C350 644.404 355.596 650 362.5 650C369.404 650 375 644.404 375 637.5C375 644.404 380.596 650 387.5 650C394.404 650 400 644.404 400 637.5C400 630.596 394.404 625 387.5 625C394.404 625 400 619.404 400 612.5C400 605.596 394.404 600 387.5 600C380.596 600 375 605.596 375 612.5C375 605.596 369.404 600 362.5 600Z" fill="#101010"/>
<path d="M362.5 600C369.296 600 374.825 605.423 374.996 612.178L375 612.5V625H362.5C355.596 625 350 619.404 350 612.5C350 605.596 355.596 600 362.5 600Z" fill="#ABFF00"/>
<path d="M412.5 600C405.596 600 400 605.596 400 612.5C400 619.404 405.596 625 412.5 625C405.596 625 400 630.596 400 637.5C400 644.404 405.596 650 412.5 650C419.404 650 425 644.404 425 637.5C425 644.404 430.596 650 437.5 650C444.404 650 450 644.404 450 637.5C450 630.596 444.404 625 437.5 625C444.404 625 450 619.404 450 612.5C450 605.596 444.404 600 437.5 600C430.596 600 425 605.596 425 612.5C425 605.596 419.404 600 412.5 600Z" fill="#101010"/>
<path d="M412.5 600C419.296 600 424.825 605.423 424.996 612.178L425 612.5V625H412.5C405.596 625 400 619.404 400 612.5C400 605.596 405.596 600 412.5 600Z" fill="#ABFF00"/>
</svg>
