<svg width="428" height="102" viewBox="0 0 428 102" fill="none" xmlns="http://www.w3.org/2000/svg">
<mask id="path-1-outside-1_702_59" maskUnits="userSpaceOnUse" x="18" y="0" width="125" height="73" fill="black">
<rect fill="white" x="18" width="125" height="73"/>
<path d="M52.99 46.23L52.43 46.72C52.43 47.28 52.08 48.05 51.38 48.96C50.68 49.87 49.7 50.78 48.44 51.69C47.18 52.6 45.64 53.37 43.82 54C42 54.63 39.97 54.98 37.73 54.98C35.42 54.98 33.18 54.49 31.01 53.58C28.84 52.67 26.95 51.34 25.27 49.66C23.59 47.98 22.26 45.88 21.28 43.36C20.3 40.84 19.81 37.97 19.81 34.75C19.81 31.32 20.37 28.1 21.49 25.09C22.61 22.08 24.22 19.35 26.25 16.9C28.28 14.45 30.66 12.21 33.46 10.25C36.26 8.29 39.34 6.68 42.63 5.35C45.92 4.02 49.42 3.04 53.13 2.34C56.84 1.64 60.62 1.29 64.47 1.29C69.3 1.29 73.99 1.64 78.47 2.41C82.95 3.18 87.29 4.02 91.49 5C95.69 5.98 99.82 6.96 103.81 7.94C107.8 8.92 111.72 9.69 115.5 10.18C119 7.66 122.36 5.98 125.51 5.21C128.66 4.44 131.46 4.02 133.91 4.02C136.22 4.02 137.97 4.23 139.23 4.72C140.49 5.21 141.12 5.84 141.12 6.68C141.12 7.52 140.63 8.36 139.72 9.27C138.81 10.18 137.55 11.02 135.87 11.72C134.19 12.42 132.23 12.98 129.99 13.47C127.75 13.96 125.3 14.17 122.71 14.17C121.38 14.17 119.98 14.1 118.58 13.96C117.18 13.82 115.71 13.61 114.24 13.33C111.79 15.92 109.62 18.86 107.66 22.15C105.7 25.44 103.88 28.94 102.13 32.58C100.38 36.22 98.7 40 97.09 43.85C95.48 47.7 93.87 51.48 92.26 55.19C91.35 57.22 90.37 59.18 89.25 61.14C88.13 63.1 86.87 64.85 85.47 66.39C84.07 67.93 82.46 69.19 80.64 70.17C78.82 71.15 76.72 71.64 74.34 71.64C73.29 71.64 72.31 71.5 71.4 71.15C70.49 70.8 69.72 70.38 69.09 69.82C68.46 69.26 67.97 68.63 67.62 67.93C67.27 67.23 67.06 66.53 67.06 65.83C67.06 64.78 67.27 64.29 67.69 64.29C67.97 64.29 68.11 64.5 68.11 64.92C68.11 66.11 68.53 67.09 69.3 67.86C70.07 68.63 71.4 68.98 73.29 68.98C74.27 68.98 75.25 68.77 76.23 68.42C77.21 68.07 78.26 67.37 79.38 66.39C80.5 65.41 81.69 64.01 82.95 62.19C84.21 60.37 85.61 57.99 87.08 55.05C89.04 51.2 91 47.28 92.89 43.29C94.78 39.3 96.74 35.45 98.77 31.74C100.8 28.03 102.9 24.53 105.14 21.24C107.38 17.95 109.83 15.08 112.42 12.63C108.92 11.86 105.28 10.88 101.5 9.69C97.72 8.5 93.8 7.31 89.74 6.19C85.68 5.07 81.55 4.09 77.28 3.25C73.01 2.41 68.67 1.99 64.19 1.99C61.32 1.99 58.38 2.2 55.37 2.69C52.36 3.18 49.42 3.88 46.55 4.86C43.68 5.84 41.02 7.1 38.5 8.71C35.98 10.32 33.74 12.21 31.85 14.45C29.96 16.69 28.42 19.28 27.3 22.22C26.18 25.16 25.62 28.52 25.62 32.23C25.62 35.66 26.11 38.67 27.02 41.19C27.93 43.71 29.12 45.81 30.59 47.42C32.06 49.03 33.67 50.22 35.42 50.99C37.17 51.76 38.78 52.11 40.32 52.11C42.77 52.11 44.8 51.76 46.34 51.06C47.88 50.36 49.07 49.59 49.91 48.75C50.75 47.91 51.38 47.14 51.73 46.44C52.08 45.74 52.36 45.39 52.57 45.39C52.85 45.39 52.99 45.67 52.99 46.23ZM133.91 5H133.56C130.9 5 128.1 5.42 125.23 6.19C122.36 6.96 119.63 8.43 117.04 10.53C117.95 10.6 118.93 10.67 119.91 10.74C120.89 10.81 121.87 10.81 122.78 10.81C125.79 10.81 128.31 10.6 130.34 10.25C132.37 9.9 133.98 9.48 135.24 8.99C136.5 8.5 137.41 8.01 137.97 7.52C138.53 7.03 138.81 6.68 138.81 6.4C138.81 6.05 138.32 5.7 137.41 5.42C136.5 5.14 135.31 5 133.91 5Z"/>
</mask>
<path d="M52.99 46.23L52.43 46.72C52.43 47.28 52.08 48.05 51.38 48.96C50.68 49.87 49.7 50.78 48.44 51.69C47.18 52.6 45.64 53.37 43.82 54C42 54.63 39.97 54.98 37.73 54.98C35.42 54.98 33.18 54.49 31.01 53.58C28.84 52.67 26.95 51.34 25.27 49.66C23.59 47.98 22.26 45.88 21.28 43.36C20.3 40.84 19.81 37.97 19.81 34.75C19.81 31.32 20.37 28.1 21.49 25.09C22.61 22.08 24.22 19.35 26.25 16.9C28.28 14.45 30.66 12.21 33.46 10.25C36.26 8.29 39.34 6.68 42.63 5.35C45.92 4.02 49.42 3.04 53.13 2.34C56.84 1.64 60.62 1.29 64.47 1.29C69.3 1.29 73.99 1.64 78.47 2.41C82.95 3.18 87.29 4.02 91.49 5C95.69 5.98 99.82 6.96 103.81 7.94C107.8 8.92 111.72 9.69 115.5 10.18C119 7.66 122.36 5.98 125.51 5.21C128.66 4.44 131.46 4.02 133.91 4.02C136.22 4.02 137.97 4.23 139.23 4.72C140.49 5.21 141.12 5.84 141.12 6.68C141.12 7.52 140.63 8.36 139.72 9.27C138.81 10.18 137.55 11.02 135.87 11.72C134.19 12.42 132.23 12.98 129.99 13.47C127.75 13.96 125.3 14.17 122.71 14.17C121.38 14.17 119.98 14.1 118.58 13.96C117.18 13.82 115.71 13.61 114.24 13.33C111.79 15.92 109.62 18.86 107.66 22.15C105.7 25.44 103.88 28.94 102.13 32.58C100.38 36.22 98.7 40 97.09 43.85C95.48 47.7 93.87 51.48 92.26 55.19C91.35 57.22 90.37 59.18 89.25 61.14C88.13 63.1 86.87 64.85 85.47 66.39C84.07 67.93 82.46 69.19 80.64 70.17C78.82 71.15 76.72 71.64 74.34 71.64C73.29 71.64 72.31 71.5 71.4 71.15C70.49 70.8 69.72 70.38 69.09 69.82C68.46 69.26 67.97 68.63 67.62 67.93C67.27 67.23 67.06 66.53 67.06 65.83C67.06 64.78 67.27 64.29 67.69 64.29C67.97 64.29 68.11 64.5 68.11 64.92C68.11 66.11 68.53 67.09 69.3 67.86C70.07 68.63 71.4 68.98 73.29 68.98C74.27 68.98 75.25 68.77 76.23 68.42C77.21 68.07 78.26 67.37 79.38 66.39C80.5 65.41 81.69 64.01 82.95 62.19C84.21 60.37 85.61 57.99 87.08 55.05C89.04 51.2 91 47.28 92.89 43.29C94.78 39.3 96.74 35.45 98.77 31.74C100.8 28.03 102.9 24.53 105.14 21.24C107.38 17.95 109.83 15.08 112.42 12.63C108.92 11.86 105.28 10.88 101.5 9.69C97.72 8.5 93.8 7.31 89.74 6.19C85.68 5.07 81.55 4.09 77.28 3.25C73.01 2.41 68.67 1.99 64.19 1.99C61.32 1.99 58.38 2.2 55.37 2.69C52.36 3.18 49.42 3.88 46.55 4.86C43.68 5.84 41.02 7.1 38.5 8.71C35.98 10.32 33.74 12.21 31.85 14.45C29.96 16.69 28.42 19.28 27.3 22.22C26.18 25.16 25.62 28.52 25.62 32.23C25.62 35.66 26.11 38.67 27.02 41.19C27.93 43.71 29.12 45.81 30.59 47.42C32.06 49.03 33.67 50.22 35.42 50.99C37.17 51.76 38.78 52.11 40.32 52.11C42.77 52.11 44.8 51.76 46.34 51.06C47.88 50.36 49.07 49.59 49.91 48.75C50.75 47.91 51.38 47.14 51.73 46.44C52.08 45.74 52.36 45.39 52.57 45.39C52.85 45.39 52.99 45.67 52.99 46.23ZM133.91 5H133.56C130.9 5 128.1 5.42 125.23 6.19C122.36 6.96 119.63 8.43 117.04 10.53C117.95 10.6 118.93 10.67 119.91 10.74C120.89 10.81 121.87 10.81 122.78 10.81C125.79 10.81 128.31 10.6 130.34 10.25C132.37 9.9 133.98 9.48 135.24 8.99C136.5 8.5 137.41 8.01 137.97 7.52C138.53 7.03 138.81 6.68 138.81 6.4C138.81 6.05 138.32 5.7 137.41 5.42C136.5 5.14 135.31 5 133.91 5Z" fill="url(#paint0_linear_702_59)"/>
<path d="M52.99 46.23L53.6485 46.9826L53.99 46.6838V46.23H52.99ZM52.43 46.72L51.7715 45.9674L51.43 46.2662V46.72H52.43ZM48.44 51.69L49.0255 52.5007L49.0255 52.5007L48.44 51.69ZM43.82 54L44.1471 54.945L44.1471 54.945L43.82 54ZM31.01 53.58L30.6233 54.5022L30.6233 54.5022L31.01 53.58ZM25.27 49.66L25.9771 48.9529L25.9771 48.9529L25.27 49.66ZM21.28 43.36L20.348 43.7224L20.348 43.7224L21.28 43.36ZM21.49 25.09L22.4272 25.4387L22.4272 25.4387L21.49 25.09ZM26.25 16.9L25.48 16.262L25.48 16.262L26.25 16.9ZM53.13 2.34L53.3154 3.32266L53.3154 3.32266L53.13 2.34ZM78.47 2.41L78.3006 3.39555L78.3006 3.39555L78.47 2.41ZM91.49 5L91.2628 5.97384L91.2628 5.97384L91.49 5ZM103.81 7.94L103.571 8.91114L103.571 8.91114L103.81 7.94ZM115.5 10.18L115.371 11.1717L115.763 11.2225L116.084 10.9915L115.5 10.18ZM125.51 5.21L125.273 4.2386L125.273 4.2386L125.51 5.21ZM139.23 4.72L138.868 5.652L138.868 5.652L139.23 4.72ZM135.87 11.72L135.485 10.7969L135.485 10.7969L135.87 11.72ZM129.99 13.47L130.204 14.4469L130.204 14.4469L129.99 13.47ZM118.58 13.96L118.68 12.965L118.68 12.965L118.58 13.96ZM114.24 13.33L114.427 12.3477L113.89 12.2453L113.514 12.6428L114.24 13.33ZM107.66 22.15L108.519 22.6618L108.519 22.6618L107.66 22.15ZM102.13 32.58L103.031 33.0133L103.031 33.0133L102.13 32.58ZM97.09 43.85L98.0126 44.2358L98.0126 44.2358L97.09 43.85ZM92.26 55.19L93.1726 55.5991L93.1774 55.5881L92.26 55.19ZM89.25 61.14L90.1182 61.6361L90.1183 61.6361L89.25 61.14ZM85.47 66.39L86.2099 67.0627L86.2099 67.0627L85.47 66.39ZM80.64 70.17L81.1141 71.0505L81.1141 71.0505L80.64 70.17ZM71.4 71.15L71.759 70.2167L71.759 70.2167L71.4 71.15ZM69.09 69.82L69.7544 69.0726L69.7544 69.0726L69.09 69.82ZM67.62 67.93L66.7256 68.3772L66.7256 68.3772L67.62 67.93ZM69.3 67.86L70.0071 67.1529L70.0071 67.1529L69.3 67.86ZM76.23 68.42L76.5663 69.3617L76.5663 69.3617L76.23 68.42ZM79.38 66.39L80.0385 67.1426L80.0385 67.1426L79.38 66.39ZM82.95 62.19L83.7722 62.7592L82.95 62.19ZM87.08 55.05L86.1888 54.5963L86.1856 54.6028L87.08 55.05ZM92.89 43.29L91.9863 42.8619L91.9863 42.8619L92.89 43.29ZM98.77 31.74L97.8927 31.26L97.8927 31.26L98.77 31.74ZM105.14 21.24L105.967 21.8028L105.967 21.8028L105.14 21.24ZM112.42 12.63L113.107 13.3565L114.479 12.059L112.635 11.6534L112.42 12.63ZM89.74 6.19L90.0059 5.226L90.0059 5.226L89.74 6.19ZM77.28 3.25L77.473 2.2688L77.473 2.2688L77.28 3.25ZM55.37 2.69L55.2093 1.70299L55.2093 1.70299L55.37 2.69ZM31.85 14.45L31.0857 13.8051L31.0857 13.8051L31.85 14.45ZM27.02 41.19L26.0794 41.5296L26.0794 41.5296L27.02 41.19ZM30.59 47.42L29.8515 48.0943L29.8515 48.0943L30.59 47.42ZM35.42 50.99L35.8227 50.0747L35.8227 50.0747L35.42 50.99ZM46.34 51.06L46.7538 51.9704L46.7538 51.9704L46.34 51.06ZM49.91 48.75L50.6171 49.4571L50.6171 49.4571L49.91 48.75ZM51.73 46.44L52.6244 46.8872L52.6244 46.8872L51.73 46.44ZM125.23 6.19L124.971 5.22415L124.971 5.22415L125.23 6.19ZM117.04 10.53L116.41 9.75324L114.46 11.3345L116.963 11.5271L117.04 10.53ZM119.91 10.74L119.981 9.74254L119.981 9.74254L119.91 10.74ZM130.34 10.25L130.51 11.2355L130.51 11.2355L130.34 10.25ZM135.24 8.99L135.602 9.922L135.602 9.922L135.24 8.99ZM137.97 7.52L137.312 6.76742L137.311 6.76742L137.97 7.52ZM52.99 46.23L52.3315 45.4774L51.7715 45.9674L52.43 46.72L53.0885 47.4726L53.6485 46.9826L52.99 46.23ZM52.43 46.72H51.43C51.43 46.9322 51.2596 47.4764 50.5874 48.3503L51.38 48.96L52.1726 49.5697C52.9004 48.6236 53.43 47.6278 53.43 46.72H52.43ZM51.38 48.96L50.5874 48.3503C49.963 49.162 49.0618 50.0074 47.8545 50.8793L48.44 51.69L49.0255 52.5007C50.3382 51.5526 51.397 50.578 52.1726 49.5697L51.38 48.96ZM48.44 51.69L47.8545 50.8793C46.6899 51.7204 45.2418 52.4496 43.4929 53.055L43.82 54L44.1471 54.945C46.0382 54.2904 47.6701 53.4796 49.0255 52.5007L48.44 51.69ZM43.82 54L43.4929 53.055C41.7835 53.6467 39.8645 53.98 37.73 53.98V54.98V55.98C40.0755 55.98 42.2165 55.6133 44.1471 54.945L43.82 54ZM37.73 54.98V53.98C35.5652 53.98 33.4563 53.5215 31.3967 52.6578L31.01 53.58L30.6233 54.5022C32.9037 55.4585 35.2748 55.98 37.73 55.98V54.98ZM31.01 53.58L31.3967 52.6578C29.3604 51.8039 27.5766 50.5524 25.9771 48.9529L25.27 49.66L24.5629 50.3671C26.3234 52.1276 28.3196 53.5361 30.6233 54.5022L31.01 53.58ZM25.27 49.66L25.9771 48.9529C24.4078 47.3836 23.1487 45.4061 22.212 42.9976L21.28 43.36L20.348 43.7224C21.3713 46.3539 22.7722 48.5764 24.5629 50.3671L25.27 49.66ZM21.28 43.36L22.212 42.9976C21.2846 40.6129 20.81 37.8691 20.81 34.75H19.81H18.81C18.81 38.0708 19.3154 41.0671 20.348 43.7224L21.28 43.36ZM19.81 34.75H20.81C20.81 31.4309 21.3515 28.3298 22.4272 25.4387L21.49 25.09L20.5528 24.7413C19.3885 27.8702 18.81 31.2091 18.81 34.75H19.81ZM21.49 25.09L22.4272 25.4387C23.5062 22.5389 25.0581 19.9059 27.02 17.538L26.25 16.9L25.48 16.262C23.3819 18.7941 21.7138 21.6211 20.5528 24.7413L21.49 25.09ZM26.25 16.9L27.02 17.538C28.9953 15.1541 31.3098 12.9758 34.0335 11.0692L33.46 10.25L32.8865 9.43077C30.0102 11.4442 27.5647 13.7459 25.48 16.262L26.25 16.9ZM33.46 10.25L34.0335 11.0692C36.7621 9.15922 39.7733 7.58347 43.0048 6.27711L42.63 5.35L42.2552 4.42289C38.9067 5.77653 35.7579 7.42078 32.8865 9.43077L33.46 10.25ZM42.63 5.35L43.0048 6.27711C46.2245 4.97554 49.6597 4.01241 53.3154 3.32266L53.13 2.34L52.9446 1.35733C49.1803 2.06758 45.6155 3.06446 42.2552 4.42289L42.63 5.35ZM53.13 2.34L53.3154 3.32266C56.9631 2.63442 60.681 2.29 64.47 2.29V1.29V0.289997C60.559 0.289997 56.7169 0.645575 52.9446 1.35733L53.13 2.34ZM64.47 1.29V2.29C69.2524 2.29 73.8849 2.6366 78.3006 3.39555L78.47 2.41L78.6394 1.42445C74.0951 0.64339 69.3476 0.289997 64.47 0.289997V1.29ZM78.47 2.41L78.3006 3.39555C82.7678 4.16335 87.0875 4.99961 91.2628 5.97384L91.49 5L91.7172 4.02616C87.4925 3.04039 83.1322 2.19665 78.6394 1.42445L78.47 2.41ZM91.49 5L91.2628 5.97384C95.4606 6.95333 99.5865 7.93238 103.571 8.91114L103.81 7.94L104.049 6.96886C100.053 5.98762 95.9194 5.00667 91.7172 4.02616L91.49 5ZM103.81 7.94L103.571 8.91114C107.59 9.89816 111.547 10.676 115.371 11.1717L115.5 10.18L115.629 9.1883C111.893 8.70401 108.01 7.94184 104.049 6.96886L103.81 7.94ZM115.5 10.18L116.084 10.9915C119.515 8.52127 122.758 6.91205 125.747 6.1814L125.51 5.21L125.273 4.2386C121.962 5.04795 118.485 6.79873 114.916 9.36847L115.5 10.18ZM125.51 5.21L125.747 6.1814C128.852 5.4224 131.568 5.02 133.91 5.02V4.02V3.02C131.352 3.02 128.468 3.4576 125.273 4.2386L125.51 5.21ZM133.91 4.02V5.02C136.186 5.02 137.785 5.23084 138.868 5.652L139.23 4.72L139.592 3.78799C138.155 3.22915 136.254 3.02 133.91 3.02V4.02ZM139.23 4.72L138.868 5.652C140.033 6.10518 140.12 6.49375 140.12 6.68H141.12H142.12C142.12 5.18624 140.947 4.31481 139.592 3.78799L139.23 4.72ZM141.12 6.68H140.12C140.12 7.11643 139.863 7.71232 139.013 8.56289L139.72 9.27L140.427 9.97711C141.397 9.00768 142.12 7.92356 142.12 6.68H141.12ZM139.72 9.27L139.013 8.56289C138.212 9.36396 137.069 10.1373 135.485 10.7969L135.87 11.72L136.255 12.6431C138.031 11.9027 139.408 10.996 140.427 9.97711L139.72 9.27ZM135.87 11.72L135.485 10.7969C133.881 11.4653 131.985 12.01 129.776 12.4931L129.99 13.47L130.204 14.4469C132.475 13.95 134.499 13.3747 136.255 12.6431L135.87 11.72ZM129.99 13.47L129.776 12.4931C127.624 12.9639 125.249 13.17 122.71 13.17V14.17V15.17C125.351 15.17 127.876 14.9561 130.204 14.4469L129.99 13.47ZM122.71 14.17V13.17C121.414 13.17 120.047 13.1018 118.68 12.965L118.58 13.96L118.481 14.955C119.913 15.0982 121.346 15.17 122.71 15.17V14.17ZM118.58 13.96L118.68 12.965C117.308 12.8279 115.868 12.622 114.427 12.3477L114.24 13.33L114.053 14.3123C115.552 14.5979 117.052 14.8121 118.481 14.955L118.58 13.96ZM114.24 13.33L113.514 12.6428C111.006 15.2935 108.793 18.2943 106.801 21.6382L107.66 22.15L108.519 22.6618C110.447 19.4257 112.574 16.5465 114.966 14.0172L114.24 13.33ZM107.66 22.15L106.801 21.6382C104.821 24.9613 102.987 28.4893 101.229 32.1467L102.13 32.58L103.031 33.0133C104.773 29.3907 106.579 25.9187 108.519 22.6618L107.66 22.15ZM102.13 32.58L101.229 32.1467C99.47 35.8048 97.783 39.601 96.1674 43.4642L97.09 43.85L98.0126 44.2358C99.6171 40.399 101.29 36.6352 103.031 33.0133L102.13 32.58ZM97.09 43.85L96.1674 43.4642C94.5591 47.3102 92.9508 51.0861 91.3427 54.7919L92.26 55.19L93.1774 55.5881C94.7892 51.8739 96.4009 48.0898 98.0126 44.2358L97.09 43.85ZM92.26 55.19L91.3475 54.7809C90.4491 56.7851 89.4836 58.7156 88.3818 60.6439L89.25 61.14L90.1183 61.6361C91.2564 59.6444 92.2509 57.6549 93.1725 55.5991L92.26 55.19ZM89.25 61.14L88.3818 60.6439C87.2949 62.5458 86.077 64.2356 84.7301 65.7173L85.47 66.39L86.2099 67.0627C87.663 65.4644 88.9651 63.6542 90.1182 61.6361L89.25 61.14ZM85.47 66.39L84.7301 65.7173C83.4057 67.1741 81.8855 68.3636 80.1659 69.2895L80.64 70.17L81.1141 71.0505C83.0345 70.0164 84.7343 68.6859 86.2099 67.0627L85.47 66.39ZM80.64 70.17L80.1659 69.2895C78.5123 70.1799 76.5798 70.64 74.34 70.64V71.64V72.64C76.8602 72.64 79.1277 72.1201 81.1141 71.0505L80.64 70.17ZM74.34 71.64V70.64C73.3777 70.64 72.5258 70.5116 71.759 70.2167L71.4 71.15L71.041 72.0833C72.0942 72.4884 73.2023 72.64 74.34 72.64V71.64ZM71.4 71.15L71.759 70.2167C70.9197 69.8939 70.2665 69.5278 69.7544 69.0726L69.09 69.82L68.4256 70.5674C69.1735 71.2322 70.0603 71.7061 71.041 72.0833L71.4 71.15ZM69.09 69.82L69.7544 69.0726C69.2121 68.5905 68.8033 68.0605 68.5144 67.4828L67.62 67.93L66.7256 68.3772C67.1367 69.1995 67.7079 69.9295 68.4256 70.5674L69.09 69.82ZM67.62 67.93L68.5144 67.4828C68.2097 66.8734 68.06 66.3286 68.06 65.83H67.06H66.06C66.06 66.7314 66.3303 67.5866 66.7256 68.3772L67.62 67.93ZM67.06 65.83H68.06C68.06 65.5984 68.0717 65.4178 68.0903 65.2808C68.1094 65.1403 68.1323 65.0708 68.1415 65.0486C68.1509 65.026 68.1289 65.0927 68.0351 65.167C67.9258 65.2535 67.7954 65.29 67.69 65.29V64.29V63.29C67.3746 63.29 67.0604 63.3877 66.7937 63.5989C66.5423 63.7979 66.3891 64.0527 66.2935 64.2839C66.1114 64.724 66.06 65.2701 66.06 65.83H67.06ZM67.69 64.29V65.29C67.6344 65.29 67.5372 65.2791 67.4265 65.2238C67.3118 65.1664 67.227 65.0833 67.173 65.0022C67.1233 64.9278 67.1097 64.871 67.1076 64.8613C67.1053 64.8512 67.11 64.8674 67.11 64.92H68.11H69.11C69.11 64.6305 69.0675 64.2384 68.8371 63.8928C68.5589 63.4756 68.1213 63.29 67.69 63.29V64.29ZM68.11 64.92H67.11C67.11 66.3709 67.6323 67.6065 68.5929 68.5671L69.3 67.86L70.0071 67.1529C69.4277 66.5735 69.11 65.8491 69.11 64.92H68.11ZM69.3 67.86L68.5929 68.5671C69.6571 69.6313 71.3384 69.98 73.29 69.98V68.98V67.98C71.4616 67.98 70.4829 67.6287 70.0071 67.1529L69.3 67.86ZM73.29 68.98V69.98C74.413 69.98 75.5089 69.7394 76.5663 69.3617L76.23 68.42L75.8937 67.4783C74.9912 67.8006 74.127 67.98 73.29 67.98V68.98ZM76.23 68.42L76.5663 69.3617C77.7158 68.9512 78.8759 68.1599 80.0385 67.1426L79.38 66.39L78.7215 65.6374C77.6441 66.5801 76.7042 67.1888 75.8937 67.4783L76.23 68.42ZM79.38 66.39L80.0385 67.1426C81.2425 66.0891 82.4858 64.6174 83.7722 62.7592L82.95 62.19L82.1278 61.6208C80.8943 63.4026 79.7575 64.7309 78.7215 65.6374L79.38 66.39ZM82.95 62.19L83.7722 62.7592C85.0651 60.8917 86.4886 58.469 87.9744 55.4972L87.08 55.05L86.1856 54.6028C84.7315 57.511 83.3549 59.8483 82.1278 61.6208L82.95 62.19ZM87.08 55.05L87.9712 55.5037C89.9332 51.6498 91.8979 47.7203 93.7937 43.7181L92.89 43.29L91.9863 42.8619C90.1021 46.8397 88.1469 50.7502 86.1888 54.5963L87.08 55.05ZM92.89 43.29L93.7937 43.7181C95.6758 39.7449 97.627 35.9122 99.6473 32.22L98.77 31.74L97.8927 31.26C95.853 34.9878 93.8842 38.8551 91.9863 42.8619L92.89 43.29ZM98.77 31.74L99.6473 32.22C101.665 28.5321 103.748 25.0607 105.967 21.8028L105.14 21.24L104.313 20.6772C102.052 23.9993 99.9348 27.5279 97.8927 31.26L98.77 31.74ZM105.14 21.24L105.967 21.8028C108.168 18.5695 110.572 15.7549 113.107 13.3565L112.42 12.63L111.733 11.9035C109.088 14.4051 106.592 17.3305 104.313 20.6772L105.14 21.24ZM112.42 12.63L112.635 11.6534C109.166 10.8903 105.555 9.91821 101.8 8.73615L101.5 9.69L101.2 10.6438C105.005 11.8418 108.674 12.8297 112.205 13.6066L112.42 12.63ZM101.5 9.69L101.8 8.73615C98.0139 7.54413 94.0816 6.35032 90.0059 5.226L89.74 6.19L89.4741 7.15399C93.5184 8.26968 97.4261 9.45587 101.2 10.6438L101.5 9.69ZM89.74 6.19L90.0059 5.226C85.9223 4.09948 81.768 3.11371 77.473 2.2688L77.28 3.25L77.087 4.23119C81.332 5.06629 85.4377 6.04052 89.4741 7.15399L89.74 6.19ZM77.28 3.25L77.473 2.2688C73.1381 1.41603 68.7334 0.989996 64.19 0.989996V1.99V2.99C68.6066 2.99 72.8819 3.40397 77.087 4.23119L77.28 3.25ZM64.19 1.99V0.989996C61.2709 0.989996 58.2769 1.20361 55.2093 1.70299L55.37 2.69L55.5307 3.677C58.4831 3.19638 61.3691 2.99 64.19 2.99V1.99ZM55.37 2.69L55.2093 1.70299C52.1521 2.20068 49.1569 2.91314 46.2269 3.91365L46.55 4.86L46.8731 5.80635C49.6831 4.84686 52.5679 4.15932 55.5307 3.677L55.37 2.69ZM46.55 4.86L46.2269 3.91365C43.2859 4.91788 40.553 6.2117 37.9616 7.8673L38.5 8.71L39.0384 9.55269C41.487 7.98829 44.0741 6.76211 46.8731 5.80635L46.55 4.86ZM38.5 8.71L37.9616 7.8673C35.3685 9.52403 33.049 11.4783 31.0857 13.8051L31.85 14.45L32.6143 15.0949C34.431 12.9417 36.5915 11.116 39.0384 9.55269L38.5 8.71ZM31.85 14.45L31.0857 13.8051C29.1223 16.1322 27.5251 18.8201 26.3655 21.864L27.3 22.22L28.2345 22.576C29.3149 19.7399 30.7977 17.2478 32.6143 15.0949L31.85 14.45ZM27.3 22.22L26.3655 21.864C25.1948 24.9371 24.62 28.421 24.62 32.23H25.62H26.62C26.62 28.619 27.1652 25.3829 28.2345 22.576L27.3 22.22ZM25.62 32.23H24.62C24.62 35.7522 25.1228 38.8805 26.0794 41.5296L27.02 41.19L27.9606 40.8504C27.0972 38.4595 26.62 35.5678 26.62 32.23H25.62ZM27.02 41.19L26.0794 41.5296C27.0223 44.1407 28.272 46.3644 29.8515 48.0943L30.59 47.42L31.3285 46.7457C29.968 45.2556 28.8377 43.2793 27.9606 40.8504L27.02 41.19ZM30.59 47.42L29.8515 48.0943C31.4023 49.7927 33.1231 51.0719 35.0173 51.9053L35.42 50.99L35.8227 50.0747C34.2169 49.3681 32.7177 48.2673 31.3285 46.7457L30.59 47.42ZM35.42 50.99L35.0173 51.9053C36.875 52.7227 38.6218 53.11 40.32 53.11V52.11V51.11C38.9382 51.11 37.465 50.7973 35.8227 50.0747L35.42 50.99ZM40.32 52.11V53.11C42.8513 53.11 45.0376 52.7504 46.7538 51.9704L46.34 51.06L45.9262 50.1496C44.5624 50.7696 42.6887 51.11 40.32 51.11V52.11ZM46.34 51.06L46.7538 51.9704C48.3604 51.2401 49.6646 50.4096 50.6171 49.4571L49.91 48.75L49.2029 48.0429C48.4754 48.7704 47.3996 49.4799 45.9262 50.1496L46.34 51.06ZM49.91 48.75L50.6171 49.4571C51.4812 48.593 52.2019 47.7323 52.6244 46.8872L51.73 46.44L50.8356 45.9928C50.5581 46.5477 50.0188 47.227 49.2029 48.0429L49.91 48.75ZM51.73 46.44L52.6244 46.8872C52.7875 46.561 52.9082 46.3712 52.9834 46.2772C53.021 46.2302 53.0212 46.2404 52.9806 46.2694C52.943 46.2962 52.7986 46.39 52.57 46.39V45.39V44.39C52.2364 44.39 51.9782 44.5275 51.8181 44.6419C51.655 44.7584 51.524 44.8998 51.4216 45.0278C51.2168 45.2838 51.0225 45.619 50.8356 45.9928L51.73 46.44ZM52.57 45.39V46.39C52.465 46.39 52.3285 46.3609 52.1991 46.2745C52.0758 46.1924 52.0149 46.0958 51.9906 46.0472C51.9682 46.0025 51.9708 45.9874 51.9774 46.0269C51.9835 46.0637 51.99 46.129 51.99 46.23H52.99H53.99C53.99 45.8989 53.9539 45.5017 53.7794 45.1528C53.6851 44.9642 53.5367 44.7626 53.3085 44.6104C53.074 44.4541 52.815 44.39 52.57 44.39V45.39ZM133.91 5V4H133.56V5V6H133.91V5ZM133.56 5V4C130.796 4 127.908 4.43608 124.971 5.22415L125.23 6.19L125.489 7.15584C128.292 6.40391 131.004 6 133.56 6V5ZM125.23 6.19L124.971 5.22415C121.944 6.03634 119.09 7.58033 116.41 9.75324L117.04 10.53L117.67 11.3068C120.17 9.27967 122.776 7.88366 125.489 7.15584L125.23 6.19ZM117.04 10.53L116.963 11.5271C117.877 11.5973 118.859 11.6675 119.839 11.7375L119.91 10.74L119.981 9.74254C119.001 9.6725 118.023 9.6027 117.117 9.53294L117.04 10.53ZM119.91 10.74L119.839 11.7375C120.86 11.8104 121.875 11.81 122.78 11.81V10.81V9.81C121.865 9.81 120.92 9.80959 119.981 9.74254L119.91 10.74ZM122.78 10.81V11.81C125.834 11.81 128.412 11.5971 130.51 11.2355L130.34 10.25L130.17 9.26454C128.208 9.6029 125.746 9.81 122.78 9.81V10.81ZM130.34 10.25L130.51 11.2355C132.579 10.8786 134.259 10.4443 135.602 9.922L135.24 8.99L134.878 8.05799C133.701 8.51573 132.161 8.92135 130.17 9.26454L130.34 10.25ZM135.24 8.99L135.602 9.922C136.897 9.41845 137.937 8.87794 138.629 8.27257L137.97 7.52L137.311 6.76742C136.883 7.14206 136.103 7.58154 134.878 8.05799L135.24 8.99ZM137.97 7.52L138.629 8.27257C138.926 8.01237 139.195 7.75058 139.395 7.48729C139.584 7.24 139.81 6.86608 139.81 6.4H138.81H137.81C137.81 6.30133 137.835 6.23822 137.842 6.22274C137.848 6.20926 137.842 6.22567 137.805 6.27521C137.725 6.37942 137.574 6.53763 137.312 6.76742L137.97 7.52ZM138.81 6.4H139.81C139.81 5.72993 139.351 5.29402 139.027 5.06594C138.669 4.81448 138.208 4.61928 137.704 4.46422L137.41 5.42L137.116 6.37578C137.522 6.50072 137.761 6.62052 137.876 6.70155C137.931 6.74065 137.925 6.74764 137.899 6.70996C137.868 6.66571 137.81 6.55769 137.81 6.4H138.81ZM137.41 5.42L137.704 4.46422C136.664 4.14407 135.365 4 133.91 4V5V6C135.255 6 136.336 6.13593 137.116 6.37578L137.41 5.42Z" fill="black" mask="url(#path-1-outside-1_702_59)"/>
<mask id="path-3-outside-2_702_59" maskUnits="userSpaceOnUse" x="235" y="0" width="93" height="91" fill="black">
<rect fill="white" x="235" width="93" height="91"/>
<path d="M324.37 10.46L323.46 10.81C323.6 10.67 323.74 10.6 323.88 10.6C324.09 10.6 324.16 10.67 324.16 10.88C324.16 10.95 324.16 11.09 324.09 11.23C324.02 11.37 323.88 11.58 323.67 11.93C323.32 12.42 322.9 12.91 322.41 13.47C321.92 14.03 321.36 14.52 320.73 14.94C320.1 15.36 319.4 15.71 318.63 15.99C317.86 16.27 317.02 16.41 316.11 16.41C314.92 16.41 313.94 16.06 313.1 15.43C312.26 14.8 311.56 13.96 310.93 12.98C310.3 12 309.67 10.95 309.11 9.83C308.55 8.71 307.92 7.66 307.22 6.68C306.52 5.7 305.68 4.86 304.7 4.23C303.72 3.6 302.46 3.25 300.99 3.25C299.03 3.25 297.14 3.67 295.32 4.58C293.5 5.49 291.96 6.68 290.63 8.22C289.3 9.76 288.25 11.51 287.48 13.47C286.71 15.43 286.29 17.46 286.29 19.49C286.29 20.96 286.43 22.22 286.71 23.27C286.99 24.32 287.34 25.23 287.83 26C290.07 26 291.96 26.28 293.5 26.84C295.04 27.4 295.81 28.03 295.81 28.66C295.81 29.43 294.83 29.78 292.87 29.78C292.52 29.78 292.03 29.78 291.4 29.71C290.77 29.64 290.07 29.5 289.3 29.29C288.53 29.08 287.76 28.8 286.99 28.45C286.22 28.1 285.45 27.61 284.75 26.98C278.59 27.33 272.92 28.52 267.74 30.48C262.56 32.44 258.08 35.03 254.3 38.25C250.52 41.47 247.58 45.25 245.48 49.52C243.38 53.79 242.33 58.41 242.33 63.38C242.33 67.23 242.96 70.66 244.15 73.74C245.34 76.82 247.02 79.41 249.19 81.58C251.36 83.75 253.95 85.43 256.96 86.62C259.97 87.81 263.33 88.37 267.04 88.37C271.87 88.37 276.28 87.53 280.27 85.92C284.26 84.31 287.69 82.21 290.56 79.62C293.43 77.03 295.67 74.02 297.28 70.66C298.89 67.3 299.66 63.8 299.66 60.23C299.66 59.04 299.52 57.92 299.31 56.87C299.1 55.82 298.75 54.91 298.26 54.14C297.77 53.37 297.14 52.74 296.44 52.25C295.74 51.76 294.9 51.55 293.85 51.55C292.66 51.55 291.54 51.76 290.49 52.25C289.44 52.74 288.46 53.3 287.62 53.93C286.78 54.56 286.08 55.12 285.52 55.61C284.96 56.1 284.61 56.31 284.4 56.31C284.12 56.31 283.98 56.24 283.98 56.03C283.98 55.75 284.33 55.26 285.03 54.56C285.73 53.86 286.64 53.09 287.76 52.32C288.88 51.55 290.21 50.85 291.68 50.22C293.15 49.59 294.69 49.31 296.23 49.31C298.68 49.31 300.71 50.15 302.32 51.83C303.93 53.51 304.7 55.96 304.7 59.25C304.7 61.56 304.28 63.94 303.37 66.39C302.46 68.84 301.2 71.15 299.52 73.39C297.84 75.63 295.88 77.73 293.57 79.76C291.26 81.79 288.67 83.54 285.8 85.01C282.93 86.48 279.85 87.67 276.56 88.51C273.27 89.35 269.84 89.77 266.27 89.77C262.56 89.77 258.92 89.28 255.35 88.3C251.78 87.32 248.63 85.78 245.9 83.68C243.17 81.58 240.93 78.92 239.25 75.63C237.57 72.34 236.73 68.49 236.73 64.01C236.73 60.72 237.29 57.57 238.48 54.49C239.67 51.41 241.28 48.47 243.38 45.74C245.48 43.01 248 40.49 250.94 38.18C253.88 35.87 257.1 33.84 260.6 32.09C264.1 30.34 267.88 28.94 271.87 27.82C275.86 26.7 279.99 26 284.26 25.72C283.7 25.02 283.28 24.18 282.93 23.2C282.58 22.22 282.44 21.1 282.44 19.77C282.44 17.39 283.07 15.08 284.26 12.84C285.45 10.6 287.06 8.64 289.09 6.96C291.12 5.28 293.36 3.95 295.88 2.97C298.4 1.99 300.99 1.5 303.58 1.5C305.4 1.5 307.01 1.78 308.34 2.34C309.67 2.9 310.86 3.6 311.84 4.44C312.82 5.28 313.66 6.19 314.43 7.1C315.2 8.01 315.9 8.92 316.53 9.76C317.16 10.6 317.79 11.3 318.42 11.86C319.05 12.42 319.68 12.7 320.38 12.7C321.01 12.7 321.64 12.56 322.34 12.21C323.04 11.86 323.74 11.3 324.37 10.46ZM288.39 27.33C288.95 27.89 289.58 28.31 290.35 28.59C291.12 28.87 291.89 29.01 292.66 29.01C293.08 29.01 293.29 28.94 293.29 28.73C293.29 28.45 292.8 28.17 291.75 27.82C290.7 27.47 289.58 27.33 288.39 27.33Z"/>
</mask>
<path d="M324.37 10.46L323.46 10.81C323.6 10.67 323.74 10.6 323.88 10.6C324.09 10.6 324.16 10.67 324.16 10.88C324.16 10.95 324.16 11.09 324.09 11.23C324.02 11.37 323.88 11.58 323.67 11.93C323.32 12.42 322.9 12.91 322.41 13.47C321.92 14.03 321.36 14.52 320.73 14.94C320.1 15.36 319.4 15.71 318.63 15.99C317.86 16.27 317.02 16.41 316.11 16.41C314.92 16.41 313.94 16.06 313.1 15.43C312.26 14.8 311.56 13.96 310.93 12.98C310.3 12 309.67 10.95 309.11 9.83C308.55 8.71 307.92 7.66 307.22 6.68C306.52 5.7 305.68 4.86 304.7 4.23C303.72 3.6 302.46 3.25 300.99 3.25C299.03 3.25 297.14 3.67 295.32 4.58C293.5 5.49 291.96 6.68 290.63 8.22C289.3 9.76 288.25 11.51 287.48 13.47C286.71 15.43 286.29 17.46 286.29 19.49C286.29 20.96 286.43 22.22 286.71 23.27C286.99 24.32 287.34 25.23 287.83 26C290.07 26 291.96 26.28 293.5 26.84C295.04 27.4 295.81 28.03 295.81 28.66C295.81 29.43 294.83 29.78 292.87 29.78C292.52 29.78 292.03 29.78 291.4 29.71C290.77 29.64 290.07 29.5 289.3 29.29C288.53 29.08 287.76 28.8 286.99 28.45C286.22 28.1 285.45 27.61 284.75 26.98C278.59 27.33 272.92 28.52 267.74 30.48C262.56 32.44 258.08 35.03 254.3 38.25C250.52 41.47 247.58 45.25 245.48 49.52C243.38 53.79 242.33 58.41 242.33 63.38C242.33 67.23 242.96 70.66 244.15 73.74C245.34 76.82 247.02 79.41 249.19 81.58C251.36 83.75 253.95 85.43 256.96 86.62C259.97 87.81 263.33 88.37 267.04 88.37C271.87 88.37 276.28 87.53 280.27 85.92C284.26 84.31 287.69 82.21 290.56 79.62C293.43 77.03 295.67 74.02 297.28 70.66C298.89 67.3 299.66 63.8 299.66 60.23C299.66 59.04 299.52 57.92 299.31 56.87C299.1 55.82 298.75 54.91 298.26 54.14C297.77 53.37 297.14 52.74 296.44 52.25C295.74 51.76 294.9 51.55 293.85 51.55C292.66 51.55 291.54 51.76 290.49 52.25C289.44 52.74 288.46 53.3 287.62 53.93C286.78 54.56 286.08 55.12 285.52 55.61C284.96 56.1 284.61 56.31 284.4 56.31C284.12 56.31 283.98 56.24 283.98 56.03C283.98 55.75 284.33 55.26 285.03 54.56C285.73 53.86 286.64 53.09 287.76 52.32C288.88 51.55 290.21 50.85 291.68 50.22C293.15 49.59 294.69 49.31 296.23 49.31C298.68 49.31 300.71 50.15 302.32 51.83C303.93 53.51 304.7 55.96 304.7 59.25C304.7 61.56 304.28 63.94 303.37 66.39C302.46 68.84 301.2 71.15 299.52 73.39C297.84 75.63 295.88 77.73 293.57 79.76C291.26 81.79 288.67 83.54 285.8 85.01C282.93 86.48 279.85 87.67 276.56 88.51C273.27 89.35 269.84 89.77 266.27 89.77C262.56 89.77 258.92 89.28 255.35 88.3C251.78 87.32 248.63 85.78 245.9 83.68C243.17 81.58 240.93 78.92 239.25 75.63C237.57 72.34 236.73 68.49 236.73 64.01C236.73 60.72 237.29 57.57 238.48 54.49C239.67 51.41 241.28 48.47 243.38 45.74C245.48 43.01 248 40.49 250.94 38.18C253.88 35.87 257.1 33.84 260.6 32.09C264.1 30.34 267.88 28.94 271.87 27.82C275.86 26.7 279.99 26 284.26 25.72C283.7 25.02 283.28 24.18 282.93 23.2C282.58 22.22 282.44 21.1 282.44 19.77C282.44 17.39 283.07 15.08 284.26 12.84C285.45 10.6 287.06 8.64 289.09 6.96C291.12 5.28 293.36 3.95 295.88 2.97C298.4 1.99 300.99 1.5 303.58 1.5C305.4 1.5 307.01 1.78 308.34 2.34C309.67 2.9 310.86 3.6 311.84 4.44C312.82 5.28 313.66 6.19 314.43 7.1C315.2 8.01 315.9 8.92 316.53 9.76C317.16 10.6 317.79 11.3 318.42 11.86C319.05 12.42 319.68 12.7 320.38 12.7C321.01 12.7 321.64 12.56 322.34 12.21C323.04 11.86 323.74 11.3 324.37 10.46ZM288.39 27.33C288.95 27.89 289.58 28.31 290.35 28.59C291.12 28.87 291.89 29.01 292.66 29.01C293.08 29.01 293.29 28.94 293.29 28.73C293.29 28.45 292.8 28.17 291.75 27.82C290.7 27.47 289.58 27.33 288.39 27.33Z" fill="url(#paint1_linear_702_59)"/>
<path d="M324.37 10.46L325.17 11.06L327.256 8.27854L324.011 9.52665L324.37 10.46ZM323.46 10.81L322.753 10.1029L323.819 11.7433L323.46 10.81ZM324.09 11.23L324.984 11.6772L324.984 11.6772L324.09 11.23ZM323.67 11.93L324.484 12.5112L324.507 12.4787L324.527 12.4445L323.67 11.93ZM322.41 13.47L321.657 12.8115L321.657 12.8115L322.41 13.47ZM320.73 14.94L321.285 15.772L321.285 15.772L320.73 14.94ZM318.63 15.99L318.972 16.9298L318.972 16.9298L318.63 15.99ZM313.1 15.43L312.5 16.23L312.5 16.23L313.1 15.43ZM310.93 12.98L310.089 13.5208L310.089 13.5208L310.93 12.98ZM309.11 9.83L308.216 10.2772L308.216 10.2772L309.11 9.83ZM304.7 4.23L304.159 5.07117L304.159 5.07118L304.7 4.23ZM290.63 8.22L291.387 8.87362L291.387 8.87362L290.63 8.22ZM287.48 13.47L286.549 13.1043L286.549 13.1043L287.48 13.47ZM287.83 26L286.986 26.5369L287.281 27H287.83V26ZM293.5 26.84L293.842 25.9002L293.842 25.9002L293.5 26.84ZM291.4 29.71L291.51 28.7161L291.51 28.7161L291.4 29.71ZM289.3 29.29L289.037 30.2548L289.037 30.2548L289.3 29.29ZM286.99 28.45L287.404 27.5396L287.404 27.5396L286.99 28.45ZM284.75 26.98L285.419 26.2367L285.109 25.958L284.693 25.9816L284.75 26.98ZM254.3 38.25L253.652 37.4888L253.652 37.4888L254.3 38.25ZM245.48 49.52L244.583 49.0787L244.583 49.0787L245.48 49.52ZM244.15 73.74L243.217 74.1004L243.217 74.1004L244.15 73.74ZM256.96 86.62L256.592 87.55L256.592 87.55L256.96 86.62ZM290.56 79.62L289.89 78.8776L289.89 78.8776L290.56 79.62ZM297.28 70.66L298.182 71.0921L298.182 71.0921L297.28 70.66ZM299.31 56.87L298.329 57.0661L298.329 57.0661L299.31 56.87ZM298.26 54.14L297.416 54.6769L297.416 54.6769L298.26 54.14ZM296.44 52.25L295.867 53.0692L295.867 53.0692L296.44 52.25ZM290.49 52.25L290.913 53.1562L290.913 53.1562L290.49 52.25ZM287.62 53.93L288.22 54.73L288.22 54.73L287.62 53.93ZM285.52 55.61L284.861 54.8574L284.861 54.8574L285.52 55.61ZM285.03 54.56L284.323 53.8529L284.323 53.8529L285.03 54.56ZM287.76 52.32L287.193 51.496L287.193 51.496L287.76 52.32ZM291.68 50.22L291.286 49.3009L291.286 49.3009L291.68 50.22ZM302.32 51.83L303.042 51.1381L303.042 51.1381L302.32 51.83ZM303.37 66.39L304.307 66.7382L304.307 66.7382L303.37 66.39ZM299.52 73.39L298.72 72.79L298.72 72.79L299.52 73.39ZM293.57 79.76L292.91 79.0088L292.91 79.0088L293.57 79.76ZM276.56 88.51L276.313 87.5411L276.313 87.5411L276.56 88.51ZM255.35 88.3L255.615 87.3357L255.615 87.3357L255.35 88.3ZM238.48 54.49L239.413 54.8504L239.413 54.8504L238.48 54.49ZM243.38 45.74L244.173 46.3497L244.173 46.3497L243.38 45.74ZM250.94 38.18L251.558 38.9663L251.558 38.9663L250.94 38.18ZM271.87 27.82L271.6 26.8572L271.6 26.8572L271.87 27.82ZM284.26 25.72L284.325 26.7179L286.239 26.5924L285.041 25.0953L284.26 25.72ZM284.26 12.84L283.377 12.3708L283.377 12.3708L284.26 12.84ZM289.09 6.96L289.728 7.73039L289.728 7.73039L289.09 6.96ZM295.88 2.97L295.518 2.03799L295.518 2.03799L295.88 2.97ZM308.34 2.34L308.728 1.41836L308.728 1.41836L308.34 2.34ZM311.84 4.44L311.189 5.19925L311.189 5.19926L311.84 4.44ZM316.53 9.76L315.73 10.36L315.73 10.36L316.53 9.76ZM318.42 11.86L319.084 11.1126L319.084 11.1126L318.42 11.86ZM288.39 27.33V26.33H285.976L287.683 28.0371L288.39 27.33ZM290.35 28.59L290.692 27.6502L290.692 27.6502L290.35 28.59ZM291.75 27.82L292.066 26.8713L292.066 26.8713L291.75 27.82ZM324.37 10.46L324.011 9.52665L323.101 9.87666L323.46 10.81L323.819 11.7433L324.729 11.3933L324.37 10.46ZM323.46 10.81L324.167 11.5171C324.198 11.4861 324.099 11.6 323.88 11.6V10.6V9.6C323.381 9.6 323.002 9.8539 322.753 10.1029L323.46 10.81ZM323.88 10.6V11.6C323.879 11.6 323.868 11.6 323.847 11.5979C323.827 11.5958 323.793 11.5909 323.749 11.579C323.657 11.5539 323.519 11.4958 323.392 11.3683C323.264 11.2409 323.206 11.1026 323.181 11.0108C323.169 10.967 323.164 10.9327 323.162 10.9127C323.16 10.8925 323.16 10.8806 323.16 10.88H324.16H325.16C325.16 10.7196 325.146 10.2945 324.806 9.95415C324.466 9.61383 324.04 9.6 323.88 9.6V10.6ZM324.16 10.88H323.16C323.16 10.9115 323.159 10.9023 323.161 10.8873C323.164 10.8709 323.171 10.8318 323.196 10.7828L324.09 11.23L324.984 11.6772C325.168 11.3093 325.16 10.9588 325.16 10.88H324.16ZM324.09 11.23L323.196 10.7828C323.148 10.8789 323.065 10.994 322.813 11.4155L323.67 11.93L324.527 12.4445C324.695 12.166 324.893 11.8611 324.984 11.6772L324.09 11.23ZM323.67 11.93L322.856 11.3488C322.539 11.7936 322.149 12.2495 321.657 12.8115L322.41 13.47L323.163 14.1285C323.651 13.5705 324.101 13.0464 324.484 12.5112L323.67 11.93ZM322.41 13.47L321.657 12.8115C321.226 13.304 320.733 13.736 320.175 14.1079L320.73 14.94L321.285 15.772C321.987 15.304 322.614 14.756 323.163 14.1285L322.41 13.47ZM320.73 14.94L320.175 14.1079C319.617 14.4802 318.989 14.7953 318.288 15.0502L318.63 15.99L318.972 16.9298C319.811 16.6247 320.583 16.2398 321.285 15.772L320.73 14.94ZM318.63 15.99L318.288 15.0502C317.639 15.2862 316.916 15.41 316.11 15.41V16.41V17.41C317.124 17.41 318.081 17.2538 318.972 16.9298L318.63 15.99ZM316.11 16.41V15.41C315.136 15.41 314.367 15.1302 313.7 14.63L313.1 15.43L312.5 16.23C313.513 16.9898 314.704 17.41 316.11 17.41V16.41ZM313.1 15.43L313.7 14.63C312.987 14.0951 312.362 13.3589 311.771 12.4392L310.93 12.98L310.089 13.5208C310.758 14.5611 311.533 15.5049 312.5 16.23L313.1 15.43ZM310.93 12.98L311.771 12.4392C311.152 11.4764 310.543 10.4593 310.004 9.38278L309.11 9.83L308.216 10.2772C308.797 11.4407 309.448 12.5236 310.089 13.5208L310.93 12.98ZM309.11 9.83L310.004 9.38279C309.422 8.21792 308.765 7.12291 308.034 6.09876L307.22 6.68L306.406 7.26124C307.075 8.19709 307.678 9.20208 308.216 10.2772L309.11 9.83ZM307.22 6.68L308.034 6.09876C307.271 5.03154 306.343 4.09723 305.241 3.38882L304.7 4.23L304.159 5.07118C305.017 5.62276 305.769 6.36846 306.406 7.26124L307.22 6.68ZM304.7 4.23L305.241 3.38882C304.072 2.6377 302.617 2.25 300.99 2.25V3.25V4.25C302.303 4.25 303.368 4.56229 304.159 5.07117L304.7 4.23ZM300.99 3.25V2.25C298.881 2.25 296.837 2.7035 294.873 3.68557L295.32 4.58L295.767 5.47442C297.443 4.63649 299.179 4.25 300.99 4.25V3.25ZM295.32 4.58L294.873 3.68557C292.937 4.65366 291.291 5.92486 289.873 7.56638L290.63 8.22L291.387 8.87362C292.629 7.43514 294.063 6.32633 295.767 5.47442L295.32 4.58ZM290.63 8.22L289.873 7.56638C288.467 9.19482 287.359 11.0429 286.549 13.1043L287.48 13.47L288.411 13.8357C289.141 11.9771 290.133 10.3252 291.387 8.87362L290.63 8.22ZM287.48 13.47L286.549 13.1043C285.739 15.1676 285.29 17.3213 285.29 19.49H286.29H287.29C287.29 17.5986 287.681 15.6924 288.411 13.8357L287.48 13.47ZM286.29 19.49H285.29C285.29 21.0186 285.435 22.37 285.744 23.5277L286.71 23.27L287.676 23.0123C287.425 22.07 287.29 20.9014 287.29 19.49H286.29ZM286.71 23.27L285.744 23.5277C286.039 24.6338 286.422 25.6499 286.986 26.5369L287.83 26L288.674 25.4631C288.258 24.8101 287.941 24.0062 287.676 23.0123L286.71 23.27ZM287.83 26V27C289.993 27 291.76 27.2713 293.158 27.7798L293.5 26.84L293.842 25.9002C292.16 25.2887 290.147 25 287.83 25V26ZM293.5 26.84L293.158 27.7798C293.88 28.0423 294.345 28.2953 294.61 28.5063C294.887 28.7269 294.81 28.7848 294.81 28.66H295.81H296.81C296.81 27.9052 296.348 27.3331 295.855 26.9411C295.35 26.5397 294.66 26.1977 293.842 25.9002L293.5 26.84ZM295.81 28.66H294.81C294.81 28.6188 294.831 28.5504 294.871 28.5042C294.894 28.4784 294.874 28.5163 294.724 28.5724C294.408 28.6909 293.821 28.78 292.87 28.78V29.78V30.78C293.879 30.78 294.762 30.6941 295.426 30.4451C295.766 30.3175 296.114 30.1235 296.381 29.8154C296.666 29.4871 296.81 29.0862 296.81 28.66H295.81ZM292.87 29.78V28.78C292.526 28.78 292.082 28.7797 291.51 28.7161L291.4 29.71L291.29 30.7039C291.978 30.7803 292.514 30.78 292.87 30.78V29.78ZM291.4 29.71L291.51 28.7161C290.943 28.6531 290.295 28.5249 289.563 28.3252L289.3 29.29L289.037 30.2548C289.845 30.4751 290.597 30.6269 291.29 30.7039L291.4 29.71ZM289.3 29.29L289.563 28.3252C288.848 28.1301 288.128 27.8688 287.404 27.5396L286.99 28.45L286.576 29.3604C287.392 29.7312 288.212 30.0299 289.037 30.2548L289.3 29.29ZM286.99 28.45L287.404 27.5396C286.724 27.2305 286.04 26.796 285.419 26.2367L284.75 26.98L284.081 27.7233C284.86 28.424 285.716 28.9695 286.576 29.3604L286.99 28.45ZM284.75 26.98L284.693 25.9816C278.439 26.337 272.668 27.5462 267.386 29.5447L267.74 30.48L268.094 31.4153C273.172 29.4938 278.741 28.323 284.807 27.9784L284.75 26.98ZM267.74 30.48L267.386 29.5447C262.111 31.5407 257.528 34.1862 253.652 37.4888L254.3 38.25L254.948 39.0112C258.632 35.8738 263.009 33.3393 268.094 31.4153L267.74 30.48ZM254.3 38.25L253.652 37.4888C249.77 40.7954 246.744 44.6836 244.583 49.0787L245.48 49.52L246.377 49.9613C248.416 45.8164 251.27 42.1446 254.948 39.0112L254.3 38.25ZM245.48 49.52L244.583 49.0787C242.412 53.4921 241.33 58.264 241.33 63.38H242.33H243.33C243.33 58.556 244.348 54.0879 246.377 49.9613L245.48 49.52ZM242.33 63.38H241.33C241.33 67.3414 241.979 70.8949 243.217 74.1004L244.15 73.74L245.083 73.3796C243.941 70.4251 243.33 67.1186 243.33 63.38H242.33ZM244.15 73.74L243.217 74.1004C244.455 77.3044 246.21 80.0141 248.483 82.2871L249.19 81.58L249.897 80.8729C247.83 78.8059 246.225 76.3356 245.083 73.3796L244.15 73.74ZM249.19 81.58L248.483 82.2871C250.755 84.5591 253.462 86.3125 256.592 87.55L256.96 86.62L257.328 85.69C254.438 84.5475 251.965 82.9409 249.897 80.8729L249.19 81.58ZM256.96 86.62L256.592 87.55C259.741 88.7948 263.23 89.37 267.04 89.37V88.37V87.37C263.43 87.37 260.199 86.8252 257.328 85.69L256.96 86.62ZM267.04 88.37V89.37C271.988 89.37 276.526 88.509 280.644 86.8474L280.27 85.92L279.896 84.9927C276.034 86.551 271.752 87.37 267.04 87.37V88.37ZM280.27 85.92L280.644 86.8474C284.731 85.1984 288.264 83.0393 291.23 80.3624L290.56 79.62L289.89 78.8776C287.116 81.3807 283.789 83.4216 279.896 84.9927L280.27 85.92ZM290.56 79.62L291.23 80.3624C294.196 77.6858 296.515 74.5707 298.182 71.0921L297.28 70.66L296.378 70.2279C294.825 73.4693 292.664 76.3742 289.89 78.8776L290.56 79.62ZM297.28 70.66L298.182 71.0921C299.857 67.596 300.66 63.9482 300.66 60.23H299.66H298.66C298.66 63.6518 297.923 67.004 296.378 70.2279L297.28 70.66ZM299.66 60.23H300.66C300.66 58.9611 300.511 57.7743 300.291 56.6739L299.31 56.87L298.329 57.0661C298.529 58.0657 298.66 59.1189 298.66 60.23H299.66ZM299.31 56.87L300.291 56.6739C300.06 55.5234 299.67 54.4936 299.104 53.6031L298.26 54.14L297.416 54.6769C297.83 55.3264 298.14 56.1166 298.329 57.0661L299.31 56.87ZM298.26 54.14L299.104 53.6031C298.537 52.7133 297.812 51.9899 297.013 51.4308L296.44 52.25L295.867 53.0692C296.468 53.4901 297.003 54.0267 297.416 54.6769L298.26 54.14ZM296.44 52.25L297.013 51.4308C296.097 50.7889 295.036 50.55 293.85 50.55V51.55V52.55C294.764 52.55 295.383 52.7311 295.867 53.0692L296.44 52.25ZM293.85 51.55V50.55C292.539 50.55 291.271 50.7821 290.067 51.3438L290.49 52.25L290.913 53.1562C291.809 52.7379 292.781 52.55 293.85 52.55V51.55ZM290.49 52.25L290.067 51.3438C288.972 51.8551 287.928 52.4487 287.02 53.13L287.62 53.93L288.22 54.73C288.992 54.1513 289.908 53.6249 290.913 53.1562L290.49 52.25ZM287.62 53.93L287.02 53.13C286.167 53.7695 285.446 54.3457 284.861 54.8574L285.52 55.61L286.179 56.3626C286.714 55.8943 287.393 55.3505 288.22 54.73L287.62 53.93ZM285.52 55.61L284.861 54.8574C284.6 55.0866 284.419 55.2213 284.302 55.2935C284.245 55.3289 284.221 55.3379 284.226 55.3362C284.227 55.3357 284.291 55.31 284.4 55.31V56.31V57.31C284.796 57.31 285.136 57.1297 285.355 56.994C285.606 56.8387 285.88 56.6234 286.179 56.3626L285.52 55.61ZM284.4 56.31V55.31C284.367 55.31 284.372 55.3076 284.401 55.3129C284.428 55.318 284.513 55.3368 284.615 55.4007C284.729 55.472 284.836 55.582 284.906 55.7261C284.971 55.86 284.98 55.9744 284.98 56.03H283.98H282.98C282.98 56.3924 283.126 56.8283 283.555 57.0968C283.876 57.2975 284.224 57.31 284.4 57.31V56.31ZM283.98 56.03H284.98C284.98 56.1567 284.944 56.2209 284.956 56.1944C284.964 56.1759 284.992 56.1238 285.056 56.0337C285.185 55.8528 285.405 55.5995 285.737 55.2671L285.03 54.56L284.323 53.8529C283.955 54.2205 283.65 54.5622 283.429 54.8713C283.244 55.1293 282.98 55.5484 282.98 56.03H283.98ZM285.03 54.56L285.737 55.2671C286.391 54.613 287.254 53.8817 288.327 53.144L287.76 52.32L287.193 51.496C286.026 52.2983 285.069 53.107 284.323 53.8529L285.03 54.56ZM287.76 52.32L288.327 53.144C289.378 52.421 290.647 51.7509 292.074 51.1391L291.68 50.22L291.286 49.3009C289.774 49.9491 288.382 50.679 287.193 51.496L287.76 52.32ZM291.68 50.22L292.074 51.1391C293.408 50.5675 294.812 50.31 296.23 50.31V49.31V48.31C294.568 48.31 292.892 48.6125 291.286 49.3009L291.68 50.22ZM296.23 49.31V50.31C298.424 50.31 300.188 51.0501 301.598 52.5219L302.32 51.83L303.042 51.1381C301.232 49.2499 298.936 48.31 296.23 48.31V49.31ZM302.32 51.83L301.598 52.5219C302.964 53.9468 303.7 56.1033 303.7 59.25H304.7H305.7C305.7 55.8167 304.896 53.0732 303.042 51.1381L302.32 51.83ZM304.7 59.25H303.7C303.7 61.4358 303.303 63.6981 302.433 66.0418L303.37 66.39L304.307 66.7382C305.257 64.1819 305.7 61.6842 305.7 59.25H304.7ZM303.37 66.39L302.433 66.0418C301.557 68.3987 300.344 70.6243 298.72 72.79L299.52 73.39L300.32 73.99C302.056 71.6757 303.363 69.2813 304.307 66.7382L303.37 66.39ZM299.52 73.39L298.72 72.79C297.085 74.9701 295.173 77.0202 292.91 79.0088L293.57 79.76L294.23 80.5112C296.587 78.4399 298.595 76.2899 300.32 73.99L299.52 73.39ZM293.57 79.76L292.91 79.0088C290.665 80.9817 288.144 82.6858 285.344 84.12L285.8 85.01L286.256 85.9C289.196 84.3942 291.855 82.5983 294.23 80.5112L293.57 79.76ZM285.8 85.01L285.344 84.12C282.538 85.5573 279.528 86.7202 276.313 87.5411L276.56 88.51L276.807 89.4789C280.172 88.6198 283.322 87.4027 286.256 85.9L285.8 85.01ZM276.56 88.51L276.313 87.5411C273.108 88.3594 269.761 88.77 266.27 88.77V89.77V90.77C269.919 90.77 273.432 90.3406 276.807 89.4789L276.56 88.51ZM266.27 89.77V88.77C262.649 88.77 259.098 88.2919 255.615 87.3357L255.35 88.3L255.085 89.2643C258.742 90.2681 262.471 90.77 266.27 90.77V89.77ZM255.35 88.3L255.615 87.3357C252.16 86.3874 249.129 84.9026 246.51 82.8874L245.9 83.68L245.29 84.4726C248.131 86.6574 251.4 88.2526 255.085 89.2643L255.35 88.3ZM245.9 83.68L246.51 82.8874C243.898 80.8784 241.754 78.3342 240.141 75.1752L239.25 75.63L238.359 76.0848C240.106 79.5058 242.442 82.2816 245.29 84.4726L245.9 83.68ZM239.25 75.63L240.141 75.1752C238.546 72.0519 237.73 68.3637 237.73 64.01H236.73H235.73C235.73 68.6163 236.594 72.6281 238.359 76.0848L239.25 75.63ZM236.73 64.01H237.73C237.73 60.8378 238.269 57.8104 239.413 54.8504L238.48 54.49L237.547 54.1296C236.311 57.3296 235.73 60.6022 235.73 64.01H236.73ZM238.48 54.49L239.413 54.8504C240.57 51.8546 242.134 48.9995 244.173 46.3497L243.38 45.74L242.587 45.1303C240.426 47.9405 238.77 50.9654 237.547 54.1296L238.48 54.49ZM243.38 45.74L244.173 46.3497C246.218 43.691 248.678 41.2293 251.558 38.9663L250.94 38.18L250.322 37.3937C247.322 39.7507 244.742 42.329 242.587 45.1303L243.38 45.74ZM250.94 38.18L251.558 38.9663C254.442 36.6999 257.605 34.7056 261.047 32.9844L260.6 32.09L260.153 31.1956C256.595 32.9744 253.318 35.0401 250.322 37.3937L250.94 38.18ZM260.6 32.09L261.047 32.9844C264.481 31.2676 268.2 29.8888 272.14 28.7828L271.87 27.82L271.6 26.8572C267.56 27.9912 263.719 29.4124 260.153 31.1956L260.6 32.09ZM271.87 27.82L272.14 28.7828C276.061 27.6822 280.122 26.9935 284.325 26.7179L284.26 25.72L284.195 24.7221C279.858 25.0065 275.659 25.7178 271.6 26.8572L271.87 27.82ZM284.26 25.72L285.041 25.0953C284.572 24.5095 284.199 23.779 283.872 22.8637L282.93 23.2L281.988 23.5363C282.361 24.581 282.828 25.5305 283.479 26.3447L284.26 25.72ZM282.93 23.2L283.872 22.8637C283.574 22.0306 283.44 21.0358 283.44 19.77H282.44H281.44C281.44 21.1642 281.586 22.4094 281.988 23.5363L282.93 23.2ZM282.44 19.77H283.44C283.44 17.5736 284.02 15.4235 285.143 13.3092L284.26 12.84L283.377 12.3708C282.12 14.7365 281.44 17.2064 281.44 19.77H282.44ZM284.26 12.84L285.143 13.3092C286.269 11.1891 287.794 9.33031 289.728 7.73039L289.09 6.96L288.452 6.1896C286.326 7.94969 284.631 10.0109 283.377 12.3708L284.26 12.84ZM289.09 6.96L289.728 7.73039C291.676 6.11752 293.824 4.84258 296.242 3.902L295.88 2.97L295.518 2.03799C292.896 3.05742 290.564 4.44247 288.452 6.1896L289.09 6.96ZM295.88 2.97L296.242 3.902C298.65 2.96556 301.118 2.5 303.58 2.5V1.5V0.499998C300.862 0.499998 298.15 1.01443 295.518 2.03799L295.88 2.97ZM303.58 1.5V2.5C305.303 2.5 306.774 2.76583 307.952 3.26163L308.34 2.34L308.728 1.41836C307.246 0.794165 305.497 0.499998 303.58 0.499998V1.5ZM308.34 2.34L307.952 3.26163C309.207 3.78987 310.303 4.43948 311.189 5.19925L311.84 4.44L312.491 3.68074C311.417 2.76051 310.133 2.01012 308.728 1.41836L308.34 2.34ZM311.84 4.44L311.189 5.19926C312.113 5.99144 312.915 6.85768 313.667 7.74594L314.43 7.1L315.193 6.45405C314.405 5.52231 313.527 4.56855 312.491 3.68074L311.84 4.44ZM314.43 7.1L313.667 7.74594C314.418 8.63412 315.105 9.52627 315.73 10.36L316.53 9.76L317.33 9.16C316.695 8.31373 315.982 7.38588 315.193 6.45405L314.43 7.1ZM316.53 9.76L315.73 10.36C316.391 11.2411 317.065 11.9937 317.756 12.6074L318.42 11.86L319.084 11.1126C318.515 10.6063 317.929 9.9589 317.33 9.15999L316.53 9.76ZM318.42 11.86L317.756 12.6074C318.518 13.2852 319.375 13.7 320.38 13.7V12.7V11.7C319.985 11.7 319.582 11.5548 319.084 11.1126L318.42 11.86ZM320.38 12.7V13.7C321.174 13.7 321.957 13.5196 322.787 13.1044L322.34 12.21L321.893 11.3156C321.323 11.6004 320.846 11.7 320.38 11.7V12.7ZM322.34 12.21L322.787 13.1044C323.634 12.6809 324.453 12.0166 325.17 11.06L324.37 10.46L323.57 9.86C323.027 10.5833 322.446 11.0391 321.893 11.3156L322.34 12.21ZM288.39 27.33L287.683 28.0371C288.338 28.6922 289.09 29.196 290.008 29.5298L290.35 28.59L290.692 27.6502C290.07 27.424 289.562 27.0878 289.097 26.6229L288.39 27.33ZM290.35 28.59L290.008 29.5298C290.881 29.8471 291.766 30.01 292.66 30.01V29.01V28.01C292.014 28.01 291.359 27.8929 290.692 27.6502L290.35 28.59ZM292.66 29.01V30.01C292.885 30.01 293.215 29.9975 293.517 29.8718C293.687 29.8012 293.896 29.6751 294.059 29.4505C294.229 29.2166 294.29 28.958 294.29 28.73H293.29H292.29C292.29 28.607 292.324 28.4359 292.442 28.2742C292.553 28.1218 292.683 28.0526 292.748 28.0257C292.808 28.0005 292.839 28 292.812 28.0035C292.788 28.0065 292.741 28.01 292.66 28.01V29.01ZM293.29 28.73H294.29C294.29 28.3457 294.117 28.0508 293.949 27.8596C293.788 27.6758 293.593 27.5401 293.419 27.4386C293.072 27.235 292.606 27.0511 292.066 26.8713L291.75 27.82L291.434 28.7687C291.944 28.9389 292.248 29.07 292.408 29.1639C292.488 29.2111 292.482 29.2198 292.445 29.1782C292.402 29.1292 292.29 28.9743 292.29 28.73H293.29ZM291.75 27.82L292.066 26.8713C290.889 26.4789 289.657 26.33 288.39 26.33V27.33V28.33C289.503 28.33 290.511 28.4611 291.434 28.7687L291.75 27.82Z" fill="black" mask="url(#path-3-outside-2_702_59)"/>
<mask id="path-5-outside-3_702_59" maskUnits="userSpaceOnUse" x="103" y="41" width="118" height="33" fill="black">
<rect fill="white" x="103" y="41" width="118" height="33"/>
<path d="M104.926 43.3086H108.852V72H104.926V43.3086ZM134.459 43.3086V46.7266H124.791V72H120.845V46.7266H111.177V43.3086H134.459ZM148.191 60.2422L143.835 47.5664L139.206 60.2422H148.191ZM141.804 43.3086H146.198L156.609 72H152.351L149.441 63.4062H138.093L134.987 72H131.003L141.804 43.3086ZM158.544 43.3086H163.134L177.626 66.5508V43.3086H181.317V72H176.962L162.255 48.7773V72H158.544V43.3086ZM186.729 43.3086H190.655V72H186.729V43.3086ZM207.473 42.5273C211.105 42.5273 213.924 43.4844 215.93 45.3984C217.935 47.3125 219.048 49.487 219.27 51.9219H215.48C215.051 50.0729 214.191 48.6081 212.902 47.5273C211.626 46.4466 209.829 45.9062 207.512 45.9062C204.686 45.9062 202.401 46.9023 200.656 48.8945C198.924 50.8737 198.059 53.9141 198.059 58.0156C198.059 61.375 198.84 64.1029 200.402 66.1992C201.978 68.2826 204.322 69.3242 207.434 69.3242C210.298 69.3242 212.479 68.224 213.977 66.0234C214.771 64.8646 215.363 63.3411 215.754 61.4531H219.543C219.204 64.474 218.085 67.0065 216.184 69.0508C213.905 71.5117 210.832 72.7422 206.965 72.7422C203.632 72.7422 200.832 71.7331 198.566 69.7148C195.585 67.0456 194.094 62.9245 194.094 57.3516C194.094 53.1198 195.214 49.6497 197.453 46.9414C199.875 43.9987 203.215 42.5273 207.473 42.5273Z"/>
</mask>
<path d="M104.926 43.3086H108.852V72H104.926V43.3086ZM134.459 43.3086V46.7266H124.791V72H120.845V46.7266H111.177V43.3086H134.459ZM148.191 60.2422L143.835 47.5664L139.206 60.2422H148.191ZM141.804 43.3086H146.198L156.609 72H152.351L149.441 63.4062H138.093L134.987 72H131.003L141.804 43.3086ZM158.544 43.3086H163.134L177.626 66.5508V43.3086H181.317V72H176.962L162.255 48.7773V72H158.544V43.3086ZM186.729 43.3086H190.655V72H186.729V43.3086ZM207.473 42.5273C211.105 42.5273 213.924 43.4844 215.93 45.3984C217.935 47.3125 219.048 49.487 219.27 51.9219H215.48C215.051 50.0729 214.191 48.6081 212.902 47.5273C211.626 46.4466 209.829 45.9062 207.512 45.9062C204.686 45.9062 202.401 46.9023 200.656 48.8945C198.924 50.8737 198.059 53.9141 198.059 58.0156C198.059 61.375 198.84 64.1029 200.402 66.1992C201.978 68.2826 204.322 69.3242 207.434 69.3242C210.298 69.3242 212.479 68.224 213.977 66.0234C214.771 64.8646 215.363 63.3411 215.754 61.4531H219.543C219.204 64.474 218.085 67.0065 216.184 69.0508C213.905 71.5117 210.832 72.7422 206.965 72.7422C203.632 72.7422 200.832 71.7331 198.566 69.7148C195.585 67.0456 194.094 62.9245 194.094 57.3516C194.094 53.1198 195.214 49.6497 197.453 46.9414C199.875 43.9987 203.215 42.5273 207.473 42.5273Z" fill="url(#paint2_linear_702_59)"/>
<path d="M104.926 43.3086V42.3086H103.926V43.3086H104.926ZM108.852 43.3086H109.852V42.3086H108.852V43.3086ZM108.852 72V73H109.852V72H108.852ZM104.926 72H103.926V73H104.926V72ZM104.926 43.3086V44.3086H108.852V43.3086V42.3086H104.926V43.3086ZM108.852 43.3086H107.852V72H108.852H109.852V43.3086H108.852ZM108.852 72V71H104.926V72V73H108.852V72ZM104.926 72H105.926V43.3086H104.926H103.926V72H104.926ZM134.459 43.3086H135.459V42.3086H134.459V43.3086ZM134.459 46.7266V47.7266H135.459V46.7266H134.459ZM124.791 46.7266V45.7266H123.791V46.7266H124.791ZM124.791 72V73H125.791V72H124.791ZM120.845 72H119.845V73H120.845V72ZM120.845 46.7266H121.845V45.7266H120.845V46.7266ZM111.177 46.7266H110.177V47.7266H111.177V46.7266ZM111.177 43.3086V42.3086H110.177V43.3086H111.177ZM134.459 43.3086H133.459V46.7266H134.459H135.459V43.3086H134.459ZM134.459 46.7266V45.7266H124.791V46.7266V47.7266H134.459V46.7266ZM124.791 46.7266H123.791V72H124.791H125.791V46.7266H124.791ZM124.791 72V71H120.845V72V73H124.791V72ZM120.845 72H121.845V46.7266H120.845H119.845V72H120.845ZM120.845 46.7266V45.7266H111.177V46.7266V47.7266H120.845V46.7266ZM111.177 46.7266H112.177V43.3086H111.177H110.177V46.7266H111.177ZM111.177 43.3086V44.3086H134.459V43.3086V42.3086H111.177V43.3086ZM148.191 60.2422V61.2422H149.592L149.136 59.9172L148.191 60.2422ZM143.835 47.5664L144.781 47.2414L143.864 44.5726L142.896 47.2234L143.835 47.5664ZM139.206 60.2422L138.267 59.8992L137.776 61.2422H139.206V60.2422ZM141.804 43.3086V42.3086H141.112L140.868 42.9563L141.804 43.3086ZM146.198 43.3086L147.138 42.9675L146.899 42.3086H146.198V43.3086ZM156.609 72V73H158.035L157.549 71.6589L156.609 72ZM152.351 72L151.404 72.3207L151.634 73H152.351V72ZM149.441 63.4062L150.388 63.0855L150.158 62.4062H149.441V63.4062ZM138.093 63.4062V62.4062H137.391L137.152 63.0664L138.093 63.4062ZM134.987 72V73H135.689L135.928 72.3399L134.987 72ZM131.003 72L130.067 71.6477L129.558 73H131.003V72ZM148.191 60.2422L149.136 59.9172L144.781 47.2414L143.835 47.5664L142.889 47.8914L147.245 60.5671L148.191 60.2422ZM143.835 47.5664L142.896 47.2234L138.267 59.8992L139.206 60.2422L140.146 60.5852L144.774 47.9094L143.835 47.5664ZM139.206 60.2422V61.2422H148.191V60.2422V59.2422H139.206V60.2422ZM141.804 43.3086V44.3086H146.198V43.3086V42.3086H141.804V43.3086ZM146.198 43.3086L145.258 43.6497L155.669 72.3411L156.609 72L157.549 71.6589L147.138 42.9675L146.198 43.3086ZM156.609 72V71H152.351V72V73H156.609V72ZM152.351 72L153.298 71.6793L150.388 63.0855L149.441 63.4062L148.493 63.727L151.404 72.3207L152.351 72ZM149.441 63.4062V62.4062H138.093V63.4062V64.4062H149.441V63.4062ZM138.093 63.4062L137.152 63.0664L134.047 71.6601L134.987 72L135.928 72.3399L139.033 63.7461L138.093 63.4062ZM134.987 72V71H131.003V72V73H134.987V72ZM131.003 72L131.939 72.3523L142.74 43.6609L141.804 43.3086L140.868 42.9563L130.067 71.6477L131.003 72ZM158.544 43.3086V42.3086H157.544V43.3086H158.544ZM163.134 43.3086L163.982 42.7795L163.689 42.3086H163.134V43.3086ZM177.626 66.5508L176.777 67.0799L178.626 70.0446V66.5508H177.626ZM177.626 43.3086V42.3086H176.626V43.3086H177.626ZM181.317 43.3086H182.317V42.3086H181.317V43.3086ZM181.317 72V73H182.317V72H181.317ZM176.962 72L176.117 72.535L176.411 73H176.962V72ZM162.255 48.7773L163.1 48.2423L161.255 45.3293V48.7773H162.255ZM162.255 72V73H163.255V72H162.255ZM158.544 72H157.544V73H158.544V72ZM158.544 43.3086V44.3086H163.134V43.3086V42.3086H158.544V43.3086ZM163.134 43.3086L162.285 43.8377L176.777 67.0799L177.626 66.5508L178.474 66.0217L163.982 42.7795L163.134 43.3086ZM177.626 66.5508H178.626V43.3086H177.626H176.626V66.5508H177.626ZM177.626 43.3086V44.3086H181.317V43.3086V42.3086H177.626V43.3086ZM181.317 43.3086H180.317V72H181.317H182.317V43.3086H181.317ZM181.317 72V71H176.962V72V73H181.317V72ZM176.962 72L177.807 71.465L163.1 48.2423L162.255 48.7773L161.41 49.3124L176.117 72.535L176.962 72ZM162.255 48.7773H161.255V72H162.255H163.255V48.7773H162.255ZM162.255 72V71H158.544V72V73H162.255V72ZM158.544 72H159.544V43.3086H158.544H157.544V72H158.544ZM186.729 43.3086V42.3086H185.729V43.3086H186.729ZM190.655 43.3086H191.655V42.3086H190.655V43.3086ZM190.655 72V73H191.655V72H190.655ZM186.729 72H185.729V73H186.729V72ZM186.729 43.3086V44.3086H190.655V43.3086V42.3086H186.729V43.3086ZM190.655 43.3086H189.655V72H190.655H191.655V43.3086H190.655ZM190.655 72V71H186.729V72V73H190.655V72ZM186.729 72H187.729V43.3086H186.729H185.729V72H186.729ZM219.27 51.9219V52.9219H220.365L220.265 51.8313L219.27 51.9219ZM215.48 51.9219L214.506 52.1482L214.686 52.9219H215.48V51.9219ZM212.902 47.5273L212.256 48.2904L212.26 48.2937L212.902 47.5273ZM200.656 48.8945L199.904 48.2357L199.904 48.236L200.656 48.8945ZM200.402 66.1992L199.601 66.7968L199.605 66.8024L200.402 66.1992ZM213.977 66.0234L213.152 65.4581L213.15 65.4609L213.977 66.0234ZM215.754 61.4531V60.4531H214.94L214.775 61.2505L215.754 61.4531ZM219.543 61.4531L220.537 61.5645L220.661 60.4531H219.543V61.4531ZM216.184 69.0508L215.451 68.3698L215.45 68.3714L216.184 69.0508ZM198.566 69.7148L197.899 70.4599L197.901 70.4615L198.566 69.7148ZM197.453 46.9414L198.224 47.5787L198.225 47.5769L197.453 46.9414ZM207.473 42.5273V43.5273C210.931 43.5273 213.472 44.435 215.239 46.1218L215.93 45.3984L216.62 44.6751C214.377 42.5337 211.28 41.5273 207.473 41.5273V42.5273ZM215.93 45.3984L215.239 46.1218C217.094 47.8927 218.077 49.8508 218.274 52.0124L219.27 51.9219L220.265 51.8313C220.019 49.1232 218.775 46.7323 216.62 44.6751L215.93 45.3984ZM219.27 51.9219V50.9219H215.48V51.9219V52.9219H219.27V51.9219ZM215.48 51.9219L216.455 51.6955C215.982 49.6638 215.021 47.9987 213.545 46.761L212.902 47.5273L212.26 48.2937C213.362 49.2175 214.119 50.482 214.506 52.1482L215.48 51.9219ZM212.902 47.5273L213.549 46.7643C212.033 45.4806 209.975 44.9062 207.512 44.9062V45.9062V46.9062C209.684 46.9062 211.22 47.4126 212.256 48.2904L212.902 47.5273ZM207.512 45.9062V44.9062C204.42 44.9062 201.853 46.0108 199.904 48.2357L200.656 48.8945L201.409 49.5534C202.949 47.7939 204.953 46.9062 207.512 46.9062V45.9062ZM200.656 48.8945L199.904 48.236C197.944 50.4757 197.059 53.8012 197.059 58.0156H198.059H199.059C199.059 54.0269 199.905 51.2717 201.409 49.553L200.656 48.8945ZM198.059 58.0156H197.059C197.059 61.5287 197.877 64.4842 199.601 66.7968L200.402 66.1992L201.204 65.6016C199.803 63.7216 199.059 61.2213 199.059 58.0156H198.059ZM200.402 66.1992L199.605 66.8024C201.407 69.185 204.076 70.3242 207.434 70.3242V69.3242V68.3242C204.567 68.3242 202.549 67.3801 201.2 65.596L200.402 66.1992ZM207.434 69.3242V70.3242C210.599 70.3242 213.104 69.084 214.803 66.586L213.977 66.0234L213.15 65.4609C211.855 67.364 209.997 68.3242 207.434 68.3242V69.3242ZM213.977 66.0234L214.801 66.5888C215.693 65.2879 216.325 63.6284 216.733 61.6557L215.754 61.4531L214.775 61.2505C214.402 63.0539 213.849 64.4413 213.152 65.4581L213.977 66.0234ZM215.754 61.4531V62.4531H219.543V61.4531V60.4531H215.754V61.4531ZM219.543 61.4531L218.549 61.3418C218.232 64.1696 217.193 66.4966 215.451 68.3698L216.184 69.0508L216.916 69.7318C218.976 67.5164 220.177 64.7783 220.537 61.5645L219.543 61.4531ZM216.184 69.0508L215.45 68.3714C213.39 70.5959 210.6 71.7422 206.965 71.7422V72.7422V73.7422C211.064 73.7422 214.42 72.4275 216.917 69.7302L216.184 69.0508ZM206.965 72.7422V71.7422C203.851 71.7422 201.295 70.8066 199.232 68.9681L198.566 69.7148L197.901 70.4615C200.369 72.6595 203.412 73.7422 206.965 73.7422V72.7422ZM198.566 69.7148L199.233 68.9698C196.537 66.5556 195.094 62.7556 195.094 57.3516H194.094H193.094C193.094 63.0933 194.633 67.5355 197.899 70.4599L198.566 69.7148ZM194.094 57.3516H195.094C195.094 53.303 196.161 50.073 198.224 47.5787L197.453 46.9414L196.682 46.3041C194.266 49.2264 193.094 52.9366 193.094 57.3516H194.094ZM197.453 46.9414L198.225 47.5769C200.433 44.8939 203.474 43.5273 207.473 43.5273V42.5273V41.5273C202.956 41.5273 199.317 43.1035 196.681 46.3059L197.453 46.9414Z" fill="black" mask="url(#path-5-outside-3_702_59)"/>
<mask id="path-7-outside-4_702_59" maskUnits="userSpaceOnUse" x="307" y="41" width="119" height="33" fill="black">
<rect fill="white" x="307" y="41" width="119" height="33"/>
<path d="M308.047 43.3086H312.637L327.129 66.5508V43.3086H330.82V72H326.465L311.758 48.7773V72H308.047V43.3086ZM346.369 68.6797C347.684 68.6797 348.765 68.543 349.611 68.2695C351.121 67.7617 352.358 66.7852 353.322 65.3398C354.09 64.181 354.643 62.6966 354.982 60.8867C355.177 59.806 355.275 58.8034 355.275 57.8789C355.275 54.3242 354.565 51.5638 353.146 49.5977C351.74 47.6315 349.468 46.6484 346.33 46.6484H339.435V68.6797H346.369ZM335.529 43.3086H347.15C351.095 43.3086 354.155 44.7083 356.33 47.5078C358.27 50.0339 359.24 53.2695 359.24 57.2148C359.24 60.2617 358.667 63.0156 357.521 65.4766C355.503 69.8255 352.033 72 347.111 72H335.529V43.3086ZM363.538 43.3086H367.464V72H363.538V43.3086ZM372.192 43.3086H376.782L391.274 66.5508V43.3086H394.966V72H390.61L375.903 48.7773V72H372.192V43.3086ZM411.901 42.5664C414.596 42.5664 416.927 43.0872 418.893 44.1289C421.745 45.6263 423.489 48.25 424.127 52H420.28C419.811 49.9036 418.841 48.3802 417.37 47.4297C415.898 46.4661 414.043 45.9844 411.803 45.9844C409.147 45.9844 406.907 46.9805 405.084 48.9727C403.274 50.9648 402.37 53.9336 402.37 57.8789C402.37 61.2904 403.118 64.0703 404.616 66.2188C406.113 68.3542 408.554 69.4219 411.94 69.4219C414.531 69.4219 416.673 68.6732 418.366 67.1758C420.071 65.6654 420.944 63.2305 420.983 59.8711H411.998V56.6484H424.596V72H422.096L421.159 68.3086C419.843 69.7539 418.678 70.7565 417.662 71.3164C415.957 72.2799 413.789 72.7617 411.159 72.7617C407.76 72.7617 404.837 71.6615 402.389 69.4609C399.72 66.7005 398.385 62.9115 398.385 58.0938C398.385 53.2891 399.687 49.4674 402.291 46.6289C404.765 43.9206 407.968 42.5664 411.901 42.5664Z"/>
</mask>
<path d="M308.047 43.3086H312.637L327.129 66.5508V43.3086H330.82V72H326.465L311.758 48.7773V72H308.047V43.3086ZM346.369 68.6797C347.684 68.6797 348.765 68.543 349.611 68.2695C351.121 67.7617 352.358 66.7852 353.322 65.3398C354.09 64.181 354.643 62.6966 354.982 60.8867C355.177 59.806 355.275 58.8034 355.275 57.8789C355.275 54.3242 354.565 51.5638 353.146 49.5977C351.74 47.6315 349.468 46.6484 346.33 46.6484H339.435V68.6797H346.369ZM335.529 43.3086H347.15C351.095 43.3086 354.155 44.7083 356.33 47.5078C358.27 50.0339 359.24 53.2695 359.24 57.2148C359.24 60.2617 358.667 63.0156 357.521 65.4766C355.503 69.8255 352.033 72 347.111 72H335.529V43.3086ZM363.538 43.3086H367.464V72H363.538V43.3086ZM372.192 43.3086H376.782L391.274 66.5508V43.3086H394.966V72H390.61L375.903 48.7773V72H372.192V43.3086ZM411.901 42.5664C414.596 42.5664 416.927 43.0872 418.893 44.1289C421.745 45.6263 423.489 48.25 424.127 52H420.28C419.811 49.9036 418.841 48.3802 417.37 47.4297C415.898 46.4661 414.043 45.9844 411.803 45.9844C409.147 45.9844 406.907 46.9805 405.084 48.9727C403.274 50.9648 402.37 53.9336 402.37 57.8789C402.37 61.2904 403.118 64.0703 404.616 66.2188C406.113 68.3542 408.554 69.4219 411.94 69.4219C414.531 69.4219 416.673 68.6732 418.366 67.1758C420.071 65.6654 420.944 63.2305 420.983 59.8711H411.998V56.6484H424.596V72H422.096L421.159 68.3086C419.843 69.7539 418.678 70.7565 417.662 71.3164C415.957 72.2799 413.789 72.7617 411.159 72.7617C407.76 72.7617 404.837 71.6615 402.389 69.4609C399.72 66.7005 398.385 62.9115 398.385 58.0938C398.385 53.2891 399.687 49.4674 402.291 46.6289C404.765 43.9206 407.968 42.5664 411.901 42.5664Z" fill="url(#paint3_linear_702_59)"/>
<path d="M308.047 43.3086V42.3086H307.047V43.3086H308.047ZM312.637 43.3086L313.485 42.7795L313.192 42.3086H312.637V43.3086ZM327.129 66.5508L326.28 67.0799L328.129 70.0446V66.5508H327.129ZM327.129 43.3086V42.3086H326.129V43.3086H327.129ZM330.82 43.3086H331.82V42.3086H330.82V43.3086ZM330.82 72V73H331.82V72H330.82ZM326.465 72L325.62 72.535L325.914 73H326.465V72ZM311.758 48.7773L312.603 48.2423L310.758 45.3293V48.7773H311.758ZM311.758 72V73H312.758V72H311.758ZM308.047 72H307.047V73H308.047V72ZM308.047 43.3086V44.3086H312.637V43.3086V42.3086H308.047V43.3086ZM312.637 43.3086L311.788 43.8377L326.28 67.0799L327.129 66.5508L327.977 66.0217L313.485 42.7795L312.637 43.3086ZM327.129 66.5508H328.129V43.3086H327.129H326.129V66.5508H327.129ZM327.129 43.3086V44.3086H330.82V43.3086V42.3086H327.129V43.3086ZM330.82 43.3086H329.82V72H330.82H331.82V43.3086H330.82ZM330.82 72V71H326.465V72V73H330.82V72ZM326.465 72L327.31 71.465L312.603 48.2423L311.758 48.7773L310.913 49.3124L325.62 72.535L326.465 72ZM311.758 48.7773H310.758V72H311.758H312.758V48.7773H311.758ZM311.758 72V71H308.047V72V73H311.758V72ZM308.047 72H309.047V43.3086H308.047H307.047V72H308.047ZM349.611 68.2695L349.918 69.2212L349.93 69.2174L349.611 68.2695ZM353.322 65.3398L354.154 65.8945L354.155 65.8924L353.322 65.3398ZM354.982 60.8867L355.965 61.0706L355.966 61.0646L354.982 60.8867ZM353.146 49.5977L352.333 50.1794L352.335 50.183L353.146 49.5977ZM339.435 46.6484V45.6484H338.435V46.6484H339.435ZM339.435 68.6797H338.435V69.6797H339.435V68.6797ZM335.529 43.3086V42.3086H334.529V43.3086H335.529ZM356.33 47.5078L357.123 46.8987L357.119 46.8944L356.33 47.5078ZM357.521 65.4766L356.615 65.0545L356.614 65.0556L357.521 65.4766ZM335.529 72H334.529V73H335.529V72ZM346.369 68.6797V69.6797C347.743 69.6797 348.937 69.538 349.918 69.2211L349.611 68.2695L349.304 67.318C348.592 67.5479 347.624 67.6797 346.369 67.6797V68.6797ZM349.611 68.2695L349.93 69.2174C351.669 68.6325 353.079 67.5065 354.154 65.8945L353.322 65.3398L352.49 64.7851C351.637 66.0638 350.573 66.8909 349.292 67.3217L349.611 68.2695ZM353.322 65.3398L354.155 65.8924C355.017 64.592 355.609 62.9716 355.965 61.0706L354.982 60.8867L353.999 60.7029C353.678 62.4216 353.163 63.77 352.488 64.7873L353.322 65.3398ZM354.982 60.8867L355.966 61.0646C356.17 59.9357 356.275 58.8729 356.275 57.8789H355.275H354.275C354.275 58.7339 354.185 59.6763 353.998 60.7089L354.982 60.8867ZM355.275 57.8789H356.275C356.275 54.2076 355.544 51.2116 353.957 49.0124L353.146 49.5977L352.335 50.183C353.586 51.916 354.275 54.4409 354.275 57.8789H355.275ZM353.146 49.5977L353.959 49.0159C352.311 46.7113 349.684 45.6484 346.33 45.6484V46.6484V47.6484C349.251 47.6484 351.169 48.5517 352.333 50.1794L353.146 49.5977ZM346.33 46.6484V45.6484H339.435V46.6484V47.6484H346.33V46.6484ZM339.435 46.6484H338.435V68.6797H339.435H340.435V46.6484H339.435ZM339.435 68.6797V69.6797H346.369V68.6797V67.6797H339.435V68.6797ZM335.529 43.3086V44.3086H347.15V43.3086V42.3086H335.529V43.3086ZM347.15 43.3086V44.3086C350.826 44.3086 353.578 45.5955 355.54 48.1212L356.33 47.5078L357.119 46.8944C354.732 43.8212 351.364 42.3086 347.15 42.3086V43.3086ZM356.33 47.5078L355.537 48.1169C357.313 50.43 358.24 53.4361 358.24 57.2148H359.24H360.24C360.24 53.1029 359.226 49.6377 357.123 46.8987L356.33 47.5078ZM359.24 57.2148H358.24C358.24 60.1338 357.692 62.7411 356.615 65.0545L357.521 65.4766L358.428 65.8987C359.642 63.2902 360.24 60.3896 360.24 57.2148H359.24ZM357.521 65.4766L356.614 65.0556C355.672 67.0851 354.419 68.5538 352.874 69.5218C351.328 70.4908 349.422 71 347.111 71V72V73C349.721 73 352.012 72.422 353.936 71.2165C355.861 70.01 357.352 68.217 358.428 65.8975L357.521 65.4766ZM347.111 72V71H335.529V72V73H347.111V72ZM335.529 72H336.529V43.3086H335.529H334.529V72H335.529ZM363.538 43.3086V42.3086H362.538V43.3086H363.538ZM367.464 43.3086H368.464V42.3086H367.464V43.3086ZM367.464 72V73H368.464V72H367.464ZM363.538 72H362.538V73H363.538V72ZM363.538 43.3086V44.3086H367.464V43.3086V42.3086H363.538V43.3086ZM367.464 43.3086H366.464V72H367.464H368.464V43.3086H367.464ZM367.464 72V71H363.538V72V73H367.464V72ZM363.538 72H364.538V43.3086H363.538H362.538V72H363.538ZM372.192 43.3086V42.3086H371.192V43.3086H372.192ZM376.782 43.3086L377.631 42.7795L377.337 42.3086H376.782V43.3086ZM391.274 66.5508L390.426 67.0799L392.274 70.0446V66.5508H391.274ZM391.274 43.3086V42.3086H390.274V43.3086H391.274ZM394.966 43.3086H395.966V42.3086H394.966V43.3086ZM394.966 72V73H395.966V72H394.966ZM390.61 72L389.765 72.535L390.06 73H390.61V72ZM375.903 48.7773L376.748 48.2423L374.903 45.3293V48.7773H375.903ZM375.903 72V73H376.903V72H375.903ZM372.192 72H371.192V73H372.192V72ZM372.192 43.3086V44.3086H376.782V43.3086V42.3086H372.192V43.3086ZM376.782 43.3086L375.933 43.8377L390.426 67.0799L391.274 66.5508L392.123 66.0217L377.631 42.7795L376.782 43.3086ZM391.274 66.5508H392.274V43.3086H391.274H390.274V66.5508H391.274ZM391.274 43.3086V44.3086H394.966V43.3086V42.3086H391.274V43.3086ZM394.966 43.3086H393.966V72H394.966H395.966V43.3086H394.966ZM394.966 72V71H390.61V72V73H394.966V72ZM390.61 72L391.455 71.465L376.748 48.2423L375.903 48.7773L375.058 49.3124L389.765 72.535L390.61 72ZM375.903 48.7773H374.903V72H375.903H376.903V48.7773H375.903ZM375.903 72V71H372.192V72V73H375.903V72ZM372.192 72H373.192V43.3086H372.192H371.192V72H372.192ZM418.893 44.1289L418.425 45.0126L418.428 45.0143L418.893 44.1289ZM424.127 52V53H425.312L425.113 51.8323L424.127 52ZM420.28 52L419.304 52.2182L419.479 53H420.28V52ZM417.37 47.4297L416.822 48.2663L416.827 48.2697L417.37 47.4297ZM405.084 48.9727L404.347 48.2976L404.344 48.3002L405.084 48.9727ZM404.616 66.2188L403.795 66.7905L403.797 66.7929L404.616 66.2188ZM418.366 67.1758L419.028 67.9248L419.029 67.9245L418.366 67.1758ZM420.983 59.8711L421.983 59.8827L421.995 58.8711H420.983V59.8711ZM411.998 59.8711H410.998V60.8711H411.998V59.8711ZM411.998 56.6484V55.6484H410.998V56.6484H411.998ZM424.596 56.6484H425.596V55.6484H424.596V56.6484ZM424.596 72V73H425.596V72H424.596ZM422.096 72L421.127 72.2462L421.318 73H422.096V72ZM421.159 68.3086L422.128 68.0624L421.67 66.2605L420.419 67.6356L421.159 68.3086ZM417.662 71.3164L417.18 70.4406L417.171 70.4457L417.662 71.3164ZM402.389 69.4609L401.67 70.1561L401.695 70.1812L401.721 70.2046L402.389 69.4609ZM402.291 46.6289L403.028 47.3049L403.03 47.3033L402.291 46.6289ZM411.901 42.5664V43.5664C414.467 43.5664 416.63 44.0618 418.425 45.0126L418.893 44.1289L419.361 43.2453C417.223 42.1126 414.725 41.5664 411.901 41.5664V42.5664ZM418.893 44.1289L418.428 45.0143C420.952 46.3395 422.545 48.6624 423.142 52.1677L424.127 52L425.113 51.8323C424.434 47.8376 422.537 44.9131 419.358 43.2435L418.893 44.1289ZM424.127 52V51H420.28V52V53H424.127V52ZM420.28 52L421.256 51.7818C420.743 49.4908 419.652 47.7135 417.912 46.5897L417.37 47.4297L416.827 48.2697C418.03 49.0469 418.879 50.3165 419.304 52.2182L420.28 52ZM417.37 47.4297L417.917 46.5931C416.244 45.4973 414.184 44.9844 411.803 44.9844V45.9844V46.9844C413.901 46.9844 415.552 47.435 416.822 48.2663L417.37 47.4297ZM411.803 45.9844V44.9844C408.861 44.9844 406.355 46.1023 404.347 48.2976L405.084 48.9727L405.822 49.6477C407.459 47.8587 409.433 46.9844 411.803 46.9844V45.9844ZM405.084 48.9727L404.344 48.3002C402.304 50.5462 401.37 53.7988 401.37 57.8789H402.37H403.37C403.37 54.0684 404.245 51.3835 405.825 49.6451L405.084 48.9727ZM402.37 57.8789H401.37C401.37 61.4334 402.15 64.4302 403.795 66.7905L404.616 66.2188L405.436 65.647C404.086 63.7105 403.37 61.1473 403.37 57.8789H402.37ZM404.616 66.2188L403.797 66.7929C405.536 69.2727 408.336 70.4219 411.94 70.4219V69.4219V68.4219C408.773 68.4219 406.69 67.4356 405.434 65.6446L404.616 66.2188ZM411.94 69.4219V70.4219C414.737 70.4219 417.126 69.6075 419.028 67.9248L418.366 67.1758L417.703 66.4268C416.22 67.7389 414.325 68.4219 411.94 68.4219V69.4219ZM418.366 67.1758L419.029 67.9245C421.029 66.1529 421.942 63.389 421.983 59.8827L420.983 59.8711L419.983 59.8595C419.946 63.072 419.113 65.1779 417.703 66.4271L418.366 67.1758ZM420.983 59.8711V58.8711H411.998V59.8711V60.8711H420.983V59.8711ZM411.998 59.8711H412.998V56.6484H411.998H410.998V59.8711H411.998ZM411.998 56.6484V57.6484H424.596V56.6484V55.6484H411.998V56.6484ZM424.596 56.6484H423.596V72H424.596H425.596V56.6484H424.596ZM424.596 72V71H422.096V72V73H424.596V72ZM422.096 72L423.065 71.7538L422.128 68.0624L421.159 68.3086L420.189 68.5547L421.127 72.2462L422.096 72ZM421.159 68.3086L420.419 67.6356C419.134 69.0473 418.056 69.9579 417.18 70.4407L417.662 71.3164L418.145 72.1921C419.301 71.5552 420.553 70.4605 421.898 68.9816L421.159 68.3086ZM417.662 71.3164L417.171 70.4457C415.658 71.3003 413.673 71.7617 411.159 71.7617V72.7617V73.7617C413.904 73.7617 416.256 73.2596 418.154 72.1871L417.662 71.3164ZM411.159 72.7617V71.7617C407.998 71.7617 405.315 70.747 403.058 68.7173L402.389 69.4609L401.721 70.2046C404.358 72.576 407.522 73.7617 411.159 73.7617V72.7617ZM402.389 69.4609L403.108 68.7658C400.662 66.2364 399.385 62.7214 399.385 58.0938H398.385H397.385C397.385 63.1015 398.778 67.1647 401.67 70.1561L402.389 69.4609ZM398.385 58.0938H399.385C399.385 53.4748 400.632 49.9164 403.028 47.3049L402.291 46.6289L401.555 45.9529C398.742 49.0185 397.385 53.1033 397.385 58.0938H398.385ZM402.291 46.6289L403.03 47.3033C405.299 44.8186 408.227 43.5664 411.901 43.5664V42.5664V41.5664C407.71 41.5664 404.231 43.0225 401.553 45.9545L402.291 46.6289Z" fill="black" mask="url(#path-7-outside-4_702_59)"/>
<defs>
<linearGradient id="paint0_linear_702_59" x1="55" y1="4" x2="55" y2="102" gradientUnits="userSpaceOnUse">
<stop stop-color="#E5FFB0"/>
<stop offset="1" stop-color="#ABFF00"/>
</linearGradient>
<linearGradient id="paint1_linear_702_59" x1="268.5" y1="4" x2="268.5" y2="102" gradientUnits="userSpaceOnUse">
<stop stop-color="#E5FFB0"/>
<stop offset="1" stop-color="#ABFF00"/>
</linearGradient>
<linearGradient id="paint2_linear_702_59" x1="161.5" y1="30" x2="161.5" y2="86" gradientUnits="userSpaceOnUse">
<stop stop-color="#E5FFB0"/>
<stop offset="1" stop-color="#ABFF00"/>
</linearGradient>
<linearGradient id="paint3_linear_702_59" x1="366.5" y1="30" x2="366.5" y2="86" gradientUnits="userSpaceOnUse">
<stop stop-color="#E5FFB0"/>
<stop offset="1" stop-color="#ABFF00"/>
</linearGradient>
</defs>
</svg>
