<svg width="271" height="116" viewBox="0 0 271 116" fill="none" xmlns="http://www.w3.org/2000/svg">
<mask id="path-1-outside-1_705_95" maskUnits="userSpaceOnUse" x="7" y="0" width="112" height="85" fill="black">
<rect fill="white" x="7" width="112" height="85"/>
<path d="M11.76 17.95L10.71 18.79C10.5 18.79 10.15 18.51 9.66 17.88C9.17 17.25 8.89 16.48 8.89 15.57C8.89 13.75 9.52 12 10.78 10.32C12.04 8.63999 13.58 7.17 15.47 5.91C17.36 4.65 19.39 3.67 21.56 2.97C23.73 2.27 25.69 1.92 27.51 1.92C29.47 1.92 31.29 2.19999 33.04 2.83C34.79 3.45999 36.33 4.37 37.66 5.56C38.99 6.75 40.04 8.22 40.81 9.97C41.58 11.72 42 13.75 42 16.06C42 18.72 41.51 21.38 40.46 24.04C39.41 26.7 38.15 29.43 36.61 32.16C35.07 34.89 33.39 37.62 31.57 40.35C29.75 43.08 28.07 45.88 26.53 48.68C24.99 51.48 23.73 54.35 22.68 57.22C21.63 60.09 21.14 62.96 21.14 65.9C21.14 68.21 21.42 70.31 21.98 72.2C22.54 74.09 23.38 75.7 24.43 77.1C25.48 78.5 26.81 79.55 28.35 80.32C29.89 81.09 31.64 81.44 33.67 81.44C35.77 81.44 37.94 81.09 40.11 80.46C42.28 79.83 44.45 78.92 46.62 77.8C48.79 76.68 50.89 75.35 52.99 73.81C55.09 72.27 57.05 70.59 58.94 68.77C58.66 66.81 58.52 64.78 58.52 62.68C58.52 58.34 59.08 54.42 60.2 50.85C61.32 47.28 62.65 44.27 64.26 41.75C65.87 39.23 67.55 37.27 69.37 35.87C71.19 34.47 72.8 33.77 74.27 33.77C74.9 33.77 75.6 34.12 76.3 34.89C77 35.66 77.35 36.85 77.35 38.53C77.35 40.49 77 42.59 76.3 44.9C75.6 47.21 74.62 49.52 73.36 51.9C72.1 54.28 70.63 56.66 68.88 59.11C67.13 61.56 65.24 63.87 63.21 66.11C63.42 68.21 63.77 70.24 64.26 72.2C64.75 74.16 65.52 75.91 66.5 77.38C67.48 78.85 68.67 80.04 70.14 80.95C71.61 81.86 73.36 82.28 75.39 82.28C77.84 82.28 80.5 81.65 83.3 80.46C86.1 79.27 88.9 77.59 91.7 75.42C94.5 73.25 97.16 70.66 99.68 67.72C102.2 64.78 104.44 61.49 106.4 57.92C108.36 54.35 109.9 50.57 111.02 46.51C112.14 42.45 112.7 38.32 112.7 34.05C112.7 30.62 112.35 27.68 111.65 25.3C110.95 22.92 110.04 20.96 108.92 19.42C107.8 17.88 106.61 16.69 105.35 15.85C104.09 15.01 102.9 14.31 101.78 13.82C100.66 13.33 99.75 12.98 99.05 12.77C98.35 12.56 98 12.35 98 12.14C98 11.86 98.28 11.72 98.84 11.72C100.24 11.72 101.99 12.07 104.16 12.84C106.33 13.61 108.43 14.87 110.46 16.62C112.49 18.37 114.24 20.61 115.71 23.34C117.18 26.07 117.88 29.43 117.88 33.42C117.88 37.62 117.25 41.75 115.92 45.88C114.59 50.01 112.84 53.93 110.67 57.64C108.5 61.35 105.98 64.78 103.04 67.93C100.1 71.08 97.09 73.81 93.94 76.12C90.79 78.43 87.57 80.18 84.28 81.44C80.99 82.7 77.84 83.33 74.83 83.33C72.59 83.33 70.63 82.98 68.95 82.28C67.27 81.58 65.8 80.67 64.54 79.48C63.28 78.29 62.23 76.89 61.39 75.28C60.55 73.67 59.92 71.85 59.5 69.89C57.4 71.85 55.23 73.67 52.99 75.28C50.75 76.89 48.44 78.29 46.13 79.48C43.82 80.67 41.51 81.58 39.13 82.28C36.75 82.98 34.44 83.33 32.13 83.33C29.89 83.33 27.79 82.98 25.83 82.28C23.87 81.58 22.19 80.53 20.79 79.13C19.39 77.73 18.27 76.05 17.5 74.02C16.73 71.99 16.31 69.68 16.31 67.09C16.31 64.22 16.87 61.42 17.99 58.69C19.11 55.96 20.51 53.23 22.19 50.57C23.87 47.91 25.69 45.25 27.58 42.66C29.47 40.07 31.29 37.41 32.97 34.75C34.65 32.09 36.05 29.43 37.17 26.77C38.29 24.11 38.85 21.38 38.85 18.65C38.85 15.85 38.36 13.47 37.38 11.58C36.4 9.69 35.21 8.15 33.81 7.02999C32.41 5.91 30.87 5.06999 29.26 4.58C27.65 4.09 26.11 3.80999 24.71 3.80999C23.1 3.80999 21.49 4.09 19.95 4.65C18.41 5.21 17.08 5.98 15.89 6.96C14.7 7.94 13.72 9.13 13.02 10.53C12.32 11.93 11.97 13.4 11.97 15.01C11.97 15.64 12.04 16.2 12.11 16.69C12.18 17.18 12.25 17.46 12.25 17.6C12.25 17.67 12.18 17.74 12.11 17.81C12.04 17.88 11.9 17.95 11.76 17.95ZM62.65 61.56L62.51 63.52C62.51 64.01 62.51 64.5 62.58 64.99C64.19 63.1 65.66 61.07 66.99 58.97C68.32 56.87 69.44 54.77 70.42 52.67C71.4 50.57 72.17 48.54 72.66 46.51C73.15 44.48 73.43 42.52 73.43 40.63C73.43 40.21 73.43 39.79 73.43 39.3C73.43 38.81 73.36 38.39 73.29 37.97C73.22 37.55 73.08 37.2 72.94 36.92C72.8 36.64 72.59 36.5 72.31 36.5C71.47 36.5 70.49 37.2 69.37 38.67C68.25 40.14 67.2 42.03 66.22 44.41C65.24 46.79 64.4 49.45 63.7 52.46C63 55.47 62.65 58.48 62.65 61.56Z"/>
</mask>
<path d="M11.76 17.95L10.71 18.79C10.5 18.79 10.15 18.51 9.66 17.88C9.17 17.25 8.89 16.48 8.89 15.57C8.89 13.75 9.52 12 10.78 10.32C12.04 8.63999 13.58 7.17 15.47 5.91C17.36 4.65 19.39 3.67 21.56 2.97C23.73 2.27 25.69 1.92 27.51 1.92C29.47 1.92 31.29 2.19999 33.04 2.83C34.79 3.45999 36.33 4.37 37.66 5.56C38.99 6.75 40.04 8.22 40.81 9.97C41.58 11.72 42 13.75 42 16.06C42 18.72 41.51 21.38 40.46 24.04C39.41 26.7 38.15 29.43 36.61 32.16C35.07 34.89 33.39 37.62 31.57 40.35C29.75 43.08 28.07 45.88 26.53 48.68C24.99 51.48 23.73 54.35 22.68 57.22C21.63 60.09 21.14 62.96 21.14 65.9C21.14 68.21 21.42 70.31 21.98 72.2C22.54 74.09 23.38 75.7 24.43 77.1C25.48 78.5 26.81 79.55 28.35 80.32C29.89 81.09 31.64 81.44 33.67 81.44C35.77 81.44 37.94 81.09 40.11 80.46C42.28 79.83 44.45 78.92 46.62 77.8C48.79 76.68 50.89 75.35 52.99 73.81C55.09 72.27 57.05 70.59 58.94 68.77C58.66 66.81 58.52 64.78 58.52 62.68C58.52 58.34 59.08 54.42 60.2 50.85C61.32 47.28 62.65 44.27 64.26 41.75C65.87 39.23 67.55 37.27 69.37 35.87C71.19 34.47 72.8 33.77 74.27 33.77C74.9 33.77 75.6 34.12 76.3 34.89C77 35.66 77.35 36.85 77.35 38.53C77.35 40.49 77 42.59 76.3 44.9C75.6 47.21 74.62 49.52 73.36 51.9C72.1 54.28 70.63 56.66 68.88 59.11C67.13 61.56 65.24 63.87 63.21 66.11C63.42 68.21 63.77 70.24 64.26 72.2C64.75 74.16 65.52 75.91 66.5 77.38C67.48 78.85 68.67 80.04 70.14 80.95C71.61 81.86 73.36 82.28 75.39 82.28C77.84 82.28 80.5 81.65 83.3 80.46C86.1 79.27 88.9 77.59 91.7 75.42C94.5 73.25 97.16 70.66 99.68 67.72C102.2 64.78 104.44 61.49 106.4 57.92C108.36 54.35 109.9 50.57 111.02 46.51C112.14 42.45 112.7 38.32 112.7 34.05C112.7 30.62 112.35 27.68 111.65 25.3C110.95 22.92 110.04 20.96 108.92 19.42C107.8 17.88 106.61 16.69 105.35 15.85C104.09 15.01 102.9 14.31 101.78 13.82C100.66 13.33 99.75 12.98 99.05 12.77C98.35 12.56 98 12.35 98 12.14C98 11.86 98.28 11.72 98.84 11.72C100.24 11.72 101.99 12.07 104.16 12.84C106.33 13.61 108.43 14.87 110.46 16.62C112.49 18.37 114.24 20.61 115.71 23.34C117.18 26.07 117.88 29.43 117.88 33.42C117.88 37.62 117.25 41.75 115.92 45.88C114.59 50.01 112.84 53.93 110.67 57.64C108.5 61.35 105.98 64.78 103.04 67.93C100.1 71.08 97.09 73.81 93.94 76.12C90.79 78.43 87.57 80.18 84.28 81.44C80.99 82.7 77.84 83.33 74.83 83.33C72.59 83.33 70.63 82.98 68.95 82.28C67.27 81.58 65.8 80.67 64.54 79.48C63.28 78.29 62.23 76.89 61.39 75.28C60.55 73.67 59.92 71.85 59.5 69.89C57.4 71.85 55.23 73.67 52.99 75.28C50.75 76.89 48.44 78.29 46.13 79.48C43.82 80.67 41.51 81.58 39.13 82.28C36.75 82.98 34.44 83.33 32.13 83.33C29.89 83.33 27.79 82.98 25.83 82.28C23.87 81.58 22.19 80.53 20.79 79.13C19.39 77.73 18.27 76.05 17.5 74.02C16.73 71.99 16.31 69.68 16.31 67.09C16.31 64.22 16.87 61.42 17.99 58.69C19.11 55.96 20.51 53.23 22.19 50.57C23.87 47.91 25.69 45.25 27.58 42.66C29.47 40.07 31.29 37.41 32.97 34.75C34.65 32.09 36.05 29.43 37.17 26.77C38.29 24.11 38.85 21.38 38.85 18.65C38.85 15.85 38.36 13.47 37.38 11.58C36.4 9.69 35.21 8.15 33.81 7.02999C32.41 5.91 30.87 5.06999 29.26 4.58C27.65 4.09 26.11 3.80999 24.71 3.80999C23.1 3.80999 21.49 4.09 19.95 4.65C18.41 5.21 17.08 5.98 15.89 6.96C14.7 7.94 13.72 9.13 13.02 10.53C12.32 11.93 11.97 13.4 11.97 15.01C11.97 15.64 12.04 16.2 12.11 16.69C12.18 17.18 12.25 17.46 12.25 17.6C12.25 17.67 12.18 17.74 12.11 17.81C12.04 17.88 11.9 17.95 11.76 17.95ZM62.65 61.56L62.51 63.52C62.51 64.01 62.51 64.5 62.58 64.99C64.19 63.1 65.66 61.07 66.99 58.97C68.32 56.87 69.44 54.77 70.42 52.67C71.4 50.57 72.17 48.54 72.66 46.51C73.15 44.48 73.43 42.52 73.43 40.63C73.43 40.21 73.43 39.79 73.43 39.3C73.43 38.81 73.36 38.39 73.29 37.97C73.22 37.55 73.08 37.2 72.94 36.92C72.8 36.64 72.59 36.5 72.31 36.5C71.47 36.5 70.49 37.2 69.37 38.67C68.25 40.14 67.2 42.03 66.22 44.41C65.24 46.79 64.4 49.45 63.7 52.46C63 55.47 62.65 58.48 62.65 61.56Z" fill="url(#paint0_linear_705_95)"/>
<path d="M11.76 17.95V16.95H11.4092L11.1353 17.1691L11.76 17.95ZM10.71 18.79V19.79H11.0608L11.3347 19.5709L10.71 18.79ZM10.78 10.32L11.58 10.92L11.58 10.92L10.78 10.32ZM15.47 5.91L14.9153 5.07795L14.9153 5.07795L15.47 5.91ZM21.56 2.97L21.867 3.92171L21.867 3.92171L21.56 2.97ZM33.04 2.83L32.7013 3.77089L32.7013 3.77089L33.04 2.83ZM40.81 9.97L39.8947 10.3727L39.8947 10.3727L40.81 9.97ZM40.46 24.04L39.5298 23.6728L39.5298 23.6728L40.46 24.04ZM36.61 32.16L35.739 31.6687L35.739 31.6687L36.61 32.16ZM31.57 40.35L32.4021 40.9047L32.4021 40.9047L31.57 40.35ZM26.53 48.68L25.6538 48.1981L25.6538 48.1981L26.53 48.68ZM22.68 57.22L21.7409 56.8764L21.7409 56.8764L22.68 57.22ZM21.98 72.2L21.0212 72.4841L21.0212 72.4841L21.98 72.2ZM24.43 77.1L23.63 77.7L23.63 77.7L24.43 77.1ZM28.35 80.32L28.7972 79.4256L28.7972 79.4256L28.35 80.32ZM40.11 80.46L39.8312 79.4997L39.8312 79.4997L40.11 80.46ZM46.62 77.8L46.1614 76.9114L46.1614 76.9114L46.62 77.8ZM52.99 73.81L52.3986 73.0036L52.3986 73.0036L52.99 73.81ZM58.94 68.77L59.6336 69.4903L60.0023 69.1353L59.93 68.6286L58.94 68.77ZM60.2 50.85L59.2459 50.5507L59.2459 50.5507L60.2 50.85ZM69.37 35.87L69.9797 36.6626L69.9797 36.6626L69.37 35.87ZM76.3 34.89L75.5601 35.5627L75.5601 35.5627L76.3 34.89ZM76.3 44.9L77.257 45.19L77.257 45.19L76.3 44.9ZM68.88 59.11L68.0663 58.5288L68.0663 58.5288L68.88 59.11ZM63.21 66.11L62.469 65.4385L62.1708 65.7676L62.215 66.2095L63.21 66.11ZM64.26 72.2L63.2899 72.4425L63.2899 72.4425L64.26 72.2ZM70.14 80.95L70.6664 80.0997L70.6664 80.0997L70.14 80.95ZM83.3 80.46L82.9089 79.5397L82.9089 79.5397L83.3 80.46ZM99.68 67.72L100.439 68.3708L100.439 68.3708L99.68 67.72ZM106.4 57.92L105.523 57.4387L105.523 57.4387L106.4 57.92ZM111.02 46.51L111.984 46.7759L111.984 46.7759L111.02 46.51ZM108.92 19.42L109.729 18.8318L109.729 18.8318L108.92 19.42ZM105.35 15.85L104.795 16.682L104.795 16.682L105.35 15.85ZM101.78 13.82L101.379 14.7362L101.379 14.7362L101.78 13.82ZM99.05 12.77L99.3374 11.8122L99.3374 11.8122L99.05 12.77ZM104.16 12.84L104.494 11.8976L104.494 11.8976L104.16 12.84ZM110.46 16.62L111.113 15.8626L111.113 15.8626L110.46 16.62ZM115.71 23.34L116.59 22.8659L116.59 22.8659L115.71 23.34ZM115.92 45.88L116.872 46.1865L116.872 46.1865L115.92 45.88ZM110.67 57.64L111.533 58.1449L111.533 58.1449L110.67 57.64ZM103.04 67.93L103.771 68.6123L103.771 68.6123L103.04 67.93ZM93.94 76.12L93.3486 75.3136L93.3486 75.3136L93.94 76.12ZM84.28 81.44L84.6377 82.3739L84.6377 82.3739L84.28 81.44ZM68.95 82.28L69.3346 81.3569L69.3346 81.3569L68.95 82.28ZM64.54 79.48L63.8534 80.207L63.8534 80.207L64.54 79.48ZM61.39 75.28L60.5034 75.7426L60.5034 75.7426L61.39 75.28ZM59.5 69.89L60.4778 69.6805L60.108 67.9547L58.8177 69.1589L59.5 69.89ZM52.99 75.28L53.5736 76.092L52.99 75.28ZM46.13 79.48L46.588 80.369L46.588 80.369L46.13 79.48ZM39.13 82.28L38.8478 81.3206L38.8478 81.3206L39.13 82.28ZM25.83 82.28L26.1663 81.3383L26.1663 81.3383L25.83 82.28ZM20.79 79.13L21.4971 78.4229L21.4971 78.4229L20.79 79.13ZM17.5 74.02L16.565 74.3747L16.565 74.3747L17.5 74.02ZM17.99 58.69L17.0648 58.3104L17.0648 58.3104L17.99 58.69ZM22.19 50.57L21.3445 50.036L21.3445 50.036L22.19 50.57ZM32.97 34.75L32.1245 34.216L32.1245 34.216L32.97 34.75ZM37.17 26.77L36.2484 26.3819L36.2484 26.3819L37.17 26.77ZM37.38 11.58L36.4922 12.0403L36.4922 12.0403L37.38 11.58ZM33.81 7.02999L34.4347 6.24913L34.4347 6.24913L33.81 7.02999ZM19.95 4.65L20.2917 5.58979L20.2917 5.58979L19.95 4.65ZM13.02 10.53L12.1256 10.0828L12.1256 10.0828L13.02 10.53ZM12.11 16.69L13.1 16.5486L13.0999 16.5486L12.11 16.69ZM62.65 61.56L63.6475 61.6312L63.65 61.5957V61.56H62.65ZM62.51 63.52L61.5125 63.4488L61.51 63.4843V63.52H62.51ZM62.58 64.99L61.5901 65.1314L61.9036 67.3262L63.3412 65.6385L62.58 64.99ZM66.99 58.97L66.1452 58.4349L66.1452 58.4349L66.99 58.97ZM70.42 52.67L69.5138 52.2471L69.5138 52.2471L70.42 52.67ZM72.66 46.51L73.6321 46.7446L73.6321 46.7446L72.66 46.51ZM73.29 37.97L74.2764 37.8056L74.2764 37.8056L73.29 37.97ZM69.37 38.67L68.5746 38.064L68.5746 38.064L69.37 38.67ZM66.22 44.41L67.1447 44.7907L67.1447 44.7907L66.22 44.41ZM63.7 52.46L62.726 52.2335L62.726 52.2335L63.7 52.46ZM11.76 17.95L11.1353 17.1691L10.0853 18.0091L10.71 18.79L11.3347 19.5709L12.3847 18.7309L11.76 17.95ZM10.71 18.79V17.79C10.8723 17.79 10.9719 17.8411 10.9845 17.8476C11.0031 17.8572 10.9882 17.8522 10.9376 17.8093C10.8357 17.7227 10.6734 17.5541 10.4494 17.2661L9.66 17.88L8.87065 18.4939C9.13663 18.8359 9.39429 19.1223 9.64235 19.3332C9.84193 19.5028 10.2219 19.79 10.71 19.79V18.79ZM9.66 17.88L10.4494 17.2661C10.0976 16.8138 9.89 16.2604 9.89 15.57H8.89H7.89C7.89 16.6996 8.24242 17.6862 8.87065 18.4939L9.66 17.88ZM8.89 15.57H9.89C9.89 13.9986 10.429 12.4546 11.58 10.92L10.78 10.32L9.98 9.72C8.61097 11.5454 7.89 13.5014 7.89 15.57H8.89ZM10.78 10.32L11.58 10.92C12.7711 9.33193 14.2277 7.94002 16.0247 6.74205L15.47 5.91L14.9153 5.07795C12.9323 6.39997 11.3089 7.94806 9.98 9.72L10.78 10.32ZM15.47 5.91L16.0247 6.74205C17.8377 5.53335 19.7844 4.59353 21.867 3.92171L21.56 2.97L21.253 2.01829C18.9957 2.74646 16.8823 3.76665 14.9153 5.07795L15.47 5.91ZM21.56 2.97L21.867 3.92171C23.9639 3.24528 25.8185 2.92 27.51 2.92V1.92V0.919998C25.5615 0.919998 23.4961 1.29471 21.253 2.01829L21.56 2.97ZM27.51 1.92V2.92C29.3717 2.92 31.075 3.18542 32.7013 3.77089L33.04 2.83L33.3787 1.88911C31.505 1.21457 29.5683 0.919998 27.51 0.919998V1.92ZM33.04 2.83L32.7013 3.77089C34.3356 4.35922 35.763 5.20453 36.9932 6.30524L37.66 5.56L38.3268 4.81476C36.897 3.53546 35.2444 2.56077 33.3787 1.88911L33.04 2.83ZM37.66 5.56L36.9932 6.30524C38.2094 7.39345 39.178 8.74386 39.8947 10.3727L40.81 9.97L41.7253 9.56726C40.902 7.69613 39.7706 6.10655 38.3268 4.81476L37.66 5.56ZM40.81 9.97L39.8947 10.3727C40.6027 11.9818 41 13.8725 41 16.06H42H43C43 13.6275 42.5573 11.4581 41.7253 9.56726L40.81 9.97ZM42 16.06H41C41 18.5936 40.534 21.1291 39.5298 23.6728L40.46 24.04L41.3902 24.4072C42.486 21.6309 43 18.8464 43 16.06H42ZM40.46 24.04L39.5298 23.6728C38.4944 26.2961 37.2535 28.9839 35.739 31.6687L36.61 32.16L37.481 32.6513C39.0465 29.8761 40.3257 27.1039 41.3902 24.4072L40.46 24.04ZM36.61 32.16L35.739 31.6687C34.2118 34.3761 32.5448 37.085 30.738 39.7953L31.57 40.35L32.4021 40.9047C34.2352 38.155 35.9282 35.4039 37.481 32.6513L36.61 32.16ZM31.57 40.35L30.738 39.7953C28.9006 42.5513 27.206 45.3759 25.6538 48.1981L26.53 48.68L27.4062 49.1619C28.934 46.3841 30.5994 43.6087 32.4021 40.9047L31.57 40.35ZM26.53 48.68L25.6538 48.1981C24.0858 51.049 22.8056 53.9662 21.7409 56.8764L22.68 57.22L23.6191 57.5636C24.6544 54.7338 25.8942 51.911 27.4062 49.1619L26.53 48.68ZM22.68 57.22L21.7409 56.8764C20.65 59.8582 20.14 62.8447 20.14 65.9H21.14H22.14C22.14 63.0753 22.61 60.3218 23.6191 57.5636L22.68 57.22ZM21.14 65.9H20.14C20.14 68.2901 20.4297 70.4876 21.0212 72.4841L21.98 72.2L22.9388 71.9159C22.4103 70.1324 22.14 68.1299 22.14 65.9H21.14ZM21.98 72.2L21.0212 72.4841C21.6158 74.4908 22.5105 76.2073 23.63 77.7L24.43 77.1L25.23 76.5C24.2495 75.1927 23.4642 73.6892 22.9388 71.9159L21.98 72.2ZM24.43 77.1L23.63 77.7C24.7833 79.2377 26.2399 80.383 27.9028 81.2144L28.35 80.32L28.7972 79.4256C27.3802 78.717 26.1767 77.7623 25.23 76.5L24.43 77.1ZM28.35 80.32L27.9028 81.2144C29.6126 82.0694 31.5236 82.44 33.67 82.44V81.44V80.44C31.7564 80.44 30.1674 80.1106 28.7972 79.4256L28.35 80.32ZM33.67 81.44V82.44C35.8798 82.44 38.1444 82.072 40.3888 81.4203L40.11 80.46L39.8312 79.4997C37.7356 80.108 35.6602 80.44 33.67 80.44V81.44ZM40.11 80.46L40.3888 81.4203C42.6339 80.7685 44.8646 79.8314 47.0786 78.6886L46.62 77.8L46.1614 76.9114C44.0354 78.0086 41.9261 78.8915 39.8312 79.4997L40.11 80.46ZM46.62 77.8L47.0786 78.6886C49.3021 77.5411 51.4463 76.1821 53.5814 74.6164L52.99 73.81L52.3986 73.0036C50.3337 74.5179 48.2779 75.8189 46.1614 76.9114L46.62 77.8ZM52.99 73.81L53.5814 74.6164C55.7221 73.0465 57.7161 71.3369 59.6336 69.4903L58.94 68.77L58.2464 68.0497C56.3839 69.8431 54.4579 71.4935 52.3986 73.0036L52.99 73.81ZM58.94 68.77L59.93 68.6286C59.657 66.7181 59.52 64.7355 59.52 62.68H58.52H57.52C57.52 64.8245 57.663 66.9019 57.9501 68.9114L58.94 68.77ZM58.52 62.68H59.52C59.52 58.4266 60.0687 54.6091 61.1541 51.1493L60.2 50.85L59.2459 50.5507C58.0913 54.2309 57.52 58.2534 57.52 62.68H58.52ZM60.2 50.85L61.1541 51.1493C62.2552 47.6397 63.5521 44.7154 65.1027 42.2884L64.26 41.75L63.4173 41.2116C61.7479 43.8246 60.3848 46.9203 59.2459 50.5507L60.2 50.85ZM64.26 41.75L65.1027 42.2884C66.6724 39.8314 68.2792 37.9707 69.9797 36.6626L69.37 35.87L68.7603 35.0774C66.8208 36.5693 65.0676 38.6286 63.4173 41.2116L64.26 41.75ZM69.37 35.87L69.9797 36.6626C71.7223 35.3221 73.1181 34.77 74.27 34.77V33.77V32.77C72.4819 32.77 70.6577 33.6178 68.7603 35.0774L69.37 35.87ZM74.27 33.77V34.77C74.5153 34.77 74.9671 34.9104 75.5601 35.5627L76.3 34.89L77.0399 34.2173C76.233 33.3296 75.2847 32.77 74.27 32.77V33.77ZM76.3 34.89L75.5601 35.5627C76.0187 36.0672 76.35 36.9609 76.35 38.53H77.35H78.35C78.35 36.7391 77.9813 35.2528 77.0399 34.2173L76.3 34.89ZM77.35 38.53H76.35C76.35 40.3705 76.0214 42.3713 75.343 44.61L76.3 44.9L77.257 45.19C77.9786 42.8087 78.35 40.6095 78.35 38.53H77.35ZM76.3 44.9L75.343 44.61C74.6646 46.8487 73.7113 49.0991 72.4762 51.4321L73.36 51.9L74.2438 52.3679C75.5287 49.9409 76.5354 47.5713 77.257 45.19L76.3 44.9ZM73.36 51.9L72.4762 51.4321C71.2381 53.7708 69.7918 56.113 68.0663 58.5288L68.88 59.11L69.6937 59.6912C71.4682 57.207 72.9619 54.7892 74.2438 52.3679L73.36 51.9ZM68.88 59.11L68.0663 58.5288C66.3416 60.9433 64.4765 63.2233 62.469 65.4385L63.21 66.11L63.951 66.7815C66.0035 64.5167 67.9184 62.1767 69.6937 59.6912L68.88 59.11ZM63.21 66.11L62.215 66.2095C62.4296 68.3556 62.7876 70.4335 63.2899 72.4425L64.26 72.2L65.2301 71.9575C64.7524 70.0465 64.4104 68.0644 64.205 66.0105L63.21 66.11ZM64.26 72.2L63.2899 72.4425C63.8054 74.5047 64.6194 76.3619 65.668 77.9347L66.5 77.38L67.3321 76.8253C66.4206 75.4581 65.6946 73.8153 65.2301 71.9575L64.26 72.2ZM66.5 77.38L65.668 77.9347C66.7201 79.5129 68.0109 80.8081 69.6137 81.8003L70.14 80.95L70.6664 80.0997C69.3291 79.2719 68.2399 78.1871 67.3321 76.8253L66.5 77.38ZM70.14 80.95L69.6137 81.8003C71.2775 82.8303 73.2212 83.28 75.39 83.28V82.28V81.28C73.4989 81.28 71.9425 80.8897 70.6664 80.0997L70.14 80.95ZM75.39 82.28V83.28C78.0085 83.28 80.8033 82.6077 83.6911 81.3803L83.3 80.46L82.9089 79.5397C80.1968 80.6923 77.6715 81.28 75.39 81.28V82.28ZM83.3 80.46L83.6911 81.3803C86.5819 80.1517 89.4555 78.4247 92.3126 76.2104L91.7 75.42L91.0874 74.6296C88.3445 76.7553 85.6181 78.3883 82.9089 79.5397L83.3 80.46ZM91.7 75.42L92.3126 76.2104C95.1741 73.9927 97.8824 71.3538 100.439 68.3708L99.68 67.72L98.9207 67.0692C96.4376 69.9662 93.8259 72.5073 91.0874 74.6296L91.7 75.42ZM99.68 67.72L100.439 68.3708C103.008 65.3734 105.287 62.0255 107.277 58.4013L106.4 57.92L105.523 57.4387C103.593 60.9545 101.392 64.1866 98.9207 67.0692L99.68 67.72ZM106.4 57.92L107.277 58.4013C109.274 54.7627 110.843 50.9104 111.984 46.7759L111.02 46.51L110.056 46.2441C108.957 50.2296 107.446 53.9373 105.523 57.4387L106.4 57.92ZM111.02 46.51L111.984 46.7759C113.128 42.6288 113.7 38.4094 113.7 34.05H112.7H111.7C111.7 38.2306 111.152 42.2712 110.056 46.2441L111.02 46.51ZM112.7 34.05H113.7C113.7 30.5592 113.345 27.5177 112.609 25.0178L111.65 25.3L110.691 25.5822C111.355 27.8423 111.7 30.6808 111.7 34.05H112.7ZM111.65 25.3L112.609 25.0178C111.886 22.5594 110.933 20.4877 109.729 18.8318L108.92 19.42L108.111 20.0082C109.147 21.4323 110.014 23.2806 110.691 25.5822L111.65 25.3ZM108.92 19.42L109.729 18.8318C108.556 17.2198 107.285 15.938 105.905 15.0179L105.35 15.85L104.795 16.682C105.935 17.442 107.044 18.5402 108.111 20.0082L108.92 19.42ZM105.35 15.85L105.905 15.0179C104.621 14.1625 103.377 13.427 102.181 12.9038L101.78 13.82L101.379 14.7362C102.423 15.193 103.559 15.8575 104.795 16.682L105.35 15.85ZM101.78 13.82L102.181 12.9038C101.045 12.4069 100.093 12.0389 99.3374 11.8122L99.05 12.77L98.7627 13.7278C99.407 13.9211 100.275 14.2531 101.379 14.7362L101.78 13.82ZM99.05 12.77L99.3374 11.8122C99.1831 11.7659 99.0591 11.7229 98.962 11.684C98.8629 11.6444 98.8051 11.6144 98.777 11.5975C98.743 11.5771 98.7797 11.5923 98.8339 11.6573C98.894 11.7295 99 11.8957 99 12.14H98H97C97 12.8264 97.5437 13.1899 97.748 13.3125C98.0293 13.4813 98.3851 13.6146 98.7627 13.7278L99.05 12.77ZM98 12.14H99C99 12.245 98.9709 12.3814 98.8846 12.5109C98.8024 12.6342 98.7059 12.6951 98.6572 12.7194C98.6125 12.7418 98.5974 12.7392 98.6369 12.7326C98.6737 12.7265 98.739 12.72 98.84 12.72V11.72V10.72C98.5089 10.72 98.1118 10.7561 97.7628 10.9306C97.5742 11.0249 97.3726 11.1733 97.2205 11.4015C97.0641 11.636 97 11.895 97 12.14H98ZM98.84 11.72V12.72C100.084 12.72 101.715 13.0334 103.826 13.7824L104.16 12.84L104.494 11.8976C102.265 11.1066 100.396 10.72 98.84 10.72V11.72ZM104.16 12.84L103.826 13.7824C105.861 14.5048 107.856 15.6952 109.807 17.3774L110.46 16.62L111.113 15.8626C109.004 14.0448 106.799 12.7152 104.494 11.8976L104.16 12.84ZM110.46 16.62L109.807 17.3774C111.731 19.0362 113.408 21.175 114.83 23.8141L115.71 23.34L116.59 22.8659C115.072 20.045 113.249 17.7038 111.113 15.8626L110.46 16.62ZM115.71 23.34L114.83 23.8141C116.199 26.3573 116.88 29.5415 116.88 33.42H117.88H118.88C118.88 29.3185 118.161 25.7827 116.59 22.8659L115.71 23.34ZM117.88 33.42H116.88C116.88 37.5172 116.266 41.5437 114.968 45.5735L115.92 45.88L116.872 46.1865C118.234 41.9563 118.88 37.7228 118.88 33.42H117.88ZM115.92 45.88L114.968 45.5735C113.66 49.635 111.94 53.4884 109.807 57.1351L110.67 57.64L111.533 58.1449C113.74 54.3716 115.52 50.385 116.872 46.1865L115.92 45.88ZM110.67 57.64L109.807 57.1351C107.672 60.785 105.196 64.1548 102.309 67.2477L103.04 67.93L103.771 68.6123C106.764 65.4052 109.328 61.915 111.533 58.1449L110.67 57.64ZM103.04 67.93L102.309 67.2477C99.4044 70.3596 96.4406 73.0462 93.3486 75.3136L93.94 76.12L94.5314 76.9264C97.7394 74.5738 100.796 71.8004 103.771 68.6123L103.04 67.93ZM93.94 76.12L93.3486 75.3136C90.2675 77.5731 87.1257 79.2793 83.9224 80.5061L84.28 81.44L84.6377 82.3739C88.0143 81.0807 91.3125 79.2869 94.5314 76.9264L93.94 76.12ZM84.28 81.44L83.9224 80.5061C80.7274 81.7297 77.6988 82.33 74.83 82.33V83.33V84.33C77.9812 84.33 81.2526 83.6703 84.6377 82.3739L84.28 81.44ZM74.83 83.33V82.33C72.6924 82.33 70.8681 81.9959 69.3346 81.3569L68.95 82.28L68.5654 83.2031C70.3919 83.9641 72.4876 84.33 74.83 84.33V83.33ZM68.95 82.28L69.3346 81.3569C67.7496 80.6965 66.3863 79.8483 65.2266 78.753L64.54 79.48L63.8534 80.207C65.2137 81.4917 66.7905 82.4635 68.5654 83.2031L68.95 82.28ZM64.54 79.48L65.2266 78.753C64.0513 77.643 63.0676 76.3335 62.2766 74.8174L61.39 75.28L60.5034 75.7426C61.3924 77.4465 62.5087 78.937 63.8534 80.207L64.54 79.48ZM61.39 75.28L62.2766 74.8174C61.4841 73.2985 60.8818 71.5657 60.4778 69.6805L59.5 69.89L58.5222 70.0995C58.9582 72.1343 59.6159 74.0415 60.5034 75.7426L61.39 75.28ZM59.5 69.89L58.8177 69.1589C56.7426 71.0957 54.6055 72.8874 52.4064 74.468L52.99 75.28L53.5736 76.092C55.8545 74.4526 58.0574 72.6043 60.1823 70.6211L59.5 69.89ZM52.99 75.28L52.4064 74.468C50.2076 76.0483 47.9398 77.4228 45.672 78.591L46.13 79.48L46.588 80.369C48.9402 79.1572 51.2924 77.7317 53.5736 76.092L52.99 75.28ZM46.13 79.48L45.672 78.591C43.4202 79.751 41.1693 80.6379 38.8478 81.3206L39.13 82.28L39.4122 83.2394C41.8507 82.5221 44.2198 81.589 46.588 80.369L46.13 79.48ZM39.13 82.28L38.8478 81.3206C36.5512 81.9961 34.3363 82.33 32.13 82.33V83.33V84.33C34.5437 84.33 36.9488 83.9639 39.4122 83.2394L39.13 82.28ZM32.13 83.33V82.33C29.9959 82.33 28.0104 81.9969 26.1663 81.3383L25.83 82.28L25.4937 83.2217C27.5696 83.9631 29.7841 84.33 32.13 84.33V83.33ZM25.83 82.28L26.1663 81.3383C24.3385 80.6854 22.7871 79.7128 21.4971 78.4229L20.79 79.13L20.0829 79.8371C21.5929 81.3472 23.4015 82.4746 25.4937 83.2217L25.83 82.28ZM20.79 79.13L21.4971 78.4229C20.1952 77.121 19.1538 75.5605 18.435 73.6653L17.5 74.02L16.565 74.3747C17.3862 76.5395 18.5848 78.339 20.0829 79.8371L20.79 79.13ZM17.5 74.02L18.435 73.6653C17.7121 71.7595 17.31 69.571 17.31 67.09H16.31H15.31C15.31 69.789 15.7479 72.2205 16.565 74.3747L17.5 74.02ZM16.31 67.09H17.31C17.31 64.3539 17.8432 61.6826 18.9152 59.0696L17.99 58.69L17.0648 58.3104C15.8968 61.1574 15.31 64.0861 15.31 67.09H16.31ZM17.99 58.69L18.9152 59.0696C20.0131 56.3934 21.3864 53.7151 23.0355 51.104L22.19 50.57L21.3445 50.036C19.6336 52.7449 18.2069 55.5266 17.0648 58.3104L17.99 58.69ZM22.19 50.57L23.0355 51.104C24.7023 48.4648 26.5095 45.8234 28.3878 43.2495L27.58 42.66L26.7722 42.0705C24.8705 44.6766 23.0377 47.3552 21.3445 50.036L22.19 50.57ZM27.58 42.66L28.3878 43.2495C30.2896 40.6434 32.1223 37.9648 33.8155 35.284L32.97 34.75L32.1245 34.216C30.4577 36.8552 28.6505 39.4966 26.7722 42.0705L27.58 42.66ZM32.97 34.75L33.8155 35.284C35.5222 32.5816 36.9485 29.873 38.0916 27.1581L37.17 26.77L36.2484 26.3819C35.1515 28.987 33.7778 31.5984 32.1245 34.216L32.97 34.75ZM37.17 26.77L38.0916 27.1581C39.2611 24.3807 39.85 21.5191 39.85 18.65H38.85H37.85C37.85 21.2409 37.319 23.8393 36.2484 26.3819L37.17 26.77ZM38.85 18.65H39.85C39.85 15.7407 39.3418 13.1911 38.2678 11.1197L37.38 11.58L36.4922 12.0403C37.3782 13.7489 37.85 15.9593 37.85 18.65H38.85ZM37.38 11.58L38.2678 11.1197C37.2392 9.13601 35.9677 7.47553 34.4347 6.24913L33.81 7.02999L33.1853 7.81086C34.4523 8.82446 35.5608 10.244 36.4922 12.0403L37.38 11.58ZM33.81 7.02999L34.4347 6.24913C32.9468 5.05881 31.2954 4.15418 29.5512 3.62332L29.26 4.58L28.9688 5.53667C30.4446 5.98581 31.8732 6.76119 33.1853 7.81086L33.81 7.02999ZM29.26 4.58L29.5512 3.62332C27.8788 3.11433 26.2373 2.80999 24.71 2.80999V3.80999V4.80999C25.9827 4.80999 27.4212 5.06567 28.9688 5.53667L29.26 4.58ZM24.71 3.80999V2.80999C22.9839 2.80999 21.2582 3.11022 19.6083 3.71021L19.95 4.65L20.2917 5.58979C21.7218 5.06978 23.2161 4.80999 24.71 4.80999V3.80999ZM19.95 4.65L19.6083 3.71021C17.9611 4.30918 16.5317 5.13607 15.2543 6.18807L15.89 6.96L16.5257 7.73193C17.6283 6.82392 18.8589 6.11081 20.2917 5.58979L19.95 4.65ZM15.89 6.96L15.2543 6.18807C13.9641 7.25054 12.8925 8.54885 12.1256 10.0828L13.02 10.53L13.9144 10.9772C14.5475 9.71115 15.4359 8.62945 16.5257 7.73193L15.89 6.96ZM13.02 10.53L12.1256 10.0828C11.3557 11.6225 10.97 13.2458 10.97 15.01H11.97H12.97C12.97 13.5542 13.2843 12.2375 13.9144 10.9772L13.02 10.53ZM11.97 15.01H10.97C10.97 15.7127 11.0483 16.3291 11.1201 16.8314L12.11 16.69L13.0999 16.5486C13.0317 16.0709 12.97 15.5673 12.97 15.01H11.97ZM12.11 16.69L11.1201 16.8314C11.1578 17.0957 11.1959 17.305 11.2215 17.45C11.2348 17.5259 11.243 17.574 11.248 17.6091C11.2538 17.6494 11.25 17.6371 11.25 17.6H12.25H13.25C13.25 17.4929 13.2375 17.3931 13.2279 17.3262C13.2176 17.2541 13.2039 17.1754 13.191 17.1025C13.1641 16.95 13.1322 16.7743 13.1 16.5486L12.11 16.69ZM12.25 17.6H11.25C11.25 17.4487 11.288 17.3289 11.3218 17.2517C11.3546 17.1767 11.39 17.1267 11.4062 17.105C11.431 17.072 11.451 17.0548 11.4029 17.1029L12.11 17.81L12.8171 18.5171C12.839 18.4952 12.929 18.408 13.0063 18.305C13.0756 18.2125 13.25 17.9613 13.25 17.6H12.25ZM12.11 17.81L11.4029 17.1029C11.4737 17.0321 11.5341 17.0013 11.5673 16.9871C11.6048 16.971 11.6691 16.95 11.76 16.95V17.95V18.95C12.1825 18.95 12.5722 18.762 12.8171 18.5171L12.11 17.81ZM62.65 61.56L61.6525 61.4888L61.5125 63.4488L62.51 63.52L63.5075 63.5912L63.6475 61.6312L62.65 61.56ZM62.51 63.52H61.51C61.51 63.9985 61.5084 64.5595 61.5901 65.1314L62.58 64.99L63.57 64.8486C63.5117 64.4405 63.51 64.0215 63.51 63.52H62.51ZM62.58 64.99L63.3412 65.6385C64.9853 63.7085 66.4828 61.6399 67.8348 59.5051L66.99 58.97L66.1452 58.4349C64.8372 60.5001 63.3947 62.4915 61.8188 64.3415L62.58 64.99ZM66.99 58.97L67.8348 59.5051C69.1905 57.3645 70.3306 55.2263 71.3262 53.0929L70.42 52.67L69.5138 52.2471C68.5494 54.3137 67.4495 56.3755 66.1452 58.4349L66.99 58.97ZM70.42 52.67L71.3262 53.0929C72.3249 50.9527 73.122 48.858 73.6321 46.7446L72.66 46.51L71.6879 46.2754C71.218 48.222 70.4751 50.1873 69.5138 52.2471L70.42 52.67ZM72.66 46.51L73.6321 46.7446C74.1357 44.6582 74.43 42.6176 74.43 40.63H73.43H72.43C72.43 42.4224 72.1643 44.3018 71.6879 46.2754L72.66 46.51ZM73.43 40.63H74.43C74.43 40.6292 74.43 40.6284 74.43 40.6275C74.43 40.6267 74.43 40.6259 74.43 40.6251C74.43 40.6243 74.43 40.6234 74.43 40.6226C74.43 40.6218 74.43 40.621 74.43 40.6202C74.43 40.6193 74.43 40.6185 74.43 40.6177C74.43 40.6169 74.43 40.6161 74.43 40.6152C74.43 40.6144 74.43 40.6136 74.43 40.6128C74.43 40.612 74.43 40.6111 74.43 40.6103C74.43 40.6095 74.43 40.6087 74.43 40.6078C74.43 40.607 74.43 40.6062 74.43 40.6054C74.43 40.6046 74.43 40.6037 74.43 40.6029C74.43 40.6021 74.43 40.6013 74.43 40.6005C74.43 40.5996 74.43 40.5988 74.43 40.598C74.43 40.5972 74.43 40.5964 74.43 40.5955C74.43 40.5947 74.43 40.5939 74.43 40.5931C74.43 40.5923 74.43 40.5914 74.43 40.5906C74.43 40.5898 74.43 40.589 74.43 40.5882C74.43 40.5873 74.43 40.5865 74.43 40.5857C74.43 40.5849 74.43 40.5841 74.43 40.5832C74.43 40.5824 74.43 40.5816 74.43 40.5808C74.43 40.58 74.43 40.5791 74.43 40.5783C74.43 40.5775 74.43 40.5767 74.43 40.5759C74.43 40.575 74.43 40.5742 74.43 40.5734C74.43 40.5726 74.43 40.5717 74.43 40.5709C74.43 40.5701 74.43 40.5693 74.43 40.5685C74.43 40.5676 74.43 40.5668 74.43 40.566C74.43 40.5652 74.43 40.5644 74.43 40.5635C74.43 40.5627 74.43 40.5619 74.43 40.5611C74.43 40.5603 74.43 40.5594 74.43 40.5586C74.43 40.5578 74.43 40.557 74.43 40.5562C74.43 40.5553 74.43 40.5545 74.43 40.5537C74.43 40.5529 74.43 40.5521 74.43 40.5512C74.43 40.5504 74.43 40.5496 74.43 40.5488C74.43 40.5479 74.43 40.5471 74.43 40.5463C74.43 40.5455 74.43 40.5447 74.43 40.5438C74.43 40.543 74.43 40.5422 74.43 40.5414C74.43 40.5406 74.43 40.5397 74.43 40.5389C74.43 40.5381 74.43 40.5373 74.43 40.5365C74.43 40.5356 74.43 40.5348 74.43 40.534C74.43 40.5332 74.43 40.5323 74.43 40.5315C74.43 40.5307 74.43 40.5299 74.43 40.5291C74.43 40.5282 74.43 40.5274 74.43 40.5266C74.43 40.5258 74.43 40.525 74.43 40.5241C74.43 40.5233 74.43 40.5225 74.43 40.5217C74.43 40.5209 74.43 40.52 74.43 40.5192C74.43 40.5184 74.43 40.5176 74.43 40.5167C74.43 40.5159 74.43 40.5151 74.43 40.5143C74.43 40.5135 74.43 40.5126 74.43 40.5118C74.43 40.511 74.43 40.5102 74.43 40.5094C74.43 40.5085 74.43 40.5077 74.43 40.5069C74.43 40.5061 74.43 40.5052 74.43 40.5044C74.43 40.5036 74.43 40.5028 74.43 40.502C74.43 40.5011 74.43 40.5003 74.43 40.4995C74.43 40.4987 74.43 40.4978 74.43 40.497C74.43 40.4962 74.43 40.4954 74.43 40.4946C74.43 40.4937 74.43 40.4929 74.43 40.4921C74.43 40.4913 74.43 40.4905 74.43 40.4896C74.43 40.4888 74.43 40.488 74.43 40.4872C74.43 40.4863 74.43 40.4855 74.43 40.4847C74.43 40.4839 74.43 40.4831 74.43 40.4822C74.43 40.4814 74.43 40.4806 74.43 40.4798C74.43 40.4789 74.43 40.4781 74.43 40.4773C74.43 40.4765 74.43 40.4757 74.43 40.4748C74.43 40.474 74.43 40.4732 74.43 40.4724C74.43 40.4715 74.43 40.4707 74.43 40.4699C74.43 40.4691 74.43 40.4682 74.43 40.4674C74.43 40.4666 74.43 40.4658 74.43 40.465C74.43 40.4641 74.43 40.4633 74.43 40.4625C74.43 40.4617 74.43 40.4608 74.43 40.46C74.43 40.4592 74.43 40.4584 74.43 40.4576C74.43 40.4567 74.43 40.4559 74.43 40.4551C74.43 40.4543 74.43 40.4534 74.43 40.4526C74.43 40.4518 74.43 40.451 74.43 40.4501C74.43 40.4493 74.43 40.4485 74.43 40.4477C74.43 40.4469 74.43 40.446 74.43 40.4452C74.43 40.4444 74.43 40.4436 74.43 40.4427C74.43 40.4419 74.43 40.4411 74.43 40.4403C74.43 40.4394 74.43 40.4386 74.43 40.4378C74.43 40.437 74.43 40.4362 74.43 40.4353C74.43 40.4345 74.43 40.4337 74.43 40.4329C74.43 40.432 74.43 40.4312 74.43 40.4304C74.43 40.4296 74.43 40.4287 74.43 40.4279C74.43 40.4271 74.43 40.4263 74.43 40.4254C74.43 40.4246 74.43 40.4238 74.43 40.423C74.43 40.4221 74.43 40.4213 74.43 40.4205C74.43 40.4197 74.43 40.4189 74.43 40.418C74.43 40.4172 74.43 40.4164 74.43 40.4156C74.43 40.4147 74.43 40.4139 74.43 40.4131C74.43 40.4123 74.43 40.4114 74.43 40.4106C74.43 40.4098 74.43 40.409 74.43 40.4081C74.43 40.4073 74.43 40.4065 74.43 40.4057C74.43 40.4048 74.43 40.404 74.43 40.4032C74.43 40.4024 74.43 40.4015 74.43 40.4007C74.43 40.3999 74.43 40.3991 74.43 40.3982C74.43 40.3974 74.43 40.3966 74.43 40.3958C74.43 40.3949 74.43 40.3941 74.43 40.3933C74.43 40.3925 74.43 40.3916 74.43 40.3908C74.43 40.39 74.43 40.3892 74.43 40.3883C74.43 40.3875 74.43 40.3867 74.43 40.3859C74.43 40.385 74.43 40.3842 74.43 40.3834C74.43 40.3826 74.43 40.3817 74.43 40.3809C74.43 40.3801 74.43 40.3793 74.43 40.3784C74.43 40.3776 74.43 40.3768 74.43 40.376C74.43 40.3751 74.43 40.3743 74.43 40.3735C74.43 40.3726 74.43 40.3718 74.43 40.371C74.43 40.3702 74.43 40.3693 74.43 40.3685C74.43 40.3677 74.43 40.3669 74.43 40.366C74.43 40.3652 74.43 40.3644 74.43 40.3636C74.43 40.3627 74.43 40.3619 74.43 40.3611C74.43 40.3603 74.43 40.3594 74.43 40.3586C74.43 40.3578 74.43 40.3569 74.43 40.3561C74.43 40.3553 74.43 40.3545 74.43 40.3536C74.43 40.3528 74.43 40.352 74.43 40.3512C74.43 40.3503 74.43 40.3495 74.43 40.3487C74.43 40.3479 74.43 40.347 74.43 40.3462C74.43 40.3454 74.43 40.3445 74.43 40.3437C74.43 40.3429 74.43 40.3421 74.43 40.3412C74.43 40.3404 74.43 40.3396 74.43 40.3388C74.43 40.3379 74.43 40.3371 74.43 40.3363C74.43 40.3354 74.43 40.3346 74.43 40.3338C74.43 40.333 74.43 40.3321 74.43 40.3313C74.43 40.3305 74.43 40.3296 74.43 40.3288C74.43 40.328 74.43 40.3272 74.43 40.3263C74.43 40.3255 74.43 40.3247 74.43 40.3238C74.43 40.323 74.43 40.3222 74.43 40.3214C74.43 40.3205 74.43 40.3197 74.43 40.3189C74.43 40.318 74.43 40.3172 74.43 40.3164C74.43 40.3156 74.43 40.3147 74.43 40.3139C74.43 40.3131 74.43 40.3122 74.43 40.3114C74.43 40.3106 74.43 40.3098 74.43 40.3089C74.43 40.3081 74.43 40.3073 74.43 40.3064C74.43 40.3056 74.43 40.3048 74.43 40.304C74.43 40.3031 74.43 40.3023 74.43 40.3015C74.43 40.3006 74.43 40.2998 74.43 40.299C74.43 40.2981 74.43 40.2973 74.43 40.2965C74.43 40.2957 74.43 40.2948 74.43 40.294C74.43 40.2932 74.43 40.2923 74.43 40.2915C74.43 40.2907 74.43 40.2898 74.43 40.289C74.43 40.2882 74.43 40.2874 74.43 40.2865C74.43 40.2857 74.43 40.2849 74.43 40.284C74.43 40.2832 74.43 40.2824 74.43 40.2815C74.43 40.2807 74.43 40.2799 74.43 40.2791C74.43 40.2782 74.43 40.2774 74.43 40.2766C74.43 40.2757 74.43 40.2749 74.43 40.2741C74.43 40.2732 74.43 40.2724 74.43 40.2716C74.43 40.2707 74.43 40.2699 74.43 40.2691C74.43 40.2682 74.43 40.2674 74.43 40.2666C74.43 40.2658 74.43 40.2649 74.43 40.2641C74.43 40.2633 74.43 40.2624 74.43 40.2616C74.43 40.2608 74.43 40.2599 74.43 40.2591C74.43 40.2583 74.43 40.2574 74.43 40.2566C74.43 40.2558 74.43 40.2549 74.43 40.2541C74.43 40.2533 74.43 40.2524 74.43 40.2516C74.43 40.2508 74.43 40.2499 74.43 40.2491C74.43 40.2483 74.43 40.2474 74.43 40.2466C74.43 40.2458 74.43 40.2449 74.43 40.2441C74.43 40.2433 74.43 40.2424 74.43 40.2416C74.43 40.2408 74.43 40.2399 74.43 40.2391C74.43 40.2383 74.43 40.2374 74.43 40.2366C74.43 40.2358 74.43 40.2349 74.43 40.2341C74.43 40.2333 74.43 40.2324 74.43 40.2316C74.43 40.2308 74.43 40.2299 74.43 40.2291C74.43 40.2283 74.43 40.2274 74.43 40.2266C74.43 40.2258 74.43 40.2249 74.43 40.2241C74.43 40.2233 74.43 40.2224 74.43 40.2216C74.43 40.2208 74.43 40.2199 74.43 40.2191C74.43 40.2183 74.43 40.2174 74.43 40.2166C74.43 40.2158 74.43 40.2149 74.43 40.2141C74.43 40.2133 74.43 40.2124 74.43 40.2116C74.43 40.2107 74.43 40.2099 74.43 40.2091C74.43 40.2082 74.43 40.2074 74.43 40.2066C74.43 40.2057 74.43 40.2049 74.43 40.2041C74.43 40.2032 74.43 40.2024 74.43 40.2016C74.43 40.2007 74.43 40.1999 74.43 40.199C74.43 40.1982 74.43 40.1974 74.43 40.1965C74.43 40.1957 74.43 40.1949 74.43 40.194C74.43 40.1932 74.43 40.1924 74.43 40.1915C74.43 40.1907 74.43 40.1898 74.43 40.189C74.43 40.1882 74.43 40.1873 74.43 40.1865C74.43 40.1857 74.43 40.1848 74.43 40.184C74.43 40.1832 74.43 40.1823 74.43 40.1815C74.43 40.1806 74.43 40.1798 74.43 40.179C74.43 40.1781 74.43 40.1773 74.43 40.1765C74.43 40.1756 74.43 40.1748 74.43 40.1739C74.43 40.1731 74.43 40.1723 74.43 40.1714C74.43 40.1706 74.43 40.1697 74.43 40.1689C74.43 40.1681 74.43 40.1672 74.43 40.1664C74.43 40.1656 74.43 40.1647 74.43 40.1639C74.43 40.163 74.43 40.1622 74.43 40.1614C74.43 40.1605 74.43 40.1597 74.43 40.1588C74.43 40.158 74.43 40.1572 74.43 40.1563C74.43 40.1555 74.43 40.1546 74.43 40.1538C74.43 40.153 74.43 40.1521 74.43 40.1513C74.43 40.1504 74.43 40.1496 74.43 40.1488C74.43 40.1479 74.43 40.1471 74.43 40.1462C74.43 40.1454 74.43 40.1446 74.43 40.1437C74.43 40.1429 74.43 40.142 74.43 40.1412C74.43 40.1404 74.43 40.1395 74.43 40.1387C74.43 40.1378 74.43 40.137 74.43 40.1362C74.43 40.1353 74.43 40.1345 74.43 40.1336C74.43 40.1328 74.43 40.132 74.43 40.1311C74.43 40.1303 74.43 40.1294 74.43 40.1286C74.43 40.1277 74.43 40.1269 74.43 40.1261C74.43 40.1252 74.43 40.1244 74.43 40.1235C74.43 40.1227 74.43 40.1219 74.43 40.121C74.43 40.1202 74.43 40.1193 74.43 40.1185C74.43 40.1176 74.43 40.1168 74.43 40.116C74.43 40.1151 74.43 40.1143 74.43 40.1134C74.43 40.1126 74.43 40.1117 74.43 40.1109C74.43 40.1101 74.43 40.1092 74.43 40.1084C74.43 40.1075 74.43 40.1067 74.43 40.1058C74.43 40.105 74.43 40.1042 74.43 40.1033C74.43 40.1025 74.43 40.1016 74.43 40.1008C74.43 40.0999 74.43 40.0991 74.43 40.0982C74.43 40.0974 74.43 40.0966 74.43 40.0957C74.43 40.0949 74.43 40.094 74.43 40.0932C74.43 40.0923 74.43 40.0915 74.43 40.0906C74.43 40.0898 74.43 40.089 74.43 40.0881C74.43 40.0873 74.43 40.0864 74.43 40.0856C74.43 40.0847 74.43 40.0839 74.43 40.083C74.43 40.0822 74.43 40.0813 74.43 40.0805C74.43 40.0797 74.43 40.0788 74.43 40.078C74.43 40.0771 74.43 40.0763 74.43 40.0754C74.43 40.0746 74.43 40.0737 74.43 40.0729C74.43 40.072 74.43 40.0712 74.43 40.0703C74.43 40.0695 74.43 40.0687 74.43 40.0678C74.43 40.067 74.43 40.0661 74.43 40.0653C74.43 40.0644 74.43 40.0636 74.43 40.0627C74.43 40.0619 74.43 40.061 74.43 40.0602C74.43 40.0593 74.43 40.0585 74.43 40.0576C74.43 40.0568 74.43 40.0559 74.43 40.0551C74.43 40.0542 74.43 40.0534 74.43 40.0525C74.43 40.0517 74.43 40.0509 74.43 40.05C74.43 40.0492 74.43 40.0483 74.43 40.0475C74.43 40.0466 74.43 40.0458 74.43 40.0449C74.43 40.0441 74.43 40.0432 74.43 40.0424C74.43 40.0415 74.43 40.0407 74.43 40.0398C74.43 40.039 74.43 40.0381 74.43 40.0373C74.43 40.0364 74.43 40.0356 74.43 40.0347C74.43 40.0339 74.43 40.033 74.43 40.0322C74.43 40.0313 74.43 40.0305 74.43 40.0296C74.43 40.0288 74.43 40.0279 74.43 40.0271C74.43 40.0262 74.43 40.0254 74.43 40.0245C74.43 40.0237 74.43 40.0228 74.43 40.022C74.43 40.0211 74.43 40.0203 74.43 40.0194C74.43 40.0185 74.43 40.0177 74.43 40.0168C74.43 40.016 74.43 40.0151 74.43 40.0143C74.43 40.0134 74.43 40.0126 74.43 40.0117C74.43 40.0109 74.43 40.01 74.43 40.0092C74.43 40.0083 74.43 40.0075 74.43 40.0066C74.43 40.0058 74.43 40.0049 74.43 40.0041C74.43 40.0032 74.43 40.0023 74.43 40.0015C74.43 40.0006 74.43 39.9998 74.43 39.9989C74.43 39.9981 74.43 39.9972 74.43 39.9964C74.43 39.9955 74.43 39.9947 74.43 39.9938C74.43 39.993 74.43 39.9921 74.43 39.9912C74.43 39.9904 74.43 39.9895 74.43 39.9887C74.43 39.9878 74.43 39.987 74.43 39.9861C74.43 39.9853 74.43 39.9844 74.43 39.9836C74.43 39.9827 74.43 39.9818 74.43 39.981C74.43 39.9801 74.43 39.9793 74.43 39.9784C74.43 39.9776 74.43 39.9767 74.43 39.9759C74.43 39.975 74.43 39.9741 74.43 39.9733C74.43 39.9724 74.43 39.9716 74.43 39.9707C74.43 39.9699 74.43 39.969 74.43 39.9681C74.43 39.9673 74.43 39.9664 74.43 39.9656C74.43 39.9647 74.43 39.9639 74.43 39.963C74.43 39.9621 74.43 39.9613 74.43 39.9604C74.43 39.9596 74.43 39.9587 74.43 39.9579C74.43 39.957 74.43 39.9561 74.43 39.9553C74.43 39.9544 74.43 39.9536 74.43 39.9527C74.43 39.9518 74.43 39.951 74.43 39.9501C74.43 39.9493 74.43 39.9484 74.43 39.9476C74.43 39.9467 74.43 39.9458 74.43 39.945C74.43 39.9441 74.43 39.9433 74.43 39.9424C74.43 39.9415 74.43 39.9407 74.43 39.9398C74.43 39.939 74.43 39.9381 74.43 39.9372C74.43 39.9364 74.43 39.9355 74.43 39.9347C74.43 39.9338 74.43 39.9329 74.43 39.9321C74.43 39.9312 74.43 39.9303 74.43 39.9295C74.43 39.9286 74.43 39.9278 74.43 39.9269C74.43 39.926 74.43 39.9252 74.43 39.9243C74.43 39.9235 74.43 39.9226 74.43 39.9217C74.43 39.9209 74.43 39.92 74.43 39.9191C74.43 39.9183 74.43 39.9174 74.43 39.9166C74.43 39.9157 74.43 39.9148 74.43 39.914C74.43 39.9131 74.43 39.9122 74.43 39.9114C74.43 39.9105 74.43 39.9097 74.43 39.9088C74.43 39.9079 74.43 39.9071 74.43 39.9062C74.43 39.9053 74.43 39.9045 74.43 39.9036C74.43 39.9027 74.43 39.9019 74.43 39.901C74.43 39.9001 74.43 39.8993 74.43 39.8984C74.43 39.8976 74.43 39.8967 74.43 39.8958C74.43 39.895 74.43 39.8941 74.43 39.8932C74.43 39.8924 74.43 39.8915 74.43 39.8906C74.43 39.8898 74.43 39.8889 74.43 39.888C74.43 39.8872 74.43 39.8863 74.43 39.8854C74.43 39.8846 74.43 39.8837 74.43 39.8828C74.43 39.882 74.43 39.8811 74.43 39.8802C74.43 39.8794 74.43 39.8785 74.43 39.8776C74.43 39.8768 74.43 39.8759 74.43 39.875C74.43 39.8742 74.43 39.8733 74.43 39.8724C74.43 39.8716 74.43 39.8707 74.43 39.8698C74.43 39.869 74.43 39.8681 74.43 39.8672C74.43 39.8664 74.43 39.8655 74.43 39.8646C74.43 39.8637 74.43 39.8629 74.43 39.862C74.43 39.8611 74.43 39.8603 74.43 39.8594C74.43 39.8585 74.43 39.8577 74.43 39.8568C74.43 39.8559 74.43 39.8551 74.43 39.8542C74.43 39.8533 74.43 39.8524 74.43 39.8516C74.43 39.8507 74.43 39.8498 74.43 39.849C74.43 39.8481 74.43 39.8472 74.43 39.8463C74.43 39.8455 74.43 39.8446 74.43 39.8437C74.43 39.8429 74.43 39.842 74.43 39.8411C74.43 39.8402 74.43 39.8394 74.43 39.8385C74.43 39.8376 74.43 39.8368 74.43 39.8359C74.43 39.835 74.43 39.8341 74.43 39.8333C74.43 39.8324 74.43 39.8315 74.43 39.8306C74.43 39.8298 74.43 39.8289 74.43 39.828C74.43 39.8272 74.43 39.8263 74.43 39.8254C74.43 39.8245 74.43 39.8237 74.43 39.8228C74.43 39.8219 74.43 39.821 74.43 39.8202C74.43 39.8193 74.43 39.8184 74.43 39.8175C74.43 39.8167 74.43 39.8158 74.43 39.8149C74.43 39.814 74.43 39.8132 74.43 39.8123C74.43 39.8114 74.43 39.8105 74.43 39.8097C74.43 39.8088 74.43 39.8079 74.43 39.807C74.43 39.8062 74.43 39.8053 74.43 39.8044C74.43 39.8035 74.43 39.8027 74.43 39.8018C74.43 39.8009 74.43 39.8 74.43 39.7991C74.43 39.7983 74.43 39.7974 74.43 39.7965C74.43 39.7956 74.43 39.7948 74.43 39.7939C74.43 39.793 74.43 39.7921 74.43 39.7912C74.43 39.7904 74.43 39.7895 74.43 39.7886C74.43 39.7877 74.43 39.7869 74.43 39.786C74.43 39.7851 74.43 39.7842 74.43 39.7833C74.43 39.7825 74.43 39.7816 74.43 39.7807C74.43 39.7798 74.43 39.7789 74.43 39.7781C74.43 39.7772 74.43 39.7763 74.43 39.7754C74.43 39.7745 74.43 39.7737 74.43 39.7728C74.43 39.7719 74.43 39.771 74.43 39.7701C74.43 39.7693 74.43 39.7684 74.43 39.7675C74.43 39.7666 74.43 39.7657 74.43 39.7649C74.43 39.764 74.43 39.7631 74.43 39.7622C74.43 39.7613 74.43 39.7604 74.43 39.7596C74.43 39.7587 74.43 39.7578 74.43 39.7569C74.43 39.756 74.43 39.7551 74.43 39.7543C74.43 39.7534 74.43 39.7525 74.43 39.7516C74.43 39.7507 74.43 39.7498 74.43 39.749C74.43 39.7481 74.43 39.7472 74.43 39.7463C74.43 39.7454 74.43 39.7445 74.43 39.7437C74.43 39.7428 74.43 39.7419 74.43 39.741C74.43 39.7401 74.43 39.7392 74.43 39.7383C74.43 39.7375 74.43 39.7366 74.43 39.7357C74.43 39.7348 74.43 39.7339 74.43 39.733C74.43 39.7321 74.43 39.7313 74.43 39.7304C74.43 39.7295 74.43 39.7286 74.43 39.7277C74.43 39.7268 74.43 39.7259 74.43 39.7251C74.43 39.7242 74.43 39.7233 74.43 39.7224C74.43 39.7215 74.43 39.7206 74.43 39.7197C74.43 39.7188 74.43 39.718 74.43 39.7171C74.43 39.7162 74.43 39.7153 74.43 39.7144C74.43 39.7135 74.43 39.7126 74.43 39.7117C74.43 39.7108 74.43 39.71 74.43 39.7091C74.43 39.7082 74.43 39.7073 74.43 39.7064C74.43 39.7055 74.43 39.7046 74.43 39.7037C74.43 39.7028 74.43 39.7019 74.43 39.7011C74.43 39.7002 74.43 39.6993 74.43 39.6984C74.43 39.6975 74.43 39.6966 74.43 39.6957C74.43 39.6948 74.43 39.6939 74.43 39.693C74.43 39.6921 74.43 39.6912 74.43 39.6904C74.43 39.6895 74.43 39.6886 74.43 39.6877C74.43 39.6868 74.43 39.6859 74.43 39.685C74.43 39.6841 74.43 39.6832 74.43 39.6823C74.43 39.6814 74.43 39.6805 74.43 39.6796C74.43 39.6787 74.43 39.6779 74.43 39.677C74.43 39.6761 74.43 39.6752 74.43 39.6743C74.43 39.6734 74.43 39.6725 74.43 39.6716C74.43 39.6707 74.43 39.6698 74.43 39.6689C74.43 39.668 74.43 39.6671 74.43 39.6662C74.43 39.6653 74.43 39.6644 74.43 39.6635C74.43 39.6626 74.43 39.6617 74.43 39.6608C74.43 39.66 74.43 39.6591 74.43 39.6582C74.43 39.6573 74.43 39.6564 74.43 39.6555C74.43 39.6546 74.43 39.6537 74.43 39.6528C74.43 39.6519 74.43 39.651 74.43 39.6501C74.43 39.6492 74.43 39.6483 74.43 39.6474C74.43 39.6465 74.43 39.6456 74.43 39.6447C74.43 39.6438 74.43 39.6429 74.43 39.642C74.43 39.6411 74.43 39.6402 74.43 39.6393C74.43 39.6384 74.43 39.6375 74.43 39.6366C74.43 39.6357 74.43 39.6348 74.43 39.6339C74.43 39.633 74.43 39.6321 74.43 39.6312C74.43 39.6303 74.43 39.6294 74.43 39.6285C74.43 39.6276 74.43 39.6267 74.43 39.6258C74.43 39.6249 74.43 39.624 74.43 39.6231C74.43 39.6222 74.43 39.6213 74.43 39.6204C74.43 39.6195 74.43 39.6186 74.43 39.6177C74.43 39.6168 74.43 39.6159 74.43 39.615C74.43 39.6141 74.43 39.6131 74.43 39.6122C74.43 39.6113 74.43 39.6104 74.43 39.6095C74.43 39.6086 74.43 39.6077 74.43 39.6068C74.43 39.6059 74.43 39.605 74.43 39.6041C74.43 39.6032 74.43 39.6023 74.43 39.6014C74.43 39.6005 74.43 39.5996 74.43 39.5987C74.43 39.5978 74.43 39.5969 74.43 39.596C74.43 39.595 74.43 39.5941 74.43 39.5932C74.43 39.5923 74.43 39.5914 74.43 39.5905C74.43 39.5896 74.43 39.5887 74.43 39.5878C74.43 39.5869 74.43 39.586 74.43 39.5851C74.43 39.5842 74.43 39.5833 74.43 39.5823C74.43 39.5814 74.43 39.5805 74.43 39.5796C74.43 39.5787 74.43 39.5778 74.43 39.5769C74.43 39.576 74.43 39.5751 74.43 39.5742C74.43 39.5733 74.43 39.5723 74.43 39.5714C74.43 39.5705 74.43 39.5696 74.43 39.5687C74.43 39.5678 74.43 39.5669 74.43 39.566C74.43 39.5651 74.43 39.5641 74.43 39.5632C74.43 39.5623 74.43 39.5614 74.43 39.5605C74.43 39.5596 74.43 39.5587 74.43 39.5578C74.43 39.5569 74.43 39.5559 74.43 39.555C74.43 39.5541 74.43 39.5532 74.43 39.5523C74.43 39.5514 74.43 39.5505 74.43 39.5495C74.43 39.5486 74.43 39.5477 74.43 39.5468C74.43 39.5459 74.43 39.545 74.43 39.5441C74.43 39.5431 74.43 39.5422 74.43 39.5413C74.43 39.5404 74.43 39.5395 74.43 39.5386C74.43 39.5377 74.43 39.5367 74.43 39.5358C74.43 39.5349 74.43 39.534 74.43 39.5331C74.43 39.5322 74.43 39.5312 74.43 39.5303C74.43 39.5294 74.43 39.5285 74.43 39.5276C74.43 39.5267 74.43 39.5257 74.43 39.5248C74.43 39.5239 74.43 39.523 74.43 39.5221C74.43 39.5212 74.43 39.5202 74.43 39.5193C74.43 39.5184 74.43 39.5175 74.43 39.5166C74.43 39.5156 74.43 39.5147 74.43 39.5138C74.43 39.5129 74.43 39.512 74.43 39.511C74.43 39.5101 74.43 39.5092 74.43 39.5083C74.43 39.5074 74.43 39.5064 74.43 39.5055C74.43 39.5046 74.43 39.5037 74.43 39.5028C74.43 39.5018 74.43 39.5009 74.43 39.5C74.43 39.4991 74.43 39.4981 74.43 39.4972C74.43 39.4963 74.43 39.4954 74.43 39.4945C74.43 39.4935 74.43 39.4926 74.43 39.4917C74.43 39.4908 74.43 39.4898 74.43 39.4889C74.43 39.488 74.43 39.4871 74.43 39.4861C74.43 39.4852 74.43 39.4843 74.43 39.4834C74.43 39.4825 74.43 39.4815 74.43 39.4806C74.43 39.4797 74.43 39.4788 74.43 39.4778C74.43 39.4769 74.43 39.476 74.43 39.475C74.43 39.4741 74.43 39.4732 74.43 39.4723C74.43 39.4713 74.43 39.4704 74.43 39.4695C74.43 39.4686 74.43 39.4676 74.43 39.4667C74.43 39.4658 74.43 39.4649 74.43 39.4639C74.43 39.463 74.43 39.4621 74.43 39.4611C74.43 39.4602 74.43 39.4593 74.43 39.4584C74.43 39.4574 74.43 39.4565 74.43 39.4556C74.43 39.4546 74.43 39.4537 74.43 39.4528C74.43 39.4519 74.43 39.4509 74.43 39.45C74.43 39.4491 74.43 39.4481 74.43 39.4472C74.43 39.4463 74.43 39.4453 74.43 39.4444C74.43 39.4435 74.43 39.4425 74.43 39.4416C74.43 39.4407 74.43 39.4398 74.43 39.4388C74.43 39.4379 74.43 39.437 74.43 39.436C74.43 39.4351 74.43 39.4342 74.43 39.4332C74.43 39.4323 74.43 39.4314 74.43 39.4304C74.43 39.4295 74.43 39.4286 74.43 39.4276C74.43 39.4267 74.43 39.4258 74.43 39.4248C74.43 39.4239 74.43 39.4229 74.43 39.422C74.43 39.4211 74.43 39.4201 74.43 39.4192C74.43 39.4183 74.43 39.4173 74.43 39.4164C74.43 39.4155 74.43 39.4145 74.43 39.4136C74.43 39.4127 74.43 39.4117 74.43 39.4108C74.43 39.4098 74.43 39.4089 74.43 39.408C74.43 39.407 74.43 39.4061 74.43 39.4052C74.43 39.4042 74.43 39.4033 74.43 39.4023C74.43 39.4014 74.43 39.4005 74.43 39.3995C74.43 39.3986 74.43 39.3976 74.43 39.3967C74.43 39.3958 74.43 39.3948 74.43 39.3939C74.43 39.3929 74.43 39.392 74.43 39.3911C74.43 39.3901 74.43 39.3892 74.43 39.3882C74.43 39.3873 74.43 39.3864 74.43 39.3854C74.43 39.3845 74.43 39.3835 74.43 39.3826C74.43 39.3817 74.43 39.3807 74.43 39.3798C74.43 39.3788 74.43 39.3779 74.43 39.3769C74.43 39.376 74.43 39.3751 74.43 39.3741C74.43 39.3732 74.43 39.3722 74.43 39.3713C74.43 39.3703 74.43 39.3694 74.43 39.3684C74.43 39.3675 74.43 39.3666 74.43 39.3656C74.43 39.3647 74.43 39.3637 74.43 39.3628C74.43 39.3618 74.43 39.3609 74.43 39.3599C74.43 39.359 74.43 39.358 74.43 39.3571C74.43 39.3562 74.43 39.3552 74.43 39.3543C74.43 39.3533 74.43 39.3524 74.43 39.3514C74.43 39.3505 74.43 39.3495 74.43 39.3486C74.43 39.3476 74.43 39.3467 74.43 39.3457C74.43 39.3448 74.43 39.3438 74.43 39.3429C74.43 39.3419 74.43 39.341 74.43 39.34C74.43 39.3391 74.43 39.3381 74.43 39.3372C74.43 39.3362 74.43 39.3353 74.43 39.3343C74.43 39.3334 74.43 39.3324 74.43 39.3315C74.43 39.3305 74.43 39.3296 74.43 39.3286C74.43 39.3277 74.43 39.3267 74.43 39.3258C74.43 39.3248 74.43 39.3239 74.43 39.3229C74.43 39.322 74.43 39.321 74.43 39.3201C74.43 39.3191 74.43 39.3181 74.43 39.3172C74.43 39.3162 74.43 39.3153 74.43 39.3143C74.43 39.3134 74.43 39.3124 74.43 39.3115C74.43 39.3105 74.43 39.3096 74.43 39.3086C74.43 39.3076 74.43 39.3067 74.43 39.3057C74.43 39.3048 74.43 39.3038 74.43 39.3029C74.43 39.3019 74.43 39.301 74.43 39.3H73.43H72.43C72.43 39.301 72.43 39.3019 72.43 39.3029C72.43 39.3038 72.43 39.3048 72.43 39.3057C72.43 39.3067 72.43 39.3076 72.43 39.3086C72.43 39.3096 72.43 39.3105 72.43 39.3115C72.43 39.3124 72.43 39.3134 72.43 39.3143C72.43 39.3153 72.43 39.3162 72.43 39.3172C72.43 39.3181 72.43 39.3191 72.43 39.3201C72.43 39.321 72.43 39.322 72.43 39.3229C72.43 39.3239 72.43 39.3248 72.43 39.3258C72.43 39.3267 72.43 39.3277 72.43 39.3286C72.43 39.3296 72.43 39.3305 72.43 39.3315C72.43 39.3324 72.43 39.3334 72.43 39.3343C72.43 39.3353 72.43 39.3362 72.43 39.3372C72.43 39.3381 72.43 39.3391 72.43 39.34C72.43 39.341 72.43 39.3419 72.43 39.3429C72.43 39.3438 72.43 39.3448 72.43 39.3457C72.43 39.3467 72.43 39.3476 72.43 39.3486C72.43 39.3495 72.43 39.3505 72.43 39.3514C72.43 39.3524 72.43 39.3533 72.43 39.3543C72.43 39.3552 72.43 39.3562 72.43 39.3571C72.43 39.358 72.43 39.359 72.43 39.3599C72.43 39.3609 72.43 39.3618 72.43 39.3628C72.43 39.3637 72.43 39.3647 72.43 39.3656C72.43 39.3666 72.43 39.3675 72.43 39.3684C72.43 39.3694 72.43 39.3703 72.43 39.3713C72.43 39.3722 72.43 39.3732 72.43 39.3741C72.43 39.3751 72.43 39.376 72.43 39.3769C72.43 39.3779 72.43 39.3788 72.43 39.3798C72.43 39.3807 72.43 39.3817 72.43 39.3826C72.43 39.3835 72.43 39.3845 72.43 39.3854C72.43 39.3864 72.43 39.3873 72.43 39.3882C72.43 39.3892 72.43 39.3901 72.43 39.3911C72.43 39.392 72.43 39.3929 72.43 39.3939C72.43 39.3948 72.43 39.3958 72.43 39.3967C72.43 39.3976 72.43 39.3986 72.43 39.3995C72.43 39.4005 72.43 39.4014 72.43 39.4023C72.43 39.4033 72.43 39.4042 72.43 39.4052C72.43 39.4061 72.43 39.407 72.43 39.408C72.43 39.4089 72.43 39.4098 72.43 39.4108C72.43 39.4117 72.43 39.4127 72.43 39.4136C72.43 39.4145 72.43 39.4155 72.43 39.4164C72.43 39.4173 72.43 39.4183 72.43 39.4192C72.43 39.4201 72.43 39.4211 72.43 39.422C72.43 39.4229 72.43 39.4239 72.43 39.4248C72.43 39.4258 72.43 39.4267 72.43 39.4276C72.43 39.4286 72.43 39.4295 72.43 39.4304C72.43 39.4314 72.43 39.4323 72.43 39.4332C72.43 39.4342 72.43 39.4351 72.43 39.436C72.43 39.437 72.43 39.4379 72.43 39.4388C72.43 39.4398 72.43 39.4407 72.43 39.4416C72.43 39.4425 72.43 39.4435 72.43 39.4444C72.43 39.4453 72.43 39.4463 72.43 39.4472C72.43 39.4481 72.43 39.4491 72.43 39.45C72.43 39.4509 72.43 39.4519 72.43 39.4528C72.43 39.4537 72.43 39.4546 72.43 39.4556C72.43 39.4565 72.43 39.4574 72.43 39.4584C72.43 39.4593 72.43 39.4602 72.43 39.4611C72.43 39.4621 72.43 39.463 72.43 39.4639C72.43 39.4649 72.43 39.4658 72.43 39.4667C72.43 39.4676 72.43 39.4686 72.43 39.4695C72.43 39.4704 72.43 39.4713 72.43 39.4723C72.43 39.4732 72.43 39.4741 72.43 39.475C72.43 39.476 72.43 39.4769 72.43 39.4778C72.43 39.4788 72.43 39.4797 72.43 39.4806C72.43 39.4815 72.43 39.4825 72.43 39.4834C72.43 39.4843 72.43 39.4852 72.43 39.4861C72.43 39.4871 72.43 39.488 72.43 39.4889C72.43 39.4898 72.43 39.4908 72.43 39.4917C72.43 39.4926 72.43 39.4935 72.43 39.4945C72.43 39.4954 72.43 39.4963 72.43 39.4972C72.43 39.4981 72.43 39.4991 72.43 39.5C72.43 39.5009 72.43 39.5018 72.43 39.5028C72.43 39.5037 72.43 39.5046 72.43 39.5055C72.43 39.5064 72.43 39.5074 72.43 39.5083C72.43 39.5092 72.43 39.5101 72.43 39.511C72.43 39.512 72.43 39.5129 72.43 39.5138C72.43 39.5147 72.43 39.5156 72.43 39.5166C72.43 39.5175 72.43 39.5184 72.43 39.5193C72.43 39.5202 72.43 39.5212 72.43 39.5221C72.43 39.523 72.43 39.5239 72.43 39.5248C72.43 39.5257 72.43 39.5267 72.43 39.5276C72.43 39.5285 72.43 39.5294 72.43 39.5303C72.43 39.5312 72.43 39.5322 72.43 39.5331C72.43 39.534 72.43 39.5349 72.43 39.5358C72.43 39.5367 72.43 39.5377 72.43 39.5386C72.43 39.5395 72.43 39.5404 72.43 39.5413C72.43 39.5422 72.43 39.5431 72.43 39.5441C72.43 39.545 72.43 39.5459 72.43 39.5468C72.43 39.5477 72.43 39.5486 72.43 39.5495C72.43 39.5505 72.43 39.5514 72.43 39.5523C72.43 39.5532 72.43 39.5541 72.43 39.555C72.43 39.5559 72.43 39.5569 72.43 39.5578C72.43 39.5587 72.43 39.5596 72.43 39.5605C72.43 39.5614 72.43 39.5623 72.43 39.5632C72.43 39.5641 72.43 39.5651 72.43 39.566C72.43 39.5669 72.43 39.5678 72.43 39.5687C72.43 39.5696 72.43 39.5705 72.43 39.5714C72.43 39.5723 72.43 39.5733 72.43 39.5742C72.43 39.5751 72.43 39.576 72.43 39.5769C72.43 39.5778 72.43 39.5787 72.43 39.5796C72.43 39.5805 72.43 39.5814 72.43 39.5823C72.43 39.5833 72.43 39.5842 72.43 39.5851C72.43 39.586 72.43 39.5869 72.43 39.5878C72.43 39.5887 72.43 39.5896 72.43 39.5905C72.43 39.5914 72.43 39.5923 72.43 39.5932C72.43 39.5941 72.43 39.595 72.43 39.596C72.43 39.5969 72.43 39.5978 72.43 39.5987C72.43 39.5996 72.43 39.6005 72.43 39.6014C72.43 39.6023 72.43 39.6032 72.43 39.6041C72.43 39.605 72.43 39.6059 72.43 39.6068C72.43 39.6077 72.43 39.6086 72.43 39.6095C72.43 39.6104 72.43 39.6113 72.43 39.6122C72.43 39.6131 72.43 39.6141 72.43 39.615C72.43 39.6159 72.43 39.6168 72.43 39.6177C72.43 39.6186 72.43 39.6195 72.43 39.6204C72.43 39.6213 72.43 39.6222 72.43 39.6231C72.43 39.624 72.43 39.6249 72.43 39.6258C72.43 39.6267 72.43 39.6276 72.43 39.6285C72.43 39.6294 72.43 39.6303 72.43 39.6312C72.43 39.6321 72.43 39.633 72.43 39.6339C72.43 39.6348 72.43 39.6357 72.43 39.6366C72.43 39.6375 72.43 39.6384 72.43 39.6393C72.43 39.6402 72.43 39.6411 72.43 39.642C72.43 39.6429 72.43 39.6438 72.43 39.6447C72.43 39.6456 72.43 39.6465 72.43 39.6474C72.43 39.6483 72.43 39.6492 72.43 39.6501C72.43 39.651 72.43 39.6519 72.43 39.6528C72.43 39.6537 72.43 39.6546 72.43 39.6555C72.43 39.6564 72.43 39.6573 72.43 39.6582C72.43 39.6591 72.43 39.66 72.43 39.6608C72.43 39.6617 72.43 39.6626 72.43 39.6635C72.43 39.6644 72.43 39.6653 72.43 39.6662C72.43 39.6671 72.43 39.668 72.43 39.6689C72.43 39.6698 72.43 39.6707 72.43 39.6716C72.43 39.6725 72.43 39.6734 72.43 39.6743C72.43 39.6752 72.43 39.6761 72.43 39.677C72.43 39.6779 72.43 39.6787 72.43 39.6796C72.43 39.6805 72.43 39.6814 72.43 39.6823C72.43 39.6832 72.43 39.6841 72.43 39.685C72.43 39.6859 72.43 39.6868 72.43 39.6877C72.43 39.6886 72.43 39.6895 72.43 39.6904C72.43 39.6912 72.43 39.6921 72.43 39.693C72.43 39.6939 72.43 39.6948 72.43 39.6957C72.43 39.6966 72.43 39.6975 72.43 39.6984C72.43 39.6993 72.43 39.7002 72.43 39.7011C72.43 39.7019 72.43 39.7028 72.43 39.7037C72.43 39.7046 72.43 39.7055 72.43 39.7064C72.43 39.7073 72.43 39.7082 72.43 39.7091C72.43 39.71 72.43 39.7108 72.43 39.7117C72.43 39.7126 72.43 39.7135 72.43 39.7144C72.43 39.7153 72.43 39.7162 72.43 39.7171C72.43 39.718 72.43 39.7188 72.43 39.7197C72.43 39.7206 72.43 39.7215 72.43 39.7224C72.43 39.7233 72.43 39.7242 72.43 39.7251C72.43 39.7259 72.43 39.7268 72.43 39.7277C72.43 39.7286 72.43 39.7295 72.43 39.7304C72.43 39.7313 72.43 39.7321 72.43 39.733C72.43 39.7339 72.43 39.7348 72.43 39.7357C72.43 39.7366 72.43 39.7375 72.43 39.7383C72.43 39.7392 72.43 39.7401 72.43 39.741C72.43 39.7419 72.43 39.7428 72.43 39.7437C72.43 39.7445 72.43 39.7454 72.43 39.7463C72.43 39.7472 72.43 39.7481 72.43 39.749C72.43 39.7498 72.43 39.7507 72.43 39.7516C72.43 39.7525 72.43 39.7534 72.43 39.7543C72.43 39.7551 72.43 39.756 72.43 39.7569C72.43 39.7578 72.43 39.7587 72.43 39.7596C72.43 39.7604 72.43 39.7613 72.43 39.7622C72.43 39.7631 72.43 39.764 72.43 39.7649C72.43 39.7657 72.43 39.7666 72.43 39.7675C72.43 39.7684 72.43 39.7693 72.43 39.7701C72.43 39.771 72.43 39.7719 72.43 39.7728C72.43 39.7737 72.43 39.7745 72.43 39.7754C72.43 39.7763 72.43 39.7772 72.43 39.7781C72.43 39.7789 72.43 39.7798 72.43 39.7807C72.43 39.7816 72.43 39.7825 72.43 39.7833C72.43 39.7842 72.43 39.7851 72.43 39.786C72.43 39.7869 72.43 39.7877 72.43 39.7886C72.43 39.7895 72.43 39.7904 72.43 39.7912C72.43 39.7921 72.43 39.793 72.43 39.7939C72.43 39.7948 72.43 39.7956 72.43 39.7965C72.43 39.7974 72.43 39.7983 72.43 39.7991C72.43 39.8 72.43 39.8009 72.43 39.8018C72.43 39.8027 72.43 39.8035 72.43 39.8044C72.43 39.8053 72.43 39.8062 72.43 39.807C72.43 39.8079 72.43 39.8088 72.43 39.8097C72.43 39.8105 72.43 39.8114 72.43 39.8123C72.43 39.8132 72.43 39.814 72.43 39.8149C72.43 39.8158 72.43 39.8167 72.43 39.8175C72.43 39.8184 72.43 39.8193 72.43 39.8202C72.43 39.821 72.43 39.8219 72.43 39.8228C72.43 39.8237 72.43 39.8245 72.43 39.8254C72.43 39.8263 72.43 39.8272 72.43 39.828C72.43 39.8289 72.43 39.8298 72.43 39.8306C72.43 39.8315 72.43 39.8324 72.43 39.8333C72.43 39.8341 72.43 39.835 72.43 39.8359C72.43 39.8368 72.43 39.8376 72.43 39.8385C72.43 39.8394 72.43 39.8402 72.43 39.8411C72.43 39.842 72.43 39.8429 72.43 39.8437C72.43 39.8446 72.43 39.8455 72.43 39.8463C72.43 39.8472 72.43 39.8481 72.43 39.849C72.43 39.8498 72.43 39.8507 72.43 39.8516C72.43 39.8524 72.43 39.8533 72.43 39.8542C72.43 39.8551 72.43 39.8559 72.43 39.8568C72.43 39.8577 72.43 39.8585 72.43 39.8594C72.43 39.8603 72.43 39.8611 72.43 39.862C72.43 39.8629 72.43 39.8637 72.43 39.8646C72.43 39.8655 72.43 39.8664 72.43 39.8672C72.43 39.8681 72.43 39.869 72.43 39.8698C72.43 39.8707 72.43 39.8716 72.43 39.8724C72.43 39.8733 72.43 39.8742 72.43 39.875C72.43 39.8759 72.43 39.8768 72.43 39.8776C72.43 39.8785 72.43 39.8794 72.43 39.8802C72.43 39.8811 72.43 39.882 72.43 39.8828C72.43 39.8837 72.43 39.8846 72.43 39.8854C72.43 39.8863 72.43 39.8872 72.43 39.888C72.43 39.8889 72.43 39.8898 72.43 39.8906C72.43 39.8915 72.43 39.8924 72.43 39.8932C72.43 39.8941 72.43 39.895 72.43 39.8958C72.43 39.8967 72.43 39.8976 72.43 39.8984C72.43 39.8993 72.43 39.9001 72.43 39.901C72.43 39.9019 72.43 39.9027 72.43 39.9036C72.43 39.9045 72.43 39.9053 72.43 39.9062C72.43 39.9071 72.43 39.9079 72.43 39.9088C72.43 39.9097 72.43 39.9105 72.43 39.9114C72.43 39.9122 72.43 39.9131 72.43 39.914C72.43 39.9148 72.43 39.9157 72.43 39.9166C72.43 39.9174 72.43 39.9183 72.43 39.9191C72.43 39.92 72.43 39.9209 72.43 39.9217C72.43 39.9226 72.43 39.9235 72.43 39.9243C72.43 39.9252 72.43 39.926 72.43 39.9269C72.43 39.9278 72.43 39.9286 72.43 39.9295C72.43 39.9303 72.43 39.9312 72.43 39.9321C72.43 39.9329 72.43 39.9338 72.43 39.9347C72.43 39.9355 72.43 39.9364 72.43 39.9372C72.43 39.9381 72.43 39.939 72.43 39.9398C72.43 39.9407 72.43 39.9415 72.43 39.9424C72.43 39.9433 72.43 39.9441 72.43 39.945C72.43 39.9458 72.43 39.9467 72.43 39.9476C72.43 39.9484 72.43 39.9493 72.43 39.9501C72.43 39.951 72.43 39.9518 72.43 39.9527C72.43 39.9536 72.43 39.9544 72.43 39.9553C72.43 39.9561 72.43 39.957 72.43 39.9579C72.43 39.9587 72.43 39.9596 72.43 39.9604C72.43 39.9613 72.43 39.9621 72.43 39.963C72.43 39.9639 72.43 39.9647 72.43 39.9656C72.43 39.9664 72.43 39.9673 72.43 39.9681C72.43 39.969 72.43 39.9699 72.43 39.9707C72.43 39.9716 72.43 39.9724 72.43 39.9733C72.43 39.9741 72.43 39.975 72.43 39.9759C72.43 39.9767 72.43 39.9776 72.43 39.9784C72.43 39.9793 72.43 39.9801 72.43 39.981C72.43 39.9818 72.43 39.9827 72.43 39.9836C72.43 39.9844 72.43 39.9853 72.43 39.9861C72.43 39.987 72.43 39.9878 72.43 39.9887C72.43 39.9895 72.43 39.9904 72.43 39.9912C72.43 39.9921 72.43 39.993 72.43 39.9938C72.43 39.9947 72.43 39.9955 72.43 39.9964C72.43 39.9972 72.43 39.9981 72.43 39.9989C72.43 39.9998 72.43 40.0006 72.43 40.0015C72.43 40.0023 72.43 40.0032 72.43 40.0041C72.43 40.0049 72.43 40.0058 72.43 40.0066C72.43 40.0075 72.43 40.0083 72.43 40.0092C72.43 40.01 72.43 40.0109 72.43 40.0117C72.43 40.0126 72.43 40.0134 72.43 40.0143C72.43 40.0151 72.43 40.016 72.43 40.0168C72.43 40.0177 72.43 40.0185 72.43 40.0194C72.43 40.0203 72.43 40.0211 72.43 40.022C72.43 40.0228 72.43 40.0237 72.43 40.0245C72.43 40.0254 72.43 40.0262 72.43 40.0271C72.43 40.0279 72.43 40.0288 72.43 40.0296C72.43 40.0305 72.43 40.0313 72.43 40.0322C72.43 40.033 72.43 40.0339 72.43 40.0347C72.43 40.0356 72.43 40.0364 72.43 40.0373C72.43 40.0381 72.43 40.039 72.43 40.0398C72.43 40.0407 72.43 40.0415 72.43 40.0424C72.43 40.0432 72.43 40.0441 72.43 40.0449C72.43 40.0458 72.43 40.0466 72.43 40.0475C72.43 40.0483 72.43 40.0492 72.43 40.05C72.43 40.0509 72.43 40.0517 72.43 40.0525C72.43 40.0534 72.43 40.0542 72.43 40.0551C72.43 40.0559 72.43 40.0568 72.43 40.0576C72.43 40.0585 72.43 40.0593 72.43 40.0602C72.43 40.061 72.43 40.0619 72.43 40.0627C72.43 40.0636 72.43 40.0644 72.43 40.0653C72.43 40.0661 72.43 40.067 72.43 40.0678C72.43 40.0687 72.43 40.0695 72.43 40.0703C72.43 40.0712 72.43 40.072 72.43 40.0729C72.43 40.0737 72.43 40.0746 72.43 40.0754C72.43 40.0763 72.43 40.0771 72.43 40.078C72.43 40.0788 72.43 40.0797 72.43 40.0805C72.43 40.0813 72.43 40.0822 72.43 40.083C72.43 40.0839 72.43 40.0847 72.43 40.0856C72.43 40.0864 72.43 40.0873 72.43 40.0881C72.43 40.089 72.43 40.0898 72.43 40.0906C72.43 40.0915 72.43 40.0923 72.43 40.0932C72.43 40.094 72.43 40.0949 72.43 40.0957C72.43 40.0966 72.43 40.0974 72.43 40.0982C72.43 40.0991 72.43 40.0999 72.43 40.1008C72.43 40.1016 72.43 40.1025 72.43 40.1033C72.43 40.1042 72.43 40.105 72.43 40.1058C72.43 40.1067 72.43 40.1075 72.43 40.1084C72.43 40.1092 72.43 40.1101 72.43 40.1109C72.43 40.1117 72.43 40.1126 72.43 40.1134C72.43 40.1143 72.43 40.1151 72.43 40.116C72.43 40.1168 72.43 40.1176 72.43 40.1185C72.43 40.1193 72.43 40.1202 72.43 40.121C72.43 40.1219 72.43 40.1227 72.43 40.1235C72.43 40.1244 72.43 40.1252 72.43 40.1261C72.43 40.1269 72.43 40.1277 72.43 40.1286C72.43 40.1294 72.43 40.1303 72.43 40.1311C72.43 40.132 72.43 40.1328 72.43 40.1336C72.43 40.1345 72.43 40.1353 72.43 40.1362C72.43 40.137 72.43 40.1378 72.43 40.1387C72.43 40.1395 72.43 40.1404 72.43 40.1412C72.43 40.142 72.43 40.1429 72.43 40.1437C72.43 40.1446 72.43 40.1454 72.43 40.1462C72.43 40.1471 72.43 40.1479 72.43 40.1488C72.43 40.1496 72.43 40.1504 72.43 40.1513C72.43 40.1521 72.43 40.153 72.43 40.1538C72.43 40.1546 72.43 40.1555 72.43 40.1563C72.43 40.1572 72.43 40.158 72.43 40.1588C72.43 40.1597 72.43 40.1605 72.43 40.1614C72.43 40.1622 72.43 40.163 72.43 40.1639C72.43 40.1647 72.43 40.1656 72.43 40.1664C72.43 40.1672 72.43 40.1681 72.43 40.1689C72.43 40.1697 72.43 40.1706 72.43 40.1714C72.43 40.1723 72.43 40.1731 72.43 40.1739C72.43 40.1748 72.43 40.1756 72.43 40.1765C72.43 40.1773 72.43 40.1781 72.43 40.179C72.43 40.1798 72.43 40.1806 72.43 40.1815C72.43 40.1823 72.43 40.1832 72.43 40.184C72.43 40.1848 72.43 40.1857 72.43 40.1865C72.43 40.1873 72.43 40.1882 72.43 40.189C72.43 40.1898 72.43 40.1907 72.43 40.1915C72.43 40.1924 72.43 40.1932 72.43 40.194C72.43 40.1949 72.43 40.1957 72.43 40.1965C72.43 40.1974 72.43 40.1982 72.43 40.199C72.43 40.1999 72.43 40.2007 72.43 40.2016C72.43 40.2024 72.43 40.2032 72.43 40.2041C72.43 40.2049 72.43 40.2057 72.43 40.2066C72.43 40.2074 72.43 40.2082 72.43 40.2091C72.43 40.2099 72.43 40.2107 72.43 40.2116C72.43 40.2124 72.43 40.2133 72.43 40.2141C72.43 40.2149 72.43 40.2158 72.43 40.2166C72.43 40.2174 72.43 40.2183 72.43 40.2191C72.43 40.2199 72.43 40.2208 72.43 40.2216C72.43 40.2224 72.43 40.2233 72.43 40.2241C72.43 40.2249 72.43 40.2258 72.43 40.2266C72.43 40.2274 72.43 40.2283 72.43 40.2291C72.43 40.2299 72.43 40.2308 72.43 40.2316C72.43 40.2324 72.43 40.2333 72.43 40.2341C72.43 40.2349 72.43 40.2358 72.43 40.2366C72.43 40.2374 72.43 40.2383 72.43 40.2391C72.43 40.2399 72.43 40.2408 72.43 40.2416C72.43 40.2424 72.43 40.2433 72.43 40.2441C72.43 40.2449 72.43 40.2458 72.43 40.2466C72.43 40.2474 72.43 40.2483 72.43 40.2491C72.43 40.2499 72.43 40.2508 72.43 40.2516C72.43 40.2524 72.43 40.2533 72.43 40.2541C72.43 40.2549 72.43 40.2558 72.43 40.2566C72.43 40.2574 72.43 40.2583 72.43 40.2591C72.43 40.2599 72.43 40.2608 72.43 40.2616C72.43 40.2624 72.43 40.2633 72.43 40.2641C72.43 40.2649 72.43 40.2658 72.43 40.2666C72.43 40.2674 72.43 40.2682 72.43 40.2691C72.43 40.2699 72.43 40.2707 72.43 40.2716C72.43 40.2724 72.43 40.2732 72.43 40.2741C72.43 40.2749 72.43 40.2757 72.43 40.2766C72.43 40.2774 72.43 40.2782 72.43 40.2791C72.43 40.2799 72.43 40.2807 72.43 40.2815C72.43 40.2824 72.43 40.2832 72.43 40.284C72.43 40.2849 72.43 40.2857 72.43 40.2865C72.43 40.2874 72.43 40.2882 72.43 40.289C72.43 40.2898 72.43 40.2907 72.43 40.2915C72.43 40.2923 72.43 40.2932 72.43 40.294C72.43 40.2948 72.43 40.2957 72.43 40.2965C72.43 40.2973 72.43 40.2981 72.43 40.299C72.43 40.2998 72.43 40.3006 72.43 40.3015C72.43 40.3023 72.43 40.3031 72.43 40.304C72.43 40.3048 72.43 40.3056 72.43 40.3064C72.43 40.3073 72.43 40.3081 72.43 40.3089C72.43 40.3098 72.43 40.3106 72.43 40.3114C72.43 40.3122 72.43 40.3131 72.43 40.3139C72.43 40.3147 72.43 40.3156 72.43 40.3164C72.43 40.3172 72.43 40.318 72.43 40.3189C72.43 40.3197 72.43 40.3205 72.43 40.3214C72.43 40.3222 72.43 40.323 72.43 40.3238C72.43 40.3247 72.43 40.3255 72.43 40.3263C72.43 40.3272 72.43 40.328 72.43 40.3288C72.43 40.3296 72.43 40.3305 72.43 40.3313C72.43 40.3321 72.43 40.333 72.43 40.3338C72.43 40.3346 72.43 40.3354 72.43 40.3363C72.43 40.3371 72.43 40.3379 72.43 40.3388C72.43 40.3396 72.43 40.3404 72.43 40.3412C72.43 40.3421 72.43 40.3429 72.43 40.3437C72.43 40.3445 72.43 40.3454 72.43 40.3462C72.43 40.347 72.43 40.3479 72.43 40.3487C72.43 40.3495 72.43 40.3503 72.43 40.3512C72.43 40.352 72.43 40.3528 72.43 40.3536C72.43 40.3545 72.43 40.3553 72.43 40.3561C72.43 40.3569 72.43 40.3578 72.43 40.3586C72.43 40.3594 72.43 40.3603 72.43 40.3611C72.43 40.3619 72.43 40.3627 72.43 40.3636C72.43 40.3644 72.43 40.3652 72.43 40.366C72.43 40.3669 72.43 40.3677 72.43 40.3685C72.43 40.3693 72.43 40.3702 72.43 40.371C72.43 40.3718 72.43 40.3726 72.43 40.3735C72.43 40.3743 72.43 40.3751 72.43 40.376C72.43 40.3768 72.43 40.3776 72.43 40.3784C72.43 40.3793 72.43 40.3801 72.43 40.3809C72.43 40.3817 72.43 40.3826 72.43 40.3834C72.43 40.3842 72.43 40.385 72.43 40.3859C72.43 40.3867 72.43 40.3875 72.43 40.3883C72.43 40.3892 72.43 40.39 72.43 40.3908C72.43 40.3916 72.43 40.3925 72.43 40.3933C72.43 40.3941 72.43 40.3949 72.43 40.3958C72.43 40.3966 72.43 40.3974 72.43 40.3982C72.43 40.3991 72.43 40.3999 72.43 40.4007C72.43 40.4015 72.43 40.4024 72.43 40.4032C72.43 40.404 72.43 40.4048 72.43 40.4057C72.43 40.4065 72.43 40.4073 72.43 40.4081C72.43 40.409 72.43 40.4098 72.43 40.4106C72.43 40.4114 72.43 40.4123 72.43 40.4131C72.43 40.4139 72.43 40.4147 72.43 40.4156C72.43 40.4164 72.43 40.4172 72.43 40.418C72.43 40.4189 72.43 40.4197 72.43 40.4205C72.43 40.4213 72.43 40.4221 72.43 40.423C72.43 40.4238 72.43 40.4246 72.43 40.4254C72.43 40.4263 72.43 40.4271 72.43 40.4279C72.43 40.4287 72.43 40.4296 72.43 40.4304C72.43 40.4312 72.43 40.432 72.43 40.4329C72.43 40.4337 72.43 40.4345 72.43 40.4353C72.43 40.4362 72.43 40.437 72.43 40.4378C72.43 40.4386 72.43 40.4394 72.43 40.4403C72.43 40.4411 72.43 40.4419 72.43 40.4427C72.43 40.4436 72.43 40.4444 72.43 40.4452C72.43 40.446 72.43 40.4469 72.43 40.4477C72.43 40.4485 72.43 40.4493 72.43 40.4501C72.43 40.451 72.43 40.4518 72.43 40.4526C72.43 40.4534 72.43 40.4543 72.43 40.4551C72.43 40.4559 72.43 40.4567 72.43 40.4576C72.43 40.4584 72.43 40.4592 72.43 40.46C72.43 40.4608 72.43 40.4617 72.43 40.4625C72.43 40.4633 72.43 40.4641 72.43 40.465C72.43 40.4658 72.43 40.4666 72.43 40.4674C72.43 40.4682 72.43 40.4691 72.43 40.4699C72.43 40.4707 72.43 40.4715 72.43 40.4724C72.43 40.4732 72.43 40.474 72.43 40.4748C72.43 40.4757 72.43 40.4765 72.43 40.4773C72.43 40.4781 72.43 40.4789 72.43 40.4798C72.43 40.4806 72.43 40.4814 72.43 40.4822C72.43 40.4831 72.43 40.4839 72.43 40.4847C72.43 40.4855 72.43 40.4863 72.43 40.4872C72.43 40.488 72.43 40.4888 72.43 40.4896C72.43 40.4905 72.43 40.4913 72.43 40.4921C72.43 40.4929 72.43 40.4937 72.43 40.4946C72.43 40.4954 72.43 40.4962 72.43 40.497C72.43 40.4978 72.43 40.4987 72.43 40.4995C72.43 40.5003 72.43 40.5011 72.43 40.502C72.43 40.5028 72.43 40.5036 72.43 40.5044C72.43 40.5052 72.43 40.5061 72.43 40.5069C72.43 40.5077 72.43 40.5085 72.43 40.5094C72.43 40.5102 72.43 40.511 72.43 40.5118C72.43 40.5126 72.43 40.5135 72.43 40.5143C72.43 40.5151 72.43 40.5159 72.43 40.5167C72.43 40.5176 72.43 40.5184 72.43 40.5192C72.43 40.52 72.43 40.5209 72.43 40.5217C72.43 40.5225 72.43 40.5233 72.43 40.5241C72.43 40.525 72.43 40.5258 72.43 40.5266C72.43 40.5274 72.43 40.5282 72.43 40.5291C72.43 40.5299 72.43 40.5307 72.43 40.5315C72.43 40.5323 72.43 40.5332 72.43 40.534C72.43 40.5348 72.43 40.5356 72.43 40.5365C72.43 40.5373 72.43 40.5381 72.43 40.5389C72.43 40.5397 72.43 40.5406 72.43 40.5414C72.43 40.5422 72.43 40.543 72.43 40.5438C72.43 40.5447 72.43 40.5455 72.43 40.5463C72.43 40.5471 72.43 40.5479 72.43 40.5488C72.43 40.5496 72.43 40.5504 72.43 40.5512C72.43 40.5521 72.43 40.5529 72.43 40.5537C72.43 40.5545 72.43 40.5553 72.43 40.5562C72.43 40.557 72.43 40.5578 72.43 40.5586C72.43 40.5594 72.43 40.5603 72.43 40.5611C72.43 40.5619 72.43 40.5627 72.43 40.5635C72.43 40.5644 72.43 40.5652 72.43 40.566C72.43 40.5668 72.43 40.5676 72.43 40.5685C72.43 40.5693 72.43 40.5701 72.43 40.5709C72.43 40.5717 72.43 40.5726 72.43 40.5734C72.43 40.5742 72.43 40.575 72.43 40.5759C72.43 40.5767 72.43 40.5775 72.43 40.5783C72.43 40.5791 72.43 40.58 72.43 40.5808C72.43 40.5816 72.43 40.5824 72.43 40.5832C72.43 40.5841 72.43 40.5849 72.43 40.5857C72.43 40.5865 72.43 40.5873 72.43 40.5882C72.43 40.589 72.43 40.5898 72.43 40.5906C72.43 40.5914 72.43 40.5923 72.43 40.5931C72.43 40.5939 72.43 40.5947 72.43 40.5955C72.43 40.5964 72.43 40.5972 72.43 40.598C72.43 40.5988 72.43 40.5996 72.43 40.6005C72.43 40.6013 72.43 40.6021 72.43 40.6029C72.43 40.6037 72.43 40.6046 72.43 40.6054C72.43 40.6062 72.43 40.607 72.43 40.6078C72.43 40.6087 72.43 40.6095 72.43 40.6103C72.43 40.6111 72.43 40.612 72.43 40.6128C72.43 40.6136 72.43 40.6144 72.43 40.6152C72.43 40.6161 72.43 40.6169 72.43 40.6177C72.43 40.6185 72.43 40.6193 72.43 40.6202C72.43 40.621 72.43 40.6218 72.43 40.6226C72.43 40.6234 72.43 40.6243 72.43 40.6251C72.43 40.6259 72.43 40.6267 72.43 40.6275C72.43 40.6284 72.43 40.6292 72.43 40.63H73.43ZM73.43 39.3H74.43C74.43 38.7166 74.3455 38.2205 74.2764 37.8056L73.29 37.97L72.3036 38.1344C72.3745 38.5595 72.43 38.9034 72.43 39.3H73.43ZM73.29 37.97L74.2764 37.8056C74.1854 37.2598 74.0046 36.8131 73.8344 36.4728L72.94 36.92L72.0456 37.3672C72.1554 37.5869 72.2546 37.8402 72.3036 38.1344L73.29 37.97ZM72.94 36.92L73.8344 36.4728C73.7051 36.2142 73.5129 35.9601 73.2322 35.7729C72.9452 35.5816 72.625 35.5 72.31 35.5V36.5V37.5C72.275 37.5 72.1998 37.4884 72.1228 37.4371C72.0521 37.3899 72.0349 37.3458 72.0456 37.3672L72.94 36.92ZM72.31 36.5V35.5C71.6065 35.5 70.9477 35.7924 70.3543 36.2269C69.7593 36.6625 69.1678 37.2854 68.5746 38.064L69.37 38.67L70.1654 39.276C70.6922 38.5846 71.1507 38.1225 71.5357 37.8406C71.9223 37.5576 72.1735 37.5 72.31 37.5V36.5ZM69.37 38.67L68.5746 38.064C67.3885 39.6207 66.2988 41.5923 65.2953 44.0292L66.22 44.41L67.1447 44.7907C68.1012 42.4677 69.1115 40.6593 70.1654 39.276L69.37 38.67ZM66.22 44.41L65.2953 44.0292C64.292 46.4659 63.4365 49.1783 62.726 52.2335L63.7 52.46L64.674 52.6865C65.3635 49.7217 66.188 47.1141 67.1447 44.7907L66.22 44.41ZM63.7 52.46L62.726 52.2335C62.009 55.3166 61.65 58.4026 61.65 61.56H62.65H63.65C63.65 58.5574 63.991 55.6234 64.674 52.6865L63.7 52.46Z" fill="black" mask="url(#path-1-outside-1_705_95)"/>
<mask id="path-3-outside-2_705_95" maskUnits="userSpaceOnUse" x="103" y="56" width="25" height="31" fill="black">
<rect fill="white" x="103" y="56" width="25" height="31"/>
<path d="M104.145 57.3086H108.07V69.1641H122.992V57.3086H126.918V86H122.992V72.582H108.07V86H104.145V57.3086Z"/>
</mask>
<path d="M104.145 57.3086H108.07V69.1641H122.992V57.3086H126.918V86H122.992V72.582H108.07V86H104.145V57.3086Z" fill="url(#paint1_linear_705_95)"/>
<path d="M104.145 57.3086V56.3086H103.145V57.3086H104.145ZM108.07 57.3086H109.07V56.3086H108.07V57.3086ZM108.07 69.1641H107.07V70.1641H108.07V69.1641ZM122.992 69.1641V70.1641H123.992V69.1641H122.992ZM122.992 57.3086V56.3086H121.992V57.3086H122.992ZM126.918 57.3086H127.918V56.3086H126.918V57.3086ZM126.918 86V87H127.918V86H126.918ZM122.992 86H121.992V87H122.992V86ZM122.992 72.582H123.992V71.582H122.992V72.582ZM108.07 72.582V71.582H107.07V72.582H108.07ZM108.07 86V87H109.07V86H108.07ZM104.145 86H103.145V87H104.145V86ZM104.145 57.3086V58.3086H108.07V57.3086V56.3086H104.145V57.3086ZM108.07 57.3086H107.07V69.1641H108.07H109.07V57.3086H108.07ZM108.07 69.1641V70.1641H122.992V69.1641V68.1641H108.07V69.1641ZM122.992 69.1641H123.992V57.3086H122.992H121.992V69.1641H122.992ZM122.992 57.3086V58.3086H126.918V57.3086V56.3086H122.992V57.3086ZM126.918 57.3086H125.918V86H126.918H127.918V57.3086H126.918ZM126.918 86V85H122.992V86V87H126.918V86ZM122.992 86H123.992V72.582H122.992H121.992V86H122.992ZM122.992 72.582V71.582H108.07V72.582V73.582H122.992V72.582ZM108.07 72.582H107.07V86H108.07H109.07V72.582H108.07ZM108.07 86V85H104.145V86V87H108.07V86ZM104.145 86H105.145V57.3086H104.145H103.145V86H104.145Z" fill="black" mask="url(#path-3-outside-2_705_95)"/>
<mask id="path-5-outside-3_705_95" maskUnits="userSpaceOnUse" x="181" y="56" width="21" height="31" fill="black">
<rect fill="white" x="181" y="56" width="21" height="31"/>
<path d="M182.047 57.3086H185.934V82.582H200.465V86H182.047V57.3086Z"/>
</mask>
<path d="M182.047 57.3086H185.934V82.582H200.465V86H182.047V57.3086Z" fill="url(#paint2_linear_705_95)"/>
<path d="M182.047 57.3086V56.3086H181.047V57.3086H182.047ZM185.934 57.3086H186.934V56.3086H185.934V57.3086ZM185.934 82.582H184.934V83.582H185.934V82.582ZM200.465 82.582H201.465V81.582H200.465V82.582ZM200.465 86V87H201.465V86H200.465ZM182.047 86H181.047V87H182.047V86ZM182.047 57.3086V58.3086H185.934V57.3086V56.3086H182.047V57.3086ZM185.934 57.3086H184.934V82.582H185.934H186.934V57.3086H185.934ZM185.934 82.582V83.582H200.465V82.582V81.582H185.934V82.582ZM200.465 82.582H199.465V86H200.465H201.465V82.582H200.465ZM200.465 86V85H182.047V86V87H200.465V86ZM182.047 86H183.047V57.3086H182.047H181.047V86H182.047Z" fill="black" mask="url(#path-5-outside-3_705_95)"/>
<mask id="path-7-outside-4_705_95" maskUnits="userSpaceOnUse" x="217" y="55" width="54" height="33" fill="black">
<rect fill="white" x="217" y="55" width="54" height="33"/>
<path d="M232.43 56.5273C237.495 56.5273 241.245 58.1549 243.68 61.4102C245.581 63.9492 246.531 67.1979 246.531 71.1562C246.531 75.4401 245.444 79.0013 243.27 81.8398C240.717 85.1732 237.078 86.8398 232.352 86.8398C227.938 86.8398 224.467 85.3815 221.941 82.4648C219.689 79.6523 218.562 76.0977 218.562 71.8008C218.562 67.9206 219.526 64.6003 221.453 61.8398C223.927 58.2982 227.586 56.5273 232.43 56.5273ZM232.82 83.3633C236.245 83.3633 238.719 82.1393 240.242 79.6914C241.779 77.2305 242.547 74.4049 242.547 71.2148C242.547 67.8424 241.661 65.1276 239.891 63.0703C238.133 61.013 235.724 59.9844 232.664 59.9844C229.695 59.9844 227.273 61.0065 225.398 63.0508C223.523 65.082 222.586 68.0833 222.586 72.0547C222.586 75.2318 223.387 77.9141 224.988 80.1016C226.603 82.276 229.214 83.3633 232.82 83.3633ZM249.951 57.3086H269.853V60.8242H253.837V69.5352H267.92V72.9531H253.837V86H249.951V57.3086Z"/>
</mask>
<path d="M232.43 56.5273C237.495 56.5273 241.245 58.1549 243.68 61.4102C245.581 63.9492 246.531 67.1979 246.531 71.1562C246.531 75.4401 245.444 79.0013 243.27 81.8398C240.717 85.1732 237.078 86.8398 232.352 86.8398C227.938 86.8398 224.467 85.3815 221.941 82.4648C219.689 79.6523 218.562 76.0977 218.562 71.8008C218.562 67.9206 219.526 64.6003 221.453 61.8398C223.927 58.2982 227.586 56.5273 232.43 56.5273ZM232.82 83.3633C236.245 83.3633 238.719 82.1393 240.242 79.6914C241.779 77.2305 242.547 74.4049 242.547 71.2148C242.547 67.8424 241.661 65.1276 239.891 63.0703C238.133 61.013 235.724 59.9844 232.664 59.9844C229.695 59.9844 227.273 61.0065 225.398 63.0508C223.523 65.082 222.586 68.0833 222.586 72.0547C222.586 75.2318 223.387 77.9141 224.988 80.1016C226.603 82.276 229.214 83.3633 232.82 83.3633ZM249.951 57.3086H269.853V60.8242H253.837V69.5352H267.92V72.9531H253.837V86H249.951V57.3086Z" fill="url(#paint3_linear_705_95)"/>
<path d="M243.68 61.4102L242.879 62.0091L242.879 62.0095L243.68 61.4102ZM243.27 81.8398L242.476 81.2317L242.476 81.2319L243.27 81.8398ZM221.941 82.4648L221.161 83.09L221.173 83.105L221.185 83.1195L221.941 82.4648ZM221.453 61.8398L220.633 61.2672L220.633 61.2674L221.453 61.8398ZM240.242 79.6914L239.394 79.1618L239.393 79.163L240.242 79.6914ZM239.891 63.0703L239.13 63.7199L239.133 63.7227L239.891 63.0703ZM225.398 63.0508L226.133 63.7291L226.135 63.7267L225.398 63.0508ZM224.988 80.1016L224.181 80.6923L224.185 80.6977L224.988 80.1016ZM232.43 56.5273V57.5273C237.266 57.5273 240.679 59.0682 242.879 62.0091L243.68 61.4102L244.48 60.8112C241.811 57.2417 237.724 55.5273 232.43 55.5273V56.5273ZM243.68 61.4102L242.879 62.0095C244.622 64.3366 245.531 67.3596 245.531 71.1562H246.531H247.531C247.531 67.0362 246.54 63.5619 244.48 60.8108L243.68 61.4102ZM246.531 71.1562H245.531C245.531 75.2652 244.492 78.6003 242.476 81.2317L243.27 81.8398L244.063 82.448C246.397 79.4023 247.531 75.615 247.531 71.1562H246.531ZM243.27 81.8398L242.476 81.2319C240.138 84.2846 236.812 85.8398 232.352 85.8398V86.8398V87.8398C237.345 87.8398 241.297 86.0617 244.064 82.4478L243.27 81.8398ZM232.352 86.8398V85.8398C228.181 85.8398 225.005 84.4747 222.697 81.8102L221.941 82.4648L221.185 83.1195C223.93 86.2883 227.694 87.8398 232.352 87.8398V86.8398ZM221.941 82.4648L222.722 81.8397C220.637 79.2371 219.562 75.9158 219.562 71.8008H218.562H217.562C217.562 76.2795 218.74 80.0676 221.161 83.09L221.941 82.4648ZM218.562 71.8008H219.562C219.562 68.0931 220.48 64.9802 222.273 62.4123L221.453 61.8398L220.633 61.2674C218.572 64.2204 217.562 67.7481 217.562 71.8008H218.562ZM221.453 61.8398L222.273 62.4125C224.535 59.1743 227.867 57.5273 232.43 57.5273V56.5273V55.5273C227.305 55.5273 223.319 57.4221 220.633 61.2672L221.453 61.8398ZM232.82 83.3633V84.3633C236.515 84.3633 239.349 83.02 241.091 80.2198L240.242 79.6914L239.393 79.163C238.089 81.2586 235.975 82.3633 232.82 82.3633V83.3633ZM240.242 79.6914L241.09 80.221C242.736 77.5856 243.547 74.5729 243.547 71.2148H242.547H241.547C241.547 74.237 240.821 76.8753 239.394 79.1618L240.242 79.6914ZM242.547 71.2148H243.547C243.547 67.6631 242.611 64.6976 240.649 62.4179L239.891 63.0703L239.133 63.7227C240.712 65.5576 241.547 68.0218 241.547 71.2148H242.547ZM239.891 63.0703L240.651 62.4207C238.677 60.1105 235.974 58.9844 232.664 58.9844V59.9844V60.9844C235.474 60.9844 237.589 61.9156 239.13 63.7199L239.891 63.0703ZM232.664 59.9844V58.9844C229.437 58.9844 226.74 60.1083 224.661 62.3748L225.398 63.0508L226.135 63.7267C227.807 61.9047 229.953 60.9844 232.664 60.9844V59.9844ZM225.398 63.0508L224.664 62.3725C222.556 64.6554 221.586 67.941 221.586 72.0547H222.586H223.586C223.586 68.2257 224.491 65.5086 226.133 63.7291L225.398 63.0508ZM222.586 72.0547H221.586C221.586 75.4065 222.434 78.3053 224.181 80.6923L224.988 80.1016L225.795 79.5108C224.34 77.5228 223.586 75.0571 223.586 72.0547H222.586ZM224.988 80.1016L224.185 80.6977C226.048 83.2057 229.011 84.3633 232.82 84.3633V83.3633V82.3633C229.416 82.3633 227.158 81.3464 225.791 79.5054L224.988 80.1016ZM249.951 57.3086V56.3086H248.951V57.3086H249.951ZM269.853 57.3086H270.853V56.3086H269.853V57.3086ZM269.853 60.8242V61.8242H270.853V60.8242H269.853ZM253.837 60.8242V59.8242H252.837V60.8242H253.837ZM253.837 69.5352H252.837V70.5352H253.837V69.5352ZM267.92 69.5352H268.92V68.5352H267.92V69.5352ZM267.92 72.9531V73.9531H268.92V72.9531H267.92ZM253.837 72.9531V71.9531H252.837V72.9531H253.837ZM253.837 86V87H254.837V86H253.837ZM249.951 86H248.951V87H249.951V86ZM249.951 57.3086V58.3086H269.853V57.3086V56.3086H249.951V57.3086ZM269.853 57.3086H268.853V60.8242H269.853H270.853V57.3086H269.853ZM269.853 60.8242V59.8242H253.837V60.8242V61.8242H269.853V60.8242ZM253.837 60.8242H252.837V69.5352H253.837H254.837V60.8242H253.837ZM253.837 69.5352V70.5352H267.92V69.5352V68.5352H253.837V69.5352ZM267.92 69.5352H266.92V72.9531H267.92H268.92V69.5352H267.92ZM267.92 72.9531V71.9531H253.837V72.9531V73.9531H267.92V72.9531ZM253.837 72.9531H252.837V86H253.837H254.837V72.9531H253.837ZM253.837 86V85H249.951V86V87H253.837V86ZM249.951 86H250.951V57.3086H249.951H248.951V86H249.951Z" fill="black" mask="url(#path-7-outside-4_705_95)"/>
<defs>
<linearGradient id="paint0_linear_705_95" x1="54.5" y1="18" x2="54.5" y2="116" gradientUnits="userSpaceOnUse">
<stop stop-color="#E5FFB0"/>
<stop offset="1" stop-color="#ABFF00"/>
</linearGradient>
<linearGradient id="paint1_linear_705_95" x1="115.5" y1="44" x2="115.5" y2="100" gradientUnits="userSpaceOnUse">
<stop stop-color="#E5FFB0"/>
<stop offset="1" stop-color="#ABFF00"/>
</linearGradient>
<linearGradient id="paint2_linear_705_95" x1="190.5" y1="44" x2="190.5" y2="100" gradientUnits="userSpaceOnUse">
<stop stop-color="#E5FFB0"/>
<stop offset="1" stop-color="#ABFF00"/>
</linearGradient>
<linearGradient id="paint3_linear_705_95" x1="244" y1="44" x2="244" y2="100" gradientUnits="userSpaceOnUse">
<stop stop-color="#E5FFB0"/>
<stop offset="1" stop-color="#ABFF00"/>
</linearGradient>
</defs>
</svg>
