<svg width="55" height="55" viewBox="0 0 55 55" fill="none" xmlns="http://www.w3.org/2000/svg">
<path d="M13.75 0C6.15609 0 0 6.15609 0 13.75C0 21.344 6.15609 27.5 13.75 27.5C6.15609 27.5 0 33.656 0 41.25C0 48.844 6.15609 55 13.75 55C21.344 55 27.5 48.844 27.5 41.25C27.5 48.844 33.656 55 41.25 55C48.844 55 55 48.844 55 41.25C55 33.656 48.844 27.5 41.25 27.5C48.844 27.5 55 21.344 55 13.75C55 6.15609 48.844 0 41.25 0C33.656 0 27.5 6.15609 27.5 13.75C27.5 6.15609 21.344 0 13.75 0Z" fill="url(#paint0_radial_705_82)"/>
<defs>
<radialGradient id="paint0_radial_705_82" cx="0" cy="0" r="1" gradientUnits="userSpaceOnUse" gradientTransform="translate(27.5 27.5) rotate(90) scale(27.5)">
<stop stop-color="#E5FFB0"/>
<stop offset="1" stop-color="#ABFF00"/>
</radialGradient>
</defs>
</svg>
