<svg width="67" height="56" viewBox="0 0 67 56" fill="none" xmlns="http://www.w3.org/2000/svg">
<path d="M20.0664 0C23.7947 4.35259e-05 27.7161 0.987276 31.0938 2.86719V12.1104C28.9455 9.30087 25.1295 7.37741 20.7285 7.20117L20.0664 7.1875C12.9537 7.1875 7.18753 11.7451 7.1875 17.3672L7.19141 17.6299C7.36783 23.1306 13.0649 27.5469 20.0664 27.5469C12.9538 27.5469 7.18759 32.1044 7.1875 37.7266L7.19141 37.9893C7.36217 43.3153 12.7085 47.6253 19.4033 47.8936L20.0664 47.9062C24.7441 47.9062 28.8382 45.9341 31.0938 42.9854V52.2266C27.7161 54.1065 23.7946 55.0947 20.0664 55.0947C10.6516 55.0947 0.000184358 48.8021 0 37.7266C3.21881e-05 33.6647 1.43408 30.2475 3.71289 27.5469C1.43407 24.8462 6.7673e-05 21.429 0 17.3672C2.92568e-05 6.29158 10.6515 0 20.0664 0Z" fill="url(#paint0_linear_705_96)"/>
<path d="M46.9336 0C43.2053 4.35259e-05 39.2839 0.987276 35.9062 2.86719V12.1104C38.0545 9.30087 41.8705 7.37741 46.2715 7.20117L46.9336 7.1875C54.0463 7.1875 59.8125 11.7451 59.8125 17.3672L59.8086 17.6299C59.6322 23.1306 53.9351 27.5469 46.9336 27.5469C54.0462 27.5469 59.8124 32.1044 59.8125 37.7266L59.8086 37.9893C59.6378 43.3153 54.2915 47.6253 47.5967 47.8936L46.9336 47.9062C42.2559 47.9062 38.1618 45.9341 35.9062 42.9854V52.2266C39.2839 54.1065 43.2054 55.0947 46.9336 55.0947C56.3484 55.0947 66.9998 48.8021 67 37.7266C67 33.6647 65.5659 30.2475 63.2871 27.5469C65.5659 24.8462 66.9999 21.429 67 17.3672C67 6.29158 56.3485 0 46.9336 0Z" fill="url(#paint1_linear_705_96)"/>
<defs>
<linearGradient id="paint0_linear_705_96" x1="15.5469" y1="0" x2="15.5469" y2="55.0947" gradientUnits="userSpaceOnUse">
<stop stop-color="#E5FFB0"/>
<stop offset="1" stop-color="#ABFF00"/>
</linearGradient>
<linearGradient id="paint1_linear_705_96" x1="51.4531" y1="0" x2="51.4531" y2="55.0947" gradientUnits="userSpaceOnUse">
<stop stop-color="#E5FFB0"/>
<stop offset="1" stop-color="#ABFF00"/>
</linearGradient>
</defs>
</svg>
