<svg width="270" height="105" viewBox="0 0 270 105" fill="none" xmlns="http://www.w3.org/2000/svg">
<mask id="path-1-outside-1_705_94" maskUnits="userSpaceOnUse" x="21" y="0" width="97" height="87" fill="black">
<rect fill="white" x="21" width="97" height="87"/>
<path d="M80.78 41.81L79.94 42.51C79.59 42.51 79.45 42.3 79.45 41.95C79.45 41.74 79.52 41.46 79.66 41.11C79.8 40.76 80.08 40.41 80.5 40.06C80.92 39.71 81.62 39.43 82.53 39.22C83.44 39.01 84.63 38.87 86.1 38.87C87.01 38.87 88.06 38.94 89.18 39.01C90.3 39.08 91.42 39.15 92.47 39.22C95.55 32.78 98.35 27.53 100.87 23.4C103.39 19.27 105.7 16.12 107.8 13.95C104.51 13.53 101.01 12.69 97.3 11.43C93.59 10.17 89.74 8.91 85.75 7.58C81.76 6.25 77.7 5.06 73.57 4.01C69.44 2.96 65.38 2.47 61.32 2.47C56.49 2.47 52.01 3.24 47.88 4.85C43.75 6.46 40.18 8.63 37.17 11.36C34.16 14.09 31.78 17.31 30.03 20.95C28.28 24.59 27.44 28.44 27.44 32.5C27.44 35.72 27.93 38.45 28.84 40.69C29.75 42.93 30.94 44.75 32.34 46.15C33.74 47.55 35.28 48.6 36.96 49.23C38.64 49.86 40.25 50.21 41.79 50.21C43.12 50.21 44.24 50.07 45.08 49.86C45.92 49.65 46.62 49.44 47.18 49.23C47.74 49.02 48.16 48.81 48.44 48.6C48.72 48.39 48.93 48.25 49.07 48.25C49.35 48.25 49.49 48.39 49.49 48.74C49.49 49.02 49.28 49.3 48.86 49.65C48.44 50 47.81 50.28 46.97 50.56C46.13 50.84 45.15 51.05 44.03 51.26C42.91 51.47 41.72 51.54 40.39 51.54C38.08 51.54 35.84 51.12 33.67 50.28C31.5 49.44 29.61 48.25 27.93 46.71C26.25 45.17 24.92 43.21 23.94 40.9C22.96 38.59 22.47 36 22.47 33.06C22.47 28.79 23.45 24.73 25.41 20.88C27.37 17.03 30.1 13.6 33.6 10.66C37.1 7.72 41.23 5.41 45.99 3.66C50.75 1.91 55.86 1.07 61.32 1.07C65.59 1.07 69.86 1.63 74.13 2.68C78.4 3.73 82.6 4.92 86.66 6.25C90.72 7.58 94.64 8.84 98.42 10.1C102.2 11.36 105.77 12.13 109.13 12.41C111.09 10.73 112.84 9.89 114.38 9.89C115.29 9.89 115.85 10.03 116.13 10.38C116.41 10.73 116.55 11.01 116.55 11.29C116.55 12.06 116.06 12.69 115.08 13.11C114.1 13.53 112.91 13.74 111.44 13.74H109.97C108.29 15.91 106.4 19.13 104.3 23.47C102.2 27.81 99.89 33.06 97.37 39.22C98.98 39.36 100.73 39.43 102.62 39.43C103.95 39.43 105 39.36 105.77 39.22C106.54 39.08 107.17 38.94 107.59 38.73C108.01 38.52 108.29 38.38 108.5 38.24C108.71 38.1 108.92 38.03 109.13 38.03C109.34 38.03 109.41 38.17 109.41 38.38C109.41 38.73 109.27 39.08 108.99 39.5C108.71 39.92 108.29 40.34 107.8 40.76C107.31 41.18 106.68 41.53 105.98 41.81C105.28 42.09 104.51 42.23 103.67 42.23C102.62 42.23 101.5 42.16 100.31 41.95C99.12 41.74 97.93 41.53 96.74 41.32C96.39 42.02 96.11 42.72 95.83 43.42C95.55 44.12 95.27 44.89 94.99 45.66C91.7 53.99 88.27 60.78 84.7 66.03C81.13 71.28 77.49 75.34 73.85 78.28C70.21 81.22 66.57 83.25 62.93 84.3C59.29 85.35 55.79 85.91 52.36 85.91C49.77 85.91 47.39 85.56 45.22 84.86C43.05 84.16 41.23 83.25 39.69 82.06C38.15 80.87 36.96 79.4 36.12 77.72C35.28 76.04 34.86 74.15 34.86 72.12C34.86 70.3 35.28 68.55 36.05 66.8C36.82 65.05 37.87 63.51 39.2 62.18C40.53 60.85 42.07 59.8 43.82 58.96C45.57 58.12 47.46 57.7 49.42 57.7C50.47 57.7 51.24 57.77 51.73 57.98C52.22 58.19 52.5 58.4 52.5 58.61C52.5 58.82 52.36 58.96 52.01 58.96C51.73 58.96 51.45 58.89 51.17 58.82C50.89 58.75 50.47 58.68 49.91 58.68C48.93 58.68 47.88 58.96 46.69 59.52C45.5 60.08 44.38 60.85 43.33 61.9C42.28 62.95 41.44 64.28 40.74 65.82C40.04 67.36 39.69 69.18 39.69 71.21C39.69 73.1 40.04 74.85 40.67 76.46C41.3 78.07 42.21 79.47 43.4 80.66C44.59 81.85 45.99 82.76 47.6 83.46C49.21 84.16 51.03 84.51 53.06 84.51C56.91 84.51 60.41 83.74 63.56 82.2C66.71 80.66 69.72 78.28 72.59 75.13C75.46 71.98 78.26 67.92 81.06 63.02C83.86 58.12 86.8 52.24 89.88 45.45C90.3 44.54 90.72 43.63 91.14 42.72L92.4 40.06C91.28 39.85 90.23 39.64 89.18 39.5C88.13 39.36 87.15 39.29 86.24 39.29C85.05 39.29 84.14 39.43 83.51 39.71C82.88 39.99 82.39 40.27 82.04 40.55C81.69 40.83 81.41 41.11 81.27 41.39C81.13 41.67 80.99 41.81 80.78 41.81ZM113.33 11.43C112.56 11.5 111.72 11.99 110.67 12.97H111.16C113.12 12.97 114.1 12.69 114.1 12.06C114.1 11.92 114.03 11.78 113.96 11.64C113.89 11.5 113.68 11.43 113.33 11.43Z"/>
</mask>
<path d="M80.78 41.81L79.94 42.51C79.59 42.51 79.45 42.3 79.45 41.95C79.45 41.74 79.52 41.46 79.66 41.11C79.8 40.76 80.08 40.41 80.5 40.06C80.92 39.71 81.62 39.43 82.53 39.22C83.44 39.01 84.63 38.87 86.1 38.87C87.01 38.87 88.06 38.94 89.18 39.01C90.3 39.08 91.42 39.15 92.47 39.22C95.55 32.78 98.35 27.53 100.87 23.4C103.39 19.27 105.7 16.12 107.8 13.95C104.51 13.53 101.01 12.69 97.3 11.43C93.59 10.17 89.74 8.91 85.75 7.58C81.76 6.25 77.7 5.06 73.57 4.01C69.44 2.96 65.38 2.47 61.32 2.47C56.49 2.47 52.01 3.24 47.88 4.85C43.75 6.46 40.18 8.63 37.17 11.36C34.16 14.09 31.78 17.31 30.03 20.95C28.28 24.59 27.44 28.44 27.44 32.5C27.44 35.72 27.93 38.45 28.84 40.69C29.75 42.93 30.94 44.75 32.34 46.15C33.74 47.55 35.28 48.6 36.96 49.23C38.64 49.86 40.25 50.21 41.79 50.21C43.12 50.21 44.24 50.07 45.08 49.86C45.92 49.65 46.62 49.44 47.18 49.23C47.74 49.02 48.16 48.81 48.44 48.6C48.72 48.39 48.93 48.25 49.07 48.25C49.35 48.25 49.49 48.39 49.49 48.74C49.49 49.02 49.28 49.3 48.86 49.65C48.44 50 47.81 50.28 46.97 50.56C46.13 50.84 45.15 51.05 44.03 51.26C42.91 51.47 41.72 51.54 40.39 51.54C38.08 51.54 35.84 51.12 33.67 50.28C31.5 49.44 29.61 48.25 27.93 46.71C26.25 45.17 24.92 43.21 23.94 40.9C22.96 38.59 22.47 36 22.47 33.06C22.47 28.79 23.45 24.73 25.41 20.88C27.37 17.03 30.1 13.6 33.6 10.66C37.1 7.72 41.23 5.41 45.99 3.66C50.75 1.91 55.86 1.07 61.32 1.07C65.59 1.07 69.86 1.63 74.13 2.68C78.4 3.73 82.6 4.92 86.66 6.25C90.72 7.58 94.64 8.84 98.42 10.1C102.2 11.36 105.77 12.13 109.13 12.41C111.09 10.73 112.84 9.89 114.38 9.89C115.29 9.89 115.85 10.03 116.13 10.38C116.41 10.73 116.55 11.01 116.55 11.29C116.55 12.06 116.06 12.69 115.08 13.11C114.1 13.53 112.91 13.74 111.44 13.74H109.97C108.29 15.91 106.4 19.13 104.3 23.47C102.2 27.81 99.89 33.06 97.37 39.22C98.98 39.36 100.73 39.43 102.62 39.43C103.95 39.43 105 39.36 105.77 39.22C106.54 39.08 107.17 38.94 107.59 38.73C108.01 38.52 108.29 38.38 108.5 38.24C108.71 38.1 108.92 38.03 109.13 38.03C109.34 38.03 109.41 38.17 109.41 38.38C109.41 38.73 109.27 39.08 108.99 39.5C108.71 39.92 108.29 40.34 107.8 40.76C107.31 41.18 106.68 41.53 105.98 41.81C105.28 42.09 104.51 42.23 103.67 42.23C102.62 42.23 101.5 42.16 100.31 41.95C99.12 41.74 97.93 41.53 96.74 41.32C96.39 42.02 96.11 42.72 95.83 43.42C95.55 44.12 95.27 44.89 94.99 45.66C91.7 53.99 88.27 60.78 84.7 66.03C81.13 71.28 77.49 75.34 73.85 78.28C70.21 81.22 66.57 83.25 62.93 84.3C59.29 85.35 55.79 85.91 52.36 85.91C49.77 85.91 47.39 85.56 45.22 84.86C43.05 84.16 41.23 83.25 39.69 82.06C38.15 80.87 36.96 79.4 36.12 77.72C35.28 76.04 34.86 74.15 34.86 72.12C34.86 70.3 35.28 68.55 36.05 66.8C36.82 65.05 37.87 63.51 39.2 62.18C40.53 60.85 42.07 59.8 43.82 58.96C45.57 58.12 47.46 57.7 49.42 57.7C50.47 57.7 51.24 57.77 51.73 57.98C52.22 58.19 52.5 58.4 52.5 58.61C52.5 58.82 52.36 58.96 52.01 58.96C51.73 58.96 51.45 58.89 51.17 58.82C50.89 58.75 50.47 58.68 49.91 58.68C48.93 58.68 47.88 58.96 46.69 59.52C45.5 60.08 44.38 60.85 43.33 61.9C42.28 62.95 41.44 64.28 40.74 65.82C40.04 67.36 39.69 69.18 39.69 71.21C39.69 73.1 40.04 74.85 40.67 76.46C41.3 78.07 42.21 79.47 43.4 80.66C44.59 81.85 45.99 82.76 47.6 83.46C49.21 84.16 51.03 84.51 53.06 84.51C56.91 84.51 60.41 83.74 63.56 82.2C66.71 80.66 69.72 78.28 72.59 75.13C75.46 71.98 78.26 67.92 81.06 63.02C83.86 58.12 86.8 52.24 89.88 45.45C90.3 44.54 90.72 43.63 91.14 42.72L92.4 40.06C91.28 39.85 90.23 39.64 89.18 39.5C88.13 39.36 87.15 39.29 86.24 39.29C85.05 39.29 84.14 39.43 83.51 39.71C82.88 39.99 82.39 40.27 82.04 40.55C81.69 40.83 81.41 41.11 81.27 41.39C81.13 41.67 80.99 41.81 80.78 41.81ZM113.33 11.43C112.56 11.5 111.72 11.99 110.67 12.97H111.16C113.12 12.97 114.1 12.69 114.1 12.06C114.1 11.92 114.03 11.78 113.96 11.64C113.89 11.5 113.68 11.43 113.33 11.43Z" fill="url(#paint0_linear_705_94)"/>
<path d="M80.78 41.81V40.81H80.418L80.1398 41.0418L80.78 41.81ZM79.94 42.51V43.51H80.3021L80.5802 43.2782L79.94 42.51ZM79.66 41.11L78.7315 40.7386L78.7315 40.7386L79.66 41.11ZM80.5 40.06L81.1402 40.8282L81.1402 40.8282L80.5 40.06ZM82.53 39.22L82.7549 40.1944L82.7549 40.1944L82.53 39.22ZM89.18 39.01L89.2424 38.0119L89.2424 38.0119L89.18 39.01ZM92.47 39.22L92.4035 40.2178L93.0797 40.2629L93.3721 39.6515L92.47 39.22ZM107.8 13.95L108.519 14.6454L109.907 13.2108L107.927 12.958L107.8 13.95ZM97.3 11.43L97.6216 10.4831L97.6216 10.4831L97.3 11.43ZM85.75 7.58L85.4338 8.52868L85.4338 8.52868L85.75 7.58ZM73.57 4.01L73.3236 4.97916L73.3236 4.97916L73.57 4.01ZM30.03 20.95L30.9313 21.3833L30.9313 21.3833L30.03 20.95ZM28.84 40.69L29.7665 40.3136L29.7665 40.3136L28.84 40.69ZM36.96 49.23L36.6089 50.1663L36.6089 50.1663L36.96 49.23ZM45.08 49.86L45.3225 50.8301L45.3225 50.8301L45.08 49.86ZM48.44 48.6L47.84 47.8L47.84 47.8L48.44 48.6ZM48.86 49.65L48.2198 48.8818L48.2198 48.8818L48.86 49.65ZM46.97 50.56L46.6538 49.6113L46.6538 49.6113L46.97 50.56ZM44.03 51.26L43.8457 50.2771L43.8457 50.2771L44.03 51.26ZM33.67 50.28L34.031 49.3474L34.031 49.3474L33.67 50.28ZM27.93 46.71L27.2543 47.4472L27.2543 47.4472L27.93 46.71ZM25.41 20.88L24.5188 20.4263L24.5188 20.4263L25.41 20.88ZM45.99 3.66L45.6449 2.72142L45.6449 2.72142L45.99 3.66ZM98.42 10.1L98.1038 11.0487L98.1038 11.0487L98.42 10.1ZM109.13 12.41L109.047 13.4065L109.463 13.4413L109.781 13.1693L109.13 12.41ZM116.13 10.38L115.349 11.0047L115.349 11.0047L116.13 10.38ZM115.08 13.11L114.686 12.1908L114.686 12.1909L115.08 13.11ZM109.97 13.74V12.74H109.48L109.179 13.1278L109.97 13.74ZM104.3 23.47L105.2 23.9056L105.2 23.9056L104.3 23.47ZM97.37 39.22L96.4445 38.8414L95.9301 40.0986L97.2834 40.2162L97.37 39.22ZM105.77 39.22L105.949 40.2039L105.949 40.2039L105.77 39.22ZM107.59 38.73L107.143 37.8356L107.143 37.8356L107.59 38.73ZM108.5 38.24L107.945 37.4079L107.945 37.4079L108.5 38.24ZM108.99 39.5L108.158 38.9453L108.158 38.9453L108.99 39.5ZM105.98 41.81L106.351 42.7385L106.351 42.7385L105.98 41.81ZM100.31 41.95L100.484 40.9652L100.484 40.9652L100.31 41.95ZM96.74 41.32L96.9138 40.3352L96.1792 40.2056L95.8456 40.8728L96.74 41.32ZM95.83 43.42L96.7585 43.7914L96.7585 43.7914L95.83 43.42ZM94.99 45.66L95.9201 46.0273L95.9251 46.0146L95.9298 46.0017L94.99 45.66ZM84.7 66.03L85.5269 66.5923L84.7 66.03ZM73.85 78.28L74.4783 79.0579L74.4783 79.0579L73.85 78.28ZM62.93 84.3L63.2072 85.2608L63.2072 85.2608L62.93 84.3ZM45.22 84.86L45.527 83.9083L45.527 83.9083L45.22 84.86ZM39.69 82.06L39.0786 82.8513L39.0786 82.8513L39.69 82.06ZM36.12 77.72L37.0144 77.2728L37.0144 77.2728L36.12 77.72ZM36.05 66.8L36.9653 67.2027L36.9653 67.2027L36.05 66.8ZM39.2 62.18L38.4929 61.4729L38.4929 61.4729L39.2 62.18ZM43.82 58.96L44.2527 59.8615L44.2527 59.8615L43.82 58.96ZM51.73 57.98L51.3361 58.8991L51.3361 58.8991L51.73 57.98ZM51.17 58.82L50.9275 59.7901L50.9275 59.7901L51.17 58.82ZM46.69 59.52L47.1158 60.4248L47.1158 60.4248L46.69 59.52ZM40.74 65.82L41.6504 66.2338L40.74 65.82ZM43.4 80.66L42.6929 81.3671L42.6929 81.3671L43.4 80.66ZM47.6 83.46L47.2013 84.3771L47.2013 84.3771L47.6 83.46ZM63.56 82.2L63.9992 83.0984L63.9992 83.0984L63.56 82.2ZM81.06 63.02L81.9283 63.5161L81.9283 63.5161L81.06 63.02ZM89.88 45.45L88.972 45.0309L88.9693 45.0369L89.88 45.45ZM91.14 42.72L90.2362 42.2919L90.232 42.3009L91.14 42.72ZM92.4 40.06L93.3037 40.4881L93.8589 39.3161L92.5843 39.0771L92.4 40.06ZM83.51 39.71L83.9161 40.6238L83.9161 40.6238L83.51 39.71ZM82.04 40.55L82.6647 41.3309L82.6647 41.3309L82.04 40.55ZM81.27 41.39L80.3756 40.9428L80.3756 40.9428L81.27 41.39ZM113.33 11.43V10.43H113.285L113.239 10.4341L113.33 11.43ZM110.67 12.97L109.988 12.2389L108.133 13.97H110.67V12.97ZM113.96 11.64L113.066 12.0872L113.066 12.0872L113.96 11.64ZM80.78 41.81L80.1398 41.0418L79.2998 41.7418L79.94 42.51L80.5802 43.2782L81.4202 42.5782L80.78 41.81ZM79.94 42.51V41.51C79.9503 41.51 80.0081 41.5113 80.09 41.5444C80.1785 41.5801 80.2673 41.6419 80.3377 41.728C80.4683 41.8876 80.45 42.0188 80.45 41.95H79.45H78.45C78.45 42.2312 78.5017 42.6424 78.7898 42.9945C79.1101 43.386 79.5575 43.51 79.94 43.51V42.51ZM79.45 41.95H80.45C80.45 41.9508 80.4507 41.913 80.4726 41.825C80.494 41.7398 80.5305 41.6263 80.5885 41.4814L79.66 41.11L78.7315 40.7386C78.5758 41.128 78.45 41.5491 78.45 41.95H79.45ZM79.66 41.11L80.5885 41.4814C80.6453 41.3394 80.7942 41.1166 81.1402 40.8282L80.5 40.06L79.8598 39.2918C79.3658 39.7034 78.9547 40.1806 78.7315 40.7386L79.66 41.11ZM80.5 40.06L81.1402 40.8282C81.3759 40.6318 81.8879 40.3945 82.7549 40.1944L82.53 39.22L82.3051 38.2456C81.3521 38.4655 80.4641 38.7882 79.8598 39.2918L80.5 40.06ZM82.53 39.22L82.7549 40.1944C83.5776 40.0045 84.6905 39.87 86.1 39.87V38.87V37.87C84.5695 37.87 83.3024 38.0155 82.3051 38.2456L82.53 39.22ZM86.1 38.87V39.87C86.9713 39.87 87.9841 39.9372 89.1176 40.0081L89.18 39.01L89.2424 38.0119C88.1359 37.9428 87.0487 37.87 86.1 37.87V38.87ZM89.18 39.01L89.1176 40.0081C90.2381 40.0781 91.3559 40.1479 92.4035 40.2178L92.47 39.22L92.5365 38.2222C91.4841 38.1521 90.3619 38.0819 89.2424 38.0119L89.18 39.01ZM92.47 39.22L93.3721 39.6515C96.4427 33.2311 99.2267 28.0131 101.724 23.9209L100.87 23.4L100.016 22.8791C97.4733 27.0469 94.6573 32.3289 91.5679 38.7885L92.47 39.22ZM100.87 23.4L101.724 23.9209C104.225 19.821 106.491 16.7405 108.519 14.6454L107.8 13.95L107.081 13.2546C104.909 15.4995 102.555 18.719 100.016 22.8791L100.87 23.4ZM107.8 13.95L107.927 12.958C104.714 12.5479 101.279 11.7254 97.6216 10.4831L97.3 11.43L96.9784 12.3769C100.741 13.6546 104.306 14.5121 107.673 14.9419L107.8 13.95ZM97.3 11.43L97.6216 10.4831C93.9084 9.22204 90.0488 7.95883 86.0662 6.63131L85.75 7.58L85.4338 8.52868C89.4312 9.86116 93.2716 11.1179 96.9784 12.3769L97.3 11.43ZM85.75 7.58L86.0662 6.63131C82.0529 5.29354 77.9696 4.09673 73.8164 3.04083L73.57 4.01L73.3236 4.97916C77.4304 6.02326 81.4671 7.20645 85.4338 8.52868L85.75 7.58ZM73.57 4.01L73.8164 3.04083C69.605 1.97014 65.4622 1.47 61.32 1.47V2.47V3.47C65.2978 3.47 69.275 3.94986 73.3236 4.97916L73.57 4.01ZM61.32 2.47V1.47C56.3823 1.47 51.7771 2.2575 47.5168 3.91829L47.88 4.85L48.2432 5.78171C52.2429 4.22249 56.5977 3.47 61.32 3.47V2.47ZM47.88 4.85L47.5168 3.91829C43.2835 5.56856 39.6064 7.80018 36.4982 10.6193L37.17 11.36L37.8418 12.1007C40.7536 9.45981 44.2165 7.35143 48.2432 5.78171L47.88 4.85ZM37.17 11.36L36.4982 10.6193C33.3906 13.4378 30.9335 16.7629 29.1287 20.5167L30.03 20.95L30.9313 21.3833C32.6265 17.8571 34.9294 14.7422 37.8418 12.1007L37.17 11.36ZM30.03 20.95L29.1287 20.5167C27.3109 24.2979 26.44 28.2968 26.44 32.5H27.44H28.44C28.44 28.5832 29.2491 24.8821 30.9313 21.3833L30.03 20.95ZM27.44 32.5H26.44C26.44 35.8181 26.9446 38.6812 27.9135 41.0664L28.84 40.69L29.7665 40.3136C28.9154 38.2188 28.44 35.6219 28.44 32.5H27.44ZM28.84 40.69L27.9135 41.0664C28.8668 43.4128 30.126 45.3502 31.6329 46.8571L32.34 46.15L33.0471 45.4429C31.754 44.1498 30.6332 42.4472 29.7665 40.3136L28.84 40.69ZM32.34 46.15L31.6329 46.8571C33.1152 48.3394 34.7726 49.4777 36.6089 50.1663L36.96 49.23L37.3111 48.2937C35.7874 47.7223 34.3648 46.7606 33.0471 45.4429L32.34 46.15ZM36.96 49.23L36.6089 50.1663C38.3683 50.8261 40.0994 51.21 41.79 51.21V50.21V49.21C40.4006 49.21 38.9117 48.8939 37.3111 48.2937L36.96 49.23ZM41.79 50.21V51.21C43.1851 51.21 44.3885 51.0636 45.3225 50.8301L45.08 49.86L44.8375 48.8899C44.0915 49.0764 43.0549 49.21 41.79 49.21V50.21ZM45.08 49.86L45.3225 50.8301C46.1846 50.6146 46.9238 50.3941 47.5311 50.1663L47.18 49.23L46.8289 48.2937C46.3162 48.4859 45.6554 48.6854 44.8375 48.8899L45.08 49.86ZM47.18 49.23L47.5311 50.1663C48.1267 49.943 48.6488 49.6934 49.04 49.4L48.44 48.6L47.84 47.8C47.6712 47.9266 47.3533 48.097 46.8289 48.2937L47.18 49.23ZM48.44 48.6L49.04 49.4C49.1055 49.3509 49.1607 49.3105 49.2084 49.2773C49.2566 49.2437 49.2898 49.2226 49.3114 49.21C49.3349 49.1963 49.3299 49.2014 49.303 49.2115C49.2882 49.217 49.2615 49.2261 49.2247 49.234C49.1879 49.2419 49.1351 49.25 49.07 49.25V48.25V47.25C48.7152 47.25 48.4289 47.4094 48.3036 47.4825C48.1445 47.5753 47.982 47.6935 47.84 47.8L48.44 48.6ZM49.07 48.25V49.25C49.0545 49.25 48.8294 49.2439 48.6376 49.0281C48.47 48.8396 48.49 48.6671 48.49 48.74H49.49H50.49C50.49 48.4629 50.44 48.0454 50.1324 47.6994C49.8006 47.3261 49.3655 47.25 49.07 47.25V48.25ZM49.49 48.74H48.49C48.49 48.6134 48.5416 48.5552 48.5155 48.5921C48.502 48.6113 48.4743 48.646 48.4237 48.6973C48.3734 48.7483 48.3069 48.8092 48.2198 48.8818L48.86 49.65L49.5002 50.4182C49.9119 50.0752 50.49 49.5266 50.49 48.74H49.49ZM48.86 49.65L48.2198 48.8818C47.953 49.1041 47.4771 49.3369 46.6538 49.6113L46.97 50.56L47.2862 51.5087C48.1429 51.2231 48.927 50.8959 49.5002 50.4182L48.86 49.65ZM46.97 50.56L46.6538 49.6113C45.8832 49.8682 44.9607 50.0681 43.8457 50.2771L44.03 51.26L44.2143 52.2429C45.3393 52.0319 46.3768 51.8118 47.2862 51.5087L46.97 50.56ZM44.03 51.26L43.8457 50.2771C42.8103 50.4713 41.6884 50.54 40.39 50.54V51.54V52.54C41.7516 52.54 43.0097 52.4687 44.2143 52.2429L44.03 51.26ZM40.39 51.54V50.54C38.2044 50.54 36.0867 50.1432 34.031 49.3474L33.67 50.28L33.309 51.2126C35.5933 52.0968 37.9556 52.54 40.39 52.54V51.54ZM33.67 50.28L34.031 49.3474C31.9798 48.5534 30.196 47.4306 28.6057 45.9728L27.93 46.71L27.2543 47.4472C29.024 49.0694 31.0202 50.3266 33.309 51.2126L33.67 50.28ZM27.93 46.71L28.6057 45.9728C27.0455 44.5426 25.7928 42.7068 24.8606 40.5094L23.94 40.9L23.0194 41.2905C24.0472 43.7132 25.4545 45.7974 27.2543 47.4472L27.93 46.71ZM23.94 40.9L24.8606 40.5094C23.9406 38.3409 23.47 35.8868 23.47 33.06H22.47H21.47C21.47 36.1132 21.9794 38.8391 23.0194 41.2905L23.94 40.9ZM22.47 33.06H23.47C23.47 28.9496 24.4118 25.0449 26.3012 21.3337L25.41 20.88L24.5188 20.4263C22.4882 24.4151 21.47 28.6304 21.47 33.06H22.47ZM25.41 20.88L26.3012 21.3337C28.1983 17.6072 30.8426 14.2822 34.2432 11.4257L33.6 10.66L32.9568 9.89429C29.3574 12.9178 26.5417 16.4528 24.5188 20.4263L25.41 20.88ZM33.6 10.66L34.2432 11.4257C37.6423 8.57047 41.6675 6.31458 46.3351 4.59857L45.99 3.66L45.6449 2.72142C40.7925 4.50542 36.5577 6.86953 32.9568 9.89429L33.6 10.66ZM45.99 3.66L46.3351 4.59858C50.9723 2.8937 55.964 2.07 61.32 2.07V1.07V0.0699966C55.756 0.0699966 50.5277 0.926296 45.6449 2.72142L45.99 3.66ZM61.32 1.07V2.07C65.5019 2.07 69.6916 2.61838 73.8912 3.65107L74.13 2.68L74.3688 1.70892C70.0284 0.64162 65.6781 0.0699966 61.32 0.0699966V1.07ZM74.13 2.68L73.8912 3.65107C78.139 4.6956 82.3146 5.87881 86.3487 7.20031L86.66 6.25L86.9713 5.29969C82.8854 3.96119 78.661 2.76439 74.3688 1.70892L74.13 2.68ZM86.66 6.25L86.3487 7.20031C90.4164 8.53284 94.3265 9.78958 98.1038 11.0487L98.42 10.1L98.7362 9.15131C94.9535 7.89041 91.0236 6.62715 86.9713 5.29969L86.66 6.25ZM98.42 10.1L98.1038 11.0487C101.946 12.3294 105.595 13.1189 109.047 13.4065L109.13 12.41L109.213 11.4135C105.945 11.1411 102.454 10.3905 98.7362 9.15131L98.42 10.1ZM109.13 12.41L109.781 13.1693C111.673 11.5476 113.194 10.89 114.38 10.89V9.89V8.89C112.486 8.89 110.507 9.91236 108.479 11.6507L109.13 12.41ZM114.38 9.89V10.89C114.796 10.89 115.063 10.9234 115.228 10.9685C115.385 11.0114 115.382 11.0454 115.349 11.0047L116.13 10.38L116.911 9.75531C116.598 9.36459 116.175 9.15363 115.754 9.03898C115.342 8.92664 114.874 8.89 114.38 8.89V9.89ZM116.13 10.38L115.349 11.0047C115.463 11.1467 115.516 11.2358 115.54 11.287C115.561 11.3304 115.55 11.3251 115.55 11.29H116.55H117.55C117.55 10.6595 117.229 10.1533 116.911 9.7553L116.13 10.38ZM116.55 11.29H115.55C115.55 11.5238 115.442 11.8667 114.686 12.1908L115.08 13.11L115.474 14.0291C116.678 13.5132 117.55 12.5962 117.55 11.29H116.55ZM115.08 13.11L114.686 12.1909C113.866 12.5425 112.819 12.74 111.44 12.74V13.74V14.74C113.001 14.74 114.334 14.5175 115.474 14.0291L115.08 13.11ZM111.44 13.74V12.74H109.97V13.74V14.74H111.44V13.74ZM109.97 13.74L109.179 13.1278C107.438 15.3771 105.513 18.6677 103.4 23.0344L104.3 23.47L105.2 23.9056C107.287 19.5923 109.142 16.4429 110.761 14.3522L109.97 13.74ZM104.3 23.47L103.4 23.0344C101.288 27.3987 98.9696 32.6688 96.4445 38.8414L97.37 39.22L98.2955 39.5986C100.81 33.4512 103.112 28.2213 105.2 23.9056L104.3 23.47ZM97.37 39.22L97.2834 40.2162C98.9265 40.3591 100.706 40.43 102.62 40.43V39.43V38.43C100.754 38.43 99.0335 38.3609 97.4566 38.2238L97.37 39.22ZM102.62 39.43V40.43C103.975 40.43 105.093 40.3595 105.949 40.2039L105.77 39.22L105.591 38.2361C104.907 38.3605 103.925 38.43 102.62 38.43V39.43ZM105.77 39.22L105.949 40.2039C106.697 40.0679 107.469 39.9086 108.037 39.6244L107.59 38.73L107.143 37.8356C106.871 37.9714 106.383 38.0921 105.591 38.2361L105.77 39.22ZM107.59 38.73L108.037 39.6244C108.433 39.4264 108.78 39.2549 109.055 39.072L108.5 38.24L107.945 37.4079C107.8 37.5051 107.587 37.6136 107.143 37.8356L107.59 38.73ZM108.5 38.24L109.055 39.0721C109.096 39.0446 109.121 39.0345 109.131 39.0312C109.14 39.0283 109.138 39.03 109.13 39.03V38.03V37.03C108.686 37.03 108.286 37.1809 107.945 37.4079L108.5 38.24ZM109.13 38.03V39.03C109.073 39.03 108.97 39.0205 108.849 38.9655C108.721 38.9074 108.613 38.816 108.535 38.7075C108.463 38.6061 108.433 38.5134 108.421 38.4616C108.415 38.4347 108.413 38.414 108.411 38.4014C108.41 38.3886 108.41 38.3811 108.41 38.38H109.41H110.41C110.41 38.1983 110.386 37.8583 110.162 37.545C109.891 37.1644 109.482 37.03 109.13 37.03V38.03ZM109.41 38.38H108.41C108.41 38.4464 108.389 38.5992 108.158 38.9453L108.99 39.5L109.822 40.0547C110.151 39.5608 110.41 39.0136 110.41 38.38H109.41ZM108.99 39.5L108.158 38.9453C107.954 39.2516 107.615 39.6013 107.149 40.0007L107.8 40.76L108.451 41.5193C108.965 41.0787 109.466 40.5884 109.822 40.0547L108.99 39.5ZM107.8 40.76L107.149 40.0007C106.767 40.3288 106.241 40.6285 105.609 40.8815L105.98 41.81L106.351 42.7385C107.119 42.4315 107.853 42.0312 108.451 41.5193L107.8 40.76ZM105.98 41.81L105.609 40.8815C105.039 41.1092 104.397 41.23 103.67 41.23V42.23V43.23C104.623 43.23 105.521 43.0708 106.351 42.7385L105.98 41.81ZM103.67 42.23V41.23C102.665 41.23 101.605 41.163 100.484 40.9652L100.31 41.95L100.136 42.9348C101.395 43.157 102.575 43.23 103.67 43.23V42.23ZM100.31 41.95L100.484 40.9652C99.2938 40.7552 98.1038 40.5452 96.9138 40.3352L96.74 41.32L96.5662 42.3048C97.7562 42.5148 98.9462 42.7248 100.136 42.9348L100.31 41.95ZM96.74 41.32L95.8456 40.8728C95.4741 41.6158 95.1794 42.354 94.9015 43.0486L95.83 43.42L96.7585 43.7914C97.0406 43.086 97.306 42.4242 97.6344 41.7672L96.74 41.32ZM95.83 43.42L94.9015 43.0486C94.6145 43.7661 94.329 44.5517 94.0502 45.3183L94.99 45.66L95.9298 46.0017C96.211 45.2283 96.4855 44.4739 96.7585 43.7914L95.83 43.42ZM94.99 45.66L94.0599 45.2927C90.7869 53.5797 87.3886 60.2979 83.8731 65.4677L84.7 66.03L85.5269 66.5923C89.1514 61.2621 92.6131 54.4003 95.9201 46.0273L94.99 45.66ZM84.7 66.03L83.8731 65.4677C80.3439 70.6576 76.7676 74.638 73.2217 77.5021L73.85 78.28L74.4783 79.0579C78.2124 76.042 81.9161 71.9024 85.5269 66.5923L84.7 66.03ZM73.85 78.28L73.2217 77.5021C69.6574 80.3809 66.1342 82.3349 62.6528 83.3392L62.93 84.3L63.2072 85.2608C67.0058 84.1651 70.7626 82.0591 74.4783 79.0579L73.85 78.28ZM62.93 84.3L62.6528 83.3392C59.0859 84.3681 55.68 84.91 52.36 84.91V85.91V86.91C55.9 86.91 59.4941 86.3319 63.2072 85.2608L62.93 84.3ZM52.36 85.91V84.91C49.8603 84.91 47.5854 84.5723 45.527 83.9083L45.22 84.86L44.913 85.8117C47.1946 86.5477 49.6797 86.91 52.36 86.91V85.91ZM45.22 84.86L45.527 83.9083C43.4433 83.2361 41.7322 82.3743 40.3014 81.2687L39.69 82.06L39.0786 82.8513C40.7278 84.1257 42.6567 85.0839 44.913 85.8117L45.22 84.86ZM39.69 82.06L40.3014 81.2687C38.8825 80.1722 37.7883 78.8206 37.0144 77.2728L36.12 77.72L35.2256 78.1672C36.1317 79.9794 37.4175 81.5678 39.0786 82.8513L39.69 82.06ZM36.12 77.72L37.0144 77.2728C36.2505 75.745 35.86 74.0104 35.86 72.12H34.86H33.86C33.86 74.2896 34.3095 76.335 35.2256 78.1672L36.12 77.72ZM34.86 72.12H35.86C35.86 70.4605 36.2417 68.8474 36.9653 67.2027L36.05 66.8L35.1347 66.3973C34.3183 68.2526 33.86 70.1395 33.86 72.12H34.86ZM36.05 66.8L36.9653 67.2027C37.6862 65.5643 38.6662 64.128 39.9071 62.8871L39.2 62.18L38.4929 61.4729C37.0738 62.892 35.9538 64.5357 35.1347 66.3973L36.05 66.8ZM39.2 62.18L39.9071 62.8871C41.1477 61.6465 42.5915 60.6589 44.2527 59.8615L43.82 58.96L43.3873 58.0585C41.5485 58.9411 39.9123 60.0535 38.4929 61.4729L39.2 62.18ZM43.82 58.96L44.2527 59.8615C45.8639 59.0882 47.6055 58.7 49.42 58.7V57.7V56.7C47.3145 56.7 45.2761 57.1518 43.3873 58.0585L43.82 58.96ZM49.42 57.7V58.7C50.4824 58.7 51.0578 58.7799 51.3361 58.8991L51.73 57.98L52.1239 57.0609C51.4222 56.7601 50.4576 56.7 49.42 56.7V57.7ZM51.73 57.98L51.3361 58.8991C51.436 58.942 51.5144 58.9802 51.574 59.0131C51.635 59.0468 51.665 59.0686 51.6741 59.0759C51.6859 59.0854 51.6511 59.0608 51.6086 58.995C51.5621 58.9231 51.5 58.79 51.5 58.61H52.5H53.5C53.5 58.0403 53.1285 57.6782 52.9234 57.5141C52.6893 57.3268 52.4019 57.18 52.1239 57.0609L51.73 57.98ZM52.5 58.61H51.5C51.5 58.5523 51.5097 58.4599 51.556 58.3537C51.6045 58.2424 51.6805 58.1458 51.7723 58.0744C51.9418 57.9426 52.0767 57.96 52.01 57.96V58.96V59.96C52.2933 59.96 52.6732 59.9074 53.0002 59.6531C53.3715 59.3643 53.5 58.9557 53.5 58.61H52.5ZM52.01 58.96V57.96C51.8746 57.96 51.716 57.9257 51.4125 57.8499L51.17 58.82L50.9275 59.7901C51.184 59.8543 51.5854 59.96 52.01 59.96V58.96ZM51.17 58.82L51.4125 57.8499C51.0557 57.7606 50.5542 57.68 49.91 57.68V58.68V59.68C50.3858 59.68 50.7243 59.7394 50.9275 59.7901L51.17 58.82ZM49.91 58.68V57.68C48.7369 57.68 47.5385 58.0155 46.2642 58.6152L46.69 59.52L47.1158 60.4248C48.2215 59.9045 49.1231 59.68 49.91 59.68V58.68ZM46.69 59.52L46.2642 58.6152C44.9695 59.2245 43.7544 60.0614 42.6229 61.1929L43.33 61.9L44.0371 62.6071C45.0056 61.6386 46.0305 60.9355 47.1158 60.4248L46.69 59.52ZM43.33 61.9L42.6229 61.1929C41.4639 62.3519 40.5628 63.7932 39.8296 65.4062L40.74 65.82L41.6504 66.2338C42.3172 64.7668 43.0961 63.5481 44.0371 62.6071L43.33 61.9ZM40.74 65.82L39.8296 65.4062C39.059 67.1016 38.69 69.0681 38.69 71.21H39.69H40.69C40.69 69.2919 41.021 67.6184 41.6504 66.2338L40.74 65.82ZM39.69 71.21H38.69C38.69 73.2264 39.064 75.0999 39.7388 76.8244L40.67 76.46L41.6012 76.0956C41.0161 74.6001 40.69 72.9736 40.69 71.21H39.69ZM40.67 76.46L39.7388 76.8244C40.4176 78.5593 41.4026 80.0769 42.6929 81.3671L43.4 80.66L44.1071 79.9529C43.0174 78.8631 42.1824 77.5807 41.6012 76.0956L40.67 76.46ZM43.4 80.66L42.6929 81.3671C43.9833 82.6576 45.4925 83.6341 47.2013 84.3771L47.6 83.46L47.9987 82.5429C46.4875 81.8859 45.1967 81.0424 44.1071 79.9529L43.4 80.66ZM47.6 83.46L47.2013 84.3771C48.9552 85.1397 50.9141 85.51 53.06 85.51V84.51V83.51C51.1459 83.51 49.4648 83.1803 47.9987 82.5429L47.6 83.46ZM53.06 84.51V85.51C57.0471 85.51 60.6995 84.7116 63.9992 83.0984L63.56 82.2L63.1208 81.3016C60.1205 82.7684 56.7729 83.51 53.06 83.51V84.51ZM63.56 82.2L63.9992 83.0984C67.2879 81.4906 70.3957 79.0232 73.3292 75.8035L72.59 75.13L71.8508 74.4565C69.0443 77.5368 66.1321 79.8294 63.1208 81.3016L63.56 82.2ZM72.59 75.13L73.3292 75.8035C76.2653 72.581 79.1066 68.4539 81.9283 63.5161L81.06 63.02L80.1918 62.5239C77.4134 67.3861 74.6547 71.379 71.8508 74.4565L72.59 75.13ZM81.06 63.02L81.9283 63.5161C84.7483 58.581 87.7024 52.6713 90.7907 45.8631L89.88 45.45L88.9693 45.0369C85.8976 51.8086 82.9717 57.659 80.1918 62.5239L81.06 63.02ZM89.88 45.45L90.788 45.8691C90.998 45.4141 91.208 44.9591 91.418 44.5041C91.628 44.0491 91.838 43.5941 92.048 43.1391L91.14 42.72L90.232 42.3009C90.022 42.7559 89.812 43.2109 89.602 43.6659C89.392 44.1209 89.182 44.5759 88.972 45.0309L89.88 45.45ZM91.14 42.72L92.0437 43.1481L93.3037 40.4881L92.4 40.06L91.4963 39.6319L90.2363 42.2919L91.14 42.72ZM92.4 40.06L92.5843 39.0771C91.4819 38.8704 90.3959 38.6533 89.3122 38.5088L89.18 39.5L89.0478 40.4912C90.0641 40.6267 91.0781 40.8296 92.2157 41.0429L92.4 40.06ZM89.18 39.5L89.3122 38.5088C88.2253 38.3639 87.2007 38.29 86.24 38.29V39.29V40.29C87.0993 40.29 88.0347 40.3561 89.0478 40.4912L89.18 39.5ZM86.24 39.29V38.29C84.9972 38.29 83.9227 38.4323 83.1039 38.7962L83.51 39.71L83.9161 40.6238C84.3573 40.4277 85.1028 40.29 86.24 40.29V39.29ZM83.51 39.71L83.1039 38.7962C82.4328 39.0945 81.8578 39.4151 81.4153 39.7691L82.04 40.55L82.6647 41.3309C82.9222 41.1249 83.3272 40.8855 83.9161 40.6238L83.51 39.71ZM82.04 40.55L81.4153 39.7691C81.0434 40.0667 80.6175 40.4589 80.3756 40.9428L81.27 41.39L82.1644 41.8372C82.2025 41.7611 82.3366 41.5933 82.6647 41.3309L82.04 40.55ZM81.27 41.39L80.3756 40.9428C80.3545 40.9849 80.3424 41.0035 80.3399 41.0072C80.3373 41.011 80.3517 40.9889 80.3869 40.9576C80.4246 40.9241 80.4829 40.883 80.5619 40.8522C80.6419 40.821 80.718 40.81 80.78 40.81V41.81V42.81C81.1423 42.81 81.4632 42.6767 81.7156 42.4524C81.9348 42.2576 82.0731 42.0199 82.1644 41.8372L81.27 41.39ZM113.33 11.43L113.239 10.4341C112.124 10.5355 111.076 11.2234 109.988 12.2389L110.67 12.97L111.352 13.7011C112.364 12.7566 112.996 12.4645 113.421 12.4259L113.33 11.43ZM110.67 12.97V13.97H111.16V12.97V11.97H110.67V12.97ZM111.16 12.97V13.97C112.161 13.97 113.018 13.9016 113.655 13.7081C113.975 13.611 114.321 13.4588 114.6 13.1975C114.909 12.9084 115.1 12.5148 115.1 12.06H114.1H113.1C113.1 11.9202 113.169 11.7979 113.232 11.7384C113.266 11.7068 113.245 11.7427 113.075 11.7944C112.732 11.8984 112.119 11.97 111.16 11.97V12.97ZM114.1 12.06H115.1C115.1 11.638 114.895 11.2747 114.854 11.1928L113.96 11.64L113.066 12.0872C113.075 12.1052 113.082 12.1199 113.089 12.1341C113.096 12.148 113.101 12.1595 113.106 12.1694C113.116 12.19 113.119 12.1992 113.12 12.2011C113.121 12.2029 113.116 12.1911 113.111 12.1687C113.106 12.1458 113.1 12.1084 113.1 12.06H114.1ZM113.96 11.64L114.854 11.1928C114.659 10.8019 114.317 10.6176 114.066 10.5338C113.818 10.451 113.558 10.43 113.33 10.43V11.43V12.43C113.452 12.43 113.472 12.444 113.434 12.4312C113.393 12.4174 113.191 12.3381 113.066 12.0872L113.96 11.64Z" fill="black" mask="url(#path-1-outside-1_705_94)"/>
<mask id="path-3-outside-2_705_94" maskUnits="userSpaceOnUse" x="141" y="45" width="128" height="32" fill="black">
<rect fill="white" x="141" y="45" width="128" height="32"/>
<path d="M155.387 59.4531C157.21 59.4531 158.648 59.0885 159.703 58.3594C160.771 57.6302 161.305 56.3151 161.305 54.4141C161.305 52.3698 160.562 50.9766 159.078 50.2344C158.284 49.8438 157.223 49.6484 155.895 49.6484H146.402V59.4531H155.387ZM142.516 46.3086H155.797C157.984 46.3086 159.788 46.6276 161.207 47.2656C163.902 48.4896 165.25 50.7487 165.25 54.043C165.25 55.7617 164.892 57.168 164.176 58.2617C163.473 59.3555 162.483 60.2344 161.207 60.8984C162.327 61.3542 163.167 61.9531 163.727 62.6953C164.299 63.4375 164.618 64.6419 164.684 66.3086L164.82 70.1562C164.859 71.25 164.951 72.0638 165.094 72.5977C165.328 73.5091 165.745 74.0951 166.344 74.3555V75H161.578C161.448 74.7526 161.344 74.4336 161.266 74.043C161.188 73.6523 161.122 72.8971 161.07 71.7773L160.836 66.9922C160.745 65.1172 160.048 63.8607 158.746 63.2227C158.004 62.8711 156.839 62.6953 155.25 62.6953H146.402V75H142.516V46.3086ZM189.529 46.3086V49.7266H179.861V75H175.916V49.7266H166.248V46.3086H189.529ZM195.722 46.3086V64.043C195.722 66.1263 196.112 67.8581 196.894 69.2383C198.053 71.3216 200.006 72.3633 202.753 72.3633C206.047 72.3633 208.287 71.237 209.472 68.9844C210.11 67.7604 210.429 66.1133 210.429 64.043V46.3086H214.374V62.4219C214.374 65.9505 213.899 68.6654 212.948 70.5664C211.204 74.0299 207.909 75.7617 203.066 75.7617C198.222 75.7617 194.934 74.0299 193.202 70.5664C192.252 68.6654 191.777 65.9505 191.777 62.4219V46.3086H195.722ZM218.809 46.3086H223.399L237.891 69.5508V46.3086H241.583V75H237.227L222.52 51.7773V75H218.809V46.3086ZM246.487 46.3086H267.405V49.8242H250.276V58.5352H266.116V61.8555H250.276V71.582H267.698V75H246.487V46.3086Z"/>
</mask>
<path d="M155.387 59.4531C157.21 59.4531 158.648 59.0885 159.703 58.3594C160.771 57.6302 161.305 56.3151 161.305 54.4141C161.305 52.3698 160.562 50.9766 159.078 50.2344C158.284 49.8438 157.223 49.6484 155.895 49.6484H146.402V59.4531H155.387ZM142.516 46.3086H155.797C157.984 46.3086 159.788 46.6276 161.207 47.2656C163.902 48.4896 165.25 50.7487 165.25 54.043C165.25 55.7617 164.892 57.168 164.176 58.2617C163.473 59.3555 162.483 60.2344 161.207 60.8984C162.327 61.3542 163.167 61.9531 163.727 62.6953C164.299 63.4375 164.618 64.6419 164.684 66.3086L164.82 70.1562C164.859 71.25 164.951 72.0638 165.094 72.5977C165.328 73.5091 165.745 74.0951 166.344 74.3555V75H161.578C161.448 74.7526 161.344 74.4336 161.266 74.043C161.188 73.6523 161.122 72.8971 161.07 71.7773L160.836 66.9922C160.745 65.1172 160.048 63.8607 158.746 63.2227C158.004 62.8711 156.839 62.6953 155.25 62.6953H146.402V75H142.516V46.3086ZM189.529 46.3086V49.7266H179.861V75H175.916V49.7266H166.248V46.3086H189.529ZM195.722 46.3086V64.043C195.722 66.1263 196.112 67.8581 196.894 69.2383C198.053 71.3216 200.006 72.3633 202.753 72.3633C206.047 72.3633 208.287 71.237 209.472 68.9844C210.11 67.7604 210.429 66.1133 210.429 64.043V46.3086H214.374V62.4219C214.374 65.9505 213.899 68.6654 212.948 70.5664C211.204 74.0299 207.909 75.7617 203.066 75.7617C198.222 75.7617 194.934 74.0299 193.202 70.5664C192.252 68.6654 191.777 65.9505 191.777 62.4219V46.3086H195.722ZM218.809 46.3086H223.399L237.891 69.5508V46.3086H241.583V75H237.227L222.52 51.7773V75H218.809V46.3086ZM246.487 46.3086H267.405V49.8242H250.276V58.5352H266.116V61.8555H250.276V71.582H267.698V75H246.487V46.3086Z" fill="url(#paint1_linear_705_94)"/>
<path d="M159.703 58.3594L159.139 57.5336L159.134 57.5368L159.703 58.3594ZM159.078 50.2344L159.525 49.3399L159.519 49.337L159.078 50.2344ZM146.402 49.6484V48.6484H145.402V49.6484H146.402ZM146.402 59.4531H145.402V60.4531H146.402V59.4531ZM142.516 46.3086V45.3086H141.516V46.3086H142.516ZM161.207 47.2656L161.621 46.3551L161.617 46.3535L161.207 47.2656ZM164.176 58.2617L163.339 57.7139L163.335 57.721L164.176 58.2617ZM161.207 60.8984L160.745 60.0114L158.827 61.0096L160.83 61.8247L161.207 60.8984ZM163.727 62.6953L162.928 63.2976L162.935 63.3064L163.727 62.6953ZM164.684 66.3086L165.683 66.2731L165.683 66.2696L164.684 66.3086ZM164.82 70.1562L163.821 70.1918L163.821 70.1919L164.82 70.1562ZM165.094 72.5977L166.062 72.3486L166.06 72.3385L165.094 72.5977ZM166.344 74.3555H167.344V73.6998L166.742 73.4384L166.344 74.3555ZM166.344 75V76H167.344V75H166.344ZM161.578 75L160.693 75.4657L160.974 76H161.578V75ZM161.07 71.7773L162.069 71.7309L162.069 71.7284L161.07 71.7773ZM160.836 66.9922L159.837 67.0407L159.837 67.0411L160.836 66.9922ZM158.746 63.2227L159.186 62.3246L159.174 62.3189L158.746 63.2227ZM146.402 62.6953V61.6953H145.402V62.6953H146.402ZM146.402 75V76H147.402V75H146.402ZM142.516 75H141.516V76H142.516V75ZM155.387 59.4531V60.4531C157.33 60.4531 158.993 60.066 160.272 59.1819L159.703 58.3594L159.134 57.5368C158.304 58.1111 157.089 58.4531 155.387 58.4531V59.4531ZM159.703 58.3594L160.267 59.1852C161.72 58.1927 162.305 56.4804 162.305 54.4141H161.305H160.305C160.305 56.1498 159.821 57.0677 159.139 57.5336L159.703 58.3594ZM161.305 54.4141H162.305C162.305 52.0966 161.434 50.2941 159.525 49.3399L159.078 50.2344L158.631 51.1288C159.691 51.659 160.305 52.6429 160.305 54.4141H161.305ZM159.078 50.2344L159.519 49.337C158.536 48.8536 157.306 48.6484 155.895 48.6484V49.6484V50.6484C157.14 50.6484 158.031 50.8339 158.637 51.1317L159.078 50.2344ZM155.895 49.6484V48.6484H146.402V49.6484V50.6484H155.895V49.6484ZM146.402 49.6484H145.402V59.4531H146.402H147.402V49.6484H146.402ZM146.402 59.4531V60.4531H155.387V59.4531V58.4531H146.402V59.4531ZM142.516 46.3086V47.3086H155.797V46.3086V45.3086H142.516V46.3086ZM155.797 46.3086V47.3086C157.896 47.3086 159.548 47.6161 160.797 48.1777L161.207 47.2656L161.617 46.3535C160.028 45.6391 158.072 45.3086 155.797 45.3086V46.3086ZM161.207 47.2656L160.794 48.1761C161.98 48.7148 162.824 49.4572 163.38 50.3902C163.941 51.3303 164.25 52.5311 164.25 54.043H165.25H166.25C166.25 52.2605 165.885 50.6847 165.098 49.3656C164.307 48.0396 163.13 47.0404 161.621 46.3551L161.207 47.2656ZM165.25 54.043H164.25C164.25 55.6273 163.92 56.8269 163.339 57.7139L164.176 58.2617L165.012 58.8095C165.864 57.509 166.25 55.8961 166.25 54.043H165.25ZM164.176 58.2617L163.335 57.721C162.735 58.653 161.884 59.419 160.745 60.0114L161.207 60.8984L161.669 61.7855C163.082 61.0498 164.21 60.0579 165.017 58.8025L164.176 58.2617ZM161.207 60.8984L160.83 61.8247C161.832 62.2324 162.505 62.7365 162.928 63.2976L163.727 62.6953L164.525 62.0931C163.828 61.1697 162.822 60.476 161.584 59.9722L161.207 60.8984ZM163.727 62.6953L162.935 63.3064C163.315 63.7991 163.622 64.7464 163.684 66.3476L164.684 66.3086L165.683 66.2696C165.615 64.5375 165.284 63.0759 164.518 62.0843L163.727 62.6953ZM164.684 66.3086L163.684 66.3441L163.821 70.1918L164.82 70.1562L165.82 70.1207L165.683 66.2731L164.684 66.3086ZM164.82 70.1562L163.821 70.1919C163.861 71.3029 163.954 72.2095 164.128 72.8568L165.094 72.5977L166.06 72.3385C165.947 71.9181 165.858 71.1971 165.82 70.1206L164.82 70.1562ZM165.094 72.5977L164.125 72.8467C164.401 73.919 164.954 74.8419 165.945 75.2725L166.344 74.3555L166.742 73.4384C166.535 73.3483 166.255 73.0992 166.062 72.3486L165.094 72.5977ZM166.344 74.3555H165.344V75H166.344H167.344V74.3555H166.344ZM166.344 75V74H161.578V75V76H166.344V75ZM161.578 75L162.463 74.5343C162.392 74.3992 162.313 74.1799 162.246 73.8469L161.266 74.043L160.285 74.2391C160.375 74.6873 160.504 75.106 160.693 75.4657L161.578 75ZM161.266 74.043L162.246 73.8469C162.185 73.5415 162.122 72.8598 162.069 71.7309L161.07 71.7773L160.071 71.8238C160.123 72.9345 160.19 73.7632 160.285 74.2391L161.266 74.043ZM161.07 71.7773L162.069 71.7284L161.835 66.9433L160.836 66.9922L159.837 67.0411L160.072 71.8263L161.07 71.7773ZM160.836 66.9922L161.835 66.9436C161.732 64.8292 160.914 63.1711 159.186 62.3247L158.746 63.2227L158.306 64.1206C159.183 64.5502 159.758 65.4051 159.837 67.0407L160.836 66.9922ZM158.746 63.2227L159.174 62.3189C158.224 61.8688 156.873 61.6953 155.25 61.6953V62.6953V63.6953C156.804 63.6953 157.784 63.8734 158.318 64.1264L158.746 63.2227ZM155.25 62.6953V61.6953H146.402V62.6953V63.6953H155.25V62.6953ZM146.402 62.6953H145.402V75H146.402H147.402V62.6953H146.402ZM146.402 75V74H142.516V75V76H146.402V75ZM142.516 75H143.516V46.3086H142.516H141.516V75H142.516ZM189.529 46.3086H190.529V45.3086H189.529V46.3086ZM189.529 49.7266V50.7266H190.529V49.7266H189.529ZM179.861 49.7266V48.7266H178.861V49.7266H179.861ZM179.861 75V76H180.861V75H179.861ZM175.916 75H174.916V76H175.916V75ZM175.916 49.7266H176.916V48.7266H175.916V49.7266ZM166.248 49.7266H165.248V50.7266H166.248V49.7266ZM166.248 46.3086V45.3086H165.248V46.3086H166.248ZM189.529 46.3086H188.529V49.7266H189.529H190.529V46.3086H189.529ZM189.529 49.7266V48.7266H179.861V49.7266V50.7266H189.529V49.7266ZM179.861 49.7266H178.861V75H179.861H180.861V49.7266H179.861ZM179.861 75V74H175.916V75V76H179.861V75ZM175.916 75H176.916V49.7266H175.916H174.916V75H175.916ZM175.916 49.7266V48.7266H166.248V49.7266V50.7266H175.916V49.7266ZM166.248 49.7266H167.248V46.3086H166.248H165.248V49.7266H166.248ZM166.248 46.3086V47.3086H189.529V46.3086V45.3086H166.248V46.3086ZM195.722 46.3086H196.722V45.3086H195.722V46.3086ZM196.894 69.2383L197.768 68.7522L197.764 68.7457L196.894 69.2383ZM209.472 68.9844L210.357 69.4499L210.359 69.4466L209.472 68.9844ZM210.429 46.3086V45.3086H209.429V46.3086H210.429ZM214.374 46.3086H215.374V45.3086H214.374V46.3086ZM212.948 70.5664L213.842 71.0163L213.843 71.0136L212.948 70.5664ZM191.777 46.3086V45.3086H190.777V46.3086H191.777ZM195.722 46.3086H194.722V64.043H195.722H196.722V46.3086H195.722ZM195.722 64.043H194.722C194.722 66.2464 195.135 68.1605 196.023 69.7309L196.894 69.2383L197.764 68.7457C197.09 67.5556 196.722 66.0062 196.722 64.043H195.722ZM196.894 69.2383L196.02 69.7244C197.385 72.1792 199.709 73.3633 202.753 73.3633V72.3633V71.3633C200.302 71.3633 198.72 70.464 197.768 68.7522L196.894 69.2383ZM202.753 72.3633V73.3633C206.291 73.3633 208.947 72.1308 210.357 69.4499L209.472 68.9844L208.587 68.5188C207.627 70.3431 205.804 71.3633 202.753 71.3633V72.3633ZM209.472 68.9844L210.359 69.4466C211.099 68.0263 211.429 66.2003 211.429 64.043H210.429H209.429C209.429 66.0262 209.121 67.4945 208.585 68.5221L209.472 68.9844ZM210.429 64.043H211.429V46.3086H210.429H209.429V64.043H210.429ZM210.429 46.3086V47.3086H214.374V46.3086V45.3086H210.429V46.3086ZM214.374 46.3086H213.374V62.4219H214.374H215.374V46.3086H214.374ZM214.374 62.4219H213.374C213.374 65.8853 212.904 68.4198 212.054 70.1192L212.948 70.5664L213.843 71.0136C214.894 68.9109 215.374 66.0157 215.374 62.4219H214.374ZM212.948 70.5664L212.055 70.1165C210.526 73.1529 207.644 74.7617 203.066 74.7617V75.7617V76.7617C208.175 76.7617 211.882 74.907 213.842 71.0163L212.948 70.5664ZM203.066 75.7617V74.7617C198.487 74.7617 195.614 73.153 194.097 70.1192L193.202 70.5664L192.308 71.0136C194.255 74.9069 197.957 76.7617 203.066 76.7617V75.7617ZM193.202 70.5664L194.097 70.1192C193.247 68.4198 192.777 65.8853 192.777 62.4219H191.777H190.777C190.777 66.0157 191.257 68.9109 192.308 71.0136L193.202 70.5664ZM191.777 62.4219H192.777V46.3086H191.777H190.777V62.4219H191.777ZM191.777 46.3086V47.3086H195.722V46.3086V45.3086H191.777V46.3086ZM218.809 46.3086V45.3086H217.809V46.3086H218.809ZM223.399 46.3086L224.248 45.7795L223.954 45.3086H223.399V46.3086ZM237.891 69.5508L237.043 70.0799L238.891 73.0446V69.5508H237.891ZM237.891 46.3086V45.3086H236.891V46.3086H237.891ZM241.583 46.3086H242.583V45.3086H241.583V46.3086ZM241.583 75V76H242.583V75H241.583ZM237.227 75L236.383 75.535L236.677 76H237.227V75ZM222.52 51.7773L223.365 51.2423L221.52 48.3293V51.7773H222.52ZM222.52 75V76H223.52V75H222.52ZM218.809 75H217.809V76H218.809V75ZM218.809 46.3086V47.3086H223.399V46.3086V45.3086H218.809V46.3086ZM223.399 46.3086L222.551 46.8377L237.043 70.0799L237.891 69.5508L238.74 69.0217L224.248 45.7795L223.399 46.3086ZM237.891 69.5508H238.891V46.3086H237.891H236.891V69.5508H237.891ZM237.891 46.3086V47.3086H241.583V46.3086V45.3086H237.891V46.3086ZM241.583 46.3086H240.583V75H241.583H242.583V46.3086H241.583ZM241.583 75V74H237.227V75V76H241.583V75ZM237.227 75L238.072 74.465L223.365 51.2423L222.52 51.7773L221.675 52.3124L236.383 75.535L237.227 75ZM222.52 51.7773H221.52V75H222.52H223.52V51.7773H222.52ZM222.52 75V74H218.809V75V76H222.52V75ZM218.809 75H219.809V46.3086H218.809H217.809V75H218.809ZM246.487 46.3086V45.3086H245.487V46.3086H246.487ZM267.405 46.3086H268.405V45.3086H267.405V46.3086ZM267.405 49.8242V50.8242H268.405V49.8242H267.405ZM250.276 49.8242V48.8242H249.276V49.8242H250.276ZM250.276 58.5352H249.276V59.5352H250.276V58.5352ZM266.116 58.5352H267.116V57.5352H266.116V58.5352ZM266.116 61.8555V62.8555H267.116V61.8555H266.116ZM250.276 61.8555V60.8555H249.276V61.8555H250.276ZM250.276 71.582H249.276V72.582H250.276V71.582ZM267.698 71.582H268.698V70.582H267.698V71.582ZM267.698 75V76H268.698V75H267.698ZM246.487 75H245.487V76H246.487V75ZM246.487 46.3086V47.3086H267.405V46.3086V45.3086H246.487V46.3086ZM267.405 46.3086H266.405V49.8242H267.405H268.405V46.3086H267.405ZM267.405 49.8242V48.8242H250.276V49.8242V50.8242H267.405V49.8242ZM250.276 49.8242H249.276V58.5352H250.276H251.276V49.8242H250.276ZM250.276 58.5352V59.5352H266.116V58.5352V57.5352H250.276V58.5352ZM266.116 58.5352H265.116V61.8555H266.116H267.116V58.5352H266.116ZM266.116 61.8555V60.8555H250.276V61.8555V62.8555H266.116V61.8555ZM250.276 61.8555H249.276V71.582H250.276H251.276V61.8555H250.276ZM250.276 71.582V72.582H267.698V71.582V70.582H250.276V71.582ZM267.698 71.582H266.698V75H267.698H268.698V71.582H267.698ZM267.698 75V74H246.487V75V76H267.698V75ZM246.487 75H247.487V46.3086H246.487H245.487V75H246.487Z" fill="black" mask="url(#path-3-outside-2_705_94)"/>
<defs>
<linearGradient id="paint0_linear_705_94" x1="51" y1="7" x2="51" y2="105" gradientUnits="userSpaceOnUse">
<stop stop-color="#E5FFB0"/>
<stop offset="1" stop-color="#ABFF00"/>
</linearGradient>
<linearGradient id="paint1_linear_705_94" x1="204.5" y1="33" x2="204.5" y2="89" gradientUnits="userSpaceOnUse">
<stop stop-color="#E5FFB0"/>
<stop offset="1" stop-color="#ABFF00"/>
</linearGradient>
</defs>
</svg>
