<svg width="386" height="108" viewBox="0 0 386 108" fill="none" xmlns="http://www.w3.org/2000/svg">
<mask id="path-1-outside-1_702_24" maskUnits="userSpaceOnUse" x="0.799805" y="0.5" width="105" height="83" fill="black">
<rect fill="white" x="0.799805" y="0.5" width="105" height="83"/>
<path d="M32.7398 50.99C32.7398 51.27 31.6198 51.76 30.8498 52.46C30.0798 53.16 29.0298 53.86 27.6998 54.56C26.3698 55.26 24.8298 55.89 23.0798 56.45C21.3298 57.01 19.5098 57.29 17.5498 57.29C15.4498 57.29 13.4198 57.01 11.5298 56.38C9.63981 55.75 7.95981 54.84 6.4898 53.58C5.0198 52.32 3.8998 50.71 3.05981 48.82C2.21981 46.93 1.7998 44.69 1.7998 42.1C1.7998 38.74 2.4298 35.38 3.68981 32.09C4.94981 28.8 6.69981 25.65 8.93981 22.64C11.1798 19.63 13.8398 16.83 16.8498 14.24C19.8598 11.65 23.1498 9.41 26.6498 7.52C30.1498 5.63 33.7898 4.16 37.6398 3.11C41.4898 2.06 45.3398 1.5 49.1898 1.5C55.7698 1.5 60.8798 3.18 64.5198 6.54C68.1598 9.9 69.9798 14.94 69.9798 21.73C69.9798 23.9 69.8398 26.21 69.4898 28.73C69.1398 31.25 68.6498 33.84 68.0198 36.5C67.3898 39.16 66.6198 41.82 65.7098 44.48C64.7998 47.14 63.8198 49.73 62.7698 52.18C66.1298 51.27 69.4898 50.43 72.9198 49.66C75.0198 49.17 76.9798 48.68 78.7998 48.19C80.6198 47.7 82.2998 47.21 83.8398 46.72C85.4498 44.2 87.0598 41.82 88.6698 39.58C90.2798 37.34 91.8198 35.38 93.2898 33.7C94.7598 32.02 96.1598 30.69 97.4898 29.71C98.8198 28.73 99.9398 28.24 100.85 28.24C102.11 28.24 102.95 28.66 103.44 29.5C103.93 30.34 104.14 31.32 104.14 32.37C104.14 34.05 103.72 35.59 102.81 37.06C101.9 38.53 100.64 39.86 99.0298 41.12C97.4198 42.38 95.5298 43.57 93.2898 44.62C91.0498 45.67 88.5998 46.65 85.9398 47.56C84.7498 50.01 83.6298 52.53 82.5798 55.12C81.5298 57.71 80.6198 60.16 79.8498 62.54C79.0798 64.92 78.4498 67.09 78.0298 69.12C77.6098 71.15 77.3998 72.83 77.3998 74.16C77.3998 75.63 77.7498 76.89 78.4498 77.94C79.1498 78.99 80.3398 79.55 81.9498 79.55C82.9998 79.55 83.7698 79.41 84.3298 79.06C84.8898 78.71 85.2398 78.57 85.3798 78.57C85.5898 78.57 85.7298 78.71 85.7298 78.92C85.7298 79.13 85.5198 79.41 85.0998 79.76C84.6798 80.11 84.1898 80.46 83.5598 80.81C82.9298 81.16 82.1598 81.44 81.3198 81.65C80.4798 81.86 79.5698 82 78.6598 82C76.6998 82 75.0898 81.44 73.8298 80.32C72.5698 79.2 71.9398 77.52 71.9398 75.28C71.9398 73.95 72.2898 72.2 72.9898 70.03C73.6898 67.86 74.5298 65.55 75.5798 63.1C76.6298 60.65 77.8198 58.13 79.1498 55.61C80.4798 53.09 81.8098 50.71 83.1398 48.54C81.6698 48.96 80.1998 49.38 78.7298 49.73C77.2598 50.08 75.7198 50.43 74.1798 50.78C72.1498 51.2 70.1898 51.62 68.2298 52.11C66.2698 52.6 64.3798 53.09 62.4898 53.58C60.7398 57.43 58.8498 61.07 56.7498 64.5C54.6498 67.93 52.4798 70.94 50.2398 73.53C47.9998 76.12 45.6898 78.15 43.3098 79.69C40.9298 81.23 38.6898 82 36.5198 82C34.9098 82 33.4398 81.51 32.1798 80.53C30.9198 79.55 30.2898 77.94 30.2898 75.77C30.2898 73.39 31.0598 71.15 32.5298 68.98C33.9998 66.81 36.0998 64.78 38.7598 62.89C41.4198 61 44.5698 59.25 48.2098 57.64C51.8498 56.03 55.8398 54.56 60.1798 53.23C61.7898 49.1 63.0498 44.55 64.0298 39.58C65.0098 34.61 65.4998 29.71 65.4998 24.88C65.4998 18.09 64.0298 12.84 61.0898 9.06C58.1498 5.28 53.5298 3.39 47.1598 3.39C44.3598 3.39 41.4198 3.74 38.3398 4.51C35.2598 5.28 32.2498 6.4 29.3098 7.87C26.3698 9.34 23.5698 11.09 20.9098 13.19C18.2498 15.29 15.9398 17.67 13.9098 20.4C11.8798 23.13 10.2698 26.14 9.07981 29.43C7.88981 32.72 7.32981 36.29 7.32981 40.14C7.32981 42.59 7.67981 44.76 8.37981 46.65C9.07981 48.54 10.0598 50.15 11.2498 51.48C12.4398 52.81 13.7698 53.79 15.2398 54.49C16.7098 55.19 18.2498 55.54 19.8598 55.54C21.5398 55.54 23.1498 55.26 24.6198 54.77C26.0898 54.28 27.4198 53.72 28.5398 53.09C29.6598 52.46 30.5698 51.9 31.2698 51.41C31.9698 50.92 32.3898 50.64 32.4598 50.64C32.6698 50.64 32.7398 50.78 32.7398 50.99ZM38.4098 78.15C39.9498 78.01 41.6298 77.45 43.4498 76.33C45.2698 75.21 47.0898 73.6 48.9098 71.57C50.7298 69.54 52.5498 67.09 54.2998 64.22C56.0498 61.35 57.6598 58.13 59.1298 54.56C55.6298 55.68 52.4098 56.87 49.3998 58.2C46.3898 59.53 43.7998 61 41.5598 62.61C39.3198 64.22 37.5698 65.9 36.3098 67.72C35.0498 69.54 34.4198 71.5 34.4198 73.53C34.4198 74.93 34.7698 76.05 35.4698 76.89C36.1698 77.73 37.1498 78.15 38.4098 78.15ZM98.3298 30.97C97.6998 30.97 96.9998 31.32 96.0898 32.09C95.1798 32.86 94.1998 33.91 93.1498 35.24C92.0998 36.57 90.9798 38.11 89.8598 39.93C88.7398 41.75 87.6198 43.71 86.4998 45.81C88.9498 44.9 91.0498 43.92 92.7298 42.87C94.4098 41.82 95.8098 40.77 96.8598 39.72C97.9098 38.67 98.6798 37.55 99.0998 36.43C99.5198 35.31 99.7298 34.19 99.7298 33C99.7298 31.67 99.2398 30.97 98.3298 30.97Z"/>
</mask>
<path d="M32.7398 50.99C32.7398 51.27 31.6198 51.76 30.8498 52.46C30.0798 53.16 29.0298 53.86 27.6998 54.56C26.3698 55.26 24.8298 55.89 23.0798 56.45C21.3298 57.01 19.5098 57.29 17.5498 57.29C15.4498 57.29 13.4198 57.01 11.5298 56.38C9.63981 55.75 7.95981 54.84 6.4898 53.58C5.0198 52.32 3.8998 50.71 3.05981 48.82C2.21981 46.93 1.7998 44.69 1.7998 42.1C1.7998 38.74 2.4298 35.38 3.68981 32.09C4.94981 28.8 6.69981 25.65 8.93981 22.64C11.1798 19.63 13.8398 16.83 16.8498 14.24C19.8598 11.65 23.1498 9.41 26.6498 7.52C30.1498 5.63 33.7898 4.16 37.6398 3.11C41.4898 2.06 45.3398 1.5 49.1898 1.5C55.7698 1.5 60.8798 3.18 64.5198 6.54C68.1598 9.9 69.9798 14.94 69.9798 21.73C69.9798 23.9 69.8398 26.21 69.4898 28.73C69.1398 31.25 68.6498 33.84 68.0198 36.5C67.3898 39.16 66.6198 41.82 65.7098 44.48C64.7998 47.14 63.8198 49.73 62.7698 52.18C66.1298 51.27 69.4898 50.43 72.9198 49.66C75.0198 49.17 76.9798 48.68 78.7998 48.19C80.6198 47.7 82.2998 47.21 83.8398 46.72C85.4498 44.2 87.0598 41.82 88.6698 39.58C90.2798 37.34 91.8198 35.38 93.2898 33.7C94.7598 32.02 96.1598 30.69 97.4898 29.71C98.8198 28.73 99.9398 28.24 100.85 28.24C102.11 28.24 102.95 28.66 103.44 29.5C103.93 30.34 104.14 31.32 104.14 32.37C104.14 34.05 103.72 35.59 102.81 37.06C101.9 38.53 100.64 39.86 99.0298 41.12C97.4198 42.38 95.5298 43.57 93.2898 44.62C91.0498 45.67 88.5998 46.65 85.9398 47.56C84.7498 50.01 83.6298 52.53 82.5798 55.12C81.5298 57.71 80.6198 60.16 79.8498 62.54C79.0798 64.92 78.4498 67.09 78.0298 69.12C77.6098 71.15 77.3998 72.83 77.3998 74.16C77.3998 75.63 77.7498 76.89 78.4498 77.94C79.1498 78.99 80.3398 79.55 81.9498 79.55C82.9998 79.55 83.7698 79.41 84.3298 79.06C84.8898 78.71 85.2398 78.57 85.3798 78.57C85.5898 78.57 85.7298 78.71 85.7298 78.92C85.7298 79.13 85.5198 79.41 85.0998 79.76C84.6798 80.11 84.1898 80.46 83.5598 80.81C82.9298 81.16 82.1598 81.44 81.3198 81.65C80.4798 81.86 79.5698 82 78.6598 82C76.6998 82 75.0898 81.44 73.8298 80.32C72.5698 79.2 71.9398 77.52 71.9398 75.28C71.9398 73.95 72.2898 72.2 72.9898 70.03C73.6898 67.86 74.5298 65.55 75.5798 63.1C76.6298 60.65 77.8198 58.13 79.1498 55.61C80.4798 53.09 81.8098 50.71 83.1398 48.54C81.6698 48.96 80.1998 49.38 78.7298 49.73C77.2598 50.08 75.7198 50.43 74.1798 50.78C72.1498 51.2 70.1898 51.62 68.2298 52.11C66.2698 52.6 64.3798 53.09 62.4898 53.58C60.7398 57.43 58.8498 61.07 56.7498 64.5C54.6498 67.93 52.4798 70.94 50.2398 73.53C47.9998 76.12 45.6898 78.15 43.3098 79.69C40.9298 81.23 38.6898 82 36.5198 82C34.9098 82 33.4398 81.51 32.1798 80.53C30.9198 79.55 30.2898 77.94 30.2898 75.77C30.2898 73.39 31.0598 71.15 32.5298 68.98C33.9998 66.81 36.0998 64.78 38.7598 62.89C41.4198 61 44.5698 59.25 48.2098 57.64C51.8498 56.03 55.8398 54.56 60.1798 53.23C61.7898 49.1 63.0498 44.55 64.0298 39.58C65.0098 34.61 65.4998 29.71 65.4998 24.88C65.4998 18.09 64.0298 12.84 61.0898 9.06C58.1498 5.28 53.5298 3.39 47.1598 3.39C44.3598 3.39 41.4198 3.74 38.3398 4.51C35.2598 5.28 32.2498 6.4 29.3098 7.87C26.3698 9.34 23.5698 11.09 20.9098 13.19C18.2498 15.29 15.9398 17.67 13.9098 20.4C11.8798 23.13 10.2698 26.14 9.07981 29.43C7.88981 32.72 7.32981 36.29 7.32981 40.14C7.32981 42.59 7.67981 44.76 8.37981 46.65C9.07981 48.54 10.0598 50.15 11.2498 51.48C12.4398 52.81 13.7698 53.79 15.2398 54.49C16.7098 55.19 18.2498 55.54 19.8598 55.54C21.5398 55.54 23.1498 55.26 24.6198 54.77C26.0898 54.28 27.4198 53.72 28.5398 53.09C29.6598 52.46 30.5698 51.9 31.2698 51.41C31.9698 50.92 32.3898 50.64 32.4598 50.64C32.6698 50.64 32.7398 50.78 32.7398 50.99ZM38.4098 78.15C39.9498 78.01 41.6298 77.45 43.4498 76.33C45.2698 75.21 47.0898 73.6 48.9098 71.57C50.7298 69.54 52.5498 67.09 54.2998 64.22C56.0498 61.35 57.6598 58.13 59.1298 54.56C55.6298 55.68 52.4098 56.87 49.3998 58.2C46.3898 59.53 43.7998 61 41.5598 62.61C39.3198 64.22 37.5698 65.9 36.3098 67.72C35.0498 69.54 34.4198 71.5 34.4198 73.53C34.4198 74.93 34.7698 76.05 35.4698 76.89C36.1698 77.73 37.1498 78.15 38.4098 78.15ZM98.3298 30.97C97.6998 30.97 96.9998 31.32 96.0898 32.09C95.1798 32.86 94.1998 33.91 93.1498 35.24C92.0998 36.57 90.9798 38.11 89.8598 39.93C88.7398 41.75 87.6198 43.71 86.4998 45.81C88.9498 44.9 91.0498 43.92 92.7298 42.87C94.4098 41.82 95.8098 40.77 96.8598 39.72C97.9098 38.67 98.6798 37.55 99.0998 36.43C99.5198 35.31 99.7298 34.19 99.7298 33C99.7298 31.67 99.2398 30.97 98.3298 30.97Z" fill="url(#paint0_linear_702_24)"/>
<path d="M32.7398 50.99C32.7398 51.27 31.6198 51.76 30.8498 52.46C30.0798 53.16 29.0298 53.86 27.6998 54.56C26.3698 55.26 24.8298 55.89 23.0798 56.45C21.3298 57.01 19.5098 57.29 17.5498 57.29C15.4498 57.29 13.4198 57.01 11.5298 56.38C9.63981 55.75 7.95981 54.84 6.4898 53.58C5.0198 52.32 3.8998 50.71 3.05981 48.82C2.21981 46.93 1.7998 44.69 1.7998 42.1C1.7998 38.74 2.4298 35.38 3.68981 32.09C4.94981 28.8 6.69981 25.65 8.93981 22.64C11.1798 19.63 13.8398 16.83 16.8498 14.24C19.8598 11.65 23.1498 9.41 26.6498 7.52C30.1498 5.63 33.7898 4.16 37.6398 3.11C41.4898 2.06 45.3398 1.5 49.1898 1.5C55.7698 1.5 60.8798 3.18 64.5198 6.54C68.1598 9.9 69.9798 14.94 69.9798 21.73C69.9798 23.9 69.8398 26.21 69.4898 28.73C69.1398 31.25 68.6498 33.84 68.0198 36.5C67.3898 39.16 66.6198 41.82 65.7098 44.48C64.7998 47.14 63.8198 49.73 62.7698 52.18C66.1298 51.27 69.4898 50.43 72.9198 49.66C75.0198 49.17 76.9798 48.68 78.7998 48.19C80.6198 47.7 82.2998 47.21 83.8398 46.72C85.4498 44.2 87.0598 41.82 88.6698 39.58C90.2798 37.34 91.8198 35.38 93.2898 33.7C94.7598 32.02 96.1598 30.69 97.4898 29.71C98.8198 28.73 99.9398 28.24 100.85 28.24C102.11 28.24 102.95 28.66 103.44 29.5C103.93 30.34 104.14 31.32 104.14 32.37C104.14 34.05 103.72 35.59 102.81 37.06C101.9 38.53 100.64 39.86 99.0298 41.12C97.4198 42.38 95.5298 43.57 93.2898 44.62C91.0498 45.67 88.5998 46.65 85.9398 47.56C84.7498 50.01 83.6298 52.53 82.5798 55.12C81.5298 57.71 80.6198 60.16 79.8498 62.54C79.0798 64.92 78.4498 67.09 78.0298 69.12C77.6098 71.15 77.3998 72.83 77.3998 74.16C77.3998 75.63 77.7498 76.89 78.4498 77.94C79.1498 78.99 80.3398 79.55 81.9498 79.55C82.9998 79.55 83.7698 79.41 84.3298 79.06C84.8898 78.71 85.2398 78.57 85.3798 78.57C85.5898 78.57 85.7298 78.71 85.7298 78.92C85.7298 79.13 85.5198 79.41 85.0998 79.76C84.6798 80.11 84.1898 80.46 83.5598 80.81C82.9298 81.16 82.1598 81.44 81.3198 81.65C80.4798 81.86 79.5698 82 78.6598 82C76.6998 82 75.0898 81.44 73.8298 80.32C72.5698 79.2 71.9398 77.52 71.9398 75.28C71.9398 73.95 72.2898 72.2 72.9898 70.03C73.6898 67.86 74.5298 65.55 75.5798 63.1C76.6298 60.65 77.8198 58.13 79.1498 55.61C80.4798 53.09 81.8098 50.71 83.1398 48.54C81.6698 48.96 80.1998 49.38 78.7298 49.73C77.2598 50.08 75.7198 50.43 74.1798 50.78C72.1498 51.2 70.1898 51.62 68.2298 52.11C66.2698 52.6 64.3798 53.09 62.4898 53.58C60.7398 57.43 58.8498 61.07 56.7498 64.5C54.6498 67.93 52.4798 70.94 50.2398 73.53C47.9998 76.12 45.6898 78.15 43.3098 79.69C40.9298 81.23 38.6898 82 36.5198 82C34.9098 82 33.4398 81.51 32.1798 80.53C30.9198 79.55 30.2898 77.94 30.2898 75.77C30.2898 73.39 31.0598 71.15 32.5298 68.98C33.9998 66.81 36.0998 64.78 38.7598 62.89C41.4198 61 44.5698 59.25 48.2098 57.64C51.8498 56.03 55.8398 54.56 60.1798 53.23C61.7898 49.1 63.0498 44.55 64.0298 39.58C65.0098 34.61 65.4998 29.71 65.4998 24.88C65.4998 18.09 64.0298 12.84 61.0898 9.06C58.1498 5.28 53.5298 3.39 47.1598 3.39C44.3598 3.39 41.4198 3.74 38.3398 4.51C35.2598 5.28 32.2498 6.4 29.3098 7.87C26.3698 9.34 23.5698 11.09 20.9098 13.19C18.2498 15.29 15.9398 17.67 13.9098 20.4C11.8798 23.13 10.2698 26.14 9.07981 29.43C7.88981 32.72 7.32981 36.29 7.32981 40.14C7.32981 42.59 7.67981 44.76 8.37981 46.65C9.07981 48.54 10.0598 50.15 11.2498 51.48C12.4398 52.81 13.7698 53.79 15.2398 54.49C16.7098 55.19 18.2498 55.54 19.8598 55.54C21.5398 55.54 23.1498 55.26 24.6198 54.77C26.0898 54.28 27.4198 53.72 28.5398 53.09C29.6598 52.46 30.5698 51.9 31.2698 51.41C31.9698 50.92 32.3898 50.64 32.4598 50.64C32.6698 50.64 32.7398 50.78 32.7398 50.99ZM38.4098 78.15C39.9498 78.01 41.6298 77.45 43.4498 76.33C45.2698 75.21 47.0898 73.6 48.9098 71.57C50.7298 69.54 52.5498 67.09 54.2998 64.22C56.0498 61.35 57.6598 58.13 59.1298 54.56C55.6298 55.68 52.4098 56.87 49.3998 58.2C46.3898 59.53 43.7998 61 41.5598 62.61C39.3198 64.22 37.5698 65.9 36.3098 67.72C35.0498 69.54 34.4198 71.5 34.4198 73.53C34.4198 74.93 34.7698 76.05 35.4698 76.89C36.1698 77.73 37.1498 78.15 38.4098 78.15ZM98.3298 30.97C97.6998 30.97 96.9998 31.32 96.0898 32.09C95.1798 32.86 94.1998 33.91 93.1498 35.24C92.0998 36.57 90.9798 38.11 89.8598 39.93C88.7398 41.75 87.6198 43.71 86.4998 45.81C88.9498 44.9 91.0498 43.92 92.7298 42.87C94.4098 41.82 95.8098 40.77 96.8598 39.72C97.9098 38.67 98.6798 37.55 99.0998 36.43C99.5198 35.31 99.7298 34.19 99.7298 33C99.7298 31.67 99.2398 30.97 98.3298 30.97Z" stroke="black" stroke-width="2" mask="url(#path-1-outside-1_702_24)"/>
<mask id="path-2-outside-2_702_24" maskUnits="userSpaceOnUse" x="236" y="7" width="86" height="82" fill="black">
<rect fill="white" x="236" y="7" width="86" height="82"/>
<path d="M253.94 67.98L253.1 67.91C251.07 67.91 249.11 67.56 247.29 66.93C245.47 66.3 243.86 65.25 242.46 63.85C241.06 62.45 239.94 60.63 239.1 58.46C238.26 56.29 237.84 53.63 237.84 50.55C237.84 47.54 238.4 44.46 239.52 41.24C240.64 38.02 242.32 34.87 244.49 31.79C246.66 28.71 249.25 25.77 252.33 23.04C255.41 20.31 258.91 17.86 262.76 15.76C266.61 13.66 270.81 11.98 275.36 10.79C279.91 9.6 284.74 8.97 289.85 8.97C294.19 8.97 298.25 9.46 301.96 10.44C305.67 11.42 308.89 12.89 311.62 14.85C314.35 16.81 316.52 19.19 318.06 22.06C319.6 24.93 320.37 28.22 320.37 32C320.37 35.01 319.81 38.02 318.62 40.96C317.43 43.9 315.75 46.56 313.58 48.87C311.41 51.18 308.75 53.07 305.67 54.47C302.59 55.87 299.16 56.57 295.38 56.57C290.83 56.57 287.12 55.38 284.25 53.07C282.64 55.8 281.1 58.53 279.56 61.26C278.02 63.99 276.62 66.58 275.43 69.03C274.24 71.48 273.26 73.79 272.49 75.96C271.72 78.13 271.37 80.02 271.37 81.63C271.37 83.38 271.93 84.22 273.12 84.22C273.54 84.22 273.96 84.08 274.31 83.87C274.66 83.66 275.01 83.38 275.36 83.1C275.71 82.82 275.99 82.54 276.2 82.33C276.41 82.12 276.62 81.98 276.76 81.98C276.97 81.98 277.04 82.12 277.04 82.33C277.04 82.54 276.83 82.89 276.41 83.38C275.99 83.87 275.43 84.36 274.73 84.92C274.03 85.48 273.26 85.97 272.42 86.39C271.58 86.81 270.74 87.02 269.97 87.02C269.48 87.02 268.99 86.95 268.43 86.81C267.87 86.67 267.38 86.39 266.89 85.97C266.4 85.55 265.98 84.92 265.7 84.15C265.42 83.38 265.28 82.4 265.28 81.21C265.28 79.46 265.77 77.36 266.82 74.98C267.87 72.6 269.2 70.08 270.81 67.42C272.42 64.76 274.24 61.96 276.2 59.09C278.16 56.22 280.12 53.35 282.01 50.48C280.4 48.17 279.56 45.37 279.56 42.08C279.56 39.98 279.91 37.95 280.61 35.99C281.31 34.03 282.22 32.28 283.34 30.74C284.46 29.2 285.72 27.94 287.05 27.03C288.38 26.12 289.71 25.63 291.04 25.63C292.23 25.63 293.07 26.12 293.49 27.1C293.91 28.08 294.12 29.2 294.12 30.39C294.12 31.72 293.91 33.19 293.42 34.8C292.93 36.41 292.3 38.16 291.46 39.98C290.62 41.8 289.64 43.76 288.52 45.79C287.4 47.82 286.28 49.85 285.09 51.95C287.68 54.33 291.04 55.52 295.17 55.52C298.53 55.52 301.54 54.82 304.13 53.49C306.72 52.16 308.89 50.41 310.64 48.24C312.39 46.07 313.72 43.62 314.63 40.89C315.54 38.16 316.03 35.43 316.03 32.7C316.03 28.78 315.33 25.42 313.86 22.62C312.39 19.82 310.43 17.51 307.91 15.69C305.39 13.87 302.52 12.54 299.23 11.7C295.94 10.86 292.51 10.44 288.87 10.44C285.02 10.44 281.17 10.86 277.39 11.77C273.61 12.68 270.04 13.94 266.61 15.55C263.18 17.16 260.03 19.12 257.16 21.43C254.29 23.74 251.77 26.33 249.67 29.2C247.57 32.07 245.89 35.22 244.7 38.65C243.51 42.08 242.88 45.65 242.88 49.43C242.88 54.33 244.07 58.25 246.45 61.12C248.83 63.99 252.19 65.46 256.6 65.46C259.05 65.46 261.08 65.11 262.62 64.41C264.16 63.71 265.35 62.94 266.19 62.1C267.03 61.26 267.66 60.49 268.01 59.79C268.36 59.09 268.64 58.74 268.85 58.74C269.13 58.74 269.27 59.02 269.27 59.58C269.27 60.14 268.92 60.91 268.15 61.89C267.38 62.87 266.33 63.78 265 64.69C263.67 65.6 262.06 66.37 260.17 67C258.28 67.63 256.18 67.98 253.94 67.98ZM280.61 42.08C280.54 43.48 280.68 44.74 281.03 45.93C281.38 47.12 281.87 48.24 282.5 49.29C283.69 47.4 284.81 45.58 285.86 43.76C286.91 41.94 287.89 40.19 288.73 38.51C289.57 36.83 290.2 35.22 290.69 33.75C291.18 32.28 291.39 30.88 291.39 29.62C291.39 28.99 291.25 28.36 290.97 27.8C290.69 27.24 290.27 26.96 289.71 26.96C288.73 26.96 287.68 27.38 286.63 28.29C285.58 29.2 284.6 30.39 283.69 31.86C282.78 33.33 282.01 34.94 281.45 36.76C280.89 38.58 280.61 40.33 280.61 42.08Z"/>
</mask>
<path d="M253.94 67.98L253.1 67.91C251.07 67.91 249.11 67.56 247.29 66.93C245.47 66.3 243.86 65.25 242.46 63.85C241.06 62.45 239.94 60.63 239.1 58.46C238.26 56.29 237.84 53.63 237.84 50.55C237.84 47.54 238.4 44.46 239.52 41.24C240.64 38.02 242.32 34.87 244.49 31.79C246.66 28.71 249.25 25.77 252.33 23.04C255.41 20.31 258.91 17.86 262.76 15.76C266.61 13.66 270.81 11.98 275.36 10.79C279.91 9.6 284.74 8.97 289.85 8.97C294.19 8.97 298.25 9.46 301.96 10.44C305.67 11.42 308.89 12.89 311.62 14.85C314.35 16.81 316.52 19.19 318.06 22.06C319.6 24.93 320.37 28.22 320.37 32C320.37 35.01 319.81 38.02 318.62 40.96C317.43 43.9 315.75 46.56 313.58 48.87C311.41 51.18 308.75 53.07 305.67 54.47C302.59 55.87 299.16 56.57 295.38 56.57C290.83 56.57 287.12 55.38 284.25 53.07C282.64 55.8 281.1 58.53 279.56 61.26C278.02 63.99 276.62 66.58 275.43 69.03C274.24 71.48 273.26 73.79 272.49 75.96C271.72 78.13 271.37 80.02 271.37 81.63C271.37 83.38 271.93 84.22 273.12 84.22C273.54 84.22 273.96 84.08 274.31 83.87C274.66 83.66 275.01 83.38 275.36 83.1C275.71 82.82 275.99 82.54 276.2 82.33C276.41 82.12 276.62 81.98 276.76 81.98C276.97 81.98 277.04 82.12 277.04 82.33C277.04 82.54 276.83 82.89 276.41 83.38C275.99 83.87 275.43 84.36 274.73 84.92C274.03 85.48 273.26 85.97 272.42 86.39C271.58 86.81 270.74 87.02 269.97 87.02C269.48 87.02 268.99 86.95 268.43 86.81C267.87 86.67 267.38 86.39 266.89 85.97C266.4 85.55 265.98 84.92 265.7 84.15C265.42 83.38 265.28 82.4 265.28 81.21C265.28 79.46 265.77 77.36 266.82 74.98C267.87 72.6 269.2 70.08 270.81 67.42C272.42 64.76 274.24 61.96 276.2 59.09C278.16 56.22 280.12 53.35 282.01 50.48C280.4 48.17 279.56 45.37 279.56 42.08C279.56 39.98 279.91 37.95 280.61 35.99C281.31 34.03 282.22 32.28 283.34 30.74C284.46 29.2 285.72 27.94 287.05 27.03C288.38 26.12 289.71 25.63 291.04 25.63C292.23 25.63 293.07 26.12 293.49 27.1C293.91 28.08 294.12 29.2 294.12 30.39C294.12 31.72 293.91 33.19 293.42 34.8C292.93 36.41 292.3 38.16 291.46 39.98C290.62 41.8 289.64 43.76 288.52 45.79C287.4 47.82 286.28 49.85 285.09 51.95C287.68 54.33 291.04 55.52 295.17 55.52C298.53 55.52 301.54 54.82 304.13 53.49C306.72 52.16 308.89 50.41 310.64 48.24C312.39 46.07 313.72 43.62 314.63 40.89C315.54 38.16 316.03 35.43 316.03 32.7C316.03 28.78 315.33 25.42 313.86 22.62C312.39 19.82 310.43 17.51 307.91 15.69C305.39 13.87 302.52 12.54 299.23 11.7C295.94 10.86 292.51 10.44 288.87 10.44C285.02 10.44 281.17 10.86 277.39 11.77C273.61 12.68 270.04 13.94 266.61 15.55C263.18 17.16 260.03 19.12 257.16 21.43C254.29 23.74 251.77 26.33 249.67 29.2C247.57 32.07 245.89 35.22 244.7 38.65C243.51 42.08 242.88 45.65 242.88 49.43C242.88 54.33 244.07 58.25 246.45 61.12C248.83 63.99 252.19 65.46 256.6 65.46C259.05 65.46 261.08 65.11 262.62 64.41C264.16 63.71 265.35 62.94 266.19 62.1C267.03 61.26 267.66 60.49 268.01 59.79C268.36 59.09 268.64 58.74 268.85 58.74C269.13 58.74 269.27 59.02 269.27 59.58C269.27 60.14 268.92 60.91 268.15 61.89C267.38 62.87 266.33 63.78 265 64.69C263.67 65.6 262.06 66.37 260.17 67C258.28 67.63 256.18 67.98 253.94 67.98ZM280.61 42.08C280.54 43.48 280.68 44.74 281.03 45.93C281.38 47.12 281.87 48.24 282.5 49.29C283.69 47.4 284.81 45.58 285.86 43.76C286.91 41.94 287.89 40.19 288.73 38.51C289.57 36.83 290.2 35.22 290.69 33.75C291.18 32.28 291.39 30.88 291.39 29.62C291.39 28.99 291.25 28.36 290.97 27.8C290.69 27.24 290.27 26.96 289.71 26.96C288.73 26.96 287.68 27.38 286.63 28.29C285.58 29.2 284.6 30.39 283.69 31.86C282.78 33.33 282.01 34.94 281.45 36.76C280.89 38.58 280.61 40.33 280.61 42.08Z" fill="url(#paint1_linear_702_24)"/>
<path d="M253.94 67.98L253.857 68.9765L253.898 68.98H253.94V67.98ZM253.1 67.91L253.183 66.9135L253.142 66.91H253.1V67.91ZM247.29 66.93L246.963 67.875L246.963 67.875L247.29 66.93ZM242.46 63.85L243.167 63.1429L243.167 63.1429L242.46 63.85ZM239.1 58.46L238.167 58.821L238.167 58.821L239.1 58.46ZM239.52 41.24L240.464 41.5685L240.464 41.5685L239.52 41.24ZM244.49 31.79L243.673 31.214L243.673 31.214L244.49 31.79ZM252.33 23.04L252.993 23.7883L252.993 23.7883L252.33 23.04ZM262.76 15.76L262.281 14.8821L262.281 14.8821L262.76 15.76ZM301.96 10.44L301.705 11.4068L301.705 11.4068L301.96 10.44ZM311.62 14.85L311.037 15.6623L311.037 15.6623L311.62 14.85ZM318.06 22.06L317.179 22.5328L317.179 22.5328L318.06 22.06ZM318.62 40.96L319.547 41.3352L319.547 41.3352L318.62 40.96ZM313.58 48.87L314.309 49.5547L314.309 49.5547L313.58 48.87ZM305.67 54.47L306.084 55.3804L306.084 55.3804L305.67 54.47ZM284.25 53.07L284.877 52.291L283.976 51.5659L283.389 52.562L284.25 53.07ZM279.56 61.26L280.431 61.7513L280.431 61.7513L279.56 61.26ZM275.43 69.03L274.53 68.5931L274.53 68.5931L275.43 69.03ZM272.49 75.96L271.548 75.6256L271.548 75.6256L272.49 75.96ZM275.36 83.1L274.735 82.3191L274.735 82.3191L275.36 83.1ZM276.2 82.33L276.907 83.0371L276.907 83.0371L276.2 82.33ZM276.41 83.38L275.651 82.7292L275.651 82.7292L276.41 83.38ZM274.73 84.92L275.355 85.7009L275.355 85.7009L274.73 84.92ZM272.42 86.39L271.973 85.4956L271.973 85.4956L272.42 86.39ZM268.43 86.81L268.673 85.8399L268.673 85.8399L268.43 86.81ZM266.89 85.97L267.541 85.2107L267.541 85.2107L266.89 85.97ZM265.7 84.15L266.64 83.8083L266.64 83.8083L265.7 84.15ZM266.82 74.98L267.735 75.3836L267.735 75.3836L266.82 74.98ZM270.81 67.42L269.955 66.9022L269.955 66.9022L270.81 67.42ZM276.2 59.09L277.026 59.654L277.026 59.654L276.2 59.09ZM282.01 50.48L282.845 51.03L283.218 50.4641L282.83 49.9082L282.01 50.48ZM280.61 35.99L279.668 35.6537L279.668 35.6537L280.61 35.99ZM283.34 30.74L284.149 31.3282L284.149 31.3282L283.34 30.74ZM293.49 27.1L294.409 26.7061L294.409 26.7061L293.49 27.1ZM291.46 39.98L292.368 40.3991L292.368 40.3991L291.46 39.98ZM288.52 45.79L289.396 46.2731L289.396 46.2731L288.52 45.79ZM285.09 51.95L284.22 51.457L283.828 52.1485L284.413 52.6863L285.09 51.95ZM304.13 53.49L303.673 52.6004L303.673 52.6004L304.13 53.49ZM310.64 48.24L311.418 48.8678L311.418 48.8678L310.64 48.24ZM313.86 22.62L314.745 22.1552L314.745 22.1552L313.86 22.62ZM299.23 11.7L298.983 12.6689L298.983 12.6689L299.23 11.7ZM277.39 11.77L277.156 10.7978L277.156 10.7978L277.39 11.77ZM244.7 38.65L243.755 38.3222L243.755 38.3222L244.7 38.65ZM246.45 61.12L245.68 61.7583L245.68 61.7583L246.45 61.12ZM262.62 64.41L263.034 65.3204L263.034 65.3204L262.62 64.41ZM266.19 62.1L266.897 62.8071L266.897 62.8071L266.19 62.1ZM268.01 59.79L267.116 59.3428L267.116 59.3428L268.01 59.79ZM268.15 61.89L268.936 62.5078L268.936 62.5078L268.15 61.89ZM265 64.69L265.565 65.5153L265.565 65.5153L265 64.69ZM280.61 42.08L281.609 42.1299L281.61 42.105V42.08H280.61ZM281.03 45.93L281.989 45.6478L281.989 45.6478L281.03 45.93ZM282.5 49.29L281.643 49.8045L282.479 51.1994L283.346 49.8228L282.5 49.29ZM285.86 43.76L286.726 44.2597L286.726 44.2597L285.86 43.76ZM288.73 38.51L289.624 38.9572L289.624 38.9572L288.73 38.51ZM290.69 33.75L291.639 34.0662L291.639 34.0662L290.69 33.75ZM290.97 27.8L291.864 27.3528L291.864 27.3528L290.97 27.8ZM283.69 31.86L282.84 31.3336L282.84 31.3336L283.69 31.86ZM281.45 36.76L282.406 37.0541L282.406 37.0541L281.45 36.76ZM253.94 67.98L254.023 66.9835L253.183 66.9135L253.1 67.91L253.017 68.9065L253.857 68.9765L253.94 67.98ZM253.1 67.91V66.91C251.185 66.91 249.336 66.5799 247.617 65.985L247.29 66.93L246.963 67.875C248.884 68.5401 250.955 68.91 253.1 68.91V67.91ZM247.29 66.93L247.617 65.985C245.954 65.4093 244.471 64.4467 243.167 63.1429L242.46 63.85L241.753 64.5571C243.249 66.0533 244.986 67.1907 246.963 67.875L247.29 66.93ZM242.46 63.85L243.167 63.1429C241.885 61.8609 240.833 60.1678 240.033 58.099L239.1 58.46L238.167 58.821C239.047 61.0922 240.235 63.0391 241.753 64.5571L242.46 63.85ZM239.1 58.46L240.033 58.099C239.249 56.0759 238.84 53.5459 238.84 50.55H237.84H236.84C236.84 53.7141 237.271 56.5041 238.167 58.821L239.1 58.46ZM237.84 50.55H238.84C238.84 47.6668 239.376 44.6981 240.464 41.5685L239.52 41.24L238.576 40.9115C237.424 44.2219 236.84 47.4131 236.84 50.55H237.84ZM239.52 41.24L240.464 41.5685C241.549 38.4504 243.182 35.3828 245.307 32.366L244.49 31.79L243.673 31.214C241.458 34.3572 239.731 37.5896 238.576 40.9115L239.52 41.24ZM244.49 31.79L245.307 32.366C247.434 29.3479 249.972 26.466 252.993 23.7883L252.33 23.04L251.667 22.2917C248.528 25.074 245.886 28.0721 243.673 31.214L244.49 31.79ZM252.33 23.04L252.993 23.7883C256.014 21.1106 259.452 18.7035 263.239 16.6379L262.76 15.76L262.281 14.8821C258.368 17.0165 254.806 19.5094 251.667 22.2917L252.33 23.04ZM262.76 15.76L263.239 16.6379C267.017 14.5772 271.141 12.9271 275.613 11.7575L275.36 10.79L275.107 9.82254C270.479 11.0329 266.203 12.7428 262.281 14.8821L262.76 15.76ZM275.36 10.79L275.613 11.7575C280.078 10.5897 284.823 9.97 289.85 9.97V8.97V7.97C284.657 7.97 279.742 8.61034 275.107 9.82254L275.36 10.79ZM289.85 8.97V9.97C294.116 9.97 298.089 10.4517 301.705 11.4068L301.96 10.44L302.215 9.47316C298.411 8.46832 294.264 7.97 289.85 7.97V8.97ZM301.96 10.44L301.705 11.4068C305.313 12.3601 308.419 13.7827 311.037 15.6623L311.62 14.85L312.203 14.0377C309.361 11.9973 306.027 10.4799 302.215 9.47316L301.96 10.44ZM311.62 14.85L311.037 15.6623C313.656 17.5426 315.718 19.8105 317.179 22.5328L318.06 22.06L318.941 21.5872C317.322 18.5695 315.044 16.0774 312.203 14.0377L311.62 14.85ZM318.06 22.06L317.179 22.5328C318.63 25.237 319.37 28.3601 319.37 32H320.37H321.37C321.37 28.0799 320.57 24.623 318.941 21.5872L318.06 22.06ZM320.37 32H319.37C319.37 34.8837 318.834 37.7661 317.693 40.5848L318.62 40.96L319.547 41.3352C320.786 38.2739 321.37 35.1363 321.37 32H320.37ZM318.62 40.96L317.693 40.5848C316.548 43.4142 314.934 45.9684 312.851 48.1853L313.58 48.87L314.309 49.5547C316.566 47.1516 318.312 44.3858 319.547 41.3352L318.62 40.96ZM313.58 48.87L312.851 48.1853C310.775 50.3952 308.224 52.2107 305.256 53.5596L305.67 54.47L306.084 55.3804C309.276 53.9293 312.045 51.9648 314.309 49.5547L313.58 48.87ZM305.67 54.47L305.256 53.5596C302.321 54.894 299.034 55.57 295.38 55.57V56.57V57.57C299.286 57.57 302.859 56.846 306.084 55.3804L305.67 54.47ZM295.38 56.57V55.57C291.01 55.57 287.535 54.4303 284.877 52.291L284.25 53.07L283.623 53.849C286.705 56.3297 290.65 57.57 295.38 57.57V56.57ZM284.25 53.07L283.389 52.562C281.773 55.3017 280.228 58.04 278.689 60.7687L279.56 61.26L280.431 61.7513C281.972 59.02 283.507 56.2983 285.111 53.578L284.25 53.07ZM279.56 61.26L278.689 60.7687C277.144 63.5068 275.733 66.1168 274.53 68.5931L275.43 69.03L276.33 69.4669C277.507 67.0432 278.896 64.4732 280.431 61.7513L279.56 61.26ZM275.43 69.03L274.53 68.5931C273.327 71.0706 272.332 73.415 271.548 75.6256L272.49 75.96L273.432 76.2944C274.188 74.165 275.153 71.8894 276.33 69.4669L275.43 69.03ZM272.49 75.96L271.548 75.6256C270.75 77.8738 270.37 79.8787 270.37 81.63H271.37H272.37C272.37 80.1613 272.69 78.3862 273.432 76.2944L272.49 75.96ZM271.37 81.63H270.37C270.37 82.5764 270.515 83.465 270.969 84.1399C271.476 84.8921 272.254 85.22 273.12 85.22V84.22V83.22C272.796 83.22 272.699 83.1279 272.628 83.0227C272.505 82.84 272.37 82.4336 272.37 81.63H271.37ZM273.12 84.22V85.22C273.755 85.22 274.35 85.012 274.824 84.7275L274.31 83.87L273.796 83.0125C273.57 83.148 273.325 83.22 273.12 83.22V84.22ZM274.31 83.87L274.824 84.7275C275.243 84.4764 275.647 84.1509 275.985 83.8809L275.36 83.1L274.735 82.3191C274.373 82.6091 274.077 82.8437 273.796 83.0125L274.31 83.87ZM275.36 83.1L275.985 83.8809C276.383 83.5626 276.697 83.2469 276.907 83.0371L276.2 82.33L275.493 81.6229C275.283 81.8331 275.037 82.0774 274.735 82.3191L275.36 83.1ZM276.2 82.33L276.907 83.0371C276.94 83.0039 276.97 82.977 276.995 82.9563C277.02 82.9352 277.037 82.924 277.043 82.9199C277.051 82.9148 277.037 82.925 277.002 82.9385C276.983 82.9456 276.955 82.9554 276.916 82.9637C276.878 82.972 276.825 82.98 276.76 82.98V81.98V80.98C276.4 80.98 276.114 81.1406 275.969 81.2326C275.794 81.344 275.633 81.4832 275.493 81.6229L276.2 82.33ZM276.76 81.98V82.98C276.703 82.98 276.6 82.9705 276.479 82.9155C276.351 82.8574 276.243 82.766 276.165 82.6575C276.093 82.5561 276.063 82.4634 276.051 82.4116C276.045 82.3847 276.042 82.364 276.041 82.3514C276.04 82.3386 276.04 82.3311 276.04 82.33H277.04H278.04C278.04 82.1483 278.016 81.8084 277.792 81.495C277.521 81.1144 277.112 80.98 276.76 80.98V81.98ZM277.04 82.33H276.04C276.04 82.2739 276.047 82.2313 276.052 82.2058C276.058 82.1801 276.063 82.1652 276.064 82.1626C276.065 82.1596 276.057 82.1826 276.025 82.2355C275.96 82.3431 275.843 82.5054 275.651 82.7292L276.41 83.38L277.169 84.0308C277.397 83.7646 277.595 83.5069 277.74 83.2645C277.865 83.0558 278.04 82.719 278.04 82.33H277.04ZM276.41 83.38L275.651 82.7292C275.295 83.1446 274.796 83.5866 274.105 84.1391L274.73 84.92L275.355 85.7009C276.064 85.1334 276.685 84.5954 277.169 84.0308L276.41 83.38ZM274.73 84.92L274.105 84.1391C273.463 84.6531 272.753 85.1056 271.973 85.4956L272.42 86.39L272.867 87.2844C273.767 86.8344 274.597 86.3069 275.355 85.7009L274.73 84.92ZM272.42 86.39L271.973 85.4956C271.249 85.8577 270.561 86.02 269.97 86.02V87.02V88.02C270.919 88.02 271.911 87.7623 272.867 87.2844L272.42 86.39ZM269.97 87.02V86.02C269.58 86.02 269.173 85.9651 268.673 85.8399L268.43 86.81L268.187 87.7801C268.807 87.9349 269.38 88.02 269.97 88.02V87.02ZM268.43 86.81L268.673 85.8399C268.297 85.7461 267.943 85.5555 267.541 85.2107L266.89 85.97L266.239 86.7293C266.817 87.2245 267.443 87.5939 268.187 87.7801L268.43 86.81ZM266.89 85.97L267.541 85.2107C267.205 84.9234 266.873 84.4492 266.64 83.8083L265.7 84.15L264.76 84.4917C265.087 85.3908 265.595 86.1767 266.239 86.7293L266.89 85.97ZM265.7 84.15L266.64 83.8083C266.413 83.1853 266.28 82.3315 266.28 81.21H265.28H264.28C264.28 82.4685 264.427 83.5747 264.76 84.4917L265.7 84.15ZM265.28 81.21H266.28C266.28 79.6385 266.723 77.6784 267.735 75.3836L266.82 74.98L265.905 74.5764C264.817 77.0416 264.28 79.2815 264.28 81.21H265.28ZM266.82 74.98L267.735 75.3836C268.765 73.0496 270.074 70.5679 271.666 67.9378L270.81 67.42L269.955 66.9022C268.326 69.5921 266.975 72.1504 265.905 74.5764L266.82 74.98ZM270.81 67.42L271.666 67.9378C273.264 65.2968 275.074 62.5125 277.026 59.654L276.2 59.09L275.374 58.526C273.406 61.4075 271.576 64.2232 269.955 66.9022L270.81 67.42ZM276.2 59.09L277.026 59.654C278.985 56.7852 280.95 53.9082 282.845 51.03L282.01 50.48L281.175 49.93C279.29 52.7918 277.335 55.6548 275.374 58.526L276.2 59.09ZM282.01 50.48L282.83 49.9082C281.352 47.7867 280.56 45.1923 280.56 42.08H279.56H278.56C278.56 45.5477 279.448 48.5533 281.19 51.0518L282.01 50.48ZM279.56 42.08H280.56C280.56 40.0936 280.891 38.1774 281.552 36.3263L280.61 35.99L279.668 35.6537C278.929 37.7226 278.56 39.8664 278.56 42.08H279.56ZM280.61 35.99L281.552 36.3263C282.223 34.4479 283.09 32.7842 284.149 31.3282L283.34 30.74L282.531 30.1518C281.35 31.7758 280.397 33.6121 279.668 35.6537L280.61 35.99ZM283.34 30.74L284.149 31.3282C285.213 29.8642 286.394 28.6903 287.615 27.8553L287.05 27.03L286.485 26.2047C285.046 27.1897 283.707 28.5358 282.531 30.1518L283.34 30.74ZM287.05 27.03L287.615 27.8553C288.829 27.0244 289.965 26.63 291.04 26.63V25.63V24.63C289.455 24.63 287.931 25.2156 286.485 26.2047L287.05 27.03ZM291.04 25.63V26.63C291.5 26.63 291.82 26.7244 292.042 26.8566C292.255 26.9836 292.436 27.1797 292.571 27.4939L293.49 27.1L294.409 26.7061C294.124 26.0403 293.675 25.5014 293.066 25.1384C292.465 24.7806 291.77 24.63 291.04 24.63V25.63ZM293.49 27.1L292.571 27.4939C292.93 28.3323 293.12 29.3154 293.12 30.39H294.12H295.12C295.12 29.0846 294.89 27.8277 294.409 26.7061L293.49 27.1ZM294.12 30.39H293.12C293.12 31.6136 292.927 32.9856 292.463 34.5088L293.42 34.8L294.377 35.0912C294.893 33.3944 295.12 31.8264 295.12 30.39H294.12ZM293.42 34.8L292.463 34.5088C291.984 36.0835 291.37 37.7897 290.552 39.5609L291.46 39.98L292.368 40.3991C293.23 38.5303 293.876 36.7365 294.377 35.0912L293.42 34.8ZM291.46 39.98L290.552 39.5609C289.721 41.3605 288.752 43.2991 287.644 45.3069L288.52 45.79L289.396 46.2731C290.528 44.2209 291.519 42.2395 292.368 40.3991L291.46 39.98ZM288.52 45.79L287.644 45.3069C286.524 47.3376 285.407 49.3627 284.22 51.457L285.09 51.95L285.96 52.443C287.153 50.3373 288.276 48.3024 289.396 46.2731L288.52 45.79ZM285.09 51.95L284.413 52.6863C287.219 55.2649 290.836 56.52 295.17 56.52V55.52V54.52C291.244 54.52 288.141 53.3951 285.767 51.2137L285.09 51.95ZM295.17 55.52V56.52C298.671 56.52 301.84 55.79 304.587 54.3796L304.13 53.49L303.673 52.6004C301.24 53.8499 298.389 54.52 295.17 54.52V55.52ZM304.13 53.49L304.587 54.3796C307.295 52.9886 309.577 51.1514 311.418 48.8678L310.64 48.24L309.862 47.6122C308.203 49.6686 306.145 51.3314 303.673 52.6004L304.13 53.49ZM310.64 48.24L311.418 48.8678C313.246 46.6019 314.632 44.0457 315.579 41.2062L314.63 40.89L313.681 40.5738C312.808 43.1943 311.534 45.5381 309.862 47.6122L310.64 48.24ZM314.63 40.89L315.579 41.2062C316.518 38.3882 317.03 35.5512 317.03 32.7H316.03H315.03C315.03 35.3088 314.562 37.9318 313.681 40.5738L314.63 40.89ZM316.03 32.7H317.03C317.03 28.6638 316.309 25.1342 314.745 22.1552L313.86 22.62L312.975 23.0848C314.351 25.7058 315.03 28.8962 315.03 32.7H316.03ZM313.86 22.62L314.745 22.1552C313.208 19.2261 311.148 16.7949 308.495 14.8793L307.91 15.69L307.325 16.5007C309.712 18.2251 311.572 20.4139 312.975 23.0848L313.86 22.62ZM307.91 15.69L308.495 14.8793C305.867 12.9811 302.881 11.6001 299.477 10.7311L299.23 11.7L298.983 12.6689C302.159 13.4799 304.913 14.7589 307.325 16.5007L307.91 15.69ZM299.23 11.7L299.477 10.7311C296.102 9.86921 292.588 9.44 288.87 9.44V10.44V11.44C292.432 11.44 295.778 11.8508 298.983 12.6689L299.23 11.7ZM288.87 10.44V9.44C284.947 9.44 281.018 9.86795 277.156 10.7978L277.39 11.77L277.624 12.7422C281.322 11.852 285.093 11.44 288.87 11.44V10.44ZM277.39 11.77L277.156 10.7978C273.31 11.7237 269.676 13.0062 266.185 14.6448L266.61 15.55L267.035 16.4552C270.404 14.8738 273.91 13.6363 277.624 12.7422L277.39 11.77ZM266.61 15.55L266.185 14.6448C262.685 16.2877 259.467 18.2896 256.533 20.651L257.16 21.43L257.787 22.209C260.593 19.9504 263.675 18.0323 267.035 16.4552L266.61 15.55ZM257.16 21.43L256.533 20.651C253.601 23.0107 251.019 25.6629 248.863 28.6095L249.67 29.2L250.477 29.7905C252.521 26.9971 254.979 24.4693 257.787 22.209L257.16 21.43ZM249.67 29.2L248.863 28.6095C246.707 31.5567 244.979 34.7947 243.755 38.3222L244.7 38.65L245.645 38.9778C246.801 35.6452 248.433 32.5833 250.477 29.7905L249.67 29.2ZM244.7 38.65L243.755 38.3222C242.53 41.8549 241.88 45.5356 241.88 49.43H242.88H243.88C243.88 45.7644 244.49 42.3051 245.645 38.9778L244.7 38.65ZM242.88 49.43H241.88C241.88 54.487 243.109 58.658 245.68 61.7583L246.45 61.12L247.22 60.4817C245.031 57.842 243.88 54.1729 243.88 49.43H242.88ZM246.45 61.12L245.68 61.7583C248.28 64.8936 251.943 66.46 256.6 66.46V65.46V64.46C252.437 64.46 249.38 63.0864 247.22 60.4817L246.45 61.12ZM256.6 65.46V66.46C259.131 66.46 261.318 66.1004 263.034 65.3204L262.62 64.41L262.206 63.4996C260.842 64.1196 258.969 64.46 256.6 64.46V65.46ZM262.62 64.41L263.034 65.3204C264.64 64.5901 265.945 63.7596 266.897 62.8071L266.19 62.1L265.483 61.3929C264.755 62.1204 263.68 62.8299 262.206 63.4996L262.62 64.41ZM266.19 62.1L266.897 62.8071C267.761 61.943 268.482 61.0823 268.904 60.2372L268.01 59.79L267.116 59.3428C266.838 59.8977 266.299 60.577 265.483 61.3929L266.19 62.1ZM268.01 59.79L268.904 60.2372C269.068 59.911 269.188 59.7212 269.263 59.6272C269.301 59.5802 269.301 59.5904 269.261 59.6194C269.223 59.6462 269.079 59.74 268.85 59.74V58.74V57.74C268.516 57.74 268.258 57.8775 268.098 57.9919C267.935 58.1084 267.804 58.2498 267.702 58.3778C267.497 58.6338 267.302 58.969 267.116 59.3428L268.01 59.79ZM268.85 58.74V59.74C268.745 59.74 268.609 59.7109 268.479 59.6245C268.356 59.5424 268.295 59.4458 268.271 59.3972C268.248 59.3525 268.251 59.3374 268.257 59.3769C268.263 59.4137 268.27 59.479 268.27 59.58H269.27H270.27C270.27 59.2489 270.234 58.8517 270.059 58.5028C269.965 58.3142 269.817 58.1126 269.588 57.9604C269.354 57.8041 269.095 57.74 268.85 57.74V58.74ZM269.27 59.58H268.27C268.27 59.7835 268.109 60.3238 267.364 61.2722L268.15 61.89L268.936 62.5078C269.731 61.4962 270.27 60.4965 270.27 59.58H269.27ZM268.15 61.89L267.364 61.2722C266.678 62.1444 265.717 62.9881 264.435 63.8647L265 64.69L265.565 65.5153C266.943 64.5719 268.082 63.5956 268.936 62.5078L268.15 61.89ZM265 64.69L264.435 63.8647C263.198 64.7116 261.676 65.4441 259.854 66.0513L260.17 67L260.486 67.9487C262.444 67.2959 264.142 66.4884 265.565 65.5153L265 64.69ZM260.17 67L259.854 66.0513C258.069 66.6462 256.076 66.98 253.94 66.98V67.98V68.98C256.284 68.98 258.491 68.6138 260.486 67.9487L260.17 67ZM280.61 42.08L279.611 42.0301C279.536 43.5299 279.686 44.9032 280.071 46.2122L281.03 45.93L281.989 45.6478C281.674 44.5768 281.544 43.4301 281.609 42.1299L280.61 42.08ZM281.03 45.93L280.071 46.2122C280.444 47.4826 280.968 48.6807 281.643 49.8045L282.5 49.29L283.357 48.7755C282.772 47.7993 282.316 46.7574 281.989 45.6478L281.03 45.93ZM282.5 49.29L283.346 49.8228C284.539 47.928 285.667 46.0957 286.726 44.2597L285.86 43.76L284.994 43.2603C283.953 45.0643 282.841 46.872 281.654 48.7572L282.5 49.29ZM285.86 43.76L286.726 44.2597C287.779 42.435 288.771 40.6644 289.624 38.9572L288.73 38.51L287.836 38.0628C287.009 39.7156 286.041 41.445 284.994 43.2603L285.86 43.76ZM288.73 38.51L289.624 38.9572C290.489 37.2274 291.137 35.5725 291.639 34.0662L290.69 33.75L289.741 33.4338C289.263 34.8675 288.651 36.4325 287.836 38.0628L288.73 38.51ZM290.69 33.75L291.639 34.0662C292.162 32.4971 292.39 30.9905 292.39 29.62H291.39H290.39C290.39 30.7695 290.198 32.0629 289.741 33.4338L290.69 33.75ZM291.39 29.62H292.39C292.39 28.8446 292.218 28.0602 291.864 27.3528L290.97 27.8L290.076 28.2472C290.282 28.6598 290.39 29.1354 290.39 29.62H291.39ZM290.97 27.8L291.864 27.3528C291.665 26.9542 291.385 26.5951 291 26.3379C290.608 26.0766 290.165 25.96 289.71 25.96V26.96V27.96C289.815 27.96 289.862 27.9834 289.89 28.002C289.925 28.0249 289.995 28.0858 290.076 28.2472L290.97 27.8ZM289.71 26.96V25.96C288.431 25.96 287.157 26.5099 285.975 27.5343L286.63 28.29L287.285 29.0457C288.203 28.2501 289.029 27.96 289.71 27.96V26.96ZM286.63 28.29L285.975 27.5343C284.833 28.5243 283.79 29.7978 282.84 31.3336L283.69 31.86L284.54 32.3864C285.41 30.9822 286.327 29.8757 287.285 29.0457L286.63 28.29ZM283.69 31.86L282.84 31.3336C281.89 32.8684 281.082 34.5559 280.494 36.4659L281.45 36.76L282.406 37.0541C282.938 35.3241 283.67 33.7916 284.54 32.3864L283.69 31.86ZM281.45 36.76L280.494 36.4659C279.908 38.3708 279.61 40.22 279.61 42.08H280.61H281.61C281.61 40.44 281.872 38.7892 282.406 37.0541L281.45 36.76Z" fill="black" mask="url(#path-2-outside-2_702_24)"/>
<mask id="path-4-outside-3_702_24" maskUnits="userSpaceOnUse" x="92" y="50" width="69" height="33" fill="black">
<rect fill="white" x="92" y="50" width="69" height="33"/>
<path d="M107.43 51.5273C112.495 51.5273 116.245 53.1549 118.68 56.4102C120.581 58.9492 121.531 62.1979 121.531 66.1562C121.531 70.4401 120.444 74.0013 118.27 76.8398C115.717 80.1732 112.078 81.8398 107.352 81.8398C102.938 81.8398 99.4674 80.3815 96.9414 77.4648C94.6888 74.6523 93.5625 71.0977 93.5625 66.8008C93.5625 62.9206 94.526 59.6003 96.4531 56.8398C98.9271 53.2982 102.586 51.5273 107.43 51.5273ZM107.82 78.3633C111.245 78.3633 113.719 77.1393 115.242 74.6914C116.779 72.2305 117.547 69.4049 117.547 66.2148C117.547 62.8424 116.661 60.1276 114.891 58.0703C113.133 56.013 110.724 54.9844 107.664 54.9844C104.695 54.9844 102.273 56.0065 100.398 58.0508C98.5234 60.082 97.5859 63.0833 97.5859 67.0547C97.5859 70.2318 98.3867 72.9141 99.9883 75.1016C101.603 77.276 104.214 78.3633 107.82 78.3633ZM126.474 52.3086L131.884 75.6484L138.369 52.3086H142.587L149.072 75.6484L154.482 52.3086H158.74L151.201 81H147.119L140.498 57.2109L133.837 81H129.755L122.255 52.3086H126.474Z"/>
</mask>
<path d="M107.43 51.5273C112.495 51.5273 116.245 53.1549 118.68 56.4102C120.581 58.9492 121.531 62.1979 121.531 66.1562C121.531 70.4401 120.444 74.0013 118.27 76.8398C115.717 80.1732 112.078 81.8398 107.352 81.8398C102.938 81.8398 99.4674 80.3815 96.9414 77.4648C94.6888 74.6523 93.5625 71.0977 93.5625 66.8008C93.5625 62.9206 94.526 59.6003 96.4531 56.8398C98.9271 53.2982 102.586 51.5273 107.43 51.5273ZM107.82 78.3633C111.245 78.3633 113.719 77.1393 115.242 74.6914C116.779 72.2305 117.547 69.4049 117.547 66.2148C117.547 62.8424 116.661 60.1276 114.891 58.0703C113.133 56.013 110.724 54.9844 107.664 54.9844C104.695 54.9844 102.273 56.0065 100.398 58.0508C98.5234 60.082 97.5859 63.0833 97.5859 67.0547C97.5859 70.2318 98.3867 72.9141 99.9883 75.1016C101.603 77.276 104.214 78.3633 107.82 78.3633ZM126.474 52.3086L131.884 75.6484L138.369 52.3086H142.587L149.072 75.6484L154.482 52.3086H158.74L151.201 81H147.119L140.498 57.2109L133.837 81H129.755L122.255 52.3086H126.474Z" fill="url(#paint2_linear_702_24)"/>
<path d="M118.68 56.4102L117.879 57.0091L117.879 57.0095L118.68 56.4102ZM118.27 76.8398L117.476 76.2317L117.476 76.2319L118.27 76.8398ZM96.9414 77.4648L96.1609 78.09L96.1729 78.105L96.1855 78.1195L96.9414 77.4648ZM96.4531 56.8398L95.6333 56.2672L95.6332 56.2674L96.4531 56.8398ZM115.242 74.6914L114.394 74.1618L114.393 74.163L115.242 74.6914ZM114.891 58.0703L114.13 58.7199L114.133 58.7227L114.891 58.0703ZM100.398 58.0508L101.133 58.7291L101.135 58.7267L100.398 58.0508ZM99.9883 75.1016L99.1814 75.6923L99.1854 75.6977L99.9883 75.1016ZM107.43 51.5273V52.5273C112.266 52.5273 115.679 54.0682 117.879 57.0091L118.68 56.4102L119.48 55.8112C116.811 52.2417 112.724 50.5273 107.43 50.5273V51.5273ZM118.68 56.4102L117.879 57.0095C119.622 59.3366 120.531 62.3596 120.531 66.1562H121.531H122.531C122.531 62.0362 121.54 58.5619 119.48 55.8108L118.68 56.4102ZM121.531 66.1562H120.531C120.531 70.2652 119.492 73.6003 117.476 76.2317L118.27 76.8398L119.063 77.448C121.397 74.4023 122.531 70.615 122.531 66.1562H121.531ZM118.27 76.8398L117.476 76.2319C115.138 79.2846 111.812 80.8398 107.352 80.8398V81.8398V82.8398C112.345 82.8398 116.297 81.0617 119.064 77.4478L118.27 76.8398ZM107.352 81.8398V80.8398C103.181 80.8398 100.005 79.4747 97.6973 76.8102L96.9414 77.4648L96.1855 78.1195C98.9299 81.2883 102.694 82.8398 107.352 82.8398V81.8398ZM96.9414 77.4648L97.7219 76.8397C95.6374 74.2371 94.5625 70.9158 94.5625 66.8008H93.5625H92.5625C92.5625 71.2795 93.7402 75.0676 96.1609 78.09L96.9414 77.4648ZM93.5625 66.8008H94.5625C94.5625 63.0931 95.4804 59.9802 97.2731 57.4123L96.4531 56.8398L95.6332 56.2674C93.5717 59.2204 92.5625 62.7481 92.5625 66.8008H93.5625ZM96.4531 56.8398L97.2729 57.4125C99.5349 54.1743 102.867 52.5273 107.43 52.5273V51.5273V50.5273C102.305 50.5273 98.3193 52.4221 95.6333 56.2672L96.4531 56.8398ZM107.82 78.3633V79.3633C111.515 79.3633 114.349 78.02 116.091 75.2198L115.242 74.6914L114.393 74.163C113.089 76.2586 110.975 77.3633 107.82 77.3633V78.3633ZM115.242 74.6914L116.09 75.221C117.736 72.5856 118.547 69.5729 118.547 66.2148H117.547H116.547C116.547 69.237 115.821 71.8753 114.394 74.1618L115.242 74.6914ZM117.547 66.2148H118.547C118.547 62.6631 117.611 59.6976 115.649 57.4179L114.891 58.0703L114.133 58.7227C115.712 60.5576 116.547 63.0218 116.547 66.2148H117.547ZM114.891 58.0703L115.651 57.4207C113.677 55.1105 110.974 53.9844 107.664 53.9844V54.9844V55.9844C110.474 55.9844 112.589 56.9156 114.13 58.7199L114.891 58.0703ZM107.664 54.9844V53.9844C104.437 53.9844 101.74 55.1083 99.6615 57.3748L100.398 58.0508L101.135 58.7267C102.807 56.9047 104.953 55.9844 107.664 55.9844V54.9844ZM100.398 58.0508L99.6636 57.3725C97.5563 59.6554 96.5859 62.941 96.5859 67.0547H97.5859H98.5859C98.5859 63.2257 99.4905 60.5086 101.133 58.7291L100.398 58.0508ZM97.5859 67.0547H96.5859C96.5859 70.4065 97.4338 73.3053 99.1814 75.6923L99.9883 75.1016L100.795 74.5108C99.3397 72.5228 98.5859 70.0571 98.5859 67.0547H97.5859ZM99.9883 75.1016L99.1854 75.6977C101.048 78.2057 104.011 79.3633 107.82 79.3633V78.3633V77.3633C104.416 77.3633 102.158 76.3464 100.791 74.5054L99.9883 75.1016ZM126.474 52.3086L127.448 52.0828L127.269 51.3086H126.474V52.3086ZM131.884 75.6484L130.91 75.8742L132.848 75.9161L131.884 75.6484ZM138.369 52.3086V51.3086H137.609L137.405 52.0409L138.369 52.3086ZM142.587 52.3086L143.551 52.0409L143.348 51.3086H142.587V52.3086ZM149.072 75.6484L148.108 75.9161L150.046 75.8742L149.072 75.6484ZM154.482 52.3086V51.3086H153.687L153.508 52.0828L154.482 52.3086ZM158.74 52.3086L159.707 52.5627L160.037 51.3086H158.74V52.3086ZM151.201 81V82H151.972L152.168 81.2541L151.201 81ZM147.119 81L146.155 81.2681L146.359 82H147.119V81ZM140.498 57.2109L141.461 56.9428L140.5 53.4916L139.535 56.9413L140.498 57.2109ZM133.837 81V82H134.596L134.8 81.2696L133.837 81ZM129.755 81L128.788 81.2529L128.983 82H129.755V81ZM122.255 52.3086V51.3086H120.96L121.288 52.5615L122.255 52.3086ZM126.474 52.3086L125.5 52.5344L130.91 75.8742L131.884 75.6484L132.859 75.4226L127.448 52.0828L126.474 52.3086ZM131.884 75.6484L132.848 75.9161L139.332 52.5763L138.369 52.3086L137.405 52.0409L130.921 75.3808L131.884 75.6484ZM138.369 52.3086V53.3086H142.587V52.3086V51.3086H138.369V52.3086ZM142.587 52.3086L141.624 52.5763L148.108 75.9161L149.072 75.6484L150.035 75.3808L143.551 52.0409L142.587 52.3086ZM149.072 75.6484L150.046 75.8742L155.456 52.5344L154.482 52.3086L153.508 52.0828L148.098 75.4226L149.072 75.6484ZM154.482 52.3086V53.3086H158.74V52.3086V51.3086H154.482V52.3086ZM158.74 52.3086L157.773 52.0545L150.234 80.7459L151.201 81L152.168 81.2541L159.707 52.5627L158.74 52.3086ZM151.201 81V80H147.119V81V82H151.201V81ZM147.119 81L148.082 80.7319L141.461 56.9428L140.498 57.2109L139.534 57.4791L146.155 81.2681L147.119 81ZM140.498 57.2109L139.535 56.9413L132.875 80.7304L133.837 81L134.8 81.2696L141.461 57.4805L140.498 57.2109ZM133.837 81V80H129.755V81V82H133.837V81ZM129.755 81L130.723 80.7471L123.223 52.0557L122.255 52.3086L121.288 52.5615L128.788 81.2529L129.755 81ZM122.255 52.3086V53.3086H126.474V52.3086V51.3086H122.255V52.3086Z" fill="black" mask="url(#path-4-outside-3_702_24)"/>
<mask id="path-6-outside-4_702_24" maskUnits="userSpaceOnUse" x="314" y="51" width="21" height="31" fill="black">
<rect fill="white" x="314" y="51" width="21" height="31"/>
<path d="M315.047 52.3086H318.934V77.582H333.465V81H315.047V52.3086Z"/>
</mask>
<path d="M315.047 52.3086H318.934V77.582H333.465V81H315.047V52.3086Z" fill="url(#paint3_linear_702_24)"/>
<path d="M315.047 52.3086V51.3086H314.047V52.3086H315.047ZM318.934 52.3086H319.934V51.3086H318.934V52.3086ZM318.934 77.582H317.934V78.582H318.934V77.582ZM333.465 77.582H334.465V76.582H333.465V77.582ZM333.465 81V82H334.465V81H333.465ZM315.047 81H314.047V82H315.047V81ZM315.047 52.3086V53.3086H318.934V52.3086V51.3086H315.047V52.3086ZM318.934 52.3086H317.934V77.582H318.934H319.934V52.3086H318.934ZM318.934 77.582V78.582H333.465V77.582V76.582H318.934V77.582ZM333.465 77.582H332.465V81H333.465H334.465V77.582H333.465ZM333.465 81V80H315.047V81V82H333.465V81ZM315.047 81H316.047V52.3086H315.047H314.047V81H315.047Z" fill="black" mask="url(#path-6-outside-4_702_24)"/>
<mask id="path-8-outside-5_702_24" maskUnits="userSpaceOnUse" x="334" y="51" width="52" height="31" fill="black">
<rect fill="white" x="334" y="51" width="52" height="31"/>
<path d="M352.773 69.2422L348.418 56.5664L343.789 69.2422H352.773ZM346.387 52.3086H350.781L361.191 81H356.934L354.023 72.4062H342.676L339.57 81H335.586L346.387 52.3086ZM357.931 52.3086H362.462L370.705 66.0977L378.947 52.3086H383.498L372.658 69.4375V81H368.771V69.4375L357.931 52.3086Z"/>
</mask>
<path d="M352.773 69.2422L348.418 56.5664L343.789 69.2422H352.773ZM346.387 52.3086H350.781L361.191 81H356.934L354.023 72.4062H342.676L339.57 81H335.586L346.387 52.3086ZM357.931 52.3086H362.462L370.705 66.0977L378.947 52.3086H383.498L372.658 69.4375V81H368.771V69.4375L357.931 52.3086Z" fill="url(#paint4_linear_702_24)"/>
<path d="M352.773 69.2422V70.2422H354.174L353.719 68.9172L352.773 69.2422ZM348.418 56.5664L349.364 56.2414L348.447 53.5726L347.479 56.2234L348.418 56.5664ZM343.789 69.2422L342.85 68.8992L342.359 70.2422H343.789V69.2422ZM346.387 52.3086V51.3086H345.695L345.451 51.9563L346.387 52.3086ZM350.781 52.3086L351.721 51.9675L351.482 51.3086H350.781V52.3086ZM361.191 81V82H362.618L362.131 80.6589L361.191 81ZM356.934 81L355.986 81.3207L356.216 82H356.934V81ZM354.023 72.4062L354.971 72.0855L354.741 71.4062H354.023V72.4062ZM342.676 72.4062V71.4062H341.974L341.735 72.0664L342.676 72.4062ZM339.57 81V82H340.272L340.511 81.3399L339.57 81ZM335.586 81L334.65 80.6477L334.141 82H335.586V81ZM352.773 69.2422L353.719 68.9172L349.364 56.2414L348.418 56.5664L347.472 56.8914L351.828 69.5671L352.773 69.2422ZM348.418 56.5664L347.479 56.2234L342.85 68.8992L343.789 69.2422L344.728 69.5852L349.357 56.9094L348.418 56.5664ZM343.789 69.2422V70.2422H352.773V69.2422V68.2422H343.789V69.2422ZM346.387 52.3086V53.3086H350.781V52.3086V51.3086H346.387V52.3086ZM350.781 52.3086L349.841 52.6497L360.251 81.3411L361.191 81L362.131 80.6589L351.721 51.9675L350.781 52.3086ZM361.191 81V80H356.934V81V82H361.191V81ZM356.934 81L357.881 80.6793L354.971 72.0855L354.023 72.4062L353.076 72.727L355.986 81.3207L356.934 81ZM354.023 72.4062V71.4062H342.676V72.4062V73.4062H354.023V72.4062ZM342.676 72.4062L341.735 72.0664L338.63 80.6601L339.57 81L340.511 81.3399L343.616 72.7461L342.676 72.4062ZM339.57 81V80H335.586V81V82H339.57V81ZM335.586 81L336.522 81.3523L347.323 52.6609L346.387 52.3086L345.451 51.9563L334.65 80.6477L335.586 81ZM357.931 52.3086V51.3086H356.115L357.086 52.8433L357.931 52.3086ZM362.462 52.3086L363.321 51.7955L363.03 51.3086H362.462V52.3086ZM370.705 66.0977L369.846 66.6107L370.705 68.0467L371.563 66.6107L370.705 66.0977ZM378.947 52.3086V51.3086H378.38L378.089 51.7955L378.947 52.3086ZM383.498 52.3086L384.343 52.8433L385.314 51.3086H383.498V52.3086ZM372.658 69.4375L371.813 68.9027L371.658 69.1477V69.4375H372.658ZM372.658 81V82H373.658V81H372.658ZM368.771 81H367.771V82H368.771V81ZM368.771 69.4375H369.771V69.1477L369.616 68.9027L368.771 69.4375ZM357.931 52.3086V53.3086H362.462V52.3086V51.3086H357.931V52.3086ZM362.462 52.3086L361.604 52.8217L369.846 66.6107L370.705 66.0977L371.563 65.5846L363.321 51.7955L362.462 52.3086ZM370.705 66.0977L371.563 66.6107L379.805 52.8217L378.947 52.3086L378.089 51.7955L369.846 65.5846L370.705 66.0977ZM378.947 52.3086V53.3086H383.498V52.3086V51.3086H378.947V52.3086ZM383.498 52.3086L382.653 51.7738L371.813 68.9027L372.658 69.4375L373.503 69.9723L384.343 52.8433L383.498 52.3086ZM372.658 69.4375H371.658V81H372.658H373.658V69.4375H372.658ZM372.658 81V80H368.771V81V82H372.658V81ZM368.771 81H369.771V69.4375H368.771H367.771V81H368.771ZM368.771 69.4375L369.616 68.9027L358.776 51.7738L357.931 52.3086L357.086 52.8433L367.926 69.9723L368.771 69.4375Z" fill="black" mask="url(#path-8-outside-5_702_24)"/>
<mask id="path-10-outside-6_702_24" maskUnits="userSpaceOnUse" x="171" y="50" width="54" height="33" fill="black">
<rect fill="white" x="171" y="50" width="54" height="33"/>
<path d="M195.926 52.3086V55.7266H186.258V81H182.312V55.7266H172.645V52.3086H195.926ZM209.58 51.5273C214.645 51.5273 218.395 53.1549 220.83 56.4102C222.731 58.9492 223.681 62.1979 223.681 66.1562C223.681 70.4401 222.594 74.0013 220.42 76.8398C217.867 80.1732 214.228 81.8398 209.502 81.8398C205.087 81.8398 201.617 80.3815 199.091 77.4648C196.839 74.6523 195.712 71.0977 195.712 66.8008C195.712 62.9206 196.676 59.6003 198.603 56.8398C201.077 53.2982 204.736 51.5273 209.58 51.5273ZM209.97 78.3633C213.395 78.3633 215.869 77.1393 217.392 74.6914C218.929 72.2305 219.697 69.4049 219.697 66.2148C219.697 62.8424 218.811 60.1276 217.041 58.0703C215.283 56.013 212.874 54.9844 209.814 54.9844C206.845 54.9844 204.423 56.0065 202.548 58.0508C200.673 60.082 199.736 63.0833 199.736 67.0547C199.736 70.2318 200.537 72.9141 202.138 75.1016C203.753 77.276 206.364 78.3633 209.97 78.3633Z"/>
</mask>
<path d="M195.926 52.3086V55.7266H186.258V81H182.312V55.7266H172.645V52.3086H195.926ZM209.58 51.5273C214.645 51.5273 218.395 53.1549 220.83 56.4102C222.731 58.9492 223.681 62.1979 223.681 66.1562C223.681 70.4401 222.594 74.0013 220.42 76.8398C217.867 80.1732 214.228 81.8398 209.502 81.8398C205.087 81.8398 201.617 80.3815 199.091 77.4648C196.839 74.6523 195.712 71.0977 195.712 66.8008C195.712 62.9206 196.676 59.6003 198.603 56.8398C201.077 53.2982 204.736 51.5273 209.58 51.5273ZM209.97 78.3633C213.395 78.3633 215.869 77.1393 217.392 74.6914C218.929 72.2305 219.697 69.4049 219.697 66.2148C219.697 62.8424 218.811 60.1276 217.041 58.0703C215.283 56.013 212.874 54.9844 209.814 54.9844C206.845 54.9844 204.423 56.0065 202.548 58.0508C200.673 60.082 199.736 63.0833 199.736 67.0547C199.736 70.2318 200.537 72.9141 202.138 75.1016C203.753 77.276 206.364 78.3633 209.97 78.3633Z" fill="url(#paint5_linear_702_24)"/>
<path d="M195.926 52.3086H196.926V51.3086H195.926V52.3086ZM195.926 55.7266V56.7266H196.926V55.7266H195.926ZM186.258 55.7266V54.7266H185.258V55.7266H186.258ZM186.258 81V82H187.258V81H186.258ZM182.312 81H181.312V82H182.312V81ZM182.312 55.7266H183.312V54.7266H182.312V55.7266ZM172.645 55.7266H171.645V56.7266H172.645V55.7266ZM172.645 52.3086V51.3086H171.645V52.3086H172.645ZM195.926 52.3086H194.926V55.7266H195.926H196.926V52.3086H195.926ZM195.926 55.7266V54.7266H186.258V55.7266V56.7266H195.926V55.7266ZM186.258 55.7266H185.258V81H186.258H187.258V55.7266H186.258ZM186.258 81V80H182.312V81V82H186.258V81ZM182.312 81H183.312V55.7266H182.312H181.312V81H182.312ZM182.312 55.7266V54.7266H172.645V55.7266V56.7266H182.312V55.7266ZM172.645 55.7266H173.645V52.3086H172.645H171.645V55.7266H172.645ZM172.645 52.3086V53.3086H195.926V52.3086V51.3086H172.645V52.3086ZM220.83 56.4102L220.029 57.0091L220.029 57.0095L220.83 56.4102ZM220.42 76.8398L219.626 76.2317L219.626 76.2319L220.42 76.8398ZM199.091 77.4648L198.311 78.09L198.323 78.105L198.335 78.1195L199.091 77.4648ZM198.603 56.8398L197.783 56.2672L197.783 56.2674L198.603 56.8398ZM217.392 74.6914L216.544 74.1618L216.543 74.163L217.392 74.6914ZM217.041 58.0703L216.28 58.7199L216.283 58.7227L217.041 58.0703ZM202.548 58.0508L203.283 58.7291L203.285 58.7267L202.548 58.0508ZM202.138 75.1016L201.331 75.6923L201.335 75.6977L202.138 75.1016ZM209.58 51.5273V52.5273C214.416 52.5273 217.829 54.0682 220.029 57.0091L220.83 56.4102L221.63 55.8112C218.961 52.2417 214.874 50.5273 209.58 50.5273V51.5273ZM220.83 56.4102L220.029 57.0095C221.772 59.3366 222.681 62.3596 222.681 66.1562H223.681H224.681C224.681 62.0362 223.69 58.5619 221.63 55.8108L220.83 56.4102ZM223.681 66.1562H222.681C222.681 70.2652 221.642 73.6003 219.626 76.2317L220.42 76.8398L221.213 77.448C223.547 74.4023 224.681 70.615 224.681 66.1562H223.681ZM220.42 76.8398L219.626 76.2319C217.288 79.2846 213.962 80.8398 209.502 80.8398V81.8398V82.8398C214.495 82.8398 218.447 81.0617 221.214 77.4478L220.42 76.8398ZM209.502 81.8398V80.8398C205.331 80.8398 202.155 79.4747 199.847 76.8102L199.091 77.4648L198.335 78.1195C201.08 81.2883 204.844 82.8398 209.502 82.8398V81.8398ZM199.091 77.4648L199.872 76.8397C197.787 74.2371 196.712 70.9158 196.712 66.8008H195.712H194.712C194.712 71.2795 195.89 75.0676 198.311 78.09L199.091 77.4648ZM195.712 66.8008H196.712C196.712 63.0931 197.63 59.9802 199.423 57.4123L198.603 56.8398L197.783 56.2674C195.722 59.2204 194.712 62.7481 194.712 66.8008H195.712ZM198.603 56.8398L199.423 57.4125C201.685 54.1743 205.017 52.5273 209.58 52.5273V51.5273V50.5273C204.455 50.5273 200.469 52.4221 197.783 56.2672L198.603 56.8398ZM209.97 78.3633V79.3633C213.665 79.3633 216.498 78.02 218.241 75.2198L217.392 74.6914L216.543 74.163C215.239 76.2586 213.125 77.3633 209.97 77.3633V78.3633ZM217.392 74.6914L218.24 75.221C219.886 72.5856 220.697 69.5729 220.697 66.2148H219.697H218.697C218.697 69.237 217.971 71.8753 216.544 74.1618L217.392 74.6914ZM219.697 66.2148H220.697C220.697 62.6631 219.761 59.6976 217.799 57.4179L217.041 58.0703L216.283 58.7227C217.862 60.5576 218.697 63.0218 218.697 66.2148H219.697ZM217.041 58.0703L217.801 57.4207C215.827 55.1105 213.124 53.9844 209.814 53.9844V54.9844V55.9844C212.624 55.9844 214.739 56.9156 216.28 58.7199L217.041 58.0703ZM209.814 54.9844V53.9844C206.587 53.9844 203.89 55.1083 201.811 57.3748L202.548 58.0508L203.285 58.7267C204.957 56.9047 207.103 55.9844 209.814 55.9844V54.9844ZM202.548 58.0508L201.814 57.3725C199.706 59.6554 198.736 62.941 198.736 67.0547H199.736H200.736C200.736 63.2257 201.641 60.5086 203.283 58.7291L202.548 58.0508ZM199.736 67.0547H198.736C198.736 70.4065 199.584 73.3053 201.331 75.6923L202.138 75.1016L202.945 74.5108C201.49 72.5228 200.736 70.0571 200.736 67.0547H199.736ZM202.138 75.1016L201.335 75.6977C203.198 78.2057 206.161 79.3633 209.97 79.3633V78.3633V77.3633C206.566 77.3633 204.308 76.3464 202.941 74.5054L202.138 75.1016Z" fill="black" mask="url(#path-10-outside-6_702_24)"/>
<defs>
<linearGradient id="paint0_linear_702_24" x1="32" y1="18" x2="32" y2="116" gradientUnits="userSpaceOnUse">
<stop stop-color="#E5FFB0"/>
<stop offset="1" stop-color="#ABFF00"/>
</linearGradient>
<linearGradient id="paint1_linear_702_24" x1="267.5" y1="10" x2="267.5" y2="108" gradientUnits="userSpaceOnUse">
<stop stop-color="#E5FFB0"/>
<stop offset="1" stop-color="#ABFF00"/>
</linearGradient>
<linearGradient id="paint2_linear_702_24" x1="126" y1="39" x2="126" y2="95" gradientUnits="userSpaceOnUse">
<stop stop-color="#E5FFB0"/>
<stop offset="1" stop-color="#ABFF00"/>
</linearGradient>
<linearGradient id="paint3_linear_702_24" x1="323.5" y1="39" x2="323.5" y2="95" gradientUnits="userSpaceOnUse">
<stop stop-color="#E5FFB0"/>
<stop offset="1" stop-color="#ABFF00"/>
</linearGradient>
<linearGradient id="paint4_linear_702_24" x1="359.5" y1="39" x2="359.5" y2="95" gradientUnits="userSpaceOnUse">
<stop stop-color="#E5FFB0"/>
<stop offset="1" stop-color="#ABFF00"/>
</linearGradient>
<linearGradient id="paint5_linear_702_24" x1="199" y1="39" x2="199" y2="95" gradientUnits="userSpaceOnUse">
<stop stop-color="#E5FFB0"/>
<stop offset="1" stop-color="#ABFF00"/>
</linearGradient>
</defs>
</svg>
