<svg width="369" height="105" viewBox="0 0 369 105" fill="none" xmlns="http://www.w3.org/2000/svg">
<mask id="path-1-outside-1_702_59" maskUnits="userSpaceOnUse" x="18" y="3" width="125" height="73" fill="black">
<rect fill="white" x="18" y="3" width="125" height="73"/>
<path d="M52.99 49.23L52.43 49.72C52.43 50.28 52.08 51.05 51.38 51.96C50.68 52.87 49.7 53.78 48.44 54.69C47.18 55.6 45.64 56.37 43.82 57C42 57.63 39.97 57.98 37.73 57.98C35.42 57.98 33.18 57.49 31.01 56.58C28.84 55.67 26.95 54.34 25.27 52.66C23.59 50.98 22.26 48.88 21.28 46.36C20.3 43.84 19.81 40.97 19.81 37.75C19.81 34.32 20.37 31.1 21.49 28.09C22.61 25.08 24.22 22.35 26.25 19.9C28.28 17.45 30.66 15.21 33.46 13.25C36.26 11.29 39.34 9.68 42.63 8.35C45.92 7.02 49.42 6.04 53.13 5.34C56.84 4.64 60.62 4.29 64.47 4.29C69.3 4.29 73.99 4.64 78.47 5.41C82.95 6.18 87.29 7.02 91.49 8C95.69 8.98 99.82 9.96 103.81 10.94C107.8 11.92 111.72 12.69 115.5 13.18C119 10.66 122.36 8.98 125.51 8.21C128.66 7.44 131.46 7.02 133.91 7.02C136.22 7.02 137.97 7.23 139.23 7.72C140.49 8.21 141.12 8.84 141.12 9.68C141.12 10.52 140.63 11.36 139.72 12.27C138.81 13.18 137.55 14.02 135.87 14.72C134.19 15.42 132.23 15.98 129.99 16.47C127.75 16.96 125.3 17.17 122.71 17.17C121.38 17.17 119.98 17.1 118.58 16.96C117.18 16.82 115.71 16.61 114.24 16.33C111.79 18.92 109.62 21.86 107.66 25.15C105.7 28.44 103.88 31.94 102.13 35.58C100.38 39.22 98.7 43 97.09 46.85C95.48 50.7 93.87 54.48 92.26 58.19C91.35 60.22 90.37 62.18 89.25 64.14C88.13 66.1 86.87 67.85 85.47 69.39C84.07 70.93 82.46 72.19 80.64 73.17C78.82 74.15 76.72 74.64 74.34 74.64C73.29 74.64 72.31 74.5 71.4 74.15C70.49 73.8 69.72 73.38 69.09 72.82C68.46 72.26 67.97 71.63 67.62 70.93C67.27 70.23 67.06 69.53 67.06 68.83C67.06 67.78 67.27 67.29 67.69 67.29C67.97 67.29 68.11 67.5 68.11 67.92C68.11 69.11 68.53 70.09 69.3 70.86C70.07 71.63 71.4 71.98 73.29 71.98C74.27 71.98 75.25 71.77 76.23 71.42C77.21 71.07 78.26 70.37 79.38 69.39C80.5 68.41 81.69 67.01 82.95 65.19C84.21 63.37 85.61 60.99 87.08 58.05C89.04 54.2 91 50.28 92.89 46.29C94.78 42.3 96.74 38.45 98.77 34.74C100.8 31.03 102.9 27.53 105.14 24.24C107.38 20.95 109.83 18.08 112.42 15.63C108.92 14.86 105.28 13.88 101.5 12.69C97.72 11.5 93.8 10.31 89.74 9.19C85.68 8.07 81.55 7.09 77.28 6.25C73.01 5.41 68.67 4.99 64.19 4.99C61.32 4.99 58.38 5.2 55.37 5.69C52.36 6.18 49.42 6.88 46.55 7.86C43.68 8.84 41.02 10.1 38.5 11.71C35.98 13.32 33.74 15.21 31.85 17.45C29.96 19.69 28.42 22.28 27.3 25.22C26.18 28.16 25.62 31.52 25.62 35.23C25.62 38.66 26.11 41.67 27.02 44.19C27.93 46.71 29.12 48.81 30.59 50.42C32.06 52.03 33.67 53.22 35.42 53.99C37.17 54.76 38.78 55.11 40.32 55.11C42.77 55.11 44.8 54.76 46.34 54.06C47.88 53.36 49.07 52.59 49.91 51.75C50.75 50.91 51.38 50.14 51.73 49.44C52.08 48.74 52.36 48.39 52.57 48.39C52.85 48.39 52.99 48.67 52.99 49.23ZM133.91 8H133.56C130.9 8 128.1 8.42 125.23 9.19C122.36 9.96 119.63 11.43 117.04 13.53C117.95 13.6 118.93 13.67 119.91 13.74C120.89 13.81 121.87 13.81 122.78 13.81C125.79 13.81 128.31 13.6 130.34 13.25C132.37 12.9 133.98 12.48 135.24 11.99C136.5 11.5 137.41 11.01 137.97 10.52C138.53 10.03 138.81 9.68 138.81 9.4C138.81 9.05 138.32 8.7 137.41 8.42C136.5 8.14 135.31 8 133.91 8Z"/>
</mask>
<path d="M52.99 49.23L52.43 49.72C52.43 50.28 52.08 51.05 51.38 51.96C50.68 52.87 49.7 53.78 48.44 54.69C47.18 55.6 45.64 56.37 43.82 57C42 57.63 39.97 57.98 37.73 57.98C35.42 57.98 33.18 57.49 31.01 56.58C28.84 55.67 26.95 54.34 25.27 52.66C23.59 50.98 22.26 48.88 21.28 46.36C20.3 43.84 19.81 40.97 19.81 37.75C19.81 34.32 20.37 31.1 21.49 28.09C22.61 25.08 24.22 22.35 26.25 19.9C28.28 17.45 30.66 15.21 33.46 13.25C36.26 11.29 39.34 9.68 42.63 8.35C45.92 7.02 49.42 6.04 53.13 5.34C56.84 4.64 60.62 4.29 64.47 4.29C69.3 4.29 73.99 4.64 78.47 5.41C82.95 6.18 87.29 7.02 91.49 8C95.69 8.98 99.82 9.96 103.81 10.94C107.8 11.92 111.72 12.69 115.5 13.18C119 10.66 122.36 8.98 125.51 8.21C128.66 7.44 131.46 7.02 133.91 7.02C136.22 7.02 137.97 7.23 139.23 7.72C140.49 8.21 141.12 8.84 141.12 9.68C141.12 10.52 140.63 11.36 139.72 12.27C138.81 13.18 137.55 14.02 135.87 14.72C134.19 15.42 132.23 15.98 129.99 16.47C127.75 16.96 125.3 17.17 122.71 17.17C121.38 17.17 119.98 17.1 118.58 16.96C117.18 16.82 115.71 16.61 114.24 16.33C111.79 18.92 109.62 21.86 107.66 25.15C105.7 28.44 103.88 31.94 102.13 35.58C100.38 39.22 98.7 43 97.09 46.85C95.48 50.7 93.87 54.48 92.26 58.19C91.35 60.22 90.37 62.18 89.25 64.14C88.13 66.1 86.87 67.85 85.47 69.39C84.07 70.93 82.46 72.19 80.64 73.17C78.82 74.15 76.72 74.64 74.34 74.64C73.29 74.64 72.31 74.5 71.4 74.15C70.49 73.8 69.72 73.38 69.09 72.82C68.46 72.26 67.97 71.63 67.62 70.93C67.27 70.23 67.06 69.53 67.06 68.83C67.06 67.78 67.27 67.29 67.69 67.29C67.97 67.29 68.11 67.5 68.11 67.92C68.11 69.11 68.53 70.09 69.3 70.86C70.07 71.63 71.4 71.98 73.29 71.98C74.27 71.98 75.25 71.77 76.23 71.42C77.21 71.07 78.26 70.37 79.38 69.39C80.5 68.41 81.69 67.01 82.95 65.19C84.21 63.37 85.61 60.99 87.08 58.05C89.04 54.2 91 50.28 92.89 46.29C94.78 42.3 96.74 38.45 98.77 34.74C100.8 31.03 102.9 27.53 105.14 24.24C107.38 20.95 109.83 18.08 112.42 15.63C108.92 14.86 105.28 13.88 101.5 12.69C97.72 11.5 93.8 10.31 89.74 9.19C85.68 8.07 81.55 7.09 77.28 6.25C73.01 5.41 68.67 4.99 64.19 4.99C61.32 4.99 58.38 5.2 55.37 5.69C52.36 6.18 49.42 6.88 46.55 7.86C43.68 8.84 41.02 10.1 38.5 11.71C35.98 13.32 33.74 15.21 31.85 17.45C29.96 19.69 28.42 22.28 27.3 25.22C26.18 28.16 25.62 31.52 25.62 35.23C25.62 38.66 26.11 41.67 27.02 44.19C27.93 46.71 29.12 48.81 30.59 50.42C32.06 52.03 33.67 53.22 35.42 53.99C37.17 54.76 38.78 55.11 40.32 55.11C42.77 55.11 44.8 54.76 46.34 54.06C47.88 53.36 49.07 52.59 49.91 51.75C50.75 50.91 51.38 50.14 51.73 49.44C52.08 48.74 52.36 48.39 52.57 48.39C52.85 48.39 52.99 48.67 52.99 49.23ZM133.91 8H133.56C130.9 8 128.1 8.42 125.23 9.19C122.36 9.96 119.63 11.43 117.04 13.53C117.95 13.6 118.93 13.67 119.91 13.74C120.89 13.81 121.87 13.81 122.78 13.81C125.79 13.81 128.31 13.6 130.34 13.25C132.37 12.9 133.98 12.48 135.24 11.99C136.5 11.5 137.41 11.01 137.97 10.52C138.53 10.03 138.81 9.68 138.81 9.4C138.81 9.05 138.32 8.7 137.41 8.42C136.5 8.14 135.31 8 133.91 8Z" fill="url(#paint0_linear_702_59)"/>
<path d="M52.99 49.23L53.6485 49.9826L53.99 49.6838V49.23H52.99ZM52.43 49.72L51.7715 48.9674L51.43 49.2662V49.72H52.43ZM48.44 54.69L49.0255 55.5007L49.0255 55.5007L48.44 54.69ZM43.82 57L44.1471 57.945L44.1471 57.945L43.82 57ZM31.01 56.58L30.6233 57.5022L30.6233 57.5022L31.01 56.58ZM25.27 52.66L25.9771 51.9529L25.9771 51.9529L25.27 52.66ZM21.28 46.36L20.348 46.7224L20.348 46.7224L21.28 46.36ZM21.49 28.09L22.4272 28.4387L22.4272 28.4387L21.49 28.09ZM26.25 19.9L25.48 19.262L25.48 19.262L26.25 19.9ZM53.13 5.34L53.3154 6.32266L53.3154 6.32266L53.13 5.34ZM78.47 5.41L78.3006 6.39555L78.3006 6.39555L78.47 5.41ZM91.49 8L91.2628 8.97384L91.2628 8.97384L91.49 8ZM103.81 10.94L103.571 11.9111L103.571 11.9111L103.81 10.94ZM115.5 13.18L115.371 14.1717L115.763 14.2225L116.084 13.9915L115.5 13.18ZM125.51 8.21L125.273 7.2386L125.273 7.2386L125.51 8.21ZM139.23 7.72L138.868 8.652L138.868 8.652L139.23 7.72ZM135.87 14.72L135.485 13.7969L135.485 13.7969L135.87 14.72ZM129.99 16.47L130.204 17.4469L130.204 17.4469L129.99 16.47ZM118.58 16.96L118.68 15.965L118.68 15.965L118.58 16.96ZM114.24 16.33L114.427 15.3477L113.89 15.2453L113.514 15.6428L114.24 16.33ZM107.66 25.15L108.519 25.6618L108.519 25.6618L107.66 25.15ZM102.13 35.58L103.031 36.0133L103.031 36.0133L102.13 35.58ZM97.09 46.85L98.0126 47.2358L98.0126 47.2358L97.09 46.85ZM92.26 58.19L93.1726 58.5991L93.1774 58.5881L92.26 58.19ZM89.25 64.14L90.1182 64.6361L90.1183 64.6361L89.25 64.14ZM85.47 69.39L86.2099 70.0627L86.2099 70.0627L85.47 69.39ZM80.64 73.17L81.1141 74.0505L81.1141 74.0505L80.64 73.17ZM71.4 74.15L71.759 73.2167L71.759 73.2167L71.4 74.15ZM69.09 72.82L69.7544 72.0726L69.7544 72.0726L69.09 72.82ZM67.62 70.93L66.7256 71.3772L66.7256 71.3772L67.62 70.93ZM69.3 70.86L70.0071 70.1529L70.0071 70.1529L69.3 70.86ZM76.23 71.42L76.5663 72.3617L76.5663 72.3617L76.23 71.42ZM79.38 69.39L80.0385 70.1426L80.0385 70.1426L79.38 69.39ZM82.95 65.19L83.7722 65.7592L82.95 65.19ZM87.08 58.05L86.1888 57.5963L86.1856 57.6028L87.08 58.05ZM92.89 46.29L91.9863 45.8619L91.9863 45.8619L92.89 46.29ZM98.77 34.74L97.8927 34.26L97.8927 34.26L98.77 34.74ZM105.14 24.24L105.967 24.8028L105.967 24.8028L105.14 24.24ZM112.42 15.63L113.107 16.3565L114.479 15.059L112.635 14.6534L112.42 15.63ZM89.74 9.19L90.0059 8.226L90.0059 8.226L89.74 9.19ZM77.28 6.25L77.473 5.2688L77.473 5.2688L77.28 6.25ZM55.37 5.69L55.2093 4.70299L55.2093 4.70299L55.37 5.69ZM31.85 17.45L31.0857 16.8051L31.0857 16.8051L31.85 17.45ZM27.02 44.19L26.0794 44.5296L26.0794 44.5296L27.02 44.19ZM30.59 50.42L29.8515 51.0943L29.8515 51.0943L30.59 50.42ZM35.42 53.99L35.8227 53.0747L35.8227 53.0747L35.42 53.99ZM46.34 54.06L46.7538 54.9704L46.7538 54.9704L46.34 54.06ZM49.91 51.75L50.6171 52.4571L50.6171 52.4571L49.91 51.75ZM51.73 49.44L52.6244 49.8872L52.6244 49.8872L51.73 49.44ZM125.23 9.19L124.971 8.22415L124.971 8.22415L125.23 9.19ZM117.04 13.53L116.41 12.7532L114.46 14.3345L116.963 14.5271L117.04 13.53ZM119.91 13.74L119.981 12.7425L119.981 12.7425L119.91 13.74ZM130.34 13.25L130.51 14.2355L130.51 14.2355L130.34 13.25ZM135.24 11.99L135.602 12.922L135.602 12.922L135.24 11.99ZM137.97 10.52L137.312 9.76742L137.311 9.76742L137.97 10.52ZM52.99 49.23L52.3315 48.4774L51.7715 48.9674L52.43 49.72L53.0885 50.4726L53.6485 49.9826L52.99 49.23ZM52.43 49.72H51.43C51.43 49.9322 51.2596 50.4764 50.5874 51.3503L51.38 51.96L52.1726 52.5697C52.9004 51.6236 53.43 50.6278 53.43 49.72H52.43ZM51.38 51.96L50.5874 51.3503C49.963 52.162 49.0618 53.0074 47.8545 53.8793L48.44 54.69L49.0255 55.5007C50.3382 54.5526 51.397 53.578 52.1726 52.5697L51.38 51.96ZM48.44 54.69L47.8545 53.8793C46.6899 54.7204 45.2418 55.4496 43.4929 56.055L43.82 57L44.1471 57.945C46.0382 57.2904 47.6701 56.4796 49.0255 55.5007L48.44 54.69ZM43.82 57L43.4929 56.055C41.7835 56.6467 39.8645 56.98 37.73 56.98V57.98V58.98C40.0755 58.98 42.2165 58.6133 44.1471 57.945L43.82 57ZM37.73 57.98V56.98C35.5652 56.98 33.4563 56.5215 31.3967 55.6578L31.01 56.58L30.6233 57.5022C32.9037 58.4585 35.2748 58.98 37.73 58.98V57.98ZM31.01 56.58L31.3967 55.6578C29.3604 54.8039 27.5766 53.5524 25.9771 51.9529L25.27 52.66L24.5629 53.3671C26.3234 55.1276 28.3196 56.5361 30.6233 57.5022L31.01 56.58ZM25.27 52.66L25.9771 51.9529C24.4078 50.3836 23.1487 48.4061 22.212 45.9976L21.28 46.36L20.348 46.7224C21.3713 49.3539 22.7722 51.5764 24.5629 53.3671L25.27 52.66ZM21.28 46.36L22.212 45.9976C21.2846 43.6129 20.81 40.8691 20.81 37.75H19.81H18.81C18.81 41.0708 19.3154 44.0671 20.348 46.7224L21.28 46.36ZM19.81 37.75H20.81C20.81 34.4309 21.3515 31.3298 22.4272 28.4387L21.49 28.09L20.5528 27.7413C19.3885 30.8702 18.81 34.2091 18.81 37.75H19.81ZM21.49 28.09L22.4272 28.4387C23.5062 25.5389 25.0581 22.9059 27.02 20.538L26.25 19.9L25.48 19.262C23.3819 21.7941 21.7138 24.6211 20.5528 27.7413L21.49 28.09ZM26.25 19.9L27.02 20.538C28.9953 18.1541 31.3098 15.9758 34.0335 14.0692L33.46 13.25L32.8865 12.4308C30.0102 14.4442 27.5647 16.7459 25.48 19.262L26.25 19.9ZM33.46 13.25L34.0335 14.0692C36.7621 12.1592 39.7733 10.5835 43.0048 9.27711L42.63 8.35L42.2552 7.42289C38.9067 8.77653 35.7579 10.4208 32.8865 12.4308L33.46 13.25ZM42.63 8.35L43.0048 9.27711C46.2245 7.97554 49.6597 7.01241 53.3154 6.32266L53.13 5.34L52.9446 4.35733C49.1803 5.06758 45.6155 6.06446 42.2552 7.42289L42.63 8.35ZM53.13 5.34L53.3154 6.32266C56.9631 5.63442 60.681 5.29 64.47 5.29V4.29V3.29C60.559 3.29 56.7169 3.64558 52.9446 4.35733L53.13 5.34ZM64.47 4.29V5.29C69.2524 5.29 73.8849 5.6366 78.3006 6.39555L78.47 5.41L78.6394 4.42445C74.0951 3.64339 69.3476 3.29 64.47 3.29V4.29ZM78.47 5.41L78.3006 6.39555C82.7678 7.16335 87.0875 7.99961 91.2628 8.97384L91.49 8L91.7172 7.02616C87.4925 6.04039 83.1322 5.19665 78.6394 4.42445L78.47 5.41ZM91.49 8L91.2628 8.97384C95.4606 9.95333 99.5865 10.9324 103.571 11.9111L103.81 10.94L104.049 9.96886C100.053 8.98762 95.9194 8.00667 91.7172 7.02616L91.49 8ZM103.81 10.94L103.571 11.9111C107.59 12.8982 111.547 13.676 115.371 14.1717L115.5 13.18L115.629 12.1883C111.893 11.704 108.01 10.9418 104.049 9.96886L103.81 10.94ZM115.5 13.18L116.084 13.9915C119.515 11.5213 122.758 9.91205 125.747 9.1814L125.51 8.21L125.273 7.2386C121.962 8.04795 118.485 9.79873 114.916 12.3685L115.5 13.18ZM125.51 8.21L125.747 9.1814C128.852 8.4224 131.568 8.02 133.91 8.02V7.02V6.02C131.352 6.02 128.468 6.4576 125.273 7.2386L125.51 8.21ZM133.91 7.02V8.02C136.186 8.02 137.785 8.23084 138.868 8.652L139.23 7.72L139.592 6.78799C138.155 6.22915 136.254 6.02 133.91 6.02V7.02ZM139.23 7.72L138.868 8.652C140.033 9.10518 140.12 9.49375 140.12 9.68H141.12H142.12C142.12 8.18624 140.947 7.31481 139.592 6.78799L139.23 7.72ZM141.12 9.68H140.12C140.12 10.1164 139.863 10.7123 139.013 11.5629L139.72 12.27L140.427 12.9771C141.397 12.0077 142.12 10.9236 142.12 9.68H141.12ZM139.72 12.27L139.013 11.5629C138.212 12.364 137.069 13.1373 135.485 13.7969L135.87 14.72L136.255 15.6431C138.031 14.9027 139.408 13.996 140.427 12.9771L139.72 12.27ZM135.87 14.72L135.485 13.7969C133.881 14.4653 131.985 15.01 129.776 15.4931L129.99 16.47L130.204 17.4469C132.475 16.95 134.499 16.3747 136.255 15.6431L135.87 14.72ZM129.99 16.47L129.776 15.4931C127.624 15.9639 125.249 16.17 122.71 16.17V17.17V18.17C125.351 18.17 127.876 17.9561 130.204 17.4469L129.99 16.47ZM122.71 17.17V16.17C121.414 16.17 120.047 16.1018 118.68 15.965L118.58 16.96L118.481 17.955C119.913 18.0982 121.346 18.17 122.71 18.17V17.17ZM118.58 16.96L118.68 15.965C117.308 15.8279 115.868 15.622 114.427 15.3477L114.24 16.33L114.053 17.3123C115.552 17.5979 117.052 17.8121 118.481 17.955L118.58 16.96ZM114.24 16.33L113.514 15.6428C111.006 18.2935 108.793 21.2943 106.801 24.6382L107.66 25.15L108.519 25.6618C110.447 22.4257 112.574 19.5465 114.966 17.0172L114.24 16.33ZM107.66 25.15L106.801 24.6382C104.821 27.9613 102.987 31.4893 101.229 35.1467L102.13 35.58L103.031 36.0133C104.773 32.3907 106.579 28.9187 108.519 25.6618L107.66 25.15ZM102.13 35.58L101.229 35.1467C99.47 38.8048 97.783 42.601 96.1674 46.4642L97.09 46.85L98.0126 47.2358C99.6171 43.399 101.29 39.6352 103.031 36.0133L102.13 35.58ZM97.09 46.85L96.1674 46.4642C94.5591 50.3102 92.9508 54.0861 91.3427 57.7919L92.26 58.19L93.1774 58.5881C94.7892 54.8739 96.4009 51.0898 98.0126 47.2358L97.09 46.85ZM92.26 58.19L91.3475 57.7809C90.4491 59.7851 89.4836 61.7156 88.3818 63.6439L89.25 64.14L90.1183 64.6361C91.2564 62.6444 92.2509 60.6549 93.1725 58.5991L92.26 58.19ZM89.25 64.14L88.3818 63.6439C87.2949 65.5458 86.077 67.2356 84.7301 68.7173L85.47 69.39L86.2099 70.0627C87.663 68.4644 88.9651 66.6542 90.1182 64.6361L89.25 64.14ZM85.47 69.39L84.7301 68.7173C83.4057 70.1741 81.8855 71.3636 80.1659 72.2895L80.64 73.17L81.1141 74.0505C83.0345 73.0164 84.7343 71.6859 86.2099 70.0627L85.47 69.39ZM80.64 73.17L80.1659 72.2895C78.5123 73.1799 76.5798 73.64 74.34 73.64V74.64V75.64C76.8602 75.64 79.1277 75.1201 81.1141 74.0505L80.64 73.17ZM74.34 74.64V73.64C73.3777 73.64 72.5258 73.5116 71.759 73.2167L71.4 74.15L71.041 75.0833C72.0942 75.4884 73.2023 75.64 74.34 75.64V74.64ZM71.4 74.15L71.759 73.2167C70.9197 72.8939 70.2665 72.5278 69.7544 72.0726L69.09 72.82L68.4256 73.5674C69.1735 74.2322 70.0603 74.7061 71.041 75.0833L71.4 74.15ZM69.09 72.82L69.7544 72.0726C69.2121 71.5905 68.8033 71.0605 68.5144 70.4828L67.62 70.93L66.7256 71.3772C67.1367 72.1995 67.7079 72.9295 68.4256 73.5674L69.09 72.82ZM67.62 70.93L68.5144 70.4828C68.2097 69.8734 68.06 69.3286 68.06 68.83H67.06H66.06C66.06 69.7314 66.3303 70.5866 66.7256 71.3772L67.62 70.93ZM67.06 68.83H68.06C68.06 68.5984 68.0717 68.4178 68.0903 68.2808C68.1094 68.1403 68.1323 68.0708 68.1415 68.0486C68.1509 68.026 68.1289 68.0927 68.0351 68.167C67.9258 68.2535 67.7954 68.29 67.69 68.29V67.29V66.29C67.3746 66.29 67.0604 66.3877 66.7937 66.5989C66.5423 66.7979 66.3891 67.0527 66.2935 67.2839C66.1114 67.724 66.06 68.2701 66.06 68.83H67.06ZM67.69 67.29V68.29C67.6344 68.29 67.5372 68.2791 67.4265 68.2238C67.3118 68.1664 67.227 68.0833 67.173 68.0022C67.1233 67.9278 67.1097 67.871 67.1076 67.8613C67.1053 67.8512 67.11 67.8674 67.11 67.92H68.11H69.11C69.11 67.6305 69.0675 67.2384 68.8371 66.8928C68.5589 66.4756 68.1213 66.29 67.69 66.29V67.29ZM68.11 67.92H67.11C67.11 69.3709 67.6323 70.6065 68.5929 71.5671L69.3 70.86L70.0071 70.1529C69.4277 69.5735 69.11 68.8491 69.11 67.92H68.11ZM69.3 70.86L68.5929 71.5671C69.6571 72.6313 71.3384 72.98 73.29 72.98V71.98V70.98C71.4616 70.98 70.4829 70.6287 70.0071 70.1529L69.3 70.86ZM73.29 71.98V72.98C74.413 72.98 75.5089 72.7394 76.5663 72.3617L76.23 71.42L75.8937 70.4783C74.9912 70.8006 74.127 70.98 73.29 70.98V71.98ZM76.23 71.42L76.5663 72.3617C77.7158 71.9512 78.8759 71.1599 80.0385 70.1426L79.38 69.39L78.7215 68.6374C77.6441 69.5801 76.7042 70.1888 75.8937 70.4783L76.23 71.42ZM79.38 69.39L80.0385 70.1426C81.2425 69.0891 82.4858 67.6174 83.7722 65.7592L82.95 65.19L82.1278 64.6208C80.8943 66.4026 79.7575 67.7309 78.7215 68.6374L79.38 69.39ZM82.95 65.19L83.7722 65.7592C85.0651 63.8917 86.4886 61.469 87.9744 58.4972L87.08 58.05L86.1856 57.6028C84.7315 60.511 83.3549 62.8483 82.1278 64.6208L82.95 65.19ZM87.08 58.05L87.9712 58.5037C89.9332 54.6498 91.8979 50.7203 93.7937 46.7181L92.89 46.29L91.9863 45.8619C90.1021 49.8397 88.1469 53.7502 86.1888 57.5963L87.08 58.05ZM92.89 46.29L93.7937 46.7181C95.6758 42.7449 97.627 38.9122 99.6473 35.22L98.77 34.74L97.8927 34.26C95.853 37.9878 93.8842 41.8551 91.9863 45.8619L92.89 46.29ZM98.77 34.74L99.6473 35.22C101.665 31.5321 103.748 28.0607 105.967 24.8028L105.14 24.24L104.313 23.6772C102.052 26.9993 99.9348 30.5279 97.8927 34.26L98.77 34.74ZM105.14 24.24L105.967 24.8028C108.168 21.5695 110.572 18.7549 113.107 16.3565L112.42 15.63L111.733 14.9035C109.088 17.4051 106.592 20.3305 104.313 23.6772L105.14 24.24ZM112.42 15.63L112.635 14.6534C109.166 13.8903 105.555 12.9182 101.8 11.7361L101.5 12.69L101.2 13.6438C105.005 14.8418 108.674 15.8297 112.205 16.6066L112.42 15.63ZM101.5 12.69L101.8 11.7361C98.0139 10.5441 94.0816 9.35032 90.0059 8.226L89.74 9.19L89.4741 10.154C93.5184 11.2697 97.4261 12.4559 101.2 13.6438L101.5 12.69ZM89.74 9.19L90.0059 8.226C85.9223 7.09948 81.768 6.11371 77.473 5.2688L77.28 6.25L77.087 7.23119C81.332 8.06629 85.4377 9.04052 89.4741 10.154L89.74 9.19ZM77.28 6.25L77.473 5.2688C73.1381 4.41603 68.7334 3.99 64.19 3.99V4.99V5.99C68.6066 5.99 72.8819 6.40397 77.087 7.23119L77.28 6.25ZM64.19 4.99V3.99C61.2709 3.99 58.2769 4.20361 55.2093 4.70299L55.37 5.69L55.5307 6.677C58.4831 6.19638 61.3691 5.99 64.19 5.99V4.99ZM55.37 5.69L55.2093 4.70299C52.1521 5.20068 49.1569 5.91314 46.2269 6.91365L46.55 7.86L46.8731 8.80635C49.6831 7.84686 52.5679 7.15932 55.5307 6.677L55.37 5.69ZM46.55 7.86L46.2269 6.91365C43.2859 7.91788 40.553 9.2117 37.9616 10.8673L38.5 11.71L39.0384 12.5527C41.487 10.9883 44.0741 9.76211 46.8731 8.80635L46.55 7.86ZM38.5 11.71L37.9616 10.8673C35.3685 12.524 33.049 14.4783 31.0857 16.8051L31.85 17.45L32.6143 18.0949C34.431 15.9417 36.5915 14.116 39.0384 12.5527L38.5 11.71ZM31.85 17.45L31.0857 16.8051C29.1223 19.1322 27.5251 21.8201 26.3655 24.864L27.3 25.22L28.2345 25.576C29.3149 22.7399 30.7977 20.2478 32.6143 18.0949L31.85 17.45ZM27.3 25.22L26.3655 24.864C25.1948 27.9371 24.62 31.421 24.62 35.23H25.62H26.62C26.62 31.619 27.1652 28.3829 28.2345 25.576L27.3 25.22ZM25.62 35.23H24.62C24.62 38.7522 25.1228 41.8805 26.0794 44.5296L27.02 44.19L27.9606 43.8504C27.0972 41.4595 26.62 38.5678 26.62 35.23H25.62ZM27.02 44.19L26.0794 44.5296C27.0223 47.1407 28.272 49.3644 29.8515 51.0943L30.59 50.42L31.3285 49.7457C29.968 48.2556 28.8377 46.2793 27.9606 43.8504L27.02 44.19ZM30.59 50.42L29.8515 51.0943C31.4023 52.7927 33.1231 54.0719 35.0173 54.9053L35.42 53.99L35.8227 53.0747C34.2169 52.3681 32.7177 51.2673 31.3285 49.7457L30.59 50.42ZM35.42 53.99L35.0173 54.9053C36.875 55.7227 38.6218 56.11 40.32 56.11V55.11V54.11C38.9382 54.11 37.465 53.7973 35.8227 53.0747L35.42 53.99ZM40.32 55.11V56.11C42.8513 56.11 45.0376 55.7504 46.7538 54.9704L46.34 54.06L45.9262 53.1496C44.5624 53.7696 42.6887 54.11 40.32 54.11V55.11ZM46.34 54.06L46.7538 54.9704C48.3604 54.2401 49.6646 53.4096 50.6171 52.4571L49.91 51.75L49.2029 51.0429C48.4754 51.7704 47.3996 52.4799 45.9262 53.1496L46.34 54.06ZM49.91 51.75L50.6171 52.4571C51.4812 51.593 52.2019 50.7323 52.6244 49.8872L51.73 49.44L50.8356 48.9928C50.5581 49.5477 50.0188 50.227 49.2029 51.0429L49.91 51.75ZM51.73 49.44L52.6244 49.8872C52.7875 49.561 52.9082 49.3712 52.9834 49.2772C53.021 49.2302 53.0212 49.2404 52.9806 49.2694C52.943 49.2962 52.7986 49.39 52.57 49.39V48.39V47.39C52.2364 47.39 51.9782 47.5275 51.8181 47.6419C51.655 47.7584 51.524 47.8998 51.4216 48.0278C51.2168 48.2838 51.0225 48.619 50.8356 48.9928L51.73 49.44ZM52.57 48.39V49.39C52.465 49.39 52.3285 49.3609 52.1991 49.2745C52.0758 49.1924 52.0149 49.0958 51.9906 49.0472C51.9682 49.0025 51.9708 48.9874 51.9774 49.0269C51.9835 49.0637 51.99 49.129 51.99 49.23H52.99H53.99C53.99 48.8989 53.9539 48.5017 53.7794 48.1528C53.6851 47.9642 53.5367 47.7626 53.3085 47.6104C53.074 47.4541 52.815 47.39 52.57 47.39V48.39ZM133.91 8V7H133.56V8V9H133.91V8ZM133.56 8V7C130.796 7 127.908 7.43608 124.971 8.22415L125.23 9.19L125.489 10.1558C128.292 9.40391 131.004 9 133.56 9V8ZM125.23 9.19L124.971 8.22415C121.944 9.03634 119.09 10.5803 116.41 12.7532L117.04 13.53L117.67 14.3068C120.17 12.2797 122.776 10.8837 125.489 10.1558L125.23 9.19ZM117.04 13.53L116.963 14.5271C117.877 14.5973 118.859 14.6675 119.839 14.7375L119.91 13.74L119.981 12.7425C119.001 12.6725 118.023 12.6027 117.117 12.5329L117.04 13.53ZM119.91 13.74L119.839 14.7375C120.86 14.8104 121.875 14.81 122.78 14.81V13.81V12.81C121.865 12.81 120.92 12.8096 119.981 12.7425L119.91 13.74ZM122.78 13.81V14.81C125.834 14.81 128.412 14.5971 130.51 14.2355L130.34 13.25L130.17 12.2645C128.208 12.6029 125.746 12.81 122.78 12.81V13.81ZM130.34 13.25L130.51 14.2355C132.579 13.8786 134.259 13.4443 135.602 12.922L135.24 11.99L134.878 11.058C133.701 11.5157 132.161 11.9213 130.17 12.2645L130.34 13.25ZM135.24 11.99L135.602 12.922C136.897 12.4185 137.937 11.8779 138.629 11.2726L137.97 10.52L137.311 9.76742C136.883 10.1421 136.103 10.5815 134.878 11.058L135.24 11.99ZM137.97 10.52L138.629 11.2726C138.926 11.0124 139.195 10.7506 139.395 10.4873C139.584 10.24 139.81 9.86608 139.81 9.4H138.81H137.81C137.81 9.30133 137.835 9.23822 137.842 9.22274C137.848 9.20926 137.842 9.22567 137.805 9.27521C137.725 9.37942 137.574 9.53763 137.312 9.76742L137.97 10.52ZM138.81 9.4H139.81C139.81 8.72993 139.351 8.29402 139.027 8.06594C138.669 7.81448 138.208 7.61928 137.704 7.46422L137.41 8.42L137.116 9.37578C137.522 9.50072 137.761 9.62052 137.876 9.70155C137.931 9.74065 137.925 9.74764 137.899 9.70996C137.868 9.66571 137.81 9.55769 137.81 9.4H138.81ZM137.41 8.42L137.704 7.46422C136.664 7.14407 135.365 7 133.91 7V8V9C135.255 9 136.336 9.13593 137.116 9.37578L137.41 8.42Z" fill="black" mask="url(#path-1-outside-1_702_59)"/>
<mask id="path-3-outside-2_702_59" maskUnits="userSpaceOnUse" x="221" y="0" width="80" height="80" fill="black">
<rect fill="white" x="221" width="80" height="80"/>
<path d="M282.5 56.72C282.5 57.35 282.15 57.56 281.8 58.05C281.52 58.47 280.89 58.96 280.4 59.45C279.91 59.94 279.35 60.5 278.72 61.13C278.09 61.76 277.46 62.39 276.76 63.02C274.38 65.05 271.86 67.01 269.13 68.9C266.4 70.79 263.53 72.47 260.52 73.94C257.51 75.41 254.36 76.6 251.07 77.44C247.78 78.28 244.42 78.7 240.92 78.7C238.05 78.7 235.46 78.21 233.15 77.23C230.84 76.25 228.88 74.85 227.27 73.03C225.66 71.21 224.4 68.97 223.49 66.38C222.58 63.79 222.16 60.85 222.16 57.56C222.16 52.87 222.93 48.25 224.47 43.7C226.01 39.15 228.11 34.81 230.84 30.68C233.57 26.55 236.79 22.7 240.5 19.2C244.21 15.7 248.2 12.62 252.54 10.03C256.88 7.44 261.43 5.41 266.19 3.94C270.95 2.47 275.71 1.7 280.54 1.7C283.83 1.7 286.7 2.12 289.15 3.03C291.6 3.94 293.63 5.13 295.24 6.67C296.85 8.21 298.04 9.96 298.81 11.99C299.58 14.02 300 16.12 300 18.36C300 21.58 299.3 24.59 297.9 27.46C296.5 30.33 294.75 32.85 292.58 35.02C290.41 37.19 287.96 38.94 285.23 40.2C282.5 41.46 279.77 42.09 277.04 42.09C274.8 42.09 272.98 41.39 271.51 39.99C270.04 38.59 269.34 36.56 269.34 33.97C269.34 32.15 269.83 30.4 270.74 28.72C271.65 27.04 272.77 25.5 274.1 24.1C275.43 22.7 276.76 21.44 278.09 20.32C279.42 19.2 280.47 18.29 281.24 17.59C281.87 17.03 282.29 16.61 282.5 16.26C282.71 15.91 282.92 15.77 283.13 15.77C283.2 15.77 283.27 15.77 283.34 15.84C283.41 15.91 283.48 16.05 283.48 16.26C283.48 16.61 283.41 16.89 283.27 17.03C283.13 17.17 282.92 17.45 282.71 17.8C281.94 19.06 281.03 20.32 279.98 21.58C278.93 22.84 277.95 24.17 277.04 25.57C276.13 26.97 275.36 28.44 274.73 30.05C274.1 31.66 273.82 33.41 273.82 35.3C273.82 36.56 274.03 37.54 274.38 38.31C274.73 39.08 275.15 39.64 275.64 40.06C276.13 40.48 276.62 40.69 277.11 40.76C277.6 40.83 278.02 40.9 278.37 40.9C280.19 40.9 282.08 40.34 284.04 39.15C286 37.96 287.82 36.35 289.43 34.32C291.04 32.29 292.37 29.91 293.42 27.18C294.47 24.45 295.03 21.51 295.03 18.36C295.03 16.12 294.75 14.02 294.12 12.13C293.49 10.24 292.51 8.63 291.25 7.23C289.99 5.83 288.38 4.78 286.35 4.01C284.32 3.24 281.94 2.89 279.21 2.89C275.43 2.89 271.58 3.52 267.59 4.85C263.6 6.18 259.68 8 255.9 10.38C252.12 12.76 248.55 15.56 245.19 18.85C241.83 22.14 238.89 25.78 236.37 29.77C233.85 33.76 231.82 38.03 230.35 42.58C228.88 47.13 228.11 51.82 228.11 56.72C228.11 60.36 228.6 63.37 229.51 65.82C230.42 68.27 231.68 70.23 233.22 71.7C234.76 73.17 236.51 74.22 238.47 74.85C240.43 75.48 242.53 75.76 244.7 75.76C247.85 75.76 250.86 75.34 253.8 74.57C256.74 73.8 259.54 72.75 262.2 71.49C264.86 70.23 267.31 68.76 269.62 67.15C271.93 65.54 274.03 63.93 275.92 62.32C278.23 60.29 279.84 58.82 280.68 57.98C281.52 57.14 282.15 56.72 282.5 56.72Z"/>
</mask>
<path d="M282.5 56.72C282.5 57.35 282.15 57.56 281.8 58.05C281.52 58.47 280.89 58.96 280.4 59.45C279.91 59.94 279.35 60.5 278.72 61.13C278.09 61.76 277.46 62.39 276.76 63.02C274.38 65.05 271.86 67.01 269.13 68.9C266.4 70.79 263.53 72.47 260.52 73.94C257.51 75.41 254.36 76.6 251.07 77.44C247.78 78.28 244.42 78.7 240.92 78.7C238.05 78.7 235.46 78.21 233.15 77.23C230.84 76.25 228.88 74.85 227.27 73.03C225.66 71.21 224.4 68.97 223.49 66.38C222.58 63.79 222.16 60.85 222.16 57.56C222.16 52.87 222.93 48.25 224.47 43.7C226.01 39.15 228.11 34.81 230.84 30.68C233.57 26.55 236.79 22.7 240.5 19.2C244.21 15.7 248.2 12.62 252.54 10.03C256.88 7.44 261.43 5.41 266.19 3.94C270.95 2.47 275.71 1.7 280.54 1.7C283.83 1.7 286.7 2.12 289.15 3.03C291.6 3.94 293.63 5.13 295.24 6.67C296.85 8.21 298.04 9.96 298.81 11.99C299.58 14.02 300 16.12 300 18.36C300 21.58 299.3 24.59 297.9 27.46C296.5 30.33 294.75 32.85 292.58 35.02C290.41 37.19 287.96 38.94 285.23 40.2C282.5 41.46 279.77 42.09 277.04 42.09C274.8 42.09 272.98 41.39 271.51 39.99C270.04 38.59 269.34 36.56 269.34 33.97C269.34 32.15 269.83 30.4 270.74 28.72C271.65 27.04 272.77 25.5 274.1 24.1C275.43 22.7 276.76 21.44 278.09 20.32C279.42 19.2 280.47 18.29 281.24 17.59C281.87 17.03 282.29 16.61 282.5 16.26C282.71 15.91 282.92 15.77 283.13 15.77C283.2 15.77 283.27 15.77 283.34 15.84C283.41 15.91 283.48 16.05 283.48 16.26C283.48 16.61 283.41 16.89 283.27 17.03C283.13 17.17 282.92 17.45 282.71 17.8C281.94 19.06 281.03 20.32 279.98 21.58C278.93 22.84 277.95 24.17 277.04 25.57C276.13 26.97 275.36 28.44 274.73 30.05C274.1 31.66 273.82 33.41 273.82 35.3C273.82 36.56 274.03 37.54 274.38 38.31C274.73 39.08 275.15 39.64 275.64 40.06C276.13 40.48 276.62 40.69 277.11 40.76C277.6 40.83 278.02 40.9 278.37 40.9C280.19 40.9 282.08 40.34 284.04 39.15C286 37.96 287.82 36.35 289.43 34.32C291.04 32.29 292.37 29.91 293.42 27.18C294.47 24.45 295.03 21.51 295.03 18.36C295.03 16.12 294.75 14.02 294.12 12.13C293.49 10.24 292.51 8.63 291.25 7.23C289.99 5.83 288.38 4.78 286.35 4.01C284.32 3.24 281.94 2.89 279.21 2.89C275.43 2.89 271.58 3.52 267.59 4.85C263.6 6.18 259.68 8 255.9 10.38C252.12 12.76 248.55 15.56 245.19 18.85C241.83 22.14 238.89 25.78 236.37 29.77C233.85 33.76 231.82 38.03 230.35 42.58C228.88 47.13 228.11 51.82 228.11 56.72C228.11 60.36 228.6 63.37 229.51 65.82C230.42 68.27 231.68 70.23 233.22 71.7C234.76 73.17 236.51 74.22 238.47 74.85C240.43 75.48 242.53 75.76 244.7 75.76C247.85 75.76 250.86 75.34 253.8 74.57C256.74 73.8 259.54 72.75 262.2 71.49C264.86 70.23 267.31 68.76 269.62 67.15C271.93 65.54 274.03 63.93 275.92 62.32C278.23 60.29 279.84 58.82 280.68 57.98C281.52 57.14 282.15 56.72 282.5 56.72Z" fill="url(#paint1_linear_702_59)"/>
<path d="M282.5 56.72H283.5V55.72H282.5V56.72ZM281.8 58.05L280.986 57.4688L280.977 57.4819L280.968 57.4953L281.8 58.05ZM280.4 59.45L281.107 60.1571L281.107 60.1571L280.4 59.45ZM278.72 61.13L279.427 61.8371L279.427 61.8371L278.72 61.13ZM276.76 63.02L277.409 63.7808L277.419 63.7722L277.429 63.7633L276.76 63.02ZM269.13 68.9L268.561 68.0778L268.561 68.0778L269.13 68.9ZM260.52 73.94L260.959 74.8386L260.959 74.8386L260.52 73.94ZM251.07 77.44L250.823 76.4711L250.823 76.4711L251.07 77.44ZM233.15 77.23L233.541 76.3094L233.541 76.3094L233.15 77.23ZM227.27 73.03L226.521 73.6926L226.521 73.6926L227.27 73.03ZM223.49 66.38L224.433 66.0485L224.433 66.0485L223.49 66.38ZM224.47 43.7L223.523 43.3794L223.523 43.3794L224.47 43.7ZM230.84 30.68L231.674 31.2314L231.674 31.2314L230.84 30.68ZM252.54 10.03L253.052 10.8887L253.052 10.8887L252.54 10.03ZM289.15 3.03L289.498 2.09257L289.498 2.09257L289.15 3.03ZM295.24 6.67L295.931 5.94735L295.931 5.94735L295.24 6.67ZM298.81 11.99L299.745 11.6353L299.745 11.6353L298.81 11.99ZM297.9 27.46L298.799 27.8984L298.799 27.8984L297.9 27.46ZM292.58 35.02L291.873 34.3129L291.873 34.3129L292.58 35.02ZM285.23 40.2L285.649 41.108L285.649 41.108L285.23 40.2ZM271.51 39.99L272.2 39.2659L272.2 39.2659L271.51 39.99ZM274.1 24.1L273.375 23.4112L273.375 23.4112L274.1 24.1ZM278.09 20.32L278.734 21.0849L278.734 21.0849L278.09 20.32ZM281.24 17.59L280.576 16.8425L280.567 16.8501L281.24 17.59ZM283.34 15.84L282.633 16.5471L282.633 16.5471L283.34 15.84ZM283.27 17.03L283.977 17.7371L283.977 17.7371L283.27 17.03ZM282.71 17.8L283.563 18.3215L283.568 18.3145L282.71 17.8ZM274.38 38.31L273.47 38.7238L273.47 38.7238L274.38 38.31ZM275.64 40.06L274.989 40.8193L274.989 40.8193L275.64 40.06ZM277.11 40.76L277.251 39.77L277.251 39.77L277.11 40.76ZM289.43 34.32L288.647 33.6986L288.647 33.6986L289.43 34.32ZM293.42 27.18L292.487 26.821L292.487 26.821L293.42 27.18ZM294.12 12.13L295.069 11.8138L295.069 11.8138L294.12 12.13ZM291.25 7.23L291.993 6.56103L291.993 6.56103L291.25 7.23ZM286.35 4.01L286.705 3.075L286.705 3.075L286.35 4.01ZM267.59 4.85L267.274 3.90131L267.274 3.90131L267.59 4.85ZM255.9 10.38L255.367 9.53376L255.367 9.53376L255.9 10.38ZM245.19 18.85L245.89 19.5645L245.89 19.5645L245.19 18.85ZM236.37 29.77L237.215 30.304L237.215 30.304L236.37 29.77ZM230.35 42.58L229.398 42.2726L229.398 42.2726L230.35 42.58ZM229.51 65.82L230.447 65.4718L230.447 65.4718L229.51 65.82ZM238.47 74.85L238.776 73.898L238.776 73.898L238.47 74.85ZM253.8 74.57L254.053 75.5374L254.053 75.5374L253.8 74.57ZM262.2 71.49L262.628 72.3937L262.628 72.3937L262.2 71.49ZM269.62 67.15L269.048 66.3296L269.048 66.3296L269.62 67.15ZM275.92 62.32L276.568 63.0812L276.574 63.0762L276.58 63.0712L275.92 62.32ZM282.5 56.72H281.5C281.5 56.7814 281.492 56.8059 281.49 56.8111C281.488 56.8174 281.482 56.8342 281.455 56.8742C281.421 56.9235 281.377 56.9779 281.289 57.0839C281.209 57.1801 281.098 57.3118 280.986 57.4688L281.8 58.05L282.614 58.6312C282.677 58.5432 282.741 58.4649 282.825 58.3642C282.901 58.2734 283.01 58.144 283.107 58.0008C283.336 57.6657 283.5 57.2626 283.5 56.72H282.5ZM281.8 58.05L280.968 57.4953C280.901 57.5961 280.755 57.752 280.497 57.9919C280.277 58.1971 279.953 58.4825 279.693 58.7429L280.4 59.45L281.107 60.1571C281.337 59.9275 281.573 59.7229 281.86 59.4556C282.11 59.223 282.419 58.9239 282.632 58.6047L281.8 58.05ZM280.4 59.45L279.693 58.7429C279.203 59.2329 278.643 59.7929 278.013 60.4229L278.72 61.13L279.427 61.8371C280.057 61.2071 280.617 60.6471 281.107 60.1571L280.4 59.45ZM278.72 61.13L278.013 60.4229C277.381 61.0552 276.769 61.667 276.091 62.2767L276.76 63.02L277.429 63.7633C278.151 63.113 278.799 62.4648 279.427 61.8371L278.72 61.13ZM276.76 63.02L276.111 62.2592C273.755 64.269 271.261 66.2083 268.561 68.0778L269.13 68.9L269.699 69.7222C272.459 67.8117 275.005 65.831 277.409 63.7808L276.76 63.02ZM269.13 68.9L268.561 68.0778C265.873 69.9388 263.046 71.5934 260.081 73.0414L260.52 73.94L260.959 74.8386C264.014 73.3466 266.927 71.6412 269.699 69.7222L269.13 68.9ZM260.52 73.94L260.081 73.0414C257.127 74.484 254.041 75.6493 250.823 76.4711L251.07 77.44L251.317 78.4089C254.679 77.5507 257.893 76.336 260.959 74.8386L260.52 73.94ZM251.07 77.44L250.823 76.4711C247.615 77.29 244.338 77.7 240.92 77.7V78.7V79.7C244.502 79.7 247.945 79.27 251.317 78.4089L251.07 77.44ZM240.92 78.7V77.7C238.165 77.7 235.711 77.23 233.541 76.3094L233.15 77.23L232.759 78.1506C235.209 79.19 237.935 79.7 240.92 79.7V78.7ZM233.15 77.23L233.541 76.3094C231.363 75.3857 229.527 74.0721 228.019 72.3674L227.27 73.03L226.521 73.6926C228.233 75.6279 230.317 77.1143 232.759 78.1506L233.15 77.23ZM227.27 73.03L228.019 72.3674C226.508 70.6592 225.308 68.537 224.433 66.0485L223.49 66.38L222.547 66.7115C223.492 69.403 224.812 71.7608 226.521 73.6926L227.27 73.03ZM223.49 66.38L224.433 66.0485C223.57 63.5904 223.16 60.7676 223.16 57.56H222.16H221.16C221.16 60.9324 221.59 63.9896 222.547 66.7115L223.49 66.38ZM222.16 57.56H223.16C223.16 52.9817 223.911 48.4699 225.417 44.0206L224.47 43.7L223.523 43.3794C221.949 48.0301 221.16 52.7583 221.16 57.56H222.16ZM224.47 43.7L225.417 44.0206C226.93 39.5504 228.993 35.2882 231.674 31.2314L230.84 30.68L230.006 30.1286C227.227 34.3318 225.09 38.7496 223.523 43.3794L224.47 43.7ZM230.84 30.68L231.674 31.2314C234.362 27.165 237.533 23.3741 241.186 19.9274L240.5 19.2L239.814 18.4726C236.047 22.0259 232.778 25.935 230.006 30.1286L230.84 30.68ZM240.5 19.2L241.186 19.9274C244.849 16.4723 248.781 13.4378 253.052 10.8887L252.54 10.03L252.028 9.17129C247.619 11.8022 243.571 14.9277 239.814 18.4726L240.5 19.2ZM252.54 10.03L253.052 10.8887C257.325 8.33891 261.802 6.34165 266.485 4.89547L266.19 3.94L265.895 2.98452C261.058 4.47835 256.435 6.54109 252.028 9.17129L252.54 10.03ZM266.19 3.94L266.485 4.89547C271.158 3.45236 275.819 2.7 280.54 2.7V1.7V0.699997C275.601 0.699997 270.742 1.48763 265.895 2.98452L266.19 3.94ZM280.54 1.7V2.7C283.75 2.7 286.494 3.1104 288.802 3.96742L289.15 3.03L289.498 2.09257C286.906 1.12959 283.91 0.699997 280.54 0.699997V1.7ZM289.15 3.03L288.802 3.96742C291.155 4.84136 293.058 5.96714 294.549 7.39264L295.24 6.67L295.931 5.94735C294.202 4.29286 292.045 3.03863 289.498 2.09257L289.15 3.03ZM295.24 6.67L294.549 7.39264C296.059 8.83685 297.161 10.4633 297.875 12.3447L298.81 11.99L299.745 11.6353C298.919 9.45666 297.641 7.58315 295.931 5.94735L295.24 6.67ZM298.81 11.99L297.875 12.3446C298.605 14.2698 299 16.2499 299 18.36H300H301C301 15.9901 300.555 13.7702 299.745 11.6353L298.81 11.99ZM300 18.36H299C299 21.4277 298.335 24.2878 297.001 27.0216L297.9 27.46L298.799 27.8984C300.265 24.8922 301 21.7323 301 18.36H300ZM297.9 27.46L297.001 27.0216C295.645 29.8019 293.957 32.2287 291.873 34.3129L292.58 35.02L293.287 35.7271C295.543 33.4713 297.355 30.8581 298.799 27.8984L297.9 27.46ZM292.58 35.02L291.873 34.3129C289.78 36.4059 287.426 38.0852 284.811 39.292L285.23 40.2L285.649 41.108C288.494 39.7948 291.04 37.9741 293.287 35.7271L292.58 35.02ZM285.23 40.2L284.811 39.292C282.199 40.4976 279.611 41.09 277.04 41.09V42.09V43.09C279.929 43.09 282.801 42.4224 285.649 41.108L285.23 40.2ZM277.04 42.09V41.09C275.033 41.09 273.467 40.4727 272.2 39.2659L271.51 39.99L270.82 40.7141C272.493 42.3073 274.567 43.09 277.04 43.09V42.09ZM271.51 39.99L272.2 39.2659C270.989 38.1125 270.34 36.3834 270.34 33.97H269.34H268.34C268.34 36.7366 269.091 39.0675 270.82 40.7141L271.51 39.99ZM269.34 33.97H270.34C270.34 32.337 270.778 30.7493 271.619 29.1963L270.74 28.72L269.861 28.2437C268.882 30.0506 268.34 31.963 268.34 33.97H269.34ZM270.74 28.72L271.619 29.1963C272.487 27.5944 273.555 26.1257 274.825 24.7887L274.1 24.1L273.375 23.4112C271.985 24.8743 270.813 26.4856 269.861 28.2437L270.74 28.72ZM274.1 24.1L274.825 24.7887C276.132 23.4127 277.435 22.1786 278.734 21.0849L278.09 20.32L277.446 19.5551C276.085 20.7014 274.728 21.9873 273.375 23.4112L274.1 24.1ZM278.09 20.32L278.734 21.0849C280.068 19.9614 281.129 19.0422 281.913 18.3299L281.24 17.59L280.567 16.8501C279.811 17.5378 278.772 18.4386 277.446 19.5551L278.09 20.32ZM281.24 17.59L281.904 18.3374C282.52 17.7906 283.057 17.2755 283.357 16.7745L282.5 16.26L281.643 15.7455C281.523 15.9445 281.22 16.2694 280.576 16.8426L281.24 17.59ZM282.5 16.26L283.357 16.7745C283.422 16.6674 283.447 16.6596 283.415 16.6837C283.396 16.698 283.36 16.721 283.306 16.74C283.252 16.7593 283.191 16.77 283.13 16.77V15.77V14.77C282.395 14.77 281.921 15.2815 281.643 15.7455L282.5 16.26ZM283.13 15.77V16.77C283.184 16.77 283.096 16.7748 282.992 16.7489C282.855 16.7146 282.729 16.643 282.633 16.5471L283.34 15.84L284.047 15.1329C283.666 14.752 283.215 14.77 283.13 14.77V15.77ZM283.34 15.84L282.633 16.5471C282.482 16.3964 282.48 16.2642 282.48 16.26H283.48H284.48C284.48 15.8358 284.338 15.4236 284.047 15.1329L283.34 15.84ZM283.48 16.26H282.48C282.48 16.3147 282.477 16.3601 282.473 16.3963C282.469 16.4329 282.464 16.4556 282.461 16.4661C282.458 16.4773 282.46 16.4681 282.471 16.4451C282.483 16.4223 282.51 16.3756 282.563 16.3229L283.27 17.03L283.977 17.7371C284.216 17.4977 284.333 17.2084 284.394 16.9814C284.457 16.7442 284.48 16.496 284.48 16.26H283.48ZM283.27 17.03L282.563 16.3229C282.34 16.5458 282.081 16.9044 281.853 17.2855L282.71 17.8L283.568 18.3145C283.658 18.1637 283.746 18.0321 283.823 17.9276C283.903 17.8178 283.957 17.7573 283.977 17.7371L283.27 17.03ZM282.71 17.8L281.857 17.2785C281.115 18.4927 280.234 19.7132 279.212 20.9398L279.98 21.58L280.748 22.2202C281.826 20.9268 282.765 19.6273 283.563 18.3214L282.71 17.8ZM279.98 21.58L279.212 20.9398C278.136 22.2307 277.133 23.5925 276.202 25.025L277.04 25.57L277.878 26.115C278.767 24.7475 279.724 23.4493 280.748 22.2202L279.98 21.58ZM277.04 25.57L276.202 25.025C275.257 26.4785 274.455 28.0087 273.799 29.6856L274.73 30.05L275.661 30.4144C276.265 28.8713 277.003 27.4615 277.878 26.115L277.04 25.57ZM274.73 30.05L273.799 29.6856C273.115 31.4335 272.82 33.311 272.82 35.3H273.82H274.82C274.82 33.5089 275.085 31.8865 275.661 30.4144L274.73 30.05ZM273.82 35.3H272.82C272.82 36.6702 273.048 37.7972 273.47 38.7238L274.38 38.31L275.29 37.8962C275.012 37.2828 274.82 36.4498 274.82 35.3H273.82ZM274.38 38.31L273.47 38.7238C273.871 39.6064 274.373 40.291 274.989 40.8193L275.64 40.06L276.291 39.3007C275.927 38.989 275.589 38.5536 275.29 37.8962L274.38 38.31ZM275.64 40.06L274.989 40.8193C275.614 41.3544 276.278 41.6512 276.969 41.7499L277.11 40.76L277.251 39.77C276.962 39.7288 276.646 39.6056 276.291 39.3007L275.64 40.06ZM277.11 40.76L276.969 41.7499C277.408 41.8128 277.928 41.9 278.37 41.9V40.9V39.9C278.112 39.9 277.792 39.8472 277.251 39.77L277.11 40.76ZM278.37 40.9V41.9C280.404 41.9 282.472 41.272 284.559 40.0048L284.04 39.15L283.521 38.2952C281.688 39.408 279.976 39.9 278.37 39.9V40.9ZM284.04 39.15L284.559 40.0048C286.627 38.7491 288.535 37.0577 290.214 34.9414L289.43 34.32L288.647 33.6986C287.105 35.6423 285.373 37.1709 283.521 38.2952L284.04 39.15ZM289.43 34.32L290.214 34.9414C291.894 32.8225 293.272 30.3515 294.353 27.539L293.42 27.18L292.487 26.821C291.468 29.4685 290.186 31.7575 288.647 33.6986L289.43 34.32ZM293.42 27.18L294.353 27.539C295.448 24.693 296.03 21.6312 296.03 18.36H295.03H294.03C294.03 21.3888 293.492 24.207 292.487 26.821L293.42 27.18ZM295.03 18.36H296.03C296.03 16.0396 295.74 13.8286 295.069 11.8138L294.12 12.13L293.171 12.4462C293.76 14.2114 294.03 16.2003 294.03 18.36H295.03ZM294.12 12.13L295.069 11.8138C294.392 9.7847 293.339 8.05626 291.993 6.56103L291.25 7.23L290.507 7.89896C291.681 9.20374 292.588 10.6953 293.171 12.4462L294.12 12.13ZM291.25 7.23L291.993 6.56103C290.609 5.02337 288.857 3.89148 286.705 3.075L286.35 4.01L285.995 4.94499C287.903 5.66852 289.371 6.63663 290.507 7.89896L291.25 7.23ZM286.35 4.01L286.705 3.075C284.529 2.24956 282.02 1.89 279.21 1.89V2.89V3.89C281.86 3.89 284.112 4.23043 285.995 4.94499L286.35 4.01ZM279.21 2.89V1.89C275.316 1.89 271.359 2.5395 267.274 3.90131L267.59 4.85L267.906 5.79868C271.801 4.5005 275.544 3.89 279.21 3.89V2.89ZM267.59 4.85L267.274 3.90131C263.21 5.2559 259.217 7.1098 255.367 9.53376L255.9 10.38L256.433 11.2262C260.143 8.8902 263.99 7.10409 267.906 5.79868L267.59 4.85ZM255.9 10.38L255.367 9.53376C251.527 11.9514 247.901 14.7955 244.49 18.1355L245.19 18.85L245.89 19.5645C249.199 16.3245 252.713 13.5686 256.433 11.2262L255.9 10.38ZM245.19 18.85L244.49 18.1355C241.075 21.48 238.086 25.1806 235.525 29.236L236.37 29.77L237.215 30.304C239.694 26.3794 242.585 22.8 245.89 19.5645L245.19 18.85ZM236.37 29.77L235.525 29.236C232.962 33.2939 230.895 37.6397 229.398 42.2726L230.35 42.58L231.302 42.8874C232.745 38.4203 234.738 34.2261 237.215 30.304L236.37 29.77ZM230.35 42.58L229.398 42.2726C227.897 46.919 227.11 51.7126 227.11 56.72H228.11H229.11C229.11 51.9274 229.863 47.341 231.302 42.8874L230.35 42.58ZM228.11 56.72H227.11C227.11 60.4457 227.611 63.5794 228.573 66.1682L229.51 65.82L230.447 65.4718C229.589 63.1606 229.11 60.2743 229.11 56.72H228.11ZM229.51 65.82L228.573 66.1682C229.527 68.7375 230.863 70.833 232.53 72.4234L233.22 71.7L233.91 70.9766C232.497 69.627 231.313 67.8025 230.447 65.4718L229.51 65.82ZM233.22 71.7L232.53 72.4234C234.175 73.994 236.055 75.1242 238.164 75.802L238.47 74.85L238.776 73.898C236.965 73.3158 235.345 72.346 233.91 70.9766L233.22 71.7ZM238.47 74.85L238.164 75.802C240.24 76.4692 242.445 76.76 244.7 76.76V75.76V74.76C242.615 74.76 240.62 74.4908 238.776 73.898L238.47 74.85ZM244.7 75.76V76.76C247.941 76.76 251.036 76.3276 254.053 75.5374L253.8 74.57L253.547 73.6026C250.684 74.3524 247.759 74.76 244.7 74.76V75.76ZM253.8 74.57L254.053 75.5374C257.059 74.7503 259.917 73.678 262.628 72.3937L262.2 71.49L261.772 70.5863C259.163 71.822 256.421 72.8497 253.547 73.6026L253.8 74.57ZM262.2 71.49L262.628 72.3937C265.346 71.1064 267.844 69.6069 270.192 67.9704L269.62 67.15L269.048 66.3296C266.776 67.9131 264.374 69.3536 261.772 70.5863L262.2 71.49ZM269.62 67.15L270.192 67.9704C272.525 66.3443 274.651 64.7147 276.568 63.0812L275.92 62.32L275.272 61.5588C273.409 63.1453 271.335 64.7357 269.048 66.3296L269.62 67.15ZM275.92 62.32L276.58 63.0712C278.89 61.0417 280.522 59.5525 281.387 58.6871L280.68 57.98L279.973 57.2729C279.158 58.0875 277.57 59.5383 275.26 61.5688L275.92 62.32ZM280.68 57.98L281.387 58.6871C281.783 58.2915 282.102 58.0224 282.339 57.8597C282.458 57.7785 282.538 57.736 282.583 57.7166C282.636 57.6936 282.6 57.72 282.5 57.72V56.72V55.72C281.999 55.72 281.536 55.9856 281.208 56.2103C280.833 56.4676 280.417 56.8285 279.973 57.2729L280.68 57.98Z" fill="black" mask="url(#path-3-outside-2_702_59)"/>
<mask id="path-5-outside-3_702_59" maskUnits="userSpaceOnUse" x="100" y="44" width="108" height="33" fill="black">
<rect fill="white" x="100" y="44" width="108" height="33"/>
<path d="M118.773 63.2422L114.418 50.5664L109.789 63.2422H118.773ZM112.387 46.3086H116.781L127.191 75H122.934L120.023 66.4062H108.676L105.57 75H101.586L112.387 46.3086ZM142.466 59.4531C144.289 59.4531 145.728 59.0885 146.783 58.3594C147.851 57.6302 148.384 56.3151 148.384 54.4141C148.384 52.3698 147.642 50.9766 146.158 50.2344C145.364 49.8438 144.302 49.6484 142.974 49.6484H133.482V59.4531H142.466ZM129.595 46.3086H142.877C145.064 46.3086 146.867 46.6276 148.287 47.2656C150.982 48.4896 152.33 50.7487 152.33 54.043C152.33 55.7617 151.972 57.168 151.255 58.2617C150.552 59.3555 149.563 60.2344 148.287 60.8984C149.407 61.3542 150.246 61.9531 150.806 62.6953C151.379 63.4375 151.698 64.6419 151.763 66.3086L151.9 70.1562C151.939 71.25 152.03 72.0638 152.173 72.5977C152.408 73.5091 152.824 74.0951 153.423 74.3555V75H148.658C148.528 74.7526 148.423 74.4336 148.345 74.043C148.267 73.6523 148.202 72.8971 148.15 71.7773L147.916 66.9922C147.824 65.1172 147.128 63.8607 145.826 63.2227C145.084 62.8711 143.918 62.6953 142.33 62.6953H133.482V75H129.595V46.3086ZM168.816 45.5273C173.881 45.5273 177.631 47.1549 180.066 50.4102C181.967 52.9492 182.917 56.1979 182.917 60.1562C182.917 64.4401 181.83 68.0013 179.655 70.8398C177.103 74.1732 173.464 75.8398 168.737 75.8398C164.323 75.8398 160.853 74.3815 158.327 71.4648C156.075 68.6523 154.948 65.0977 154.948 60.8008C154.948 56.9206 155.912 53.6003 157.839 50.8398C160.313 47.2982 163.972 45.5273 168.816 45.5273ZM169.206 72.3633C172.631 72.3633 175.105 71.1393 176.628 68.6914C178.165 66.2305 178.933 63.4049 178.933 60.2148C178.933 56.8424 178.047 54.1276 176.277 52.0703C174.519 50.013 172.11 48.9844 169.05 48.9844C166.081 48.9844 163.659 50.0065 161.784 52.0508C159.909 54.082 158.972 57.0833 158.972 61.0547C158.972 64.2318 159.773 66.9141 161.374 69.1016C162.989 71.276 165.599 72.3633 169.206 72.3633ZM206.845 46.3086V49.7266H197.177V75H193.231V49.7266H183.563V46.3086H206.845Z"/>
</mask>
<path d="M118.773 63.2422L114.418 50.5664L109.789 63.2422H118.773ZM112.387 46.3086H116.781L127.191 75H122.934L120.023 66.4062H108.676L105.57 75H101.586L112.387 46.3086ZM142.466 59.4531C144.289 59.4531 145.728 59.0885 146.783 58.3594C147.851 57.6302 148.384 56.3151 148.384 54.4141C148.384 52.3698 147.642 50.9766 146.158 50.2344C145.364 49.8438 144.302 49.6484 142.974 49.6484H133.482V59.4531H142.466ZM129.595 46.3086H142.877C145.064 46.3086 146.867 46.6276 148.287 47.2656C150.982 48.4896 152.33 50.7487 152.33 54.043C152.33 55.7617 151.972 57.168 151.255 58.2617C150.552 59.3555 149.563 60.2344 148.287 60.8984C149.407 61.3542 150.246 61.9531 150.806 62.6953C151.379 63.4375 151.698 64.6419 151.763 66.3086L151.9 70.1562C151.939 71.25 152.03 72.0638 152.173 72.5977C152.408 73.5091 152.824 74.0951 153.423 74.3555V75H148.658C148.528 74.7526 148.423 74.4336 148.345 74.043C148.267 73.6523 148.202 72.8971 148.15 71.7773L147.916 66.9922C147.824 65.1172 147.128 63.8607 145.826 63.2227C145.084 62.8711 143.918 62.6953 142.33 62.6953H133.482V75H129.595V46.3086ZM168.816 45.5273C173.881 45.5273 177.631 47.1549 180.066 50.4102C181.967 52.9492 182.917 56.1979 182.917 60.1562C182.917 64.4401 181.83 68.0013 179.655 70.8398C177.103 74.1732 173.464 75.8398 168.737 75.8398C164.323 75.8398 160.853 74.3815 158.327 71.4648C156.075 68.6523 154.948 65.0977 154.948 60.8008C154.948 56.9206 155.912 53.6003 157.839 50.8398C160.313 47.2982 163.972 45.5273 168.816 45.5273ZM169.206 72.3633C172.631 72.3633 175.105 71.1393 176.628 68.6914C178.165 66.2305 178.933 63.4049 178.933 60.2148C178.933 56.8424 178.047 54.1276 176.277 52.0703C174.519 50.013 172.11 48.9844 169.05 48.9844C166.081 48.9844 163.659 50.0065 161.784 52.0508C159.909 54.082 158.972 57.0833 158.972 61.0547C158.972 64.2318 159.773 66.9141 161.374 69.1016C162.989 71.276 165.599 72.3633 169.206 72.3633ZM206.845 46.3086V49.7266H197.177V75H193.231V49.7266H183.563V46.3086H206.845Z" fill="url(#paint2_linear_702_59)"/>
<path d="M118.773 63.2422V64.2422H120.174L119.719 62.9172L118.773 63.2422ZM114.418 50.5664L115.364 50.2414L114.447 47.5726L113.479 50.2234L114.418 50.5664ZM109.789 63.2422L108.85 62.8992L108.359 64.2422H109.789V63.2422ZM112.387 46.3086V45.3086H111.695L111.451 45.9563L112.387 46.3086ZM116.781 46.3086L117.721 45.9675L117.482 45.3086H116.781V46.3086ZM127.191 75V76H128.618L128.131 74.6589L127.191 75ZM122.934 75L121.986 75.3207L122.216 76H122.934V75ZM120.023 66.4062L120.971 66.0855L120.741 65.4062H120.023V66.4062ZM108.676 66.4062V65.4062H107.974L107.735 66.0664L108.676 66.4062ZM105.57 75V76H106.272L106.511 75.3399L105.57 75ZM101.586 75L100.65 74.6477L100.141 76H101.586V75ZM118.773 63.2422L119.719 62.9172L115.364 50.2414L114.418 50.5664L113.472 50.8914L117.828 63.5671L118.773 63.2422ZM114.418 50.5664L113.479 50.2234L108.85 62.8992L109.789 63.2422L110.728 63.5852L115.357 50.9094L114.418 50.5664ZM109.789 63.2422V64.2422H118.773V63.2422V62.2422H109.789V63.2422ZM112.387 46.3086V47.3086H116.781V46.3086V45.3086H112.387V46.3086ZM116.781 46.3086L115.841 46.6497L126.251 75.3411L127.191 75L128.131 74.6589L117.721 45.9675L116.781 46.3086ZM127.191 75V74H122.934V75V76H127.191V75ZM122.934 75L123.881 74.6793L120.971 66.0855L120.023 66.4062L119.076 66.727L121.986 75.3207L122.934 75ZM120.023 66.4062V65.4062H108.676V66.4062V67.4062H120.023V66.4062ZM108.676 66.4062L107.735 66.0664L104.63 74.6601L105.57 75L106.511 75.3399L109.616 66.7461L108.676 66.4062ZM105.57 75V74H101.586V75V76H105.57V75ZM101.586 75L102.522 75.3523L113.323 46.6609L112.387 46.3086L111.451 45.9563L100.65 74.6477L101.586 75ZM146.783 58.3594L146.219 57.5336L146.214 57.5368L146.783 58.3594ZM146.158 50.2344L146.605 49.3399L146.599 49.337L146.158 50.2344ZM133.482 49.6484V48.6484H132.482V49.6484H133.482ZM133.482 59.4531H132.482V60.4531H133.482V59.4531ZM129.595 46.3086V45.3086H128.595V46.3086H129.595ZM148.287 47.2656L148.7 46.3551L148.697 46.3535L148.287 47.2656ZM151.255 58.2617L150.419 57.7139L150.414 57.721L151.255 58.2617ZM148.287 60.8984L147.825 60.0114L145.907 61.0096L147.91 61.8247L148.287 60.8984ZM150.806 62.6953L150.008 63.2976L150.015 63.3064L150.806 62.6953ZM151.763 66.3086L152.763 66.2731L152.763 66.2696L151.763 66.3086ZM151.9 70.1562L150.901 70.1918L150.901 70.1919L151.9 70.1562ZM152.173 72.5977L153.142 72.3486L153.139 72.3385L152.173 72.5977ZM153.423 74.3555H154.423V73.6998L153.822 73.4384L153.423 74.3555ZM153.423 75V76H154.423V75H153.423ZM148.658 75L147.773 75.4657L148.054 76H148.658V75ZM148.15 71.7773L149.149 71.7309L149.149 71.7284L148.15 71.7773ZM147.916 66.9922L146.917 67.0407L146.917 67.0411L147.916 66.9922ZM145.826 63.2227L146.266 62.3246L146.254 62.3189L145.826 63.2227ZM133.482 62.6953V61.6953H132.482V62.6953H133.482ZM133.482 75V76H134.482V75H133.482ZM129.595 75H128.595V76H129.595V75ZM142.466 59.4531V60.4531C144.41 60.4531 146.073 60.066 147.351 59.1819L146.783 58.3594L146.214 57.5368C145.383 58.1111 144.169 58.4531 142.466 58.4531V59.4531ZM146.783 58.3594L147.347 59.1852C148.8 58.1927 149.384 56.4804 149.384 54.4141H148.384H147.384C147.384 56.1498 146.901 57.0677 146.219 57.5336L146.783 58.3594ZM148.384 54.4141H149.384C149.384 52.0966 148.513 50.2941 146.605 49.3399L146.158 50.2344L145.711 51.1288C146.771 51.659 147.384 52.6429 147.384 54.4141H148.384ZM146.158 50.2344L146.599 49.337C145.616 48.8536 144.385 48.6484 142.974 48.6484V49.6484V50.6484C144.219 50.6484 145.111 50.8339 145.716 51.1317L146.158 50.2344ZM142.974 49.6484V48.6484H133.482V49.6484V50.6484H142.974V49.6484ZM133.482 49.6484H132.482V59.4531H133.482H134.482V49.6484H133.482ZM133.482 59.4531V60.4531H142.466V59.4531V58.4531H133.482V59.4531ZM129.595 46.3086V47.3086H142.877V46.3086V45.3086H129.595V46.3086ZM142.877 46.3086V47.3086C144.976 47.3086 146.628 47.6161 147.877 48.1777L148.287 47.2656L148.697 46.3535C147.107 45.6391 145.152 45.3086 142.877 45.3086V46.3086ZM148.287 47.2656L147.873 48.1761C149.06 48.7148 149.904 49.4572 150.46 50.3902C151.021 51.3303 151.33 52.5311 151.33 54.043H152.33H153.33C153.33 52.2605 152.965 50.6847 152.178 49.3656C151.387 48.0396 150.209 47.0404 148.7 46.3551L148.287 47.2656ZM152.33 54.043H151.33C151.33 55.6273 151 56.8269 150.419 57.7139L151.255 58.2617L152.092 58.8095C152.944 57.509 153.33 55.8961 153.33 54.043H152.33ZM151.255 58.2617L150.414 57.721C149.815 58.653 148.963 59.419 147.825 60.0114L148.287 60.8984L148.748 61.7855C150.162 61.0498 151.29 60.0579 152.097 58.8025L151.255 58.2617ZM148.287 60.8984L147.91 61.8247C148.912 62.2324 149.585 62.7365 150.008 63.2976L150.806 62.6953L151.605 62.0931C150.908 61.1697 149.901 60.476 148.664 59.9722L148.287 60.8984ZM150.806 62.6953L150.015 63.3064C150.395 63.7991 150.701 64.7464 150.764 66.3476L151.763 66.3086L152.763 66.2696C152.695 64.5375 152.363 63.0759 151.598 62.0843L150.806 62.6953ZM151.763 66.3086L150.764 66.3441L150.901 70.1918L151.9 70.1562L152.899 70.1207L152.763 66.2731L151.763 66.3086ZM151.9 70.1562L150.901 70.1919C150.94 71.3029 151.034 72.2095 151.208 72.8568L152.173 72.5977L153.139 72.3385C153.026 71.9181 152.938 71.1971 152.899 70.1206L151.9 70.1562ZM152.173 72.5977L151.205 72.8467C151.481 73.919 152.034 74.8419 153.025 75.2725L153.423 74.3555L153.822 73.4384C153.615 73.3483 153.335 73.0992 153.142 72.3486L152.173 72.5977ZM153.423 74.3555H152.423V75H153.423H154.423V74.3555H153.423ZM153.423 75V74H148.658V75V76H153.423V75ZM148.658 75L149.543 74.5343C149.472 74.3992 149.392 74.1799 149.326 73.8469L148.345 74.043L147.365 74.2391C147.454 74.6873 147.584 75.106 147.773 75.4657L148.658 75ZM148.345 74.043L149.326 73.8469C149.265 73.5415 149.201 72.8598 149.149 71.7309L148.15 71.7773L147.151 71.8238C147.203 72.9345 147.27 73.7632 147.365 74.2391L148.345 74.043ZM148.15 71.7773L149.149 71.7284L148.914 66.9433L147.916 66.9922L146.917 67.0411L147.151 71.8263L148.15 71.7773ZM147.916 66.9922L148.914 66.9436C148.812 64.8292 147.993 63.1711 146.266 62.3247L145.826 63.2227L145.386 64.1206C146.262 64.5502 146.837 65.4051 146.917 67.0407L147.916 66.9922ZM145.826 63.2227L146.254 62.3189C145.304 61.8688 143.953 61.6953 142.33 61.6953V62.6953V63.6953C143.883 63.6953 144.863 63.8734 145.398 64.1264L145.826 63.2227ZM142.33 62.6953V61.6953H133.482V62.6953V63.6953H142.33V62.6953ZM133.482 62.6953H132.482V75H133.482H134.482V62.6953H133.482ZM133.482 75V74H129.595V75V76H133.482V75ZM129.595 75H130.595V46.3086H129.595H128.595V75H129.595ZM180.066 50.4102L179.265 51.0091L179.265 51.0095L180.066 50.4102ZM179.655 70.8398L178.862 70.2317L178.861 70.2319L179.655 70.8398ZM158.327 71.4648L157.547 72.09L157.559 72.105L157.571 72.1195L158.327 71.4648ZM157.839 50.8398L157.019 50.2672L157.019 50.2674L157.839 50.8398ZM176.628 68.6914L175.78 68.1618L175.779 68.163L176.628 68.6914ZM176.277 52.0703L175.516 52.7199L175.519 52.7227L176.277 52.0703ZM161.784 52.0508L162.519 52.7291L162.521 52.7267L161.784 52.0508ZM161.374 69.1016L160.567 69.6923L160.571 69.6977L161.374 69.1016ZM168.816 45.5273V46.5273C173.652 46.5273 177.065 48.0682 179.265 51.0091L180.066 50.4102L180.866 49.8112C178.196 46.2417 174.11 44.5273 168.816 44.5273V45.5273ZM180.066 50.4102L179.265 51.0095C181.007 53.3366 181.917 56.3596 181.917 60.1562H182.917H183.917C183.917 56.0362 182.926 52.5619 180.866 49.8108L180.066 50.4102ZM182.917 60.1562H181.917C181.917 64.2652 180.877 67.6003 178.862 70.2317L179.655 70.8398L180.449 71.448C182.782 68.4023 183.917 64.615 183.917 60.1562H182.917ZM179.655 70.8398L178.861 70.2319C176.524 73.2846 173.198 74.8398 168.737 74.8398V75.8398V76.8398C173.731 76.8398 177.683 75.0617 180.449 71.4478L179.655 70.8398ZM168.737 75.8398V74.8398C164.567 74.8398 161.391 73.4747 159.083 70.8102L158.327 71.4648L157.571 72.1195C160.316 75.2883 164.08 76.8398 168.737 76.8398V75.8398ZM158.327 71.4648L159.108 70.8397C157.023 68.2371 155.948 64.9158 155.948 60.8008H154.948H153.948C153.948 65.2795 155.126 69.0676 157.547 72.09L158.327 71.4648ZM154.948 60.8008H155.948C155.948 57.0931 156.866 53.9802 158.659 51.4123L157.839 50.8398L157.019 50.2674C154.958 53.2204 153.948 56.7481 153.948 60.8008H154.948ZM157.839 50.8398L158.659 51.4125C160.921 48.1743 164.252 46.5273 168.816 46.5273V45.5273V44.5273C163.691 44.5273 159.705 46.4221 157.019 50.2672L157.839 50.8398ZM169.206 72.3633V73.3633C172.9 73.3633 175.734 72.02 177.477 69.2198L176.628 68.6914L175.779 68.163C174.475 70.2586 172.361 71.3633 169.206 71.3633V72.3633ZM176.628 68.6914L177.476 69.221C179.122 66.5856 179.933 63.5729 179.933 60.2148H178.933H177.933C177.933 63.237 177.207 65.8753 175.78 68.1618L176.628 68.6914ZM178.933 60.2148H179.933C179.933 56.6631 178.997 53.6976 177.034 51.4179L176.277 52.0703L175.519 52.7227C177.098 54.5576 177.933 57.0218 177.933 60.2148H178.933ZM176.277 52.0703L177.037 51.4207C175.063 49.1105 172.36 47.9844 169.05 47.9844V48.9844V49.9844C171.86 49.9844 173.975 50.9156 175.516 52.7199L176.277 52.0703ZM169.05 48.9844V47.9844C165.823 47.9844 163.126 49.1083 161.047 51.3748L161.784 52.0508L162.521 52.7267C164.192 50.9047 166.339 49.9844 169.05 49.9844V48.9844ZM161.784 52.0508L161.05 51.3725C158.942 53.6554 157.972 56.941 157.972 61.0547H158.972H159.972C159.972 57.2257 160.876 54.5086 162.519 52.7291L161.784 52.0508ZM158.972 61.0547H157.972C157.972 64.4065 158.82 67.3053 160.567 69.6923L161.374 69.1016L162.181 68.5108C160.726 66.5228 159.972 64.0571 159.972 61.0547H158.972ZM161.374 69.1016L160.571 69.6977C162.434 72.2057 165.397 73.3633 169.206 73.3633V72.3633V71.3633C165.802 71.3633 163.544 70.3464 162.177 68.5054L161.374 69.1016ZM206.845 46.3086H207.845V45.3086H206.845V46.3086ZM206.845 49.7266V50.7266H207.845V49.7266H206.845ZM197.177 49.7266V48.7266H196.177V49.7266H197.177ZM197.177 75V76H198.177V75H197.177ZM193.231 75H192.231V76H193.231V75ZM193.231 49.7266H194.231V48.7266H193.231V49.7266ZM183.563 49.7266H182.563V50.7266H183.563V49.7266ZM183.563 46.3086V45.3086H182.563V46.3086H183.563ZM206.845 46.3086H205.845V49.7266H206.845H207.845V46.3086H206.845ZM206.845 49.7266V48.7266H197.177V49.7266V50.7266H206.845V49.7266ZM197.177 49.7266H196.177V75H197.177H198.177V49.7266H197.177ZM197.177 75V74H193.231V75V76H197.177V75ZM193.231 75H194.231V49.7266H193.231H192.231V75H193.231ZM193.231 49.7266V48.7266H183.563V49.7266V50.7266H193.231V49.7266ZM183.563 49.7266H184.563V46.3086H183.563H182.563V49.7266H183.563ZM183.563 46.3086V47.3086H206.845V46.3086V45.3086H183.563V46.3086Z" fill="black" mask="url(#path-5-outside-3_702_59)"/>
<mask id="path-7-outside-4_702_59" maskUnits="userSpaceOnUse" x="286" y="45" width="82" height="31" fill="black">
<rect fill="white" x="286" y="45" width="82" height="31"/>
<path d="M304.773 63.2422L300.418 50.5664L295.789 63.2422H304.773ZM298.387 46.3086H302.781L313.191 75H308.934L306.023 66.4062H294.676L291.57 75H287.586L298.387 46.3086ZM328.466 59.4531C330.289 59.4531 331.728 59.0885 332.783 58.3594C333.851 57.6302 334.384 56.3151 334.384 54.4141C334.384 52.3698 333.642 50.9766 332.158 50.2344C331.364 49.8438 330.302 49.6484 328.974 49.6484H319.482V59.4531H328.466ZM315.595 46.3086H328.877C331.064 46.3086 332.867 46.6276 334.287 47.2656C336.982 48.4896 338.33 50.7487 338.33 54.043C338.33 55.7617 337.972 57.168 337.255 58.2617C336.552 59.3555 335.563 60.2344 334.287 60.8984C335.407 61.3542 336.246 61.9531 336.806 62.6953C337.379 63.4375 337.698 64.6419 337.763 66.3086L337.9 70.1562C337.939 71.25 338.03 72.0638 338.173 72.5977C338.408 73.5091 338.824 74.0951 339.423 74.3555V75H334.658C334.528 74.7526 334.423 74.4336 334.345 74.043C334.267 73.6523 334.202 72.8971 334.15 71.7773L333.916 66.9922C333.824 65.1172 333.128 63.8607 331.826 63.2227C331.084 62.8711 329.918 62.6953 328.33 62.6953H319.482V75H315.595V46.3086ZM353.448 71.6797C354.764 71.6797 355.844 71.543 356.691 71.2695C358.201 70.7617 359.438 69.7852 360.402 68.3398C361.17 67.181 361.723 65.6966 362.062 63.8867C362.257 62.806 362.355 61.8034 362.355 60.8789C362.355 57.3242 361.645 54.5638 360.226 52.5977C358.82 50.6315 356.547 49.6484 353.409 49.6484H346.515V71.6797H353.448ZM342.609 46.3086H354.23C358.175 46.3086 361.235 47.7083 363.409 50.5078C365.349 53.0339 366.32 56.2695 366.32 60.2148C366.32 63.2617 365.747 66.0156 364.601 68.4766C362.583 72.8255 359.112 75 354.191 75H342.609V46.3086Z"/>
</mask>
<path d="M304.773 63.2422L300.418 50.5664L295.789 63.2422H304.773ZM298.387 46.3086H302.781L313.191 75H308.934L306.023 66.4062H294.676L291.57 75H287.586L298.387 46.3086ZM328.466 59.4531C330.289 59.4531 331.728 59.0885 332.783 58.3594C333.851 57.6302 334.384 56.3151 334.384 54.4141C334.384 52.3698 333.642 50.9766 332.158 50.2344C331.364 49.8438 330.302 49.6484 328.974 49.6484H319.482V59.4531H328.466ZM315.595 46.3086H328.877C331.064 46.3086 332.867 46.6276 334.287 47.2656C336.982 48.4896 338.33 50.7487 338.33 54.043C338.33 55.7617 337.972 57.168 337.255 58.2617C336.552 59.3555 335.563 60.2344 334.287 60.8984C335.407 61.3542 336.246 61.9531 336.806 62.6953C337.379 63.4375 337.698 64.6419 337.763 66.3086L337.9 70.1562C337.939 71.25 338.03 72.0638 338.173 72.5977C338.408 73.5091 338.824 74.0951 339.423 74.3555V75H334.658C334.528 74.7526 334.423 74.4336 334.345 74.043C334.267 73.6523 334.202 72.8971 334.15 71.7773L333.916 66.9922C333.824 65.1172 333.128 63.8607 331.826 63.2227C331.084 62.8711 329.918 62.6953 328.33 62.6953H319.482V75H315.595V46.3086ZM353.448 71.6797C354.764 71.6797 355.844 71.543 356.691 71.2695C358.201 70.7617 359.438 69.7852 360.402 68.3398C361.17 67.181 361.723 65.6966 362.062 63.8867C362.257 62.806 362.355 61.8034 362.355 60.8789C362.355 57.3242 361.645 54.5638 360.226 52.5977C358.82 50.6315 356.547 49.6484 353.409 49.6484H346.515V71.6797H353.448ZM342.609 46.3086H354.23C358.175 46.3086 361.235 47.7083 363.409 50.5078C365.349 53.0339 366.32 56.2695 366.32 60.2148C366.32 63.2617 365.747 66.0156 364.601 68.4766C362.583 72.8255 359.112 75 354.191 75H342.609V46.3086Z" fill="url(#paint3_linear_702_59)"/>
<path d="M304.773 63.2422V64.2422H306.174L305.719 62.9172L304.773 63.2422ZM300.418 50.5664L301.364 50.2414L300.447 47.5726L299.479 50.2234L300.418 50.5664ZM295.789 63.2422L294.85 62.8992L294.359 64.2422H295.789V63.2422ZM298.387 46.3086V45.3086H297.695L297.451 45.9563L298.387 46.3086ZM302.781 46.3086L303.721 45.9675L303.482 45.3086H302.781V46.3086ZM313.191 75V76H314.618L314.131 74.6589L313.191 75ZM308.934 75L307.986 75.3207L308.216 76H308.934V75ZM306.023 66.4062L306.971 66.0855L306.741 65.4062H306.023V66.4062ZM294.676 66.4062V65.4062H293.974L293.735 66.0664L294.676 66.4062ZM291.57 75V76H292.272L292.511 75.3399L291.57 75ZM287.586 75L286.65 74.6477L286.141 76H287.586V75ZM304.773 63.2422L305.719 62.9172L301.364 50.2414L300.418 50.5664L299.472 50.8914L303.828 63.5671L304.773 63.2422ZM300.418 50.5664L299.479 50.2234L294.85 62.8992L295.789 63.2422L296.728 63.5852L301.357 50.9094L300.418 50.5664ZM295.789 63.2422V64.2422H304.773V63.2422V62.2422H295.789V63.2422ZM298.387 46.3086V47.3086H302.781V46.3086V45.3086H298.387V46.3086ZM302.781 46.3086L301.841 46.6497L312.251 75.3411L313.191 75L314.131 74.6589L303.721 45.9675L302.781 46.3086ZM313.191 75V74H308.934V75V76H313.191V75ZM308.934 75L309.881 74.6793L306.971 66.0855L306.023 66.4062L305.076 66.727L307.986 75.3207L308.934 75ZM306.023 66.4062V65.4062H294.676V66.4062V67.4062H306.023V66.4062ZM294.676 66.4062L293.735 66.0664L290.63 74.6601L291.57 75L292.511 75.3399L295.616 66.7461L294.676 66.4062ZM291.57 75V74H287.586V75V76H291.57V75ZM287.586 75L288.522 75.3523L299.323 46.6609L298.387 46.3086L297.451 45.9563L286.65 74.6477L287.586 75ZM332.783 58.3594L332.219 57.5336L332.214 57.5368L332.783 58.3594ZM332.158 50.2344L332.605 49.3399L332.599 49.337L332.158 50.2344ZM319.482 49.6484V48.6484H318.482V49.6484H319.482ZM319.482 59.4531H318.482V60.4531H319.482V59.4531ZM315.595 46.3086V45.3086H314.595V46.3086H315.595ZM334.287 47.2656L334.7 46.3551L334.697 46.3535L334.287 47.2656ZM337.255 58.2617L336.419 57.7139L336.414 57.721L337.255 58.2617ZM334.287 60.8984L333.825 60.0114L331.907 61.0096L333.91 61.8247L334.287 60.8984ZM336.806 62.6953L336.008 63.2976L336.015 63.3064L336.806 62.6953ZM337.763 66.3086L338.763 66.2731L338.763 66.2696L337.763 66.3086ZM337.9 70.1562L336.901 70.1918L336.901 70.1919L337.9 70.1562ZM338.173 72.5977L339.142 72.3486L339.139 72.3385L338.173 72.5977ZM339.423 74.3555H340.423V73.6998L339.822 73.4384L339.423 74.3555ZM339.423 75V76H340.423V75H339.423ZM334.658 75L333.773 75.4657L334.054 76H334.658V75ZM334.15 71.7773L335.149 71.7309L335.149 71.7284L334.15 71.7773ZM333.916 66.9922L332.917 67.0407L332.917 67.0411L333.916 66.9922ZM331.826 63.2227L332.266 62.3246L332.254 62.3189L331.826 63.2227ZM319.482 62.6953V61.6953H318.482V62.6953H319.482ZM319.482 75V76H320.482V75H319.482ZM315.595 75H314.595V76H315.595V75ZM328.466 59.4531V60.4531C330.41 60.4531 332.073 60.066 333.351 59.1819L332.783 58.3594L332.214 57.5368C331.383 58.1111 330.169 58.4531 328.466 58.4531V59.4531ZM332.783 58.3594L333.347 59.1852C334.8 58.1927 335.384 56.4804 335.384 54.4141H334.384H333.384C333.384 56.1498 332.901 57.0677 332.219 57.5336L332.783 58.3594ZM334.384 54.4141H335.384C335.384 52.0966 334.513 50.2941 332.605 49.3399L332.158 50.2344L331.711 51.1288C332.771 51.659 333.384 52.6429 333.384 54.4141H334.384ZM332.158 50.2344L332.599 49.337C331.616 48.8536 330.385 48.6484 328.974 48.6484V49.6484V50.6484C330.219 50.6484 331.111 50.8339 331.716 51.1317L332.158 50.2344ZM328.974 49.6484V48.6484H319.482V49.6484V50.6484H328.974V49.6484ZM319.482 49.6484H318.482V59.4531H319.482H320.482V49.6484H319.482ZM319.482 59.4531V60.4531H328.466V59.4531V58.4531H319.482V59.4531ZM315.595 46.3086V47.3086H328.877V46.3086V45.3086H315.595V46.3086ZM328.877 46.3086V47.3086C330.976 47.3086 332.628 47.6161 333.877 48.1777L334.287 47.2656L334.697 46.3535C333.107 45.6391 331.152 45.3086 328.877 45.3086V46.3086ZM334.287 47.2656L333.873 48.1761C335.06 48.7148 335.904 49.4572 336.46 50.3902C337.021 51.3303 337.33 52.5311 337.33 54.043H338.33H339.33C339.33 52.2605 338.965 50.6847 338.178 49.3656C337.387 48.0396 336.209 47.0404 334.7 46.3551L334.287 47.2656ZM338.33 54.043H337.33C337.33 55.6273 337 56.8269 336.419 57.7139L337.255 58.2617L338.092 58.8095C338.944 57.509 339.33 55.8961 339.33 54.043H338.33ZM337.255 58.2617L336.414 57.721C335.815 58.653 334.963 59.419 333.825 60.0114L334.287 60.8984L334.748 61.7855C336.162 61.0498 337.29 60.0579 338.097 58.8025L337.255 58.2617ZM334.287 60.8984L333.91 61.8247C334.912 62.2324 335.585 62.7365 336.008 63.2976L336.806 62.6953L337.605 62.0931C336.908 61.1697 335.901 60.476 334.664 59.9722L334.287 60.8984ZM336.806 62.6953L336.015 63.3064C336.395 63.7991 336.701 64.7464 336.764 66.3476L337.763 66.3086L338.763 66.2696C338.695 64.5375 338.363 63.0759 337.598 62.0843L336.806 62.6953ZM337.763 66.3086L336.764 66.3441L336.901 70.1918L337.9 70.1562L338.899 70.1207L338.763 66.2731L337.763 66.3086ZM337.9 70.1562L336.901 70.1919C336.94 71.3029 337.034 72.2095 337.208 72.8568L338.173 72.5977L339.139 72.3385C339.026 71.9181 338.938 71.1971 338.899 70.1206L337.9 70.1562ZM338.173 72.5977L337.205 72.8467C337.481 73.919 338.034 74.8419 339.025 75.2725L339.423 74.3555L339.822 73.4384C339.615 73.3483 339.335 73.0992 339.142 72.3486L338.173 72.5977ZM339.423 74.3555H338.423V75H339.423H340.423V74.3555H339.423ZM339.423 75V74H334.658V75V76H339.423V75ZM334.658 75L335.543 74.5343C335.472 74.3992 335.392 74.1799 335.326 73.8469L334.345 74.043L333.365 74.2391C333.454 74.6873 333.584 75.106 333.773 75.4657L334.658 75ZM334.345 74.043L335.326 73.8469C335.265 73.5415 335.201 72.8598 335.149 71.7309L334.15 71.7773L333.151 71.8238C333.203 72.9345 333.27 73.7632 333.365 74.2391L334.345 74.043ZM334.15 71.7773L335.149 71.7284L334.914 66.9433L333.916 66.9922L332.917 67.0411L333.151 71.8263L334.15 71.7773ZM333.916 66.9922L334.914 66.9436C334.812 64.8292 333.993 63.1711 332.266 62.3247L331.826 63.2227L331.386 64.1206C332.262 64.5502 332.837 65.4051 332.917 67.0407L333.916 66.9922ZM331.826 63.2227L332.254 62.3189C331.304 61.8688 329.953 61.6953 328.33 61.6953V62.6953V63.6953C329.883 63.6953 330.863 63.8734 331.398 64.1264L331.826 63.2227ZM328.33 62.6953V61.6953H319.482V62.6953V63.6953H328.33V62.6953ZM319.482 62.6953H318.482V75H319.482H320.482V62.6953H319.482ZM319.482 75V74H315.595V75V76H319.482V75ZM315.595 75H316.595V46.3086H315.595H314.595V75H315.595ZM356.691 71.2695L356.998 72.2212L357.009 72.2174L356.691 71.2695ZM360.402 68.3398L361.234 68.8945L361.235 68.8924L360.402 68.3398ZM362.062 63.8867L363.045 64.0706L363.046 64.0646L362.062 63.8867ZM360.226 52.5977L359.412 53.1794L359.415 53.183L360.226 52.5977ZM346.515 49.6484V48.6484H345.515V49.6484H346.515ZM346.515 71.6797H345.515V72.6797H346.515V71.6797ZM342.609 46.3086V45.3086H341.609V46.3086H342.609ZM363.409 50.5078L364.202 49.8987L364.199 49.8944L363.409 50.5078ZM364.601 68.4766L363.694 68.0545L363.694 68.0556L364.601 68.4766ZM342.609 75H341.609V76H342.609V75ZM353.448 71.6797V72.6797C354.823 72.6797 356.017 72.538 356.998 72.2211L356.691 71.2695L356.383 70.318C355.671 70.5479 354.704 70.6797 353.448 70.6797V71.6797ZM356.691 71.2695L357.009 72.2174C358.749 71.6325 360.159 70.5065 361.234 68.8945L360.402 68.3398L359.57 67.7851C358.717 69.0638 357.653 69.8909 356.372 70.3217L356.691 71.2695ZM360.402 68.3398L361.235 68.8924C362.097 67.592 362.689 65.9716 363.045 64.0706L362.062 63.8867L361.079 63.7029C360.757 65.4216 360.242 66.77 359.568 67.7873L360.402 68.3398ZM362.062 63.8867L363.046 64.0646C363.25 62.9357 363.355 61.8729 363.355 60.8789H362.355H361.355C361.355 61.7339 361.264 62.6763 361.078 63.7089L362.062 63.8867ZM362.355 60.8789H363.355C363.355 57.2076 362.624 54.2116 361.037 52.0124L360.226 52.5977L359.415 53.183C360.666 54.916 361.355 57.4409 361.355 60.8789H362.355ZM360.226 52.5977L361.039 52.0159C359.391 49.7113 356.764 48.6484 353.409 48.6484V49.6484V50.6484C356.331 50.6484 358.248 51.5517 359.412 53.1794L360.226 52.5977ZM353.409 49.6484V48.6484H346.515V49.6484V50.6484H353.409V49.6484ZM346.515 49.6484H345.515V71.6797H346.515H347.515V49.6484H346.515ZM346.515 71.6797V72.6797H353.448V71.6797V70.6797H346.515V71.6797ZM342.609 46.3086V47.3086H354.23V46.3086V45.3086H342.609V46.3086ZM354.23 46.3086V47.3086C357.906 47.3086 360.658 48.5955 362.62 51.1212L363.409 50.5078L364.199 49.8944C361.812 46.8212 358.444 45.3086 354.23 45.3086V46.3086ZM363.409 50.5078L362.616 51.1169C364.393 53.43 365.32 56.4361 365.32 60.2148H366.32H367.32C367.32 56.1029 366.306 52.6377 364.202 49.8987L363.409 50.5078ZM366.32 60.2148H365.32C365.32 63.1338 364.771 65.7411 363.694 68.0545L364.601 68.4766L365.507 68.8987C366.722 66.2902 367.32 63.3896 367.32 60.2148H366.32ZM364.601 68.4766L363.694 68.0556C362.752 70.0851 361.498 71.5538 359.954 72.5218C358.407 73.4908 356.502 74 354.191 74V75V76C356.801 76 359.092 75.422 361.016 74.2165C362.941 73.01 364.431 71.217 365.508 68.8975L364.601 68.4766ZM354.191 75V74H342.609V75V76H354.191V75ZM342.609 75H343.609V46.3086H342.609H341.609V75H342.609Z" fill="black" mask="url(#path-7-outside-4_702_59)"/>
<defs>
<linearGradient id="paint0_linear_702_59" x1="55" y1="7" x2="55" y2="105" gradientUnits="userSpaceOnUse">
<stop stop-color="#E5FFB0"/>
<stop offset="1" stop-color="#ABFF00"/>
</linearGradient>
<linearGradient id="paint1_linear_702_59" x1="248" y1="7" x2="248" y2="105" gradientUnits="userSpaceOnUse">
<stop stop-color="#E5FFB0"/>
<stop offset="1" stop-color="#ABFF00"/>
</linearGradient>
<linearGradient id="paint2_linear_702_59" x1="154.5" y1="33" x2="154.5" y2="89" gradientUnits="userSpaceOnUse">
<stop stop-color="#E5FFB0"/>
<stop offset="1" stop-color="#ABFF00"/>
</linearGradient>
<linearGradient id="paint3_linear_702_59" x1="328" y1="33" x2="328" y2="89" gradientUnits="userSpaceOnUse">
<stop stop-color="#E5FFB0"/>
<stop offset="1" stop-color="#ABFF00"/>
</linearGradient>
</defs>
</svg>
