<svg width="239" height="76" viewBox="0 0 239 76" fill="none" xmlns="http://www.w3.org/2000/svg">
<mask id="path-1-outside-1_708_1305" maskUnits="userSpaceOnUse" x="0.859863" y="0.721436" width="238" height="75" fill="black">
<rect fill="white" x="0.859863" y="0.721436" width="238" height="75"/>
<path d="M6.19986 66.4199C6.19986 69.1499 9.83986 69.2199 12.0799 69.2199C28.9499 69.2199 63.1099 52.3499 63.1099 41.7799C63.1099 37.4399 57.2999 34.8499 50.4399 32.9599C42.0399 30.6499 32.5199 29.3899 32.5199 23.2299C32.5199 11.4699 55.1299 2.0899 65.3499 1.73991C71.7199 1.5299 75.9899 3.0699 75.9199 8.4599C75.7799 16.7899 63.5999 25.8199 56.1799 25.8199C54.7799 25.8199 52.6799 25.2599 52.6799 23.7199C52.6799 20.8499 55.4099 17.8399 56.8099 16.9999C55.7599 18.1899 55.3399 19.6599 55.3399 20.6399C55.3399 21.0599 55.7599 21.0599 56.1799 21.0599C59.0499 21.0599 72.6999 13.2199 73.6099 6.8499C73.9599 4.60991 72.0699 3.97991 69.4099 3.97991C68.6399 3.97991 67.7299 4.0499 66.8199 4.1199C57.8599 5.0999 37.2799 16.6499 37.2799 23.8599C37.2799 27.9199 43.9999 29.6699 51.0699 31.6299C58.9799 33.7999 67.1699 36.3899 67.1699 44.1599C67.1699 59.4899 32.3099 74.4699 13.1999 74.4699C8.57986 74.4699 1.85986 73.1399 1.85986 67.6099C1.85986 57.2499 33.4999 40.5199 42.5299 40.7299C23.9799 45.7699 6.19986 61.2399 6.19986 66.4199Z"/>
<path d="M201 70.0999L200.8 70.4999C203.1 70.4999 205.5 69.8999 207.9 68.7999C210.3 67.6999 212.5 66.0999 214.4 64.0999C216.3 62.0999 217.9 59.6999 219.1 56.8999C220.3 54.0999 220.9 50.9999 220.9 47.6999C220.9 44.3999 220.2 41.8999 218.7 40.0999C217.2 38.2999 215.2 37.3999 212.7 37.3999C211.2 37.3999 209.7 37.5999 208.2 37.9999C206.7 38.3999 205.3 38.7999 204 39.2999C202.7 39.7999 201.6 40.1999 200.7 40.5999C199.8 40.9999 199.3 41.1999 199.1 41.1999C198.7 41.1999 198.5 40.9999 198.5 40.5999C198.5 40.3999 198.6 40.1999 198.7 39.9999C198.8 39.7999 199.1 39.3999 199.6 38.8999C200.1 38.3999 200.7 37.5999 201.3 36.5999C201.9 35.5999 202.6 34.3999 203.3 33.0999C204 31.7999 204.7 30.2999 205.4 28.6999C206.1 27.0999 206.8 25.4999 207.4 23.7999C208.1 21.9999 208.8 20.6999 209.4 19.8999C210 19.0999 211 18.6999 212.3 18.6999C213.1 18.6999 214.2 18.7999 215.6 18.9999C217 19.1999 218.5 19.3999 220.2 19.5999C221.9 19.7999 223.7 19.9999 225.6 20.1999C227.5 20.3999 229.3 20.4999 231.1 20.4999C232.5 20.4999 233.6 20.2999 234.3 19.8999C235 19.4999 235.6 19.0999 236 18.5999C236.4 18.0999 236.7 17.6999 236.8 17.2999C236.9 16.8999 237.1 16.6999 237.3 16.6999C237.5 16.6999 237.6 16.8999 237.6 17.1999C237.6 17.6999 237.4 18.3999 237 19.2999C236.6 20.1999 235.9 21.0999 234.9 21.9999C233.9 22.8999 232.6 23.6999 231 24.3999C229.4 25.0999 227.4 25.3999 225.1 25.3999C223.3 25.3999 221.5 25.2999 219.8 25.1999C218.1 25.0999 216.5 24.9999 215.1 24.8999C213.7 24.7999 212.5 24.6999 211.5 24.5999C210.5 24.4999 209.9 24.3999 209.7 24.3999C209.6 24.3999 209.4 24.7999 209 25.5999C208.6 26.3999 208.1 27.3999 207.5 28.6999C206.9 29.9999 206.2 31.4999 205.3 33.0999C204.4 34.6999 203.3 36.3999 202 38.0999C203.6 37.3999 205.6 36.6999 208 35.9999C210.4 35.2999 212.6 34.8999 214.7 34.8999C218.6 34.8999 221.7 35.9999 223.9 38.2999C226.1 40.5999 227.2 43.4999 227.2 47.0999C227.2 50.7999 226.4 54.0999 224.8 57.0999C223.2 60.0999 221.1 62.6999 218.5 64.8999C215.9 67.0999 213 68.7999 209.7 69.9999C206.4 71.1999 203.1 71.7999 199.8 71.7999C195.7 71.7999 192.5 70.9999 190.3 69.3999C188.1 67.7999 187 65.3999 187 62.2999C187 60.3999 187.4 58.5999 188.3 56.9999C189.2 55.3999 190.3 53.9999 191.6 52.7999C192.9 51.5999 194.4 50.6999 196 49.9999C197.6 49.2999 199.1 48.9999 200.6 48.9999C201.3 48.9999 201.7 49.0999 201.7 49.1999C201.7 49.4999 201.3 49.6999 200.6 49.7999C199.7 50.0999 198.8 50.5999 197.9 51.2999C197 51.9999 196.2 52.7999 195.5 53.7999C194.8 54.7999 194.2 55.8999 193.7 57.1999C193.2 58.4999 193 59.7999 193 61.1999C193 63.6999 193.6 65.7999 194.9 67.4999C196.2 69.1999 198.2 70.0999 201 70.0999Z"/>
<path d="M93.9256 41.3085V44.7265H84.2577V69.9999H80.3124V44.7265H70.6444V41.3085H93.9256Z"/>
<path d="M107.658 58.2421L103.302 45.5663L98.6733 58.2421H107.658ZM101.271 41.3085H105.665L116.076 69.9999H111.818L108.908 61.4062H97.56L94.4546 69.9999H90.4702L101.271 41.3085Z"/>
<path d="M130.413 40.5663C133.108 40.5663 135.439 41.0871 137.405 42.1288C140.257 43.6262 142.002 46.2499 142.64 49.9999H138.792C138.323 47.9036 137.353 46.3801 135.882 45.4296C134.411 44.4661 132.555 43.9843 130.315 43.9843C127.659 43.9843 125.42 44.9804 123.597 46.9726C121.787 48.9647 120.882 51.9335 120.882 55.8788C120.882 59.2903 121.631 62.0702 123.128 64.2187C124.625 66.3541 127.067 67.4218 130.452 67.4218C133.043 67.4218 135.185 66.6731 136.878 65.1757C138.584 63.6653 139.456 61.2304 139.495 57.871H130.511V54.6483H143.108V69.9999H140.608L139.671 66.3085C138.356 67.7538 137.19 68.7564 136.175 69.3163C134.469 70.2799 132.301 70.7616 129.671 70.7616C126.273 70.7616 123.349 69.6614 120.901 67.4608C118.232 64.7004 116.898 60.9114 116.898 56.0937C116.898 51.289 118.2 47.4674 120.804 44.6288C123.278 41.9205 126.481 40.5663 130.413 40.5663Z"/>
<path d="M147.915 41.3085H168.833V44.8241H151.704V53.5351H167.544V56.8554H151.704V66.5819H169.126V69.9999H147.915V41.3085Z"/>
</mask>
<path d="M6.19986 66.4199C6.19986 69.1499 9.83986 69.2199 12.0799 69.2199C28.9499 69.2199 63.1099 52.3499 63.1099 41.7799C63.1099 37.4399 57.2999 34.8499 50.4399 32.9599C42.0399 30.6499 32.5199 29.3899 32.5199 23.2299C32.5199 11.4699 55.1299 2.0899 65.3499 1.73991C71.7199 1.5299 75.9899 3.0699 75.9199 8.4599C75.7799 16.7899 63.5999 25.8199 56.1799 25.8199C54.7799 25.8199 52.6799 25.2599 52.6799 23.7199C52.6799 20.8499 55.4099 17.8399 56.8099 16.9999C55.7599 18.1899 55.3399 19.6599 55.3399 20.6399C55.3399 21.0599 55.7599 21.0599 56.1799 21.0599C59.0499 21.0599 72.6999 13.2199 73.6099 6.8499C73.9599 4.60991 72.0699 3.97991 69.4099 3.97991C68.6399 3.97991 67.7299 4.0499 66.8199 4.1199C57.8599 5.0999 37.2799 16.6499 37.2799 23.8599C37.2799 27.9199 43.9999 29.6699 51.0699 31.6299C58.9799 33.7999 67.1699 36.3899 67.1699 44.1599C67.1699 59.4899 32.3099 74.4699 13.1999 74.4699C8.57986 74.4699 1.85986 73.1399 1.85986 67.6099C1.85986 57.2499 33.4999 40.5199 42.5299 40.7299C23.9799 45.7699 6.19986 61.2399 6.19986 66.4199Z" fill="url(#paint0_linear_708_1305)"/>
<path d="M201 70.0999L200.8 70.4999C203.1 70.4999 205.5 69.8999 207.9 68.7999C210.3 67.6999 212.5 66.0999 214.4 64.0999C216.3 62.0999 217.9 59.6999 219.1 56.8999C220.3 54.0999 220.9 50.9999 220.9 47.6999C220.9 44.3999 220.2 41.8999 218.7 40.0999C217.2 38.2999 215.2 37.3999 212.7 37.3999C211.2 37.3999 209.7 37.5999 208.2 37.9999C206.7 38.3999 205.3 38.7999 204 39.2999C202.7 39.7999 201.6 40.1999 200.7 40.5999C199.8 40.9999 199.3 41.1999 199.1 41.1999C198.7 41.1999 198.5 40.9999 198.5 40.5999C198.5 40.3999 198.6 40.1999 198.7 39.9999C198.8 39.7999 199.1 39.3999 199.6 38.8999C200.1 38.3999 200.7 37.5999 201.3 36.5999C201.9 35.5999 202.6 34.3999 203.3 33.0999C204 31.7999 204.7 30.2999 205.4 28.6999C206.1 27.0999 206.8 25.4999 207.4 23.7999C208.1 21.9999 208.8 20.6999 209.4 19.8999C210 19.0999 211 18.6999 212.3 18.6999C213.1 18.6999 214.2 18.7999 215.6 18.9999C217 19.1999 218.5 19.3999 220.2 19.5999C221.9 19.7999 223.7 19.9999 225.6 20.1999C227.5 20.3999 229.3 20.4999 231.1 20.4999C232.5 20.4999 233.6 20.2999 234.3 19.8999C235 19.4999 235.6 19.0999 236 18.5999C236.4 18.0999 236.7 17.6999 236.8 17.2999C236.9 16.8999 237.1 16.6999 237.3 16.6999C237.5 16.6999 237.6 16.8999 237.6 17.1999C237.6 17.6999 237.4 18.3999 237 19.2999C236.6 20.1999 235.9 21.0999 234.9 21.9999C233.9 22.8999 232.6 23.6999 231 24.3999C229.4 25.0999 227.4 25.3999 225.1 25.3999C223.3 25.3999 221.5 25.2999 219.8 25.1999C218.1 25.0999 216.5 24.9999 215.1 24.8999C213.7 24.7999 212.5 24.6999 211.5 24.5999C210.5 24.4999 209.9 24.3999 209.7 24.3999C209.6 24.3999 209.4 24.7999 209 25.5999C208.6 26.3999 208.1 27.3999 207.5 28.6999C206.9 29.9999 206.2 31.4999 205.3 33.0999C204.4 34.6999 203.3 36.3999 202 38.0999C203.6 37.3999 205.6 36.6999 208 35.9999C210.4 35.2999 212.6 34.8999 214.7 34.8999C218.6 34.8999 221.7 35.9999 223.9 38.2999C226.1 40.5999 227.2 43.4999 227.2 47.0999C227.2 50.7999 226.4 54.0999 224.8 57.0999C223.2 60.0999 221.1 62.6999 218.5 64.8999C215.9 67.0999 213 68.7999 209.7 69.9999C206.4 71.1999 203.1 71.7999 199.8 71.7999C195.7 71.7999 192.5 70.9999 190.3 69.3999C188.1 67.7999 187 65.3999 187 62.2999C187 60.3999 187.4 58.5999 188.3 56.9999C189.2 55.3999 190.3 53.9999 191.6 52.7999C192.9 51.5999 194.4 50.6999 196 49.9999C197.6 49.2999 199.1 48.9999 200.6 48.9999C201.3 48.9999 201.7 49.0999 201.7 49.1999C201.7 49.4999 201.3 49.6999 200.6 49.7999C199.7 50.0999 198.8 50.5999 197.9 51.2999C197 51.9999 196.2 52.7999 195.5 53.7999C194.8 54.7999 194.2 55.8999 193.7 57.1999C193.2 58.4999 193 59.7999 193 61.1999C193 63.6999 193.6 65.7999 194.9 67.4999C196.2 69.1999 198.2 70.0999 201 70.0999Z" fill="url(#paint1_linear_708_1305)"/>
<path d="M93.9256 41.3085V44.7265H84.2577V69.9999H80.3124V44.7265H70.6444V41.3085H93.9256Z" fill="url(#paint2_linear_708_1305)"/>
<path d="M107.658 58.2421L103.302 45.5663L98.6733 58.2421H107.658ZM101.271 41.3085H105.665L116.076 69.9999H111.818L108.908 61.4062H97.56L94.4546 69.9999H90.4702L101.271 41.3085Z" fill="url(#paint3_linear_708_1305)"/>
<path d="M130.413 40.5663C133.108 40.5663 135.439 41.0871 137.405 42.1288C140.257 43.6262 142.002 46.2499 142.64 49.9999H138.792C138.323 47.9036 137.353 46.3801 135.882 45.4296C134.411 44.4661 132.555 43.9843 130.315 43.9843C127.659 43.9843 125.42 44.9804 123.597 46.9726C121.787 48.9647 120.882 51.9335 120.882 55.8788C120.882 59.2903 121.631 62.0702 123.128 64.2187C124.625 66.3541 127.067 67.4218 130.452 67.4218C133.043 67.4218 135.185 66.6731 136.878 65.1757C138.584 63.6653 139.456 61.2304 139.495 57.871H130.511V54.6483H143.108V69.9999H140.608L139.671 66.3085C138.356 67.7538 137.19 68.7564 136.175 69.3163C134.469 70.2799 132.301 70.7616 129.671 70.7616C126.273 70.7616 123.349 69.6614 120.901 67.4608C118.232 64.7004 116.898 60.9114 116.898 56.0937C116.898 51.289 118.2 47.4674 120.804 44.6288C123.278 41.9205 126.481 40.5663 130.413 40.5663Z" fill="url(#paint4_linear_708_1305)"/>
<path d="M147.915 41.3085H168.833V44.8241H151.704V53.5351H167.544V56.8554H151.704V66.5819H169.126V69.9999H147.915V41.3085Z" fill="url(#paint5_linear_708_1305)"/>
<path d="M6.19986 66.4199C6.19986 69.1499 9.83986 69.2199 12.0799 69.2199C28.9499 69.2199 63.1099 52.3499 63.1099 41.7799C63.1099 37.4399 57.2999 34.8499 50.4399 32.9599C42.0399 30.6499 32.5199 29.3899 32.5199 23.2299C32.5199 11.4699 55.1299 2.0899 65.3499 1.73991C71.7199 1.5299 75.9899 3.0699 75.9199 8.4599C75.7799 16.7899 63.5999 25.8199 56.1799 25.8199C54.7799 25.8199 52.6799 25.2599 52.6799 23.7199C52.6799 20.8499 55.4099 17.8399 56.8099 16.9999C55.7599 18.1899 55.3399 19.6599 55.3399 20.6399C55.3399 21.0599 55.7599 21.0599 56.1799 21.0599C59.0499 21.0599 72.6999 13.2199 73.6099 6.8499C73.9599 4.60991 72.0699 3.97991 69.4099 3.97991C68.6399 3.97991 67.7299 4.0499 66.8199 4.1199C57.8599 5.0999 37.2799 16.6499 37.2799 23.8599C37.2799 27.9199 43.9999 29.6699 51.0699 31.6299C58.9799 33.7999 67.1699 36.3899 67.1699 44.1599C67.1699 59.4899 32.3099 74.4699 13.1999 74.4699C8.57986 74.4699 1.85986 73.1399 1.85986 67.6099C1.85986 57.2499 33.4999 40.5199 42.5299 40.7299C23.9799 45.7699 6.19986 61.2399 6.19986 66.4199Z" stroke="black" stroke-width="2" mask="url(#path-1-outside-1_708_1305)"/>
<path d="M201 70.0999L200.8 70.4999C203.1 70.4999 205.5 69.8999 207.9 68.7999C210.3 67.6999 212.5 66.0999 214.4 64.0999C216.3 62.0999 217.9 59.6999 219.1 56.8999C220.3 54.0999 220.9 50.9999 220.9 47.6999C220.9 44.3999 220.2 41.8999 218.7 40.0999C217.2 38.2999 215.2 37.3999 212.7 37.3999C211.2 37.3999 209.7 37.5999 208.2 37.9999C206.7 38.3999 205.3 38.7999 204 39.2999C202.7 39.7999 201.6 40.1999 200.7 40.5999C199.8 40.9999 199.3 41.1999 199.1 41.1999C198.7 41.1999 198.5 40.9999 198.5 40.5999C198.5 40.3999 198.6 40.1999 198.7 39.9999C198.8 39.7999 199.1 39.3999 199.6 38.8999C200.1 38.3999 200.7 37.5999 201.3 36.5999C201.9 35.5999 202.6 34.3999 203.3 33.0999C204 31.7999 204.7 30.2999 205.4 28.6999C206.1 27.0999 206.8 25.4999 207.4 23.7999C208.1 21.9999 208.8 20.6999 209.4 19.8999C210 19.0999 211 18.6999 212.3 18.6999C213.1 18.6999 214.2 18.7999 215.6 18.9999C217 19.1999 218.5 19.3999 220.2 19.5999C221.9 19.7999 223.7 19.9999 225.6 20.1999C227.5 20.3999 229.3 20.4999 231.1 20.4999C232.5 20.4999 233.6 20.2999 234.3 19.8999C235 19.4999 235.6 19.0999 236 18.5999C236.4 18.0999 236.7 17.6999 236.8 17.2999C236.9 16.8999 237.1 16.6999 237.3 16.6999C237.5 16.6999 237.6 16.8999 237.6 17.1999C237.6 17.6999 237.4 18.3999 237 19.2999C236.6 20.1999 235.9 21.0999 234.9 21.9999C233.9 22.8999 232.6 23.6999 231 24.3999C229.4 25.0999 227.4 25.3999 225.1 25.3999C223.3 25.3999 221.5 25.2999 219.8 25.1999C218.1 25.0999 216.5 24.9999 215.1 24.8999C213.7 24.7999 212.5 24.6999 211.5 24.5999C210.5 24.4999 209.9 24.3999 209.7 24.3999C209.6 24.3999 209.4 24.7999 209 25.5999C208.6 26.3999 208.1 27.3999 207.5 28.6999C206.9 29.9999 206.2 31.4999 205.3 33.0999C204.4 34.6999 203.3 36.3999 202 38.0999C203.6 37.3999 205.6 36.6999 208 35.9999C210.4 35.2999 212.6 34.8999 214.7 34.8999C218.6 34.8999 221.7 35.9999 223.9 38.2999C226.1 40.5999 227.2 43.4999 227.2 47.0999C227.2 50.7999 226.4 54.0999 224.8 57.0999C223.2 60.0999 221.1 62.6999 218.5 64.8999C215.9 67.0999 213 68.7999 209.7 69.9999C206.4 71.1999 203.1 71.7999 199.8 71.7999C195.7 71.7999 192.5 70.9999 190.3 69.3999C188.1 67.7999 187 65.3999 187 62.2999C187 60.3999 187.4 58.5999 188.3 56.9999C189.2 55.3999 190.3 53.9999 191.6 52.7999C192.9 51.5999 194.4 50.6999 196 49.9999C197.6 49.2999 199.1 48.9999 200.6 48.9999C201.3 48.9999 201.7 49.0999 201.7 49.1999C201.7 49.4999 201.3 49.6999 200.6 49.7999C199.7 50.0999 198.8 50.5999 197.9 51.2999C197 51.9999 196.2 52.7999 195.5 53.7999C194.8 54.7999 194.2 55.8999 193.7 57.1999C193.2 58.4999 193 59.7999 193 61.1999C193 63.6999 193.6 65.7999 194.9 67.4999C196.2 69.1999 198.2 70.0999 201 70.0999Z" stroke="black" stroke-width="2" mask="url(#path-1-outside-1_708_1305)"/>
<path d="M93.9256 41.3085V44.7265H84.2577V69.9999H80.3124V44.7265H70.6444V41.3085H93.9256Z" stroke="black" stroke-width="2" mask="url(#path-1-outside-1_708_1305)"/>
<path d="M107.658 58.2421L103.302 45.5663L98.6733 58.2421H107.658ZM101.271 41.3085H105.665L116.076 69.9999H111.818L108.908 61.4062H97.56L94.4546 69.9999H90.4702L101.271 41.3085Z" stroke="black" stroke-width="2" mask="url(#path-1-outside-1_708_1305)"/>
<path d="M130.413 40.5663C133.108 40.5663 135.439 41.0871 137.405 42.1288C140.257 43.6262 142.002 46.2499 142.64 49.9999H138.792C138.323 47.9036 137.353 46.3801 135.882 45.4296C134.411 44.4661 132.555 43.9843 130.315 43.9843C127.659 43.9843 125.42 44.9804 123.597 46.9726C121.787 48.9647 120.882 51.9335 120.882 55.8788C120.882 59.2903 121.631 62.0702 123.128 64.2187C124.625 66.3541 127.067 67.4218 130.452 67.4218C133.043 67.4218 135.185 66.6731 136.878 65.1757C138.584 63.6653 139.456 61.2304 139.495 57.871H130.511V54.6483H143.108V69.9999H140.608L139.671 66.3085C138.356 67.7538 137.19 68.7564 136.175 69.3163C134.469 70.2799 132.301 70.7616 129.671 70.7616C126.273 70.7616 123.349 69.6614 120.901 67.4608C118.232 64.7004 116.898 60.9114 116.898 56.0937C116.898 51.289 118.2 47.4674 120.804 44.6288C123.278 41.9205 126.481 40.5663 130.413 40.5663Z" stroke="black" stroke-width="2" mask="url(#path-1-outside-1_708_1305)"/>
<path d="M147.915 41.3085H168.833V44.8241H151.704V53.5351H167.544V56.8554H151.704V66.5819H169.126V69.9999H147.915V41.3085Z" stroke="black" stroke-width="2" mask="url(#path-1-outside-1_708_1305)"/>
<defs>
<linearGradient id="paint0_linear_708_1305" x1="121" y1="28" x2="121" y2="84" gradientUnits="userSpaceOnUse">
<stop stop-color="#E5FFB0"/>
<stop offset="1" stop-color="#ABFF00"/>
</linearGradient>
<linearGradient id="paint1_linear_708_1305" x1="121" y1="28" x2="121" y2="84" gradientUnits="userSpaceOnUse">
<stop stop-color="#E5FFB0"/>
<stop offset="1" stop-color="#ABFF00"/>
</linearGradient>
<linearGradient id="paint2_linear_708_1305" x1="121" y1="28" x2="121" y2="84" gradientUnits="userSpaceOnUse">
<stop stop-color="#E5FFB0"/>
<stop offset="1" stop-color="#ABFF00"/>
</linearGradient>
<linearGradient id="paint3_linear_708_1305" x1="121" y1="28" x2="121" y2="84" gradientUnits="userSpaceOnUse">
<stop stop-color="#E5FFB0"/>
<stop offset="1" stop-color="#ABFF00"/>
</linearGradient>
<linearGradient id="paint4_linear_708_1305" x1="121" y1="28" x2="121" y2="84" gradientUnits="userSpaceOnUse">
<stop stop-color="#E5FFB0"/>
<stop offset="1" stop-color="#ABFF00"/>
</linearGradient>
<linearGradient id="paint5_linear_708_1305" x1="121" y1="28" x2="121" y2="84" gradientUnits="userSpaceOnUse">
<stop stop-color="#E5FFB0"/>
<stop offset="1" stop-color="#ABFF00"/>
</linearGradient>
</defs>
</svg>
