<svg width="235" height="76" viewBox="0 0 235 76" fill="none" xmlns="http://www.w3.org/2000/svg">
<mask id="path-1-outside-1_708_1301" maskUnits="userSpaceOnUse" x="0.859863" y="0.721436" width="234" height="75" fill="black">
<rect fill="white" x="0.859863" y="0.721436" width="234" height="75"/>
<path d="M6.19986 66.4199C6.19986 69.1499 9.83986 69.2199 12.0799 69.2199C28.9499 69.2199 63.1099 52.3499 63.1099 41.7799C63.1099 37.4399 57.2999 34.8499 50.4399 32.9599C42.0399 30.6499 32.5199 29.3899 32.5199 23.2299C32.5199 11.4699 55.1299 2.0899 65.3499 1.73991C71.7199 1.5299 75.9899 3.0699 75.9199 8.4599C75.7799 16.7899 63.5999 25.8199 56.1799 25.8199C54.7799 25.8199 52.6799 25.2599 52.6799 23.7199C52.6799 20.8499 55.4099 17.8399 56.8099 16.9999C55.7599 18.1899 55.3399 19.6599 55.3399 20.6399C55.3399 21.0599 55.7599 21.0599 56.1799 21.0599C59.0499 21.0599 72.6999 13.2199 73.6099 6.8499C73.9599 4.60991 72.0699 3.97991 69.4099 3.97991C68.6399 3.97991 67.7299 4.0499 66.8199 4.1199C57.8599 5.0999 37.2799 16.6499 37.2799 23.8599C37.2799 27.9199 43.9999 29.6699 51.0699 31.6299C58.9799 33.7999 67.1699 36.3899 67.1699 44.1599C67.1699 59.4899 32.3099 74.4699 13.1999 74.4699C8.57986 74.4699 1.85986 73.1399 1.85986 67.6099C1.85986 57.2499 33.4999 40.5199 42.5299 40.7299C23.9799 45.7699 6.19986 61.2399 6.19986 66.4199Z"/>
<path d="M200.6 49.7999L200.1 50.5999C199.2 50.8999 198.3 51.3999 197.4 52.0999C196.5 52.7999 195.7 53.5999 195 54.5999C194.3 55.5999 193.7 56.6999 193.2 57.9999C192.7 59.2999 192.5 60.5999 192.5 61.9999C192.5 64.2999 193.2 66.2999 194.7 68.0999C196.2 69.8999 198.5 70.7999 201.6 70.7999C204.1 70.7999 206.5 70.1999 208.9 68.8999C211.3 67.5999 213.5 65.9999 215.4 63.9999C217.3 61.9999 218.8 59.7999 220 57.3999C221.2 54.9999 221.8 52.5999 221.8 50.2999C221.8 48.1999 221.4 46.3999 220.6 44.9999C219.8 43.5999 218.8 42.6999 217.6 42.3999C217.2 42.4999 216.5 42.6999 215.5 42.9999C214.5 43.2999 213.3 43.3999 211.9 43.3999C211 43.3999 210.2 43.2999 209.4 43.0999C208.6 42.8999 208.2 42.5999 208.2 42.1999C208.2 41.5999 208.8 41.0999 210 40.7999C211.2 40.4999 213 40.2999 215.3 40.2999C215.8 40.2999 216.3 40.2999 216.8 40.2999C217.3 40.2999 217.7 40.2999 218 40.2999C218.7 39.8999 219.6 39.2999 220.7 38.5999C221.8 37.8999 222.8 36.9999 223.8 35.8999C224.8 34.7999 225.7 33.4999 226.4 31.9999C227.1 30.4999 227.5 28.8999 227.5 27.1999C227.5 24.8999 226.8 22.9999 225.5 21.4999C224.2 19.9999 222.2 19.2999 219.6 19.2999C218 19.2999 216.5 19.5999 215 20.1999C213.5 20.7999 212.2 21.4999 211.1 22.3999C210 23.2999 209.1 24.2999 208.4 25.3999C207.7 26.4999 207.4 27.5999 207.4 28.5999C207.4 29.9999 207.7 30.9999 208.3 31.6999C208.9 32.3999 209.5 32.6999 210.2 32.6999C211.3 32.6999 212.2 32.3999 213 31.7999C213.8 31.1999 214.3 30.8999 214.6 30.8999C214.8 30.8999 214.9 30.9999 214.9 31.2999C214.9 31.3999 214.7 31.6999 214.2 32.0999C213.7 32.4999 213.1 32.8999 212.4 33.3999C211.7 33.8999 210.9 34.2999 210 34.5999C209.1 34.8999 208.2 35.0999 207.3 35.0999C205.9 35.0999 204.7 34.6999 203.7 33.7999C202.7 32.8999 202.2 31.6999 202.2 30.1999C202.2 28.7999 202.7 27.3999 203.7 25.8999C204.7 24.3999 206 23.0999 207.7 21.8999C209.4 20.6999 211.4 19.6999 213.6 18.8999C215.8 18.0999 218.2 17.6999 220.7 17.6999C224.9 17.6999 228.1 18.5999 230.4 20.4999C232.7 22.3999 233.8 24.5999 233.8 27.0999C233.8 28.8999 233.3 30.4999 232.3 31.9999C231.3 33.4999 230.1 34.7999 228.6 35.8999C227.1 36.9999 225.6 37.8999 224 38.6999C222.4 39.4999 221.1 40.0999 220 40.5999C220.7 40.7999 221.5 41.0999 222.5 41.4999C223.5 41.8999 224.4 42.4999 225.3 43.1999C226.2 43.8999 227 44.7999 227.6 45.8999C228.2 46.9999 228.5 48.3999 228.5 50.0999C228.5 53.3999 227.6 56.3999 225.7 59.0999C223.8 61.7999 221.5 64.0999 218.7 65.9999C215.9 67.8999 212.9 69.2999 209.7 70.2999C206.5 71.2999 203.5 71.7999 200.8 71.7999C196.4 71.7999 193 70.9999 190.6 69.3999C188.2 67.7999 187 65.3999 187 62.2999C187 60.3999 187.4 58.5999 188.3 56.9999C189.2 55.3999 190.3 53.9999 191.6 52.7999C192.9 51.5999 194.4 50.6999 196 49.9999C197.6 49.2999 199.1 48.9999 200.6 48.9999C201.3 48.9999 201.7 49.0999 201.7 49.1999C201.7 49.4999 201.3 49.6999 200.6 49.7999Z"/>
<path d="M93.9256 41.3085V44.7265H84.2577V69.9999H80.3124V44.7265H70.6444V41.3085H93.9256Z"/>
<path d="M107.658 58.2421L103.302 45.5663L98.6733 58.2421H107.658ZM101.271 41.3085H105.665L116.076 69.9999H111.818L108.908 61.4062H97.56L94.4546 69.9999H90.4702L101.271 41.3085Z"/>
<path d="M130.413 40.5663C133.108 40.5663 135.439 41.0871 137.405 42.1288C140.257 43.6262 142.002 46.2499 142.64 49.9999H138.792C138.323 47.9036 137.353 46.3801 135.882 45.4296C134.411 44.4661 132.555 43.9843 130.315 43.9843C127.659 43.9843 125.42 44.9804 123.597 46.9726C121.787 48.9647 120.882 51.9335 120.882 55.8788C120.882 59.2903 121.631 62.0702 123.128 64.2187C124.625 66.3541 127.067 67.4218 130.452 67.4218C133.043 67.4218 135.185 66.6731 136.878 65.1757C138.584 63.6653 139.456 61.2304 139.495 57.871H130.511V54.6483H143.108V69.9999H140.608L139.671 66.3085C138.356 67.7538 137.19 68.7564 136.175 69.3163C134.469 70.2799 132.301 70.7616 129.671 70.7616C126.273 70.7616 123.349 69.6614 120.901 67.4608C118.232 64.7004 116.898 60.9114 116.898 56.0937C116.898 51.289 118.2 47.4674 120.804 44.6288C123.278 41.9205 126.481 40.5663 130.413 40.5663Z"/>
<path d="M147.915 41.3085H168.833V44.8241H151.704V53.5351H167.544V56.8554H151.704V66.5819H169.126V69.9999H147.915V41.3085Z"/>
</mask>
<path d="M6.19986 66.4199C6.19986 69.1499 9.83986 69.2199 12.0799 69.2199C28.9499 69.2199 63.1099 52.3499 63.1099 41.7799C63.1099 37.4399 57.2999 34.8499 50.4399 32.9599C42.0399 30.6499 32.5199 29.3899 32.5199 23.2299C32.5199 11.4699 55.1299 2.0899 65.3499 1.73991C71.7199 1.5299 75.9899 3.0699 75.9199 8.4599C75.7799 16.7899 63.5999 25.8199 56.1799 25.8199C54.7799 25.8199 52.6799 25.2599 52.6799 23.7199C52.6799 20.8499 55.4099 17.8399 56.8099 16.9999C55.7599 18.1899 55.3399 19.6599 55.3399 20.6399C55.3399 21.0599 55.7599 21.0599 56.1799 21.0599C59.0499 21.0599 72.6999 13.2199 73.6099 6.8499C73.9599 4.60991 72.0699 3.97991 69.4099 3.97991C68.6399 3.97991 67.7299 4.0499 66.8199 4.1199C57.8599 5.0999 37.2799 16.6499 37.2799 23.8599C37.2799 27.9199 43.9999 29.6699 51.0699 31.6299C58.9799 33.7999 67.1699 36.3899 67.1699 44.1599C67.1699 59.4899 32.3099 74.4699 13.1999 74.4699C8.57986 74.4699 1.85986 73.1399 1.85986 67.6099C1.85986 57.2499 33.4999 40.5199 42.5299 40.7299C23.9799 45.7699 6.19986 61.2399 6.19986 66.4199Z" fill="url(#paint0_linear_708_1301)"/>
<path d="M200.6 49.7999L200.1 50.5999C199.2 50.8999 198.3 51.3999 197.4 52.0999C196.5 52.7999 195.7 53.5999 195 54.5999C194.3 55.5999 193.7 56.6999 193.2 57.9999C192.7 59.2999 192.5 60.5999 192.5 61.9999C192.5 64.2999 193.2 66.2999 194.7 68.0999C196.2 69.8999 198.5 70.7999 201.6 70.7999C204.1 70.7999 206.5 70.1999 208.9 68.8999C211.3 67.5999 213.5 65.9999 215.4 63.9999C217.3 61.9999 218.8 59.7999 220 57.3999C221.2 54.9999 221.8 52.5999 221.8 50.2999C221.8 48.1999 221.4 46.3999 220.6 44.9999C219.8 43.5999 218.8 42.6999 217.6 42.3999C217.2 42.4999 216.5 42.6999 215.5 42.9999C214.5 43.2999 213.3 43.3999 211.9 43.3999C211 43.3999 210.2 43.2999 209.4 43.0999C208.6 42.8999 208.2 42.5999 208.2 42.1999C208.2 41.5999 208.8 41.0999 210 40.7999C211.2 40.4999 213 40.2999 215.3 40.2999C215.8 40.2999 216.3 40.2999 216.8 40.2999C217.3 40.2999 217.7 40.2999 218 40.2999C218.7 39.8999 219.6 39.2999 220.7 38.5999C221.8 37.8999 222.8 36.9999 223.8 35.8999C224.8 34.7999 225.7 33.4999 226.4 31.9999C227.1 30.4999 227.5 28.8999 227.5 27.1999C227.5 24.8999 226.8 22.9999 225.5 21.4999C224.2 19.9999 222.2 19.2999 219.6 19.2999C218 19.2999 216.5 19.5999 215 20.1999C213.5 20.7999 212.2 21.4999 211.1 22.3999C210 23.2999 209.1 24.2999 208.4 25.3999C207.7 26.4999 207.4 27.5999 207.4 28.5999C207.4 29.9999 207.7 30.9999 208.3 31.6999C208.9 32.3999 209.5 32.6999 210.2 32.6999C211.3 32.6999 212.2 32.3999 213 31.7999C213.8 31.1999 214.3 30.8999 214.6 30.8999C214.8 30.8999 214.9 30.9999 214.9 31.2999C214.9 31.3999 214.7 31.6999 214.2 32.0999C213.7 32.4999 213.1 32.8999 212.4 33.3999C211.7 33.8999 210.9 34.2999 210 34.5999C209.1 34.8999 208.2 35.0999 207.3 35.0999C205.9 35.0999 204.7 34.6999 203.7 33.7999C202.7 32.8999 202.2 31.6999 202.2 30.1999C202.2 28.7999 202.7 27.3999 203.7 25.8999C204.7 24.3999 206 23.0999 207.7 21.8999C209.4 20.6999 211.4 19.6999 213.6 18.8999C215.8 18.0999 218.2 17.6999 220.7 17.6999C224.9 17.6999 228.1 18.5999 230.4 20.4999C232.7 22.3999 233.8 24.5999 233.8 27.0999C233.8 28.8999 233.3 30.4999 232.3 31.9999C231.3 33.4999 230.1 34.7999 228.6 35.8999C227.1 36.9999 225.6 37.8999 224 38.6999C222.4 39.4999 221.1 40.0999 220 40.5999C220.7 40.7999 221.5 41.0999 222.5 41.4999C223.5 41.8999 224.4 42.4999 225.3 43.1999C226.2 43.8999 227 44.7999 227.6 45.8999C228.2 46.9999 228.5 48.3999 228.5 50.0999C228.5 53.3999 227.6 56.3999 225.7 59.0999C223.8 61.7999 221.5 64.0999 218.7 65.9999C215.9 67.8999 212.9 69.2999 209.7 70.2999C206.5 71.2999 203.5 71.7999 200.8 71.7999C196.4 71.7999 193 70.9999 190.6 69.3999C188.2 67.7999 187 65.3999 187 62.2999C187 60.3999 187.4 58.5999 188.3 56.9999C189.2 55.3999 190.3 53.9999 191.6 52.7999C192.9 51.5999 194.4 50.6999 196 49.9999C197.6 49.2999 199.1 48.9999 200.6 48.9999C201.3 48.9999 201.7 49.0999 201.7 49.1999C201.7 49.4999 201.3 49.6999 200.6 49.7999Z" fill="url(#paint1_linear_708_1301)"/>
<path d="M93.9256 41.3085V44.7265H84.2577V69.9999H80.3124V44.7265H70.6444V41.3085H93.9256Z" fill="url(#paint2_linear_708_1301)"/>
<path d="M107.658 58.2421L103.302 45.5663L98.6733 58.2421H107.658ZM101.271 41.3085H105.665L116.076 69.9999H111.818L108.908 61.4062H97.56L94.4546 69.9999H90.4702L101.271 41.3085Z" fill="url(#paint3_linear_708_1301)"/>
<path d="M130.413 40.5663C133.108 40.5663 135.439 41.0871 137.405 42.1288C140.257 43.6262 142.002 46.2499 142.64 49.9999H138.792C138.323 47.9036 137.353 46.3801 135.882 45.4296C134.411 44.4661 132.555 43.9843 130.315 43.9843C127.659 43.9843 125.42 44.9804 123.597 46.9726C121.787 48.9647 120.882 51.9335 120.882 55.8788C120.882 59.2903 121.631 62.0702 123.128 64.2187C124.625 66.3541 127.067 67.4218 130.452 67.4218C133.043 67.4218 135.185 66.6731 136.878 65.1757C138.584 63.6653 139.456 61.2304 139.495 57.871H130.511V54.6483H143.108V69.9999H140.608L139.671 66.3085C138.356 67.7538 137.19 68.7564 136.175 69.3163C134.469 70.2799 132.301 70.7616 129.671 70.7616C126.273 70.7616 123.349 69.6614 120.901 67.4608C118.232 64.7004 116.898 60.9114 116.898 56.0937C116.898 51.289 118.2 47.4674 120.804 44.6288C123.278 41.9205 126.481 40.5663 130.413 40.5663Z" fill="url(#paint4_linear_708_1301)"/>
<path d="M147.915 41.3085H168.833V44.8241H151.704V53.5351H167.544V56.8554H151.704V66.5819H169.126V69.9999H147.915V41.3085Z" fill="url(#paint5_linear_708_1301)"/>
<path d="M6.19986 66.4199C6.19986 69.1499 9.83986 69.2199 12.0799 69.2199C28.9499 69.2199 63.1099 52.3499 63.1099 41.7799C63.1099 37.4399 57.2999 34.8499 50.4399 32.9599C42.0399 30.6499 32.5199 29.3899 32.5199 23.2299C32.5199 11.4699 55.1299 2.0899 65.3499 1.73991C71.7199 1.5299 75.9899 3.0699 75.9199 8.4599C75.7799 16.7899 63.5999 25.8199 56.1799 25.8199C54.7799 25.8199 52.6799 25.2599 52.6799 23.7199C52.6799 20.8499 55.4099 17.8399 56.8099 16.9999C55.7599 18.1899 55.3399 19.6599 55.3399 20.6399C55.3399 21.0599 55.7599 21.0599 56.1799 21.0599C59.0499 21.0599 72.6999 13.2199 73.6099 6.8499C73.9599 4.60991 72.0699 3.97991 69.4099 3.97991C68.6399 3.97991 67.7299 4.0499 66.8199 4.1199C57.8599 5.0999 37.2799 16.6499 37.2799 23.8599C37.2799 27.9199 43.9999 29.6699 51.0699 31.6299C58.9799 33.7999 67.1699 36.3899 67.1699 44.1599C67.1699 59.4899 32.3099 74.4699 13.1999 74.4699C8.57986 74.4699 1.85986 73.1399 1.85986 67.6099C1.85986 57.2499 33.4999 40.5199 42.5299 40.7299C23.9799 45.7699 6.19986 61.2399 6.19986 66.4199Z" stroke="black" stroke-width="2" mask="url(#path-1-outside-1_708_1301)"/>
<path d="M200.6 49.7999L200.1 50.5999C199.2 50.8999 198.3 51.3999 197.4 52.0999C196.5 52.7999 195.7 53.5999 195 54.5999C194.3 55.5999 193.7 56.6999 193.2 57.9999C192.7 59.2999 192.5 60.5999 192.5 61.9999C192.5 64.2999 193.2 66.2999 194.7 68.0999C196.2 69.8999 198.5 70.7999 201.6 70.7999C204.1 70.7999 206.5 70.1999 208.9 68.8999C211.3 67.5999 213.5 65.9999 215.4 63.9999C217.3 61.9999 218.8 59.7999 220 57.3999C221.2 54.9999 221.8 52.5999 221.8 50.2999C221.8 48.1999 221.4 46.3999 220.6 44.9999C219.8 43.5999 218.8 42.6999 217.6 42.3999C217.2 42.4999 216.5 42.6999 215.5 42.9999C214.5 43.2999 213.3 43.3999 211.9 43.3999C211 43.3999 210.2 43.2999 209.4 43.0999C208.6 42.8999 208.2 42.5999 208.2 42.1999C208.2 41.5999 208.8 41.0999 210 40.7999C211.2 40.4999 213 40.2999 215.3 40.2999C215.8 40.2999 216.3 40.2999 216.8 40.2999C217.3 40.2999 217.7 40.2999 218 40.2999C218.7 39.8999 219.6 39.2999 220.7 38.5999C221.8 37.8999 222.8 36.9999 223.8 35.8999C224.8 34.7999 225.7 33.4999 226.4 31.9999C227.1 30.4999 227.5 28.8999 227.5 27.1999C227.5 24.8999 226.8 22.9999 225.5 21.4999C224.2 19.9999 222.2 19.2999 219.6 19.2999C218 19.2999 216.5 19.5999 215 20.1999C213.5 20.7999 212.2 21.4999 211.1 22.3999C210 23.2999 209.1 24.2999 208.4 25.3999C207.7 26.4999 207.4 27.5999 207.4 28.5999C207.4 29.9999 207.7 30.9999 208.3 31.6999C208.9 32.3999 209.5 32.6999 210.2 32.6999C211.3 32.6999 212.2 32.3999 213 31.7999C213.8 31.1999 214.3 30.8999 214.6 30.8999C214.8 30.8999 214.9 30.9999 214.9 31.2999C214.9 31.3999 214.7 31.6999 214.2 32.0999C213.7 32.4999 213.1 32.8999 212.4 33.3999C211.7 33.8999 210.9 34.2999 210 34.5999C209.1 34.8999 208.2 35.0999 207.3 35.0999C205.9 35.0999 204.7 34.6999 203.7 33.7999C202.7 32.8999 202.2 31.6999 202.2 30.1999C202.2 28.7999 202.7 27.3999 203.7 25.8999C204.7 24.3999 206 23.0999 207.7 21.8999C209.4 20.6999 211.4 19.6999 213.6 18.8999C215.8 18.0999 218.2 17.6999 220.7 17.6999C224.9 17.6999 228.1 18.5999 230.4 20.4999C232.7 22.3999 233.8 24.5999 233.8 27.0999C233.8 28.8999 233.3 30.4999 232.3 31.9999C231.3 33.4999 230.1 34.7999 228.6 35.8999C227.1 36.9999 225.6 37.8999 224 38.6999C222.4 39.4999 221.1 40.0999 220 40.5999C220.7 40.7999 221.5 41.0999 222.5 41.4999C223.5 41.8999 224.4 42.4999 225.3 43.1999C226.2 43.8999 227 44.7999 227.6 45.8999C228.2 46.9999 228.5 48.3999 228.5 50.0999C228.5 53.3999 227.6 56.3999 225.7 59.0999C223.8 61.7999 221.5 64.0999 218.7 65.9999C215.9 67.8999 212.9 69.2999 209.7 70.2999C206.5 71.2999 203.5 71.7999 200.8 71.7999C196.4 71.7999 193 70.9999 190.6 69.3999C188.2 67.7999 187 65.3999 187 62.2999C187 60.3999 187.4 58.5999 188.3 56.9999C189.2 55.3999 190.3 53.9999 191.6 52.7999C192.9 51.5999 194.4 50.6999 196 49.9999C197.6 49.2999 199.1 48.9999 200.6 48.9999C201.3 48.9999 201.7 49.0999 201.7 49.1999C201.7 49.4999 201.3 49.6999 200.6 49.7999Z" stroke="black" stroke-width="2" mask="url(#path-1-outside-1_708_1301)"/>
<path d="M93.9256 41.3085V44.7265H84.2577V69.9999H80.3124V44.7265H70.6444V41.3085H93.9256Z" stroke="black" stroke-width="2" mask="url(#path-1-outside-1_708_1301)"/>
<path d="M107.658 58.2421L103.302 45.5663L98.6733 58.2421H107.658ZM101.271 41.3085H105.665L116.076 69.9999H111.818L108.908 61.4062H97.56L94.4546 69.9999H90.4702L101.271 41.3085Z" stroke="black" stroke-width="2" mask="url(#path-1-outside-1_708_1301)"/>
<path d="M130.413 40.5663C133.108 40.5663 135.439 41.0871 137.405 42.1288C140.257 43.6262 142.002 46.2499 142.64 49.9999H138.792C138.323 47.9036 137.353 46.3801 135.882 45.4296C134.411 44.4661 132.555 43.9843 130.315 43.9843C127.659 43.9843 125.42 44.9804 123.597 46.9726C121.787 48.9647 120.882 51.9335 120.882 55.8788C120.882 59.2903 121.631 62.0702 123.128 64.2187C124.625 66.3541 127.067 67.4218 130.452 67.4218C133.043 67.4218 135.185 66.6731 136.878 65.1757C138.584 63.6653 139.456 61.2304 139.495 57.871H130.511V54.6483H143.108V69.9999H140.608L139.671 66.3085C138.356 67.7538 137.19 68.7564 136.175 69.3163C134.469 70.2799 132.301 70.7616 129.671 70.7616C126.273 70.7616 123.349 69.6614 120.901 67.4608C118.232 64.7004 116.898 60.9114 116.898 56.0937C116.898 51.289 118.2 47.4674 120.804 44.6288C123.278 41.9205 126.481 40.5663 130.413 40.5663Z" stroke="black" stroke-width="2" mask="url(#path-1-outside-1_708_1301)"/>
<path d="M147.915 41.3085H168.833V44.8241H151.704V53.5351H167.544V56.8554H151.704V66.5819H169.126V69.9999H147.915V41.3085Z" stroke="black" stroke-width="2" mask="url(#path-1-outside-1_708_1301)"/>
<defs>
<linearGradient id="paint0_linear_708_1301" x1="121" y1="28" x2="121" y2="84" gradientUnits="userSpaceOnUse">
<stop stop-color="#E5FFB0"/>
<stop offset="1" stop-color="#ABFF00"/>
</linearGradient>
<linearGradient id="paint1_linear_708_1301" x1="121" y1="28" x2="121" y2="84" gradientUnits="userSpaceOnUse">
<stop stop-color="#E5FFB0"/>
<stop offset="1" stop-color="#ABFF00"/>
</linearGradient>
<linearGradient id="paint2_linear_708_1301" x1="121" y1="28" x2="121" y2="84" gradientUnits="userSpaceOnUse">
<stop stop-color="#E5FFB0"/>
<stop offset="1" stop-color="#ABFF00"/>
</linearGradient>
<linearGradient id="paint3_linear_708_1301" x1="121" y1="28" x2="121" y2="84" gradientUnits="userSpaceOnUse">
<stop stop-color="#E5FFB0"/>
<stop offset="1" stop-color="#ABFF00"/>
</linearGradient>
<linearGradient id="paint4_linear_708_1301" x1="121" y1="28" x2="121" y2="84" gradientUnits="userSpaceOnUse">
<stop stop-color="#E5FFB0"/>
<stop offset="1" stop-color="#ABFF00"/>
</linearGradient>
<linearGradient id="paint5_linear_708_1301" x1="121" y1="28" x2="121" y2="84" gradientUnits="userSpaceOnUse">
<stop stop-color="#E5FFB0"/>
<stop offset="1" stop-color="#ABFF00"/>
</linearGradient>
</defs>
</svg>
