<svg width="234" height="76" viewBox="0 0 234 76" fill="none" xmlns="http://www.w3.org/2000/svg">
<mask id="path-1-outside-1_708_1299" maskUnits="userSpaceOnUse" x="0.859863" y="0.721436" width="233" height="75" fill="black">
<rect fill="white" x="0.859863" y="0.721436" width="233" height="75"/>
<path d="M6.19986 66.4199C6.19986 69.1499 9.83986 69.2199 12.0799 69.2199C28.9499 69.2199 63.1099 52.3499 63.1099 41.7799C63.1099 37.4399 57.2999 34.8499 50.4399 32.9599C42.0399 30.6499 32.5199 29.3899 32.5199 23.2299C32.5199 11.4699 55.1299 2.0899 65.3499 1.73991C71.7199 1.5299 75.9899 3.0699 75.9199 8.4599C75.7799 16.7899 63.5999 25.8199 56.1799 25.8199C54.7799 25.8199 52.6799 25.2599 52.6799 23.7199C52.6799 20.8499 55.4099 17.8399 56.8099 16.9999C55.7599 18.1899 55.3399 19.6599 55.3399 20.6399C55.3399 21.0599 55.7599 21.0599 56.1799 21.0599C59.0499 21.0599 72.6999 13.2199 73.6099 6.8499C73.9599 4.60991 72.0699 3.97991 69.4099 3.97991C68.6399 3.97991 67.7299 4.0499 66.8199 4.1199C57.8599 5.0999 37.2799 16.6499 37.2799 23.8599C37.2799 27.9199 43.9999 29.6699 51.0699 31.6299C58.9799 33.7999 67.1699 36.3899 67.1699 44.1599C67.1699 59.4899 32.3099 74.4699 13.1999 74.4699C8.57986 74.4699 1.85986 73.1399 1.85986 67.6099C1.85986 57.2499 33.4999 40.5199 42.5299 40.7299C23.9799 45.7699 6.19986 61.2399 6.19986 66.4199Z"/>
<path d="M208.6 36.4999L207.8 36.7999C208.6 36.7999 209.3 36.5999 209.9 36.2999C210.5 35.9999 211 35.5999 211.4 35.1999C211.8 34.7999 212.2 34.3999 212.5 34.0999C212.8 33.7999 213 33.5999 213.1 33.5999C213.3 33.5999 213.4 33.6999 213.4 33.9999C213.4 34.3999 213.2 34.8999 212.8 35.4999C212.4 36.0999 211.8 36.6999 211 37.2999C210.2 37.8999 209.3 38.3999 208.3 38.7999C207.3 39.1999 206.2 39.3999 205 39.3999C203.3 39.3999 201.8 38.7999 200.5 37.5999C199.2 36.3999 198.6 34.7999 198.6 32.8999C198.6 31.0999 199.2 29.2999 200.3 27.4999C201.4 25.6999 202.9 24.0999 204.8 22.6999C206.7 21.2999 208.9 20.0999 211.4 19.1999C213.9 18.2999 216.4 17.7999 219 17.7999C221.5 17.7999 223.6 18.0999 225.3 18.7999C227 19.4999 228.4 20.3999 229.4 21.3999C230.4 22.3999 231.1 23.5999 231.5 24.8999C231.9 26.1999 232.1 27.3999 232.1 28.5999C232.1 30.7999 231.7 32.8999 230.9 34.8999C230.1 36.8999 228.5 38.8999 226.1 40.9999C224.4 42.4999 222.4 43.7999 220.2 44.8999C218 45.9999 215.6 47.0999 213 48.1999C210.4 49.2999 207.7 50.4999 204.8 51.7999C201.9 53.0999 198.9 54.6999 195.8 56.5999C193.3 58.0999 191 59.7999 189 61.6999C187 63.5999 185.5 65.4999 184.4 67.3999C186.8 65.8999 189.1 64.6999 191.2 63.8999C193.3 63.0999 195.3 62.6999 197.2 62.6999C198.5 62.6999 199.8 62.8999 201.1 63.3999C202.4 63.8999 203.7 64.3999 205 64.9999C206.3 65.5999 207.6 66.0999 208.8 66.5999C210 67.0999 211.3 67.2999 212.6 67.2999C214.3 67.2999 215.7 66.9999 216.9 66.3999C218.1 65.7999 219.1 64.9999 219.9 63.9999C220.7 62.9999 221.3 61.7999 221.6 60.4999C221.9 59.1999 222.1 57.7999 222.1 56.2999C222.1 55.6999 222.3 55.3999 222.6 55.3999C222.9 55.3999 223.1 55.6999 223.2 56.1999C223.3 56.6999 223.4 57.2999 223.4 57.9999C223.4 59.7999 223 61.4999 222.2 63.1999C221.4 64.8999 220.3 66.3999 218.9 67.6999C217.5 68.9999 215.8 69.9999 213.9 70.7999C212 71.5999 209.9 71.9999 207.6 71.9999C205.5 71.9999 203.7 71.6999 202.2 71.0999C200.7 70.4999 199.4 69.8999 198.2 69.2999C197 68.6999 195.9 68.0999 194.9 67.4999C193.9 66.8999 192.8 66.5999 191.6 66.5999C190.3 66.5999 189.2 66.7999 188.2 67.1999C187.2 67.5999 186.4 67.9999 185.7 68.3999C185 68.7999 184.4 69.1999 183.9 69.5999C183.4 69.9999 183.1 70.1999 182.9 70.1999C182.8 70.1999 182.7 70.1999 182.6 70.0999C182.5 69.9999 182.4 69.7999 182.4 69.4999C182.4 68.7999 182.8 67.5999 183.7 65.9999C184.6 64.3999 185.8 62.7999 187.3 61.2999C190 58.5999 192.8 56.2999 195.8 54.2999C198.8 52.2999 201.7 50.4999 204.6 48.8999C207.5 47.2999 210.2 45.7999 212.8 44.3999C215.4 42.9999 217.7 41.4999 219.6 39.9999C221.5 38.4999 223.1 36.7999 224.3 34.8999C225.5 32.9999 226.1 30.6999 226.1 28.0999C226.1 25.5999 225.4 23.4999 224 21.6999C222.6 19.8999 220.5 18.9999 217.6 18.9999C216.1 18.9999 214.6 19.2999 213.1 19.8999C211.6 20.4999 210.3 21.3999 209.1 22.4999C207.9 23.5999 206.9 24.8999 206.2 26.3999C205.5 27.8999 205.1 29.4999 205.1 31.1999C205.1 33.2999 205.5 34.6999 206.3 35.3999C207.1 36.0999 207.9 36.4999 208.6 36.4999Z"/>
<path d="M93.9256 41.3085V44.7265H84.2577V69.9999H80.3124V44.7265H70.6444V41.3085H93.9256Z"/>
<path d="M107.658 58.2421L103.302 45.5663L98.6733 58.2421H107.658ZM101.271 41.3085H105.665L116.076 69.9999H111.818L108.908 61.4062H97.56L94.4546 69.9999H90.4702L101.271 41.3085Z"/>
<path d="M130.413 40.5663C133.108 40.5663 135.439 41.0871 137.405 42.1288C140.257 43.6262 142.002 46.2499 142.64 49.9999H138.792C138.323 47.9036 137.353 46.3801 135.882 45.4296C134.411 44.4661 132.555 43.9843 130.315 43.9843C127.659 43.9843 125.42 44.9804 123.597 46.9726C121.787 48.9647 120.882 51.9335 120.882 55.8788C120.882 59.2903 121.631 62.0702 123.128 64.2187C124.625 66.3541 127.067 67.4218 130.452 67.4218C133.043 67.4218 135.185 66.6731 136.878 65.1757C138.584 63.6653 139.456 61.2304 139.495 57.871H130.511V54.6483H143.108V69.9999H140.608L139.671 66.3085C138.356 67.7538 137.19 68.7564 136.175 69.3163C134.469 70.2799 132.301 70.7616 129.671 70.7616C126.273 70.7616 123.349 69.6614 120.901 67.4608C118.232 64.7004 116.898 60.9114 116.898 56.0937C116.898 51.289 118.2 47.4674 120.804 44.6288C123.278 41.9205 126.481 40.5663 130.413 40.5663Z"/>
<path d="M147.915 41.3085H168.833V44.8241H151.704V53.5351H167.544V56.8554H151.704V66.5819H169.126V69.9999H147.915V41.3085Z"/>
</mask>
<path d="M6.19986 66.4199C6.19986 69.1499 9.83986 69.2199 12.0799 69.2199C28.9499 69.2199 63.1099 52.3499 63.1099 41.7799C63.1099 37.4399 57.2999 34.8499 50.4399 32.9599C42.0399 30.6499 32.5199 29.3899 32.5199 23.2299C32.5199 11.4699 55.1299 2.0899 65.3499 1.73991C71.7199 1.5299 75.9899 3.0699 75.9199 8.4599C75.7799 16.7899 63.5999 25.8199 56.1799 25.8199C54.7799 25.8199 52.6799 25.2599 52.6799 23.7199C52.6799 20.8499 55.4099 17.8399 56.8099 16.9999C55.7599 18.1899 55.3399 19.6599 55.3399 20.6399C55.3399 21.0599 55.7599 21.0599 56.1799 21.0599C59.0499 21.0599 72.6999 13.2199 73.6099 6.8499C73.9599 4.60991 72.0699 3.97991 69.4099 3.97991C68.6399 3.97991 67.7299 4.0499 66.8199 4.1199C57.8599 5.0999 37.2799 16.6499 37.2799 23.8599C37.2799 27.9199 43.9999 29.6699 51.0699 31.6299C58.9799 33.7999 67.1699 36.3899 67.1699 44.1599C67.1699 59.4899 32.3099 74.4699 13.1999 74.4699C8.57986 74.4699 1.85986 73.1399 1.85986 67.6099C1.85986 57.2499 33.4999 40.5199 42.5299 40.7299C23.9799 45.7699 6.19986 61.2399 6.19986 66.4199Z" fill="url(#paint0_linear_708_1299)"/>
<path d="M208.6 36.4999L207.8 36.7999C208.6 36.7999 209.3 36.5999 209.9 36.2999C210.5 35.9999 211 35.5999 211.4 35.1999C211.8 34.7999 212.2 34.3999 212.5 34.0999C212.8 33.7999 213 33.5999 213.1 33.5999C213.3 33.5999 213.4 33.6999 213.4 33.9999C213.4 34.3999 213.2 34.8999 212.8 35.4999C212.4 36.0999 211.8 36.6999 211 37.2999C210.2 37.8999 209.3 38.3999 208.3 38.7999C207.3 39.1999 206.2 39.3999 205 39.3999C203.3 39.3999 201.8 38.7999 200.5 37.5999C199.2 36.3999 198.6 34.7999 198.6 32.8999C198.6 31.0999 199.2 29.2999 200.3 27.4999C201.4 25.6999 202.9 24.0999 204.8 22.6999C206.7 21.2999 208.9 20.0999 211.4 19.1999C213.9 18.2999 216.4 17.7999 219 17.7999C221.5 17.7999 223.6 18.0999 225.3 18.7999C227 19.4999 228.4 20.3999 229.4 21.3999C230.4 22.3999 231.1 23.5999 231.5 24.8999C231.9 26.1999 232.1 27.3999 232.1 28.5999C232.1 30.7999 231.7 32.8999 230.9 34.8999C230.1 36.8999 228.5 38.8999 226.1 40.9999C224.4 42.4999 222.4 43.7999 220.2 44.8999C218 45.9999 215.6 47.0999 213 48.1999C210.4 49.2999 207.7 50.4999 204.8 51.7999C201.9 53.0999 198.9 54.6999 195.8 56.5999C193.3 58.0999 191 59.7999 189 61.6999C187 63.5999 185.5 65.4999 184.4 67.3999C186.8 65.8999 189.1 64.6999 191.2 63.8999C193.3 63.0999 195.3 62.6999 197.2 62.6999C198.5 62.6999 199.8 62.8999 201.1 63.3999C202.4 63.8999 203.7 64.3999 205 64.9999C206.3 65.5999 207.6 66.0999 208.8 66.5999C210 67.0999 211.3 67.2999 212.6 67.2999C214.3 67.2999 215.7 66.9999 216.9 66.3999C218.1 65.7999 219.1 64.9999 219.9 63.9999C220.7 62.9999 221.3 61.7999 221.6 60.4999C221.9 59.1999 222.1 57.7999 222.1 56.2999C222.1 55.6999 222.3 55.3999 222.6 55.3999C222.9 55.3999 223.1 55.6999 223.2 56.1999C223.3 56.6999 223.4 57.2999 223.4 57.9999C223.4 59.7999 223 61.4999 222.2 63.1999C221.4 64.8999 220.3 66.3999 218.9 67.6999C217.5 68.9999 215.8 69.9999 213.9 70.7999C212 71.5999 209.9 71.9999 207.6 71.9999C205.5 71.9999 203.7 71.6999 202.2 71.0999C200.7 70.4999 199.4 69.8999 198.2 69.2999C197 68.6999 195.9 68.0999 194.9 67.4999C193.9 66.8999 192.8 66.5999 191.6 66.5999C190.3 66.5999 189.2 66.7999 188.2 67.1999C187.2 67.5999 186.4 67.9999 185.7 68.3999C185 68.7999 184.4 69.1999 183.9 69.5999C183.4 69.9999 183.1 70.1999 182.9 70.1999C182.8 70.1999 182.7 70.1999 182.6 70.0999C182.5 69.9999 182.4 69.7999 182.4 69.4999C182.4 68.7999 182.8 67.5999 183.7 65.9999C184.6 64.3999 185.8 62.7999 187.3 61.2999C190 58.5999 192.8 56.2999 195.8 54.2999C198.8 52.2999 201.7 50.4999 204.6 48.8999C207.5 47.2999 210.2 45.7999 212.8 44.3999C215.4 42.9999 217.7 41.4999 219.6 39.9999C221.5 38.4999 223.1 36.7999 224.3 34.8999C225.5 32.9999 226.1 30.6999 226.1 28.0999C226.1 25.5999 225.4 23.4999 224 21.6999C222.6 19.8999 220.5 18.9999 217.6 18.9999C216.1 18.9999 214.6 19.2999 213.1 19.8999C211.6 20.4999 210.3 21.3999 209.1 22.4999C207.9 23.5999 206.9 24.8999 206.2 26.3999C205.5 27.8999 205.1 29.4999 205.1 31.1999C205.1 33.2999 205.5 34.6999 206.3 35.3999C207.1 36.0999 207.9 36.4999 208.6 36.4999Z" fill="url(#paint1_linear_708_1299)"/>
<path d="M93.9256 41.3085V44.7265H84.2577V69.9999H80.3124V44.7265H70.6444V41.3085H93.9256Z" fill="url(#paint2_linear_708_1299)"/>
<path d="M107.658 58.2421L103.302 45.5663L98.6733 58.2421H107.658ZM101.271 41.3085H105.665L116.076 69.9999H111.818L108.908 61.4062H97.56L94.4546 69.9999H90.4702L101.271 41.3085Z" fill="url(#paint3_linear_708_1299)"/>
<path d="M130.413 40.5663C133.108 40.5663 135.439 41.0871 137.405 42.1288C140.257 43.6262 142.002 46.2499 142.64 49.9999H138.792C138.323 47.9036 137.353 46.3801 135.882 45.4296C134.411 44.4661 132.555 43.9843 130.315 43.9843C127.659 43.9843 125.42 44.9804 123.597 46.9726C121.787 48.9647 120.882 51.9335 120.882 55.8788C120.882 59.2903 121.631 62.0702 123.128 64.2187C124.625 66.3541 127.067 67.4218 130.452 67.4218C133.043 67.4218 135.185 66.6731 136.878 65.1757C138.584 63.6653 139.456 61.2304 139.495 57.871H130.511V54.6483H143.108V69.9999H140.608L139.671 66.3085C138.356 67.7538 137.19 68.7564 136.175 69.3163C134.469 70.2799 132.301 70.7616 129.671 70.7616C126.273 70.7616 123.349 69.6614 120.901 67.4608C118.232 64.7004 116.898 60.9114 116.898 56.0937C116.898 51.289 118.2 47.4674 120.804 44.6288C123.278 41.9205 126.481 40.5663 130.413 40.5663Z" fill="url(#paint4_linear_708_1299)"/>
<path d="M147.915 41.3085H168.833V44.8241H151.704V53.5351H167.544V56.8554H151.704V66.5819H169.126V69.9999H147.915V41.3085Z" fill="url(#paint5_linear_708_1299)"/>
<path d="M6.19986 66.4199C6.19986 69.1499 9.83986 69.2199 12.0799 69.2199C28.9499 69.2199 63.1099 52.3499 63.1099 41.7799C63.1099 37.4399 57.2999 34.8499 50.4399 32.9599C42.0399 30.6499 32.5199 29.3899 32.5199 23.2299C32.5199 11.4699 55.1299 2.0899 65.3499 1.73991C71.7199 1.5299 75.9899 3.0699 75.9199 8.4599C75.7799 16.7899 63.5999 25.8199 56.1799 25.8199C54.7799 25.8199 52.6799 25.2599 52.6799 23.7199C52.6799 20.8499 55.4099 17.8399 56.8099 16.9999C55.7599 18.1899 55.3399 19.6599 55.3399 20.6399C55.3399 21.0599 55.7599 21.0599 56.1799 21.0599C59.0499 21.0599 72.6999 13.2199 73.6099 6.8499C73.9599 4.60991 72.0699 3.97991 69.4099 3.97991C68.6399 3.97991 67.7299 4.0499 66.8199 4.1199C57.8599 5.0999 37.2799 16.6499 37.2799 23.8599C37.2799 27.9199 43.9999 29.6699 51.0699 31.6299C58.9799 33.7999 67.1699 36.3899 67.1699 44.1599C67.1699 59.4899 32.3099 74.4699 13.1999 74.4699C8.57986 74.4699 1.85986 73.1399 1.85986 67.6099C1.85986 57.2499 33.4999 40.5199 42.5299 40.7299C23.9799 45.7699 6.19986 61.2399 6.19986 66.4199Z" stroke="black" stroke-width="2" mask="url(#path-1-outside-1_708_1299)"/>
<path d="M208.6 36.4999L207.8 36.7999C208.6 36.7999 209.3 36.5999 209.9 36.2999C210.5 35.9999 211 35.5999 211.4 35.1999C211.8 34.7999 212.2 34.3999 212.5 34.0999C212.8 33.7999 213 33.5999 213.1 33.5999C213.3 33.5999 213.4 33.6999 213.4 33.9999C213.4 34.3999 213.2 34.8999 212.8 35.4999C212.4 36.0999 211.8 36.6999 211 37.2999C210.2 37.8999 209.3 38.3999 208.3 38.7999C207.3 39.1999 206.2 39.3999 205 39.3999C203.3 39.3999 201.8 38.7999 200.5 37.5999C199.2 36.3999 198.6 34.7999 198.6 32.8999C198.6 31.0999 199.2 29.2999 200.3 27.4999C201.4 25.6999 202.9 24.0999 204.8 22.6999C206.7 21.2999 208.9 20.0999 211.4 19.1999C213.9 18.2999 216.4 17.7999 219 17.7999C221.5 17.7999 223.6 18.0999 225.3 18.7999C227 19.4999 228.4 20.3999 229.4 21.3999C230.4 22.3999 231.1 23.5999 231.5 24.8999C231.9 26.1999 232.1 27.3999 232.1 28.5999C232.1 30.7999 231.7 32.8999 230.9 34.8999C230.1 36.8999 228.5 38.8999 226.1 40.9999C224.4 42.4999 222.4 43.7999 220.2 44.8999C218 45.9999 215.6 47.0999 213 48.1999C210.4 49.2999 207.7 50.4999 204.8 51.7999C201.9 53.0999 198.9 54.6999 195.8 56.5999C193.3 58.0999 191 59.7999 189 61.6999C187 63.5999 185.5 65.4999 184.4 67.3999C186.8 65.8999 189.1 64.6999 191.2 63.8999C193.3 63.0999 195.3 62.6999 197.2 62.6999C198.5 62.6999 199.8 62.8999 201.1 63.3999C202.4 63.8999 203.7 64.3999 205 64.9999C206.3 65.5999 207.6 66.0999 208.8 66.5999C210 67.0999 211.3 67.2999 212.6 67.2999C214.3 67.2999 215.7 66.9999 216.9 66.3999C218.1 65.7999 219.1 64.9999 219.9 63.9999C220.7 62.9999 221.3 61.7999 221.6 60.4999C221.9 59.1999 222.1 57.7999 222.1 56.2999C222.1 55.6999 222.3 55.3999 222.6 55.3999C222.9 55.3999 223.1 55.6999 223.2 56.1999C223.3 56.6999 223.4 57.2999 223.4 57.9999C223.4 59.7999 223 61.4999 222.2 63.1999C221.4 64.8999 220.3 66.3999 218.9 67.6999C217.5 68.9999 215.8 69.9999 213.9 70.7999C212 71.5999 209.9 71.9999 207.6 71.9999C205.5 71.9999 203.7 71.6999 202.2 71.0999C200.7 70.4999 199.4 69.8999 198.2 69.2999C197 68.6999 195.9 68.0999 194.9 67.4999C193.9 66.8999 192.8 66.5999 191.6 66.5999C190.3 66.5999 189.2 66.7999 188.2 67.1999C187.2 67.5999 186.4 67.9999 185.7 68.3999C185 68.7999 184.4 69.1999 183.9 69.5999C183.4 69.9999 183.1 70.1999 182.9 70.1999C182.8 70.1999 182.7 70.1999 182.6 70.0999C182.5 69.9999 182.4 69.7999 182.4 69.4999C182.4 68.7999 182.8 67.5999 183.7 65.9999C184.6 64.3999 185.8 62.7999 187.3 61.2999C190 58.5999 192.8 56.2999 195.8 54.2999C198.8 52.2999 201.7 50.4999 204.6 48.8999C207.5 47.2999 210.2 45.7999 212.8 44.3999C215.4 42.9999 217.7 41.4999 219.6 39.9999C221.5 38.4999 223.1 36.7999 224.3 34.8999C225.5 32.9999 226.1 30.6999 226.1 28.0999C226.1 25.5999 225.4 23.4999 224 21.6999C222.6 19.8999 220.5 18.9999 217.6 18.9999C216.1 18.9999 214.6 19.2999 213.1 19.8999C211.6 20.4999 210.3 21.3999 209.1 22.4999C207.9 23.5999 206.9 24.8999 206.2 26.3999C205.5 27.8999 205.1 29.4999 205.1 31.1999C205.1 33.2999 205.5 34.6999 206.3 35.3999C207.1 36.0999 207.9 36.4999 208.6 36.4999Z" stroke="black" stroke-width="2" mask="url(#path-1-outside-1_708_1299)"/>
<path d="M93.9256 41.3085V44.7265H84.2577V69.9999H80.3124V44.7265H70.6444V41.3085H93.9256Z" stroke="black" stroke-width="2" mask="url(#path-1-outside-1_708_1299)"/>
<path d="M107.658 58.2421L103.302 45.5663L98.6733 58.2421H107.658ZM101.271 41.3085H105.665L116.076 69.9999H111.818L108.908 61.4062H97.56L94.4546 69.9999H90.4702L101.271 41.3085Z" stroke="black" stroke-width="2" mask="url(#path-1-outside-1_708_1299)"/>
<path d="M130.413 40.5663C133.108 40.5663 135.439 41.0871 137.405 42.1288C140.257 43.6262 142.002 46.2499 142.64 49.9999H138.792C138.323 47.9036 137.353 46.3801 135.882 45.4296C134.411 44.4661 132.555 43.9843 130.315 43.9843C127.659 43.9843 125.42 44.9804 123.597 46.9726C121.787 48.9647 120.882 51.9335 120.882 55.8788C120.882 59.2903 121.631 62.0702 123.128 64.2187C124.625 66.3541 127.067 67.4218 130.452 67.4218C133.043 67.4218 135.185 66.6731 136.878 65.1757C138.584 63.6653 139.456 61.2304 139.495 57.871H130.511V54.6483H143.108V69.9999H140.608L139.671 66.3085C138.356 67.7538 137.19 68.7564 136.175 69.3163C134.469 70.2799 132.301 70.7616 129.671 70.7616C126.273 70.7616 123.349 69.6614 120.901 67.4608C118.232 64.7004 116.898 60.9114 116.898 56.0937C116.898 51.289 118.2 47.4674 120.804 44.6288C123.278 41.9205 126.481 40.5663 130.413 40.5663Z" stroke="black" stroke-width="2" mask="url(#path-1-outside-1_708_1299)"/>
<path d="M147.915 41.3085H168.833V44.8241H151.704V53.5351H167.544V56.8554H151.704V66.5819H169.126V69.9999H147.915V41.3085Z" stroke="black" stroke-width="2" mask="url(#path-1-outside-1_708_1299)"/>
<defs>
<linearGradient id="paint0_linear_708_1299" x1="121" y1="28" x2="121" y2="84" gradientUnits="userSpaceOnUse">
<stop stop-color="#E5FFB0"/>
<stop offset="1" stop-color="#ABFF00"/>
</linearGradient>
<linearGradient id="paint1_linear_708_1299" x1="121" y1="28" x2="121" y2="84" gradientUnits="userSpaceOnUse">
<stop stop-color="#E5FFB0"/>
<stop offset="1" stop-color="#ABFF00"/>
</linearGradient>
<linearGradient id="paint2_linear_708_1299" x1="121" y1="28" x2="121" y2="84" gradientUnits="userSpaceOnUse">
<stop stop-color="#E5FFB0"/>
<stop offset="1" stop-color="#ABFF00"/>
</linearGradient>
<linearGradient id="paint3_linear_708_1299" x1="121" y1="28" x2="121" y2="84" gradientUnits="userSpaceOnUse">
<stop stop-color="#E5FFB0"/>
<stop offset="1" stop-color="#ABFF00"/>
</linearGradient>
<linearGradient id="paint4_linear_708_1299" x1="121" y1="28" x2="121" y2="84" gradientUnits="userSpaceOnUse">
<stop stop-color="#E5FFB0"/>
<stop offset="1" stop-color="#ABFF00"/>
</linearGradient>
<linearGradient id="paint5_linear_708_1299" x1="121" y1="28" x2="121" y2="84" gradientUnits="userSpaceOnUse">
<stop stop-color="#E5FFB0"/>
<stop offset="1" stop-color="#ABFF00"/>
</linearGradient>
</defs>
</svg>
