<svg width="235" height="76" viewBox="0 0 235 76" fill="none" xmlns="http://www.w3.org/2000/svg">
<mask id="path-1-outside-1_708_1303" maskUnits="userSpaceOnUse" x="0.859863" y="0.721436" width="234" height="75" fill="black">
<rect fill="white" x="0.859863" y="0.721436" width="234" height="75"/>
<path d="M6.19986 66.4199C6.19986 69.1499 9.83986 69.2199 12.0799 69.2199C28.9499 69.2199 63.1099 52.3499 63.1099 41.7799C63.1099 37.4399 57.2999 34.8499 50.4399 32.9599C42.0399 30.6499 32.5199 29.3899 32.5199 23.2299C32.5199 11.4699 55.1299 2.0899 65.3499 1.73991C71.7199 1.5299 75.9899 3.0699 75.9199 8.4599C75.7799 16.7899 63.5999 25.8199 56.1799 25.8199C54.7799 25.8199 52.6799 25.2599 52.6799 23.7199C52.6799 20.8499 55.4099 17.8399 56.8099 16.9999C55.7599 18.1899 55.3399 19.6599 55.3399 20.6399C55.3399 21.0599 55.7599 21.0599 56.1799 21.0599C59.0499 21.0599 72.6999 13.2199 73.6099 6.8499C73.9599 4.60991 72.0699 3.97991 69.4099 3.97991C68.6399 3.97991 67.7299 4.0499 66.8199 4.1199C57.8599 5.0999 37.2799 16.6499 37.2799 23.8599C37.2799 27.9199 43.9999 29.6699 51.0699 31.6299C58.9799 33.7999 67.1699 36.3899 67.1699 44.1599C67.1699 59.4899 32.3099 74.4699 13.1999 74.4699C8.57986 74.4699 1.85986 73.1399 1.85986 67.6099C1.85986 57.2499 33.4999 40.5199 42.5299 40.7299C23.9799 45.7699 6.19986 61.2399 6.19986 66.4199Z"/>
<path d="M208.9 57.8999L208.2 57.6999C205.2 56.8999 202 55.9999 198.7 54.9999C195.4 53.9999 192.5 53.2999 190 52.9999C189.3 53.2999 188.7 53.4999 188.2 53.5999C187.7 53.6999 187.3 53.7999 186.9 53.7999C186.6 53.7999 186.3 53.6999 186 53.5999C185.7 53.4999 185.6 53.2999 185.6 52.9999C185.6 52.6999 186 52.2999 186.7 51.7999C187.4 51.2999 188.5 50.9999 190 50.8999C191.7 49.8999 193.7 48.5999 196 46.9999C198.3 45.3999 200.7 43.5999 203.2 41.5999C205.7 39.5999 208.3 37.4999 211 35.3999C213.7 33.2999 216.2 31.1999 218.6 29.0999C221 26.9999 223.2 24.9999 225.2 23.0999C227.2 21.1999 228.8 19.4999 229.9 17.9999C230.2 17.5999 230.6 17.0999 231 16.5999C231.4 16.0999 231.8 15.7999 232.1 15.7999C232.5 15.7999 232.8 15.8999 232.9 16.1999C233 16.4999 233.1 16.7999 233.1 17.0999C233.1 17.5999 232.7 18.9999 231.8 21.2999C230.9 23.5999 229.7 26.3999 228.2 29.7999C226.7 33.1999 225 36.8999 223.1 40.9999C221.2 45.0999 219.3 49.1999 217.4 53.2999C220.1 53.2999 222.3 53.0999 224 52.6999C225.7 52.2999 227.1 51.6999 228.1 50.9999C229.1 50.2999 229.9 49.3999 230.4 48.3999C230.9 47.3999 231.4 46.2999 231.8 45.0999C232.1 44.2999 232.4 43.8999 232.7 43.8999C233 43.8999 233.1 44.0999 233.1 44.4999C233.1 45.3999 232.8 46.6999 232.3 48.2999C231.8 49.8999 230.9 51.4999 229.6 53.0999C228.3 54.6999 226.6 56.0999 224.5 57.2999C222.4 58.4999 219.7 59.0999 216.5 59.0999H215.7C215.4 59.0999 215.1 59.0999 214.8 58.9999C214.2 60.2999 213.6 61.5999 213 62.8999C212.4 64.1999 211.9 65.3999 211.4 66.4999C210.8 67.7999 210.1 68.6999 209.4 69.2999C208.7 69.8999 207.7 70.1999 206.4 70.1999C204.7 70.1999 203.9 69.6999 203.9 68.6999C203.9 68.3999 204 68.0999 204.1 67.7999C204.2 67.4999 204.4 66.9999 204.7 66.2999C205 65.5999 205.5 64.5999 206.2 63.2999L208.9 57.8999ZM192.9 51.3999L193.3 51.2999C195.7 51.3999 198.4 51.6999 201.4 52.0999C204.4 52.4999 207.6 52.7999 211 52.9999C212.2 50.6999 213.5 48.1999 214.9 45.4999C216.3 42.7999 217.7 40.0999 219.1 37.4999C220.5 34.8999 221.8 32.3999 223 30.0999C224.2 27.7999 225.2 25.8999 225.9 24.3999C224.2 26.2999 221.9 28.4999 219.1 30.9999C216.3 33.4999 213.4 35.9999 210.3 38.4999C207.2 40.9999 204.1 43.3999 201 45.6999C197.9 47.9999 195.2 49.8999 192.9 51.3999Z"/>
<path d="M93.9256 41.3085V44.7265H84.2577V69.9999H80.3124V44.7265H70.6444V41.3085H93.9256Z"/>
<path d="M107.658 58.2421L103.302 45.5663L98.6733 58.2421H107.658ZM101.271 41.3085H105.665L116.076 69.9999H111.818L108.908 61.4062H97.56L94.4546 69.9999H90.4702L101.271 41.3085Z"/>
<path d="M130.413 40.5663C133.108 40.5663 135.439 41.0871 137.405 42.1288C140.257 43.6262 142.002 46.2499 142.64 49.9999H138.792C138.323 47.9036 137.353 46.3801 135.882 45.4296C134.411 44.4661 132.555 43.9843 130.315 43.9843C127.659 43.9843 125.42 44.9804 123.597 46.9726C121.787 48.9647 120.882 51.9335 120.882 55.8788C120.882 59.2903 121.631 62.0702 123.128 64.2187C124.625 66.3541 127.067 67.4218 130.452 67.4218C133.043 67.4218 135.185 66.6731 136.878 65.1757C138.584 63.6653 139.456 61.2304 139.495 57.871H130.511V54.6483H143.108V69.9999H140.608L139.671 66.3085C138.356 67.7538 137.19 68.7564 136.175 69.3163C134.469 70.2799 132.301 70.7616 129.671 70.7616C126.273 70.7616 123.349 69.6614 120.901 67.4608C118.232 64.7004 116.898 60.9114 116.898 56.0937C116.898 51.289 118.2 47.4674 120.804 44.6288C123.278 41.9205 126.481 40.5663 130.413 40.5663Z"/>
<path d="M147.915 41.3085H168.833V44.8241H151.704V53.5351H167.544V56.8554H151.704V66.5819H169.126V69.9999H147.915V41.3085Z"/>
</mask>
<path d="M6.19986 66.4199C6.19986 69.1499 9.83986 69.2199 12.0799 69.2199C28.9499 69.2199 63.1099 52.3499 63.1099 41.7799C63.1099 37.4399 57.2999 34.8499 50.4399 32.9599C42.0399 30.6499 32.5199 29.3899 32.5199 23.2299C32.5199 11.4699 55.1299 2.0899 65.3499 1.73991C71.7199 1.5299 75.9899 3.0699 75.9199 8.4599C75.7799 16.7899 63.5999 25.8199 56.1799 25.8199C54.7799 25.8199 52.6799 25.2599 52.6799 23.7199C52.6799 20.8499 55.4099 17.8399 56.8099 16.9999C55.7599 18.1899 55.3399 19.6599 55.3399 20.6399C55.3399 21.0599 55.7599 21.0599 56.1799 21.0599C59.0499 21.0599 72.6999 13.2199 73.6099 6.8499C73.9599 4.60991 72.0699 3.97991 69.4099 3.97991C68.6399 3.97991 67.7299 4.0499 66.8199 4.1199C57.8599 5.0999 37.2799 16.6499 37.2799 23.8599C37.2799 27.9199 43.9999 29.6699 51.0699 31.6299C58.9799 33.7999 67.1699 36.3899 67.1699 44.1599C67.1699 59.4899 32.3099 74.4699 13.1999 74.4699C8.57986 74.4699 1.85986 73.1399 1.85986 67.6099C1.85986 57.2499 33.4999 40.5199 42.5299 40.7299C23.9799 45.7699 6.19986 61.2399 6.19986 66.4199Z" fill="url(#paint0_linear_708_1303)"/>
<path d="M208.9 57.8999L208.2 57.6999C205.2 56.8999 202 55.9999 198.7 54.9999C195.4 53.9999 192.5 53.2999 190 52.9999C189.3 53.2999 188.7 53.4999 188.2 53.5999C187.7 53.6999 187.3 53.7999 186.9 53.7999C186.6 53.7999 186.3 53.6999 186 53.5999C185.7 53.4999 185.6 53.2999 185.6 52.9999C185.6 52.6999 186 52.2999 186.7 51.7999C187.4 51.2999 188.5 50.9999 190 50.8999C191.7 49.8999 193.7 48.5999 196 46.9999C198.3 45.3999 200.7 43.5999 203.2 41.5999C205.7 39.5999 208.3 37.4999 211 35.3999C213.7 33.2999 216.2 31.1999 218.6 29.0999C221 26.9999 223.2 24.9999 225.2 23.0999C227.2 21.1999 228.8 19.4999 229.9 17.9999C230.2 17.5999 230.6 17.0999 231 16.5999C231.4 16.0999 231.8 15.7999 232.1 15.7999C232.5 15.7999 232.8 15.8999 232.9 16.1999C233 16.4999 233.1 16.7999 233.1 17.0999C233.1 17.5999 232.7 18.9999 231.8 21.2999C230.9 23.5999 229.7 26.3999 228.2 29.7999C226.7 33.1999 225 36.8999 223.1 40.9999C221.2 45.0999 219.3 49.1999 217.4 53.2999C220.1 53.2999 222.3 53.0999 224 52.6999C225.7 52.2999 227.1 51.6999 228.1 50.9999C229.1 50.2999 229.9 49.3999 230.4 48.3999C230.9 47.3999 231.4 46.2999 231.8 45.0999C232.1 44.2999 232.4 43.8999 232.7 43.8999C233 43.8999 233.1 44.0999 233.1 44.4999C233.1 45.3999 232.8 46.6999 232.3 48.2999C231.8 49.8999 230.9 51.4999 229.6 53.0999C228.3 54.6999 226.6 56.0999 224.5 57.2999C222.4 58.4999 219.7 59.0999 216.5 59.0999H215.7C215.4 59.0999 215.1 59.0999 214.8 58.9999C214.2 60.2999 213.6 61.5999 213 62.8999C212.4 64.1999 211.9 65.3999 211.4 66.4999C210.8 67.7999 210.1 68.6999 209.4 69.2999C208.7 69.8999 207.7 70.1999 206.4 70.1999C204.7 70.1999 203.9 69.6999 203.9 68.6999C203.9 68.3999 204 68.0999 204.1 67.7999C204.2 67.4999 204.4 66.9999 204.7 66.2999C205 65.5999 205.5 64.5999 206.2 63.2999L208.9 57.8999ZM192.9 51.3999L193.3 51.2999C195.7 51.3999 198.4 51.6999 201.4 52.0999C204.4 52.4999 207.6 52.7999 211 52.9999C212.2 50.6999 213.5 48.1999 214.9 45.4999C216.3 42.7999 217.7 40.0999 219.1 37.4999C220.5 34.8999 221.8 32.3999 223 30.0999C224.2 27.7999 225.2 25.8999 225.9 24.3999C224.2 26.2999 221.9 28.4999 219.1 30.9999C216.3 33.4999 213.4 35.9999 210.3 38.4999C207.2 40.9999 204.1 43.3999 201 45.6999C197.9 47.9999 195.2 49.8999 192.9 51.3999Z" fill="url(#paint1_linear_708_1303)"/>
<path d="M93.9256 41.3085V44.7265H84.2577V69.9999H80.3124V44.7265H70.6444V41.3085H93.9256Z" fill="url(#paint2_linear_708_1303)"/>
<path d="M107.658 58.2421L103.302 45.5663L98.6733 58.2421H107.658ZM101.271 41.3085H105.665L116.076 69.9999H111.818L108.908 61.4062H97.56L94.4546 69.9999H90.4702L101.271 41.3085Z" fill="url(#paint3_linear_708_1303)"/>
<path d="M130.413 40.5663C133.108 40.5663 135.439 41.0871 137.405 42.1288C140.257 43.6262 142.002 46.2499 142.64 49.9999H138.792C138.323 47.9036 137.353 46.3801 135.882 45.4296C134.411 44.4661 132.555 43.9843 130.315 43.9843C127.659 43.9843 125.42 44.9804 123.597 46.9726C121.787 48.9647 120.882 51.9335 120.882 55.8788C120.882 59.2903 121.631 62.0702 123.128 64.2187C124.625 66.3541 127.067 67.4218 130.452 67.4218C133.043 67.4218 135.185 66.6731 136.878 65.1757C138.584 63.6653 139.456 61.2304 139.495 57.871H130.511V54.6483H143.108V69.9999H140.608L139.671 66.3085C138.356 67.7538 137.19 68.7564 136.175 69.3163C134.469 70.2799 132.301 70.7616 129.671 70.7616C126.273 70.7616 123.349 69.6614 120.901 67.4608C118.232 64.7004 116.898 60.9114 116.898 56.0937C116.898 51.289 118.2 47.4674 120.804 44.6288C123.278 41.9205 126.481 40.5663 130.413 40.5663Z" fill="url(#paint4_linear_708_1303)"/>
<path d="M147.915 41.3085H168.833V44.8241H151.704V53.5351H167.544V56.8554H151.704V66.5819H169.126V69.9999H147.915V41.3085Z" fill="url(#paint5_linear_708_1303)"/>
<path d="M6.19986 66.4199C6.19986 69.1499 9.83986 69.2199 12.0799 69.2199C28.9499 69.2199 63.1099 52.3499 63.1099 41.7799C63.1099 37.4399 57.2999 34.8499 50.4399 32.9599C42.0399 30.6499 32.5199 29.3899 32.5199 23.2299C32.5199 11.4699 55.1299 2.0899 65.3499 1.73991C71.7199 1.5299 75.9899 3.0699 75.9199 8.4599C75.7799 16.7899 63.5999 25.8199 56.1799 25.8199C54.7799 25.8199 52.6799 25.2599 52.6799 23.7199C52.6799 20.8499 55.4099 17.8399 56.8099 16.9999C55.7599 18.1899 55.3399 19.6599 55.3399 20.6399C55.3399 21.0599 55.7599 21.0599 56.1799 21.0599C59.0499 21.0599 72.6999 13.2199 73.6099 6.8499C73.9599 4.60991 72.0699 3.97991 69.4099 3.97991C68.6399 3.97991 67.7299 4.0499 66.8199 4.1199C57.8599 5.0999 37.2799 16.6499 37.2799 23.8599C37.2799 27.9199 43.9999 29.6699 51.0699 31.6299C58.9799 33.7999 67.1699 36.3899 67.1699 44.1599C67.1699 59.4899 32.3099 74.4699 13.1999 74.4699C8.57986 74.4699 1.85986 73.1399 1.85986 67.6099C1.85986 57.2499 33.4999 40.5199 42.5299 40.7299C23.9799 45.7699 6.19986 61.2399 6.19986 66.4199Z" stroke="black" stroke-width="2" mask="url(#path-1-outside-1_708_1303)"/>
<path d="M208.9 57.8999L208.2 57.6999C205.2 56.8999 202 55.9999 198.7 54.9999C195.4 53.9999 192.5 53.2999 190 52.9999C189.3 53.2999 188.7 53.4999 188.2 53.5999C187.7 53.6999 187.3 53.7999 186.9 53.7999C186.6 53.7999 186.3 53.6999 186 53.5999C185.7 53.4999 185.6 53.2999 185.6 52.9999C185.6 52.6999 186 52.2999 186.7 51.7999C187.4 51.2999 188.5 50.9999 190 50.8999C191.7 49.8999 193.7 48.5999 196 46.9999C198.3 45.3999 200.7 43.5999 203.2 41.5999C205.7 39.5999 208.3 37.4999 211 35.3999C213.7 33.2999 216.2 31.1999 218.6 29.0999C221 26.9999 223.2 24.9999 225.2 23.0999C227.2 21.1999 228.8 19.4999 229.9 17.9999C230.2 17.5999 230.6 17.0999 231 16.5999C231.4 16.0999 231.8 15.7999 232.1 15.7999C232.5 15.7999 232.8 15.8999 232.9 16.1999C233 16.4999 233.1 16.7999 233.1 17.0999C233.1 17.5999 232.7 18.9999 231.8 21.2999C230.9 23.5999 229.7 26.3999 228.2 29.7999C226.7 33.1999 225 36.8999 223.1 40.9999C221.2 45.0999 219.3 49.1999 217.4 53.2999C220.1 53.2999 222.3 53.0999 224 52.6999C225.7 52.2999 227.1 51.6999 228.1 50.9999C229.1 50.2999 229.9 49.3999 230.4 48.3999C230.9 47.3999 231.4 46.2999 231.8 45.0999C232.1 44.2999 232.4 43.8999 232.7 43.8999C233 43.8999 233.1 44.0999 233.1 44.4999C233.1 45.3999 232.8 46.6999 232.3 48.2999C231.8 49.8999 230.9 51.4999 229.6 53.0999C228.3 54.6999 226.6 56.0999 224.5 57.2999C222.4 58.4999 219.7 59.0999 216.5 59.0999H215.7C215.4 59.0999 215.1 59.0999 214.8 58.9999C214.2 60.2999 213.6 61.5999 213 62.8999C212.4 64.1999 211.9 65.3999 211.4 66.4999C210.8 67.7999 210.1 68.6999 209.4 69.2999C208.7 69.8999 207.7 70.1999 206.4 70.1999C204.7 70.1999 203.9 69.6999 203.9 68.6999C203.9 68.3999 204 68.0999 204.1 67.7999C204.2 67.4999 204.4 66.9999 204.7 66.2999C205 65.5999 205.5 64.5999 206.2 63.2999L208.9 57.8999ZM192.9 51.3999L193.3 51.2999C195.7 51.3999 198.4 51.6999 201.4 52.0999C204.4 52.4999 207.6 52.7999 211 52.9999C212.2 50.6999 213.5 48.1999 214.9 45.4999C216.3 42.7999 217.7 40.0999 219.1 37.4999C220.5 34.8999 221.8 32.3999 223 30.0999C224.2 27.7999 225.2 25.8999 225.9 24.3999C224.2 26.2999 221.9 28.4999 219.1 30.9999C216.3 33.4999 213.4 35.9999 210.3 38.4999C207.2 40.9999 204.1 43.3999 201 45.6999C197.9 47.9999 195.2 49.8999 192.9 51.3999Z" stroke="black" stroke-width="2" mask="url(#path-1-outside-1_708_1303)"/>
<path d="M93.9256 41.3085V44.7265H84.2577V69.9999H80.3124V44.7265H70.6444V41.3085H93.9256Z" stroke="black" stroke-width="2" mask="url(#path-1-outside-1_708_1303)"/>
<path d="M107.658 58.2421L103.302 45.5663L98.6733 58.2421H107.658ZM101.271 41.3085H105.665L116.076 69.9999H111.818L108.908 61.4062H97.56L94.4546 69.9999H90.4702L101.271 41.3085Z" stroke="black" stroke-width="2" mask="url(#path-1-outside-1_708_1303)"/>
<path d="M130.413 40.5663C133.108 40.5663 135.439 41.0871 137.405 42.1288C140.257 43.6262 142.002 46.2499 142.64 49.9999H138.792C138.323 47.9036 137.353 46.3801 135.882 45.4296C134.411 44.4661 132.555 43.9843 130.315 43.9843C127.659 43.9843 125.42 44.9804 123.597 46.9726C121.787 48.9647 120.882 51.9335 120.882 55.8788C120.882 59.2903 121.631 62.0702 123.128 64.2187C124.625 66.3541 127.067 67.4218 130.452 67.4218C133.043 67.4218 135.185 66.6731 136.878 65.1757C138.584 63.6653 139.456 61.2304 139.495 57.871H130.511V54.6483H143.108V69.9999H140.608L139.671 66.3085C138.356 67.7538 137.19 68.7564 136.175 69.3163C134.469 70.2799 132.301 70.7616 129.671 70.7616C126.273 70.7616 123.349 69.6614 120.901 67.4608C118.232 64.7004 116.898 60.9114 116.898 56.0937C116.898 51.289 118.2 47.4674 120.804 44.6288C123.278 41.9205 126.481 40.5663 130.413 40.5663Z" stroke="black" stroke-width="2" mask="url(#path-1-outside-1_708_1303)"/>
<path d="M147.915 41.3085H168.833V44.8241H151.704V53.5351H167.544V56.8554H151.704V66.5819H169.126V69.9999H147.915V41.3085Z" stroke="black" stroke-width="2" mask="url(#path-1-outside-1_708_1303)"/>
<defs>
<linearGradient id="paint0_linear_708_1303" x1="121" y1="28" x2="121" y2="84" gradientUnits="userSpaceOnUse">
<stop stop-color="#E5FFB0"/>
<stop offset="1" stop-color="#ABFF00"/>
</linearGradient>
<linearGradient id="paint1_linear_708_1303" x1="121" y1="28" x2="121" y2="84" gradientUnits="userSpaceOnUse">
<stop stop-color="#E5FFB0"/>
<stop offset="1" stop-color="#ABFF00"/>
</linearGradient>
<linearGradient id="paint2_linear_708_1303" x1="121" y1="28" x2="121" y2="84" gradientUnits="userSpaceOnUse">
<stop stop-color="#E5FFB0"/>
<stop offset="1" stop-color="#ABFF00"/>
</linearGradient>
<linearGradient id="paint3_linear_708_1303" x1="121" y1="28" x2="121" y2="84" gradientUnits="userSpaceOnUse">
<stop stop-color="#E5FFB0"/>
<stop offset="1" stop-color="#ABFF00"/>
</linearGradient>
<linearGradient id="paint4_linear_708_1303" x1="121" y1="28" x2="121" y2="84" gradientUnits="userSpaceOnUse">
<stop stop-color="#E5FFB0"/>
<stop offset="1" stop-color="#ABFF00"/>
</linearGradient>
<linearGradient id="paint5_linear_708_1303" x1="121" y1="28" x2="121" y2="84" gradientUnits="userSpaceOnUse">
<stop stop-color="#E5FFB0"/>
<stop offset="1" stop-color="#ABFF00"/>
</linearGradient>
</defs>
</svg>
