<svg width="226" height="76" viewBox="0 0 226 76" fill="none" xmlns="http://www.w3.org/2000/svg">
<mask id="path-1-outside-1_708_1297" maskUnits="userSpaceOnUse" x="0.859863" y="0.721436" width="225" height="75" fill="black">
<rect fill="white" x="0.859863" y="0.721436" width="225" height="75"/>
<path d="M6.19986 66.4199C6.19986 69.1499 9.83986 69.2199 12.0799 69.2199C28.9499 69.2199 63.1099 52.3499 63.1099 41.7799C63.1099 37.4399 57.2999 34.8499 50.4399 32.9599C42.0399 30.6499 32.5199 29.3899 32.5199 23.2299C32.5199 11.4699 55.1299 2.0899 65.3499 1.73991C71.7199 1.5299 75.9899 3.0699 75.9199 8.4599C75.7799 16.7899 63.5999 25.8199 56.1799 25.8199C54.7799 25.8199 52.6799 25.2599 52.6799 23.7199C52.6799 20.8499 55.4099 17.8399 56.8099 16.9999C55.7599 18.1899 55.3399 19.6599 55.3399 20.6399C55.3399 21.0599 55.7599 21.0599 56.1799 21.0599C59.0499 21.0599 72.6999 13.2199 73.6099 6.8499C73.9599 4.60991 72.0699 3.97991 69.4099 3.97991C68.6399 3.97991 67.7299 4.0499 66.8199 4.1199C57.8599 5.0999 37.2799 16.6499 37.2799 23.8599C37.2799 27.9199 43.9999 29.6699 51.0699 31.6299C58.9799 33.7999 67.1699 36.3899 67.1699 44.1599C67.1699 59.4899 32.3099 74.4699 13.1999 74.4699C8.57986 74.4699 1.85986 73.1399 1.85986 67.6099C1.85986 57.2499 33.4999 40.5199 42.5299 40.7299C23.9799 45.7699 6.19986 61.2399 6.19986 66.4199Z"/>
<path d="M207.7 35.5999H207.3C206.7 35.8999 206 36.2999 205.2 36.6999C204.4 37.0999 203.6 37.4999 202.8 37.8999C202 38.2999 201.2 38.5999 200.4 38.8999C199.6 39.1999 198.9 39.2999 198.2 39.2999C197.5 39.2999 197.1 39.0999 197.1 38.7999C197.2 38.4999 197.5 38.1999 198.1 37.9999C198.7 37.7999 199.6 37.3999 200.7 36.8999C201.8 36.3999 203.2 35.5999 204.9 34.5999C206.6 33.5999 208.5 32.1999 210.7 30.3999C211.7 29.2999 212.8 27.8999 214.1 26.2999C215.4 24.6999 216.7 23.1999 217.9 21.6999C219.1 20.1999 220.2 18.8999 221.2 17.8999C222.2 16.8999 223 16.3999 223.5 16.3999C223.6 16.3999 223.8 16.3999 224 16.4999C224.2 16.5999 224.3 16.8999 224.3 17.3999C224.3 19.2999 223.3 21.3999 221.2 23.7999C219.1 26.1999 216.6 28.7999 213.7 31.5999C211.4 35.6999 209.2 39.4999 207.2 43.0999C205.2 46.6999 203.5 49.9999 202 52.8999C200.5 55.7999 199.4 58.3999 198.6 60.5999C197.8 62.7999 197.4 64.5999 197.4 65.8999C197.4 67.1999 197.8 68.1999 198.5 68.7999C199.2 69.3999 200 69.6999 200.9 69.6999C201.7 69.6999 202.4 69.5999 203 69.4999C203.6 69.3999 204 69.2999 204.1 69.2999C204.3 69.2999 204.4 69.3999 204.4 69.5999C204.4 69.9999 203.7 70.3999 202.2 70.7999C200.7 71.1999 199.1 71.3999 197.4 71.3999C195.4 71.3999 193.7 70.8999 192.3 69.9999C190.9 69.0999 190.2 67.6999 190.2 65.7999C190.2 64.6999 190.6 63.1999 191.4 61.3999C192.2 59.5999 193.2 57.5999 194.4 55.4999C195.6 53.3999 196.9 51.1999 198.3 48.9999C199.7 46.7999 201.1 44.6999 202.4 42.7999C203.7 40.8999 204.8 39.2999 205.8 37.9999C206.8 36.6999 207.4 35.8999 207.7 35.5999Z"/>
<path d="M93.9256 41.3085V44.7265H84.2577V69.9999H80.3124V44.7265H70.6444V41.3085H93.9256Z"/>
<path d="M107.658 58.2421L103.302 45.5663L98.6733 58.2421H107.658ZM101.271 41.3085H105.665L116.076 69.9999H111.818L108.908 61.4062H97.56L94.4546 69.9999H90.4702L101.271 41.3085Z"/>
<path d="M130.413 40.5663C133.108 40.5663 135.439 41.0871 137.405 42.1288C140.257 43.6262 142.002 46.2499 142.64 49.9999H138.792C138.323 47.9036 137.353 46.3801 135.882 45.4296C134.411 44.4661 132.555 43.9843 130.315 43.9843C127.659 43.9843 125.42 44.9804 123.597 46.9726C121.787 48.9647 120.882 51.9335 120.882 55.8788C120.882 59.2903 121.631 62.0702 123.128 64.2187C124.625 66.3541 127.067 67.4218 130.452 67.4218C133.043 67.4218 135.185 66.6731 136.878 65.1757C138.584 63.6653 139.456 61.2304 139.495 57.871H130.511V54.6483H143.108V69.9999H140.608L139.671 66.3085C138.356 67.7538 137.19 68.7564 136.175 69.3163C134.469 70.2799 132.301 70.7616 129.671 70.7616C126.273 70.7616 123.349 69.6614 120.901 67.4608C118.232 64.7004 116.898 60.9114 116.898 56.0937C116.898 51.289 118.2 47.4674 120.804 44.6288C123.278 41.9205 126.481 40.5663 130.413 40.5663Z"/>
<path d="M147.915 41.3085H168.833V44.8241H151.704V53.5351H167.544V56.8554H151.704V66.5819H169.126V69.9999H147.915V41.3085Z"/>
</mask>
<path d="M6.19986 66.4199C6.19986 69.1499 9.83986 69.2199 12.0799 69.2199C28.9499 69.2199 63.1099 52.3499 63.1099 41.7799C63.1099 37.4399 57.2999 34.8499 50.4399 32.9599C42.0399 30.6499 32.5199 29.3899 32.5199 23.2299C32.5199 11.4699 55.1299 2.0899 65.3499 1.73991C71.7199 1.5299 75.9899 3.0699 75.9199 8.4599C75.7799 16.7899 63.5999 25.8199 56.1799 25.8199C54.7799 25.8199 52.6799 25.2599 52.6799 23.7199C52.6799 20.8499 55.4099 17.8399 56.8099 16.9999C55.7599 18.1899 55.3399 19.6599 55.3399 20.6399C55.3399 21.0599 55.7599 21.0599 56.1799 21.0599C59.0499 21.0599 72.6999 13.2199 73.6099 6.8499C73.9599 4.60991 72.0699 3.97991 69.4099 3.97991C68.6399 3.97991 67.7299 4.0499 66.8199 4.1199C57.8599 5.0999 37.2799 16.6499 37.2799 23.8599C37.2799 27.9199 43.9999 29.6699 51.0699 31.6299C58.9799 33.7999 67.1699 36.3899 67.1699 44.1599C67.1699 59.4899 32.3099 74.4699 13.1999 74.4699C8.57986 74.4699 1.85986 73.1399 1.85986 67.6099C1.85986 57.2499 33.4999 40.5199 42.5299 40.7299C23.9799 45.7699 6.19986 61.2399 6.19986 66.4199Z" fill="url(#paint0_linear_708_1297)"/>
<path d="M207.7 35.5999H207.3C206.7 35.8999 206 36.2999 205.2 36.6999C204.4 37.0999 203.6 37.4999 202.8 37.8999C202 38.2999 201.2 38.5999 200.4 38.8999C199.6 39.1999 198.9 39.2999 198.2 39.2999C197.5 39.2999 197.1 39.0999 197.1 38.7999C197.2 38.4999 197.5 38.1999 198.1 37.9999C198.7 37.7999 199.6 37.3999 200.7 36.8999C201.8 36.3999 203.2 35.5999 204.9 34.5999C206.6 33.5999 208.5 32.1999 210.7 30.3999C211.7 29.2999 212.8 27.8999 214.1 26.2999C215.4 24.6999 216.7 23.1999 217.9 21.6999C219.1 20.1999 220.2 18.8999 221.2 17.8999C222.2 16.8999 223 16.3999 223.5 16.3999C223.6 16.3999 223.8 16.3999 224 16.4999C224.2 16.5999 224.3 16.8999 224.3 17.3999C224.3 19.2999 223.3 21.3999 221.2 23.7999C219.1 26.1999 216.6 28.7999 213.7 31.5999C211.4 35.6999 209.2 39.4999 207.2 43.0999C205.2 46.6999 203.5 49.9999 202 52.8999C200.5 55.7999 199.4 58.3999 198.6 60.5999C197.8 62.7999 197.4 64.5999 197.4 65.8999C197.4 67.1999 197.8 68.1999 198.5 68.7999C199.2 69.3999 200 69.6999 200.9 69.6999C201.7 69.6999 202.4 69.5999 203 69.4999C203.6 69.3999 204 69.2999 204.1 69.2999C204.3 69.2999 204.4 69.3999 204.4 69.5999C204.4 69.9999 203.7 70.3999 202.2 70.7999C200.7 71.1999 199.1 71.3999 197.4 71.3999C195.4 71.3999 193.7 70.8999 192.3 69.9999C190.9 69.0999 190.2 67.6999 190.2 65.7999C190.2 64.6999 190.6 63.1999 191.4 61.3999C192.2 59.5999 193.2 57.5999 194.4 55.4999C195.6 53.3999 196.9 51.1999 198.3 48.9999C199.7 46.7999 201.1 44.6999 202.4 42.7999C203.7 40.8999 204.8 39.2999 205.8 37.9999C206.8 36.6999 207.4 35.8999 207.7 35.5999Z" fill="url(#paint1_linear_708_1297)"/>
<path d="M93.9256 41.3085V44.7265H84.2577V69.9999H80.3124V44.7265H70.6444V41.3085H93.9256Z" fill="url(#paint2_linear_708_1297)"/>
<path d="M107.658 58.2421L103.302 45.5663L98.6733 58.2421H107.658ZM101.271 41.3085H105.665L116.076 69.9999H111.818L108.908 61.4062H97.56L94.4546 69.9999H90.4702L101.271 41.3085Z" fill="url(#paint3_linear_708_1297)"/>
<path d="M130.413 40.5663C133.108 40.5663 135.439 41.0871 137.405 42.1288C140.257 43.6262 142.002 46.2499 142.64 49.9999H138.792C138.323 47.9036 137.353 46.3801 135.882 45.4296C134.411 44.4661 132.555 43.9843 130.315 43.9843C127.659 43.9843 125.42 44.9804 123.597 46.9726C121.787 48.9647 120.882 51.9335 120.882 55.8788C120.882 59.2903 121.631 62.0702 123.128 64.2187C124.625 66.3541 127.067 67.4218 130.452 67.4218C133.043 67.4218 135.185 66.6731 136.878 65.1757C138.584 63.6653 139.456 61.2304 139.495 57.871H130.511V54.6483H143.108V69.9999H140.608L139.671 66.3085C138.356 67.7538 137.19 68.7564 136.175 69.3163C134.469 70.2799 132.301 70.7616 129.671 70.7616C126.273 70.7616 123.349 69.6614 120.901 67.4608C118.232 64.7004 116.898 60.9114 116.898 56.0937C116.898 51.289 118.2 47.4674 120.804 44.6288C123.278 41.9205 126.481 40.5663 130.413 40.5663Z" fill="url(#paint4_linear_708_1297)"/>
<path d="M147.915 41.3085H168.833V44.8241H151.704V53.5351H167.544V56.8554H151.704V66.5819H169.126V69.9999H147.915V41.3085Z" fill="url(#paint5_linear_708_1297)"/>
<path d="M6.19986 66.4199C6.19986 69.1499 9.83986 69.2199 12.0799 69.2199C28.9499 69.2199 63.1099 52.3499 63.1099 41.7799C63.1099 37.4399 57.2999 34.8499 50.4399 32.9599C42.0399 30.6499 32.5199 29.3899 32.5199 23.2299C32.5199 11.4699 55.1299 2.0899 65.3499 1.73991C71.7199 1.5299 75.9899 3.0699 75.9199 8.4599C75.7799 16.7899 63.5999 25.8199 56.1799 25.8199C54.7799 25.8199 52.6799 25.2599 52.6799 23.7199C52.6799 20.8499 55.4099 17.8399 56.8099 16.9999C55.7599 18.1899 55.3399 19.6599 55.3399 20.6399C55.3399 21.0599 55.7599 21.0599 56.1799 21.0599C59.0499 21.0599 72.6999 13.2199 73.6099 6.8499C73.9599 4.60991 72.0699 3.97991 69.4099 3.97991C68.6399 3.97991 67.7299 4.0499 66.8199 4.1199C57.8599 5.0999 37.2799 16.6499 37.2799 23.8599C37.2799 27.9199 43.9999 29.6699 51.0699 31.6299C58.9799 33.7999 67.1699 36.3899 67.1699 44.1599C67.1699 59.4899 32.3099 74.4699 13.1999 74.4699C8.57986 74.4699 1.85986 73.1399 1.85986 67.6099C1.85986 57.2499 33.4999 40.5199 42.5299 40.7299C23.9799 45.7699 6.19986 61.2399 6.19986 66.4199Z" stroke="black" stroke-width="2" mask="url(#path-1-outside-1_708_1297)"/>
<path d="M207.7 35.5999H207.3C206.7 35.8999 206 36.2999 205.2 36.6999C204.4 37.0999 203.6 37.4999 202.8 37.8999C202 38.2999 201.2 38.5999 200.4 38.8999C199.6 39.1999 198.9 39.2999 198.2 39.2999C197.5 39.2999 197.1 39.0999 197.1 38.7999C197.2 38.4999 197.5 38.1999 198.1 37.9999C198.7 37.7999 199.6 37.3999 200.7 36.8999C201.8 36.3999 203.2 35.5999 204.9 34.5999C206.6 33.5999 208.5 32.1999 210.7 30.3999C211.7 29.2999 212.8 27.8999 214.1 26.2999C215.4 24.6999 216.7 23.1999 217.9 21.6999C219.1 20.1999 220.2 18.8999 221.2 17.8999C222.2 16.8999 223 16.3999 223.5 16.3999C223.6 16.3999 223.8 16.3999 224 16.4999C224.2 16.5999 224.3 16.8999 224.3 17.3999C224.3 19.2999 223.3 21.3999 221.2 23.7999C219.1 26.1999 216.6 28.7999 213.7 31.5999C211.4 35.6999 209.2 39.4999 207.2 43.0999C205.2 46.6999 203.5 49.9999 202 52.8999C200.5 55.7999 199.4 58.3999 198.6 60.5999C197.8 62.7999 197.4 64.5999 197.4 65.8999C197.4 67.1999 197.8 68.1999 198.5 68.7999C199.2 69.3999 200 69.6999 200.9 69.6999C201.7 69.6999 202.4 69.5999 203 69.4999C203.6 69.3999 204 69.2999 204.1 69.2999C204.3 69.2999 204.4 69.3999 204.4 69.5999C204.4 69.9999 203.7 70.3999 202.2 70.7999C200.7 71.1999 199.1 71.3999 197.4 71.3999C195.4 71.3999 193.7 70.8999 192.3 69.9999C190.9 69.0999 190.2 67.6999 190.2 65.7999C190.2 64.6999 190.6 63.1999 191.4 61.3999C192.2 59.5999 193.2 57.5999 194.4 55.4999C195.6 53.3999 196.9 51.1999 198.3 48.9999C199.7 46.7999 201.1 44.6999 202.4 42.7999C203.7 40.8999 204.8 39.2999 205.8 37.9999C206.8 36.6999 207.4 35.8999 207.7 35.5999Z" stroke="black" stroke-width="2" mask="url(#path-1-outside-1_708_1297)"/>
<path d="M93.9256 41.3085V44.7265H84.2577V69.9999H80.3124V44.7265H70.6444V41.3085H93.9256Z" stroke="black" stroke-width="2" mask="url(#path-1-outside-1_708_1297)"/>
<path d="M107.658 58.2421L103.302 45.5663L98.6733 58.2421H107.658ZM101.271 41.3085H105.665L116.076 69.9999H111.818L108.908 61.4062H97.56L94.4546 69.9999H90.4702L101.271 41.3085Z" stroke="black" stroke-width="2" mask="url(#path-1-outside-1_708_1297)"/>
<path d="M130.413 40.5663C133.108 40.5663 135.439 41.0871 137.405 42.1288C140.257 43.6262 142.002 46.2499 142.64 49.9999H138.792C138.323 47.9036 137.353 46.3801 135.882 45.4296C134.411 44.4661 132.555 43.9843 130.315 43.9843C127.659 43.9843 125.42 44.9804 123.597 46.9726C121.787 48.9647 120.882 51.9335 120.882 55.8788C120.882 59.2903 121.631 62.0702 123.128 64.2187C124.625 66.3541 127.067 67.4218 130.452 67.4218C133.043 67.4218 135.185 66.6731 136.878 65.1757C138.584 63.6653 139.456 61.2304 139.495 57.871H130.511V54.6483H143.108V69.9999H140.608L139.671 66.3085C138.356 67.7538 137.19 68.7564 136.175 69.3163C134.469 70.2799 132.301 70.7616 129.671 70.7616C126.273 70.7616 123.349 69.6614 120.901 67.4608C118.232 64.7004 116.898 60.9114 116.898 56.0937C116.898 51.289 118.2 47.4674 120.804 44.6288C123.278 41.9205 126.481 40.5663 130.413 40.5663Z" stroke="black" stroke-width="2" mask="url(#path-1-outside-1_708_1297)"/>
<path d="M147.915 41.3085H168.833V44.8241H151.704V53.5351H167.544V56.8554H151.704V66.5819H169.126V69.9999H147.915V41.3085Z" stroke="black" stroke-width="2" mask="url(#path-1-outside-1_708_1297)"/>
<defs>
<linearGradient id="paint0_linear_708_1297" x1="121" y1="28" x2="121" y2="84" gradientUnits="userSpaceOnUse">
<stop stop-color="#E5FFB0"/>
<stop offset="1" stop-color="#ABFF00"/>
</linearGradient>
<linearGradient id="paint1_linear_708_1297" x1="121" y1="28" x2="121" y2="84" gradientUnits="userSpaceOnUse">
<stop stop-color="#E5FFB0"/>
<stop offset="1" stop-color="#ABFF00"/>
</linearGradient>
<linearGradient id="paint2_linear_708_1297" x1="121" y1="28" x2="121" y2="84" gradientUnits="userSpaceOnUse">
<stop stop-color="#E5FFB0"/>
<stop offset="1" stop-color="#ABFF00"/>
</linearGradient>
<linearGradient id="paint3_linear_708_1297" x1="121" y1="28" x2="121" y2="84" gradientUnits="userSpaceOnUse">
<stop stop-color="#E5FFB0"/>
<stop offset="1" stop-color="#ABFF00"/>
</linearGradient>
<linearGradient id="paint4_linear_708_1297" x1="121" y1="28" x2="121" y2="84" gradientUnits="userSpaceOnUse">
<stop stop-color="#E5FFB0"/>
<stop offset="1" stop-color="#ABFF00"/>
</linearGradient>
<linearGradient id="paint5_linear_708_1297" x1="121" y1="28" x2="121" y2="84" gradientUnits="userSpaceOnUse">
<stop stop-color="#E5FFB0"/>
<stop offset="1" stop-color="#ABFF00"/>
</linearGradient>
</defs>
</svg>
