<svg width="32" height="56" viewBox="0 0 32 56" fill="none" xmlns="http://www.w3.org/2000/svg">
<path d="M11.9336 0C8.20529 4.35259e-05 4.28388 0.987276 0.90625 2.86719V12.1104C3.05448 9.30087 6.87049 7.37741 11.2715 7.20117L11.9336 7.1875C19.0463 7.1875 24.8125 11.7451 24.8125 17.3672L24.8086 17.6299C24.6322 23.1306 18.9351 27.5469 11.9336 27.5469C19.0462 27.5469 24.8124 32.1044 24.8125 37.7266L24.8086 37.9893C24.6378 43.3153 19.2915 47.6253 12.5967 47.8936L11.9336 47.9062C7.25591 47.9062 3.16177 45.9341 0.90625 42.9854V52.2266C4.28393 54.1065 8.20537 55.0947 11.9336 55.0947C21.3484 55.0947 31.9998 48.8021 32 37.7266C32 33.6647 30.5659 30.2475 28.2871 27.5469C30.5659 24.8462 31.9999 21.429 32 17.3672C32 6.29158 21.3485 0 11.9336 0Z" fill="url(#paint0_linear_705_89)"/>
<defs>
<linearGradient id="paint0_linear_705_89" x1="16.4531" y1="0" x2="16.4531" y2="55.0947" gradientUnits="userSpaceOnUse">
<stop stop-color="#E5FFB0"/>
<stop offset="1" stop-color="#ABFF00"/>
</linearGradient>
</defs>
</svg>
